<?xml version="1.0" encoding="UTF-8"?>
<svg width="78px" height="103px" viewBox="0 0 78 103" version="1.1" xmlns="http://www.w3.org/2000/svg" xmlns:xlink="http://www.w3.org/1999/xlink">
    <!-- Generator: Sketch 40.3 (33839) - http://www.bohemiancoding.com/sketch -->
    <title>plan-marker-free</title>
    <desc>Created with Sketch.</desc>
    <defs></defs>
    <g id="Page-1" stroke="none" stroke-width="1" fill="none" fill-rule="evenodd">
        <g id="plan-marker-free">
            <polygon id="Rectangle-2" fill="#FFFFFF" points="8 48.4408247 70.0938857 48.4408247 39.0469429 99.4294267"></polygon>
            <path d="M77.5146484,39 C77.5146484,60.2707845 60.2707845,77.5146484 39,77.5146484 C17.7292155,77.5146484 0.485351562,60.2707845 0.485351562,39 C0.485351562,17.7292155 17.7292155,0.485351562 39,0.485351562 C60.2707845,0.485351562 77.5146484,17.7292155 77.5146484,39" id="Fill-1" fill="#FFFFFF"></path>
            <polygon id="Rectangle-2" fill="#58CAE7" points="52.2092443 68 39.1046222 102.963613 26 68"></polygon>
            <g id="Page-1" transform="translate(5.000000, 5.000000)">
                <path d="M67.9277344,33.9638672 C67.9277344,52.7215903 52.7215903,67.9277344 33.9638672,67.9277344 C15.2061441,67.9277344 0,52.7215903 0,33.9638672 C0,15.2061441 15.2061441,0 33.9638672,0 C52.7215903,0 67.9277344,15.2061441 67.9277344,33.9638672 L67.9277344,33.9638672 Z" id="Fill-1" fill="#58CAE7"></path>
                <g id="Group-8" transform="translate(21.186879, 9.056641)" fill="#EA0B8B">
                    <path d="M29.3570792,3.99494167 C29.3570792,3.99494167 29.3646962,4.0120358 29.3762104,4.03754413 C29.3880789,4.06314103 29.4029587,4.09750643 29.4138529,4.13275752 C29.4376784,4.20370257 29.4616811,4.27447048 29.4616811,4.27447048 C29.4407784,3.59229973 29.1970321,3.09258441 28.9060777,2.7070366 C28.6075948,2.31971737 28.2605752,2.02309444 27.8213536,1.71832301 C27.8760016,1.65109792 27.7130317,1.43595994 27.4373115,1.24544458 C27.1652226,1.05280353 26.7891518,0.889656487 26.5272486,0.823759961 L26.5515169,0.802503018 C26.4532921,0.780891792 26.3574587,0.75396633 26.261271,0.741566446 C26.1648177,0.731026545 26.0700471,0.720752355 25.9766937,0.710566737 C25.7965411,0.695421164 25.6527025,0.695775447 25.4953125,0.691346917 C25.1899211,0.679567027 24.8940953,0.6992297 24.6024323,0.723320903 C24.0174235,0.759103425 23.4608459,0.845459758 22.8235804,0.897982123 C22.0275079,0.713312425 20.1441427,0.988235563 18.8731546,1.03827795 C19.0698699,1.04757786 18.858629,1.1842423 18.6373796,1.23021044 C18.3371253,1.22994473 17.8381186,1.45765974 17.8626526,1.2848585 L17.9683173,1.27502716 C17.7238625,1.13853987 17.1231767,1.27644429 16.6492354,1.34092369 L16.6045073,1.57023297 C15.9609533,1.49468225 15.1607179,1.68147764 14.4300991,1.83718475 C13.7033773,2.00910028 13.0499034,2.17658728 12.6877382,2.09988515 C12.4036038,2.21573549 12.0381615,2.29350047 11.7574812,2.40935082 L11.7487128,2.2904005 C10.9236776,2.43220203 10.5157215,2.51590125 9.51691082,2.78019591 L9.7019348,2.64698573 C9.13331155,2.78152447 9.0683893,3.15759523 8.55095987,3.29496823 L8.3505246,3.16370661 C7.85674352,3.28743973 7.35410537,3.37902173 6.86112142,3.49248067 C6.32305503,3.61523952 5.78498865,3.85411442 5.37304679,4.22194812 C5.37464106,4.19165697 5.37145252,4.12629187 5.5257425,4.02833279 C5.29528181,4.15667159 4.85287167,4.42893761 4.54996022,4.73052049 C4.26591431,5.00641791 4.09701018,5.27443254 4.19558925,5.31110077 C4.11428144,5.32403207 3.95148868,5.5311987 3.80304436,5.8140932 C3.71792802,5.97334313 3.64246587,6.15792426 3.58073216,6.337634 C3.5643466,6.38209645 3.55026387,6.42691317 3.53759828,6.47137561 L3.51820132,6.53700642 C3.51368422,6.55348055 3.51669562,6.55445483 3.51448135,6.56588044 C3.51412707,6.5852774 3.50491573,6.59838585 3.49809579,6.61733995 C3.47772455,6.65303391 3.45823902,6.68731073 3.4396392,6.71972757 L3.40128813,6.57535749 C3.30731472,6.82583514 3.28269209,6.96187958 3.23450969,7.11112104 C3.1896044,7.26115964 3.11972219,7.42448382 3.01529746,7.75060076 C2.94692096,7.89815938 2.87703875,7.85369694 2.98314633,7.65919591 C2.8548961,7.90418218 2.85657894,8.01976681 2.8494933,8.1418171 C2.84816474,8.26670164 2.83700484,8.39902612 2.76402267,8.71956311 C2.76402267,8.71956311 2.75374848,8.65623513 2.74347429,8.59299573 C2.74276573,8.5879472 2.7422343,8.58289868 2.74152574,8.57793872 C2.72319162,8.69467477 2.70361752,8.81132225 2.68298057,8.92770402 C2.68360057,8.93735821 2.68413199,8.94701241 2.68484055,8.95613518 C2.69396333,9.04869146 2.71832024,9.11334799 2.74489142,9.26117232 C2.75374848,9.59278064 2.6024699,10.2426231 2.48909953,10.3078111 C2.54507615,10.3848675 2.60069849,10.6788333 2.53825621,10.9817448 C2.49450234,11.0187673 2.4816596,10.9045998 2.4756368,10.8472946 C2.30558125,11.7079351 2.47430824,12.1536224 2.29796418,12.7392512 C2.25837312,12.7476654 2.23516763,12.7845993 2.21833921,12.8329589 C2.28760142,12.1995905 2.34765229,11.6810982 2.35925503,11.6408872 C2.27635295,11.6377872 2.21107642,11.9735583 2.13844853,11.8957933 C2.12888291,11.9748869 2.11976014,12.0539804 2.11019451,12.133074 C2.14526847,12.569107 2.17688817,13.1043392 2.09717463,13.504324 C2.08406618,13.5295666 2.07131202,13.5542778 2.05280076,13.5724348 L2.04668939,13.5149525 C2.0228639,13.6393056 2.02100392,13.7527645 2.02782385,13.8603778 C1.9921299,14.0321162 1.96750728,14.1409695 1.94837603,14.3074822 C1.85183407,14.3628388 1.83721993,14.9428876 1.80692878,15.2208222 C1.92579052,15.209308 1.87247102,15.571916 2.00125267,15.240042 C1.98867565,15.2834416 1.99230704,15.1860139 2.00506121,15.0004585 C2.00550406,14.9582989 2.00851546,14.9088765 2.0041755,14.8806225 C2.00656691,14.886291 2.00948974,14.8931995 2.01267828,14.9005509 C2.02605244,14.7174755 2.04660082,14.4789549 2.07405771,14.2083717 C2.10957452,14.433961 2.13605713,14.6684074 2.04296943,14.9697245 C2.10443742,15.1201174 2.16661398,15.2848587 2.19442515,15.3768836 C1.99549559,15.7416173 1.83783992,16.4673648 1.72774667,16.5600982 C1.71180396,17.4166645 1.58311088,18.5656908 1.75228072,19.1204971 C1.75794924,19.3646862 1.66344441,19.3922317 1.62057624,19.479208 C1.61163061,19.3377608 1.63040758,19.1722223 1.60596209,19.0938373 C1.61729913,19.5820385 1.49383172,20.5264668 1.63713894,20.6563113 C1.51420295,21.2595656 1.52633713,20.3005232 1.47744615,21.1406153 L1.44051222,21.0233478 C1.05815294,22.6241728 1.57124242,23.6999513 1.15248063,25.4459435 C1.16930904,25.3791613 1.18232892,25.3412531 1.20243445,25.3238932 C0.896600169,27.3945852 0.980565097,29.6224901 0.602014358,31.6614738 C0.513355189,32.2432055 0.60662003,32.314062 0.654271012,32.6763158 L0.519023708,32.7938489 L0.617868496,33.4143746 C0.6540053,34.2852007 0.206280924,34.8944778 0.341351087,36.0040017 L0.434438786,35.8670716 C0.39511344,36.2602365 0.410170442,37.117157 0.316551319,37.0467434 C0.329571197,37.0878401 0.397061993,37.1800421 0.343742493,37.3320293 L0.277137403,37.3410635 L0.342502505,38.3131258 C0.306542842,38.6475684 0.250389082,38.6570454 0.194589605,38.6631568 C0.223109338,39.1518894 0.241443452,39.6405333 0.251717641,40.1294431 C0.272177449,39.99889 0.308048542,39.8746254 0.353928112,39.8678055 L0.37731075,40.2413077 C0.389356351,40.246002 0.401224812,40.2514933 0.413270413,40.2574276 C0.412738989,40.2769131 0.412296136,40.2972843 0.411676142,40.3165927 C0.366150854,42.0137825 0.328065497,43.4365806 0.300697182,44.4554082 C0.306542842,44.5048306 0.311679936,44.554253 0.317879878,44.6035868 C0.384839251,45.1350104 0.475358403,45.6644855 0.6067086,46.1838635 C0.640896851,46.3189336 0.680045056,46.4524095 0.717953272,46.5864168 C0.730353156,46.6303478 0.744613022,46.6739246 0.758518606,46.7174127 C0.767109954,46.7431868 0.77685272,46.7718837 0.781369821,46.7834864 C0.785001215,46.7925206 0.78863261,46.8015548 0.792175434,46.810589 C1.01687904,47.0180214 1.21084865,47.1314803 1.28746222,47.2922359 L1.23254845,47.2600848 C1.64785599,47.5728276 1.68585277,47.5588334 1.70710972,47.5188881 C1.71623249,47.4997568 1.72269814,47.4753114 1.76689487,47.4718571 C1.89558795,47.5667162 2.028001,47.6551097 2.16315973,47.738366 C2.17750817,47.7693657 2.19274231,47.8021369 2.20797645,47.8349966 C2.27945292,47.9643096 2.35978646,48.093357 2.35978646,48.093357 L2.50911649,48.0278147 C2.60016706,48.0806028 2.78102822,48.1858247 2.72576017,48.2141673 C3.12592214,48.2818352 2.68670054,48.139768 2.93026968,48.148625 C3.03522584,48.2213415 3.17073886,48.2870609 3.31440037,48.3479089 C3.46036472,48.4014941 3.61899466,48.4363024 3.76230189,48.4773991 C3.77169037,48.4799677 3.78054743,48.4825362 3.78975877,48.4851048 C3.92872604,48.5160159 4.06760474,48.5468385 4.20648344,48.5765982 C4.22880323,48.5718154 4.28920838,48.5717268 4.41400435,48.5784582 C4.42312712,48.5971466 4.43534986,48.6128236 4.44898974,48.627172 C4.58397133,48.6543632 4.71904149,48.6792515 4.85420023,48.7014827 C4.94542794,48.6973199 5.04294417,48.6916514 5.14435751,48.6937771 C5.25560218,48.6920057 5.37074396,48.6883743 5.48650573,48.7130855 C5.45550602,48.7385938 5.40936074,48.7558651 5.36135547,48.768265 C5.46808304,48.778362 5.57489919,48.7855362 5.68189247,48.7895219 C5.72112924,48.7882819 5.76018888,48.7870419 5.80225991,48.7889019 C5.85974223,48.7865991 5.91943881,48.7858905 5.98037539,48.7865991 C6.01057796,48.7870419 6.04122339,48.7877505 6.07195738,48.7884591 C6.27876973,48.7787163 6.48637922,48.7540051 6.69505155,48.7102512 C6.76475661,48.6243377 7.1205447,48.5562269 7.50759822,48.4251425 C7.90102882,48.2308186 8.26691396,47.9742295 8.61667925,47.7161348 C9.09868045,47.3603467 9.57758168,47.0024329 10.0793341,46.6770246 C10.1190137,46.628045 10.1599334,46.5784455 10.2007644,46.5289345 C10.2781751,46.4255726 10.3488544,46.3148594 10.4025282,46.2081318 C10.456202,46.2564028 10.4618705,46.3308907 10.397214,46.4781836 C10.4151053,46.4672894 10.4331737,46.4564838 10.4511535,46.4456781 C10.4572649,46.4367325 10.4632877,46.4278755 10.4693105,46.4187527 C10.5359156,46.3203508 10.5924236,46.2138889 10.5924236,46.2138889 C10.6009264,46.0906872 10.6515888,45.9490628 10.7194338,45.6577541 C10.7194338,45.6577541 10.7386537,45.6938023 10.7578735,45.7300277 C10.7759419,45.7671388 10.7939217,45.804427 10.7939217,45.804427 C10.8945379,45.4987699 10.8988779,45.1789414 10.9117206,44.8801042 C10.9258919,44.5721443 10.9483888,44.2461159 11.019511,43.8851021 C10.949806,43.8519767 10.8138501,44.1154743 10.7331623,44.0472749 C10.7457393,43.9163676 10.757342,43.7861688 10.7684134,43.6563243 C10.8036645,43.6721784 10.8327156,43.7165523 10.8358156,43.8219513 C10.8340442,43.7555234 10.808713,43.583785 10.8433441,43.4533205 L10.9146434,43.7681004 C10.9856771,43.4406549 10.8481269,43.5882135 10.8785952,43.3248045 C10.9604344,43.3364073 10.9513117,43.1334035 11.0138425,43.1760945 C11.0171196,43.2443824 10.9630915,43.4046066 10.9868285,43.5085 C11.0262424,43.2110799 11.0980731,42.852989 11.1678668,42.73705 C11.1195958,42.7603441 11.0571535,42.730053 11.0596335,42.5108407 C11.0854075,41.9451403 11.1697268,42.3227168 11.2295119,41.9950056 C11.1797352,41.855064 11.2561717,41.4975931 11.13359,41.4823589 C11.1420927,41.3172633 11.2009036,41.2893636 11.237129,41.2271871 C11.1962979,40.9330441 11.2863742,39.8643513 11.1397013,40.1865711 L11.1275672,40.261059 C11.1266814,40.2469762 11.12553,40.230325 11.1243786,40.2130537 C11.0484736,39.2509113 11.2837171,38.2280094 11.264763,37.2755212 L11.3059483,37.2785326 C11.2787572,36.7096437 11.3201196,36.015073 11.2427089,35.6074711 C11.2474917,35.439807 11.328711,35.2137748 11.3758305,35.2866684 C11.3570536,34.8522296 11.311174,34.8025415 11.3941647,34.177676 C11.4558984,34.6154804 11.4615669,34.0287002 11.4361471,34.6258432 C11.4855695,34.0630656 11.5535917,33.9365868 11.4530641,33.3290811 C11.5546546,33.5371334 11.5941571,32.9069536 11.5666116,32.6382304 L11.4844181,33.0320153 C11.4747639,32.730521 11.4875181,32.4672006 11.5007151,32.1996288 L11.6373795,32.3465674 C11.8059294,31.3023201 11.4551898,30.4404396 11.6000913,29.6359528 C11.6007113,29.5354252 11.6153254,29.4350747 11.6403909,29.3363185 C11.5682944,29.2213538 11.5808715,29.9908552 11.477421,29.7389604 C11.4878723,29.4736915 11.5440261,29.2031083 11.5967256,28.9778733 C11.6101883,28.9215424 11.6230311,28.8681343 11.6349881,28.8182691 C11.6471223,28.7818665 11.6582822,28.776198 11.6678478,28.759281 C11.6868905,28.7320013 11.6994675,28.71721 11.6995561,28.7039244 C11.7044275,28.6915245 11.7078817,28.6804532 11.710096,28.6697362 C11.7184216,28.6632705 11.7332129,28.6621191 11.7418043,28.6573363 C11.7607584,28.6492763 11.7740439,28.6390907 11.7882152,28.6254509 C11.8015008,28.6121653 11.8128379,28.5965768 11.8247949,28.5790399 C11.8464061,28.5575172 11.8925514,28.5243032 11.9237283,28.4969349 C12.062607,28.3817931 12.2045856,28.2624 12.5655108,28.1428297 C12.4567461,28.133884 12.3201703,28.0471734 12.8273255,27.788813 C12.9632814,27.7384163 13.0748803,27.7121108 13.1606167,27.7027224 C14.4466618,26.8458904 16.0198527,26.3760234 17.4848104,26.0196153 C17.8996751,25.9186448 18.3176398,25.8296313 18.736933,25.745755 C19.0064533,25.6720642 19.3981125,25.457192 19.5126343,25.5416883 C19.3214989,25.5980192 19.2305369,25.6324732 19.1925401,25.6562987 C19.4575434,25.6053706 19.7228123,25.5555939 19.9880813,25.5056401 C20.0570778,25.4416921 20.1701824,25.3673814 20.4584797,25.2728766 C20.382929,25.3754413 20.6788434,25.3484273 20.7994765,25.2922735 C20.4893023,25.3922697 20.6142754,25.2230113 20.8837957,25.0750984 C21.4018452,24.9800622 21.4040594,24.8930858 21.6891682,24.8121323 C21.6891682,24.8121323 21.6680884,24.8168265 21.6365572,24.8240008 C21.6046718,24.8320607 21.5623351,24.8402978 21.5254897,24.8459663 C21.4487876,24.8592519 21.372174,24.8725375 21.372174,24.8725375 C21.4151307,24.8219636 21.4928072,24.7880411 21.6185774,24.7399473 C21.7442591,24.6926506 21.9038633,24.6390654 22.077816,24.5485462 C22.1326412,24.5885801 21.7618846,24.7215246 21.9013833,24.6914992 C22.0831302,24.5504948 22.3177537,24.4848639 22.5692942,24.3730878 C22.8233147,24.2704345 23.0861922,24.1103875 23.2824647,23.8649583 C23.5161139,23.6871971 23.4008836,23.942369 23.6041531,23.7724906 C23.801577,23.4637335 23.9222987,23.3144035 24.0511689,23.154445 C24.1709163,22.9920065 24.3056322,22.8179653 24.3923428,22.4379974 C24.2243244,22.61629 24.2502756,22.6511868 24.3069608,22.1249003 C24.3069608,22.1249003 24.2966866,22.2005396 24.2647126,22.3101015 C24.2370786,22.4210804 24.1965133,22.5683733 24.1398281,22.7108834 C24.0922657,22.8571135 24.0196378,22.9928036 23.9725182,23.0986455 C23.9222987,23.2028045 23.8804934,23.2679039 23.8804934,23.2679039 C23.8804934,23.2679039 23.8997132,23.2216701 23.92841,23.1524079 C23.9545384,23.0819942 23.983501,22.985718 24.013615,22.8921874 C24.0464747,22.7998083 24.0620631,22.7007864 24.0796886,22.6301956 C24.0952771,22.559162 24.1057284,22.5117767 24.1057284,22.5117767 C23.9811981,22.8466622 23.8200882,23.2209615 23.6797924,23.3901313 C23.8170768,23.0393918 23.810434,23.0884599 23.6510955,23.1837619 C23.7499403,23.1054654 23.8246053,23.0083035 23.8795191,22.8995388 C23.9409871,22.7941398 23.977301,22.6753666 24.0127293,22.5557963 C24.0834972,22.3147071 24.1199883,22.0644952 24.2205159,21.8017948 L24.4605422,21.8626428 C24.5949924,21.431304 24.5645241,21.0153765 24.4655907,20.6009546 C24.3656831,20.1884813 24.2065217,19.7668853 23.9586126,19.2657529 C23.9717211,19.2940069 23.9988237,19.3546777 24.0203463,19.4186257 C24.0487775,19.5054249 24.0772972,19.5924898 24.0772972,19.5924898 C23.9408985,19.4920507 23.7462203,18.9836555 23.4744857,18.7334436 C23.5580964,18.7083781 23.4370204,18.5101571 23.3558011,18.3641042 C23.3381756,18.3962553 23.1961969,18.2385111 23.0086044,18.1125637 C22.8279204,17.9771392 22.606671,17.8766116 22.5228832,17.9203655 C22.5228832,17.9203655 22.4999434,17.8980457 22.4654895,17.8646546 C22.4304155,17.8320606 22.3800188,17.7937981 22.3303307,17.752967 C22.2795798,17.7124903 22.2289174,17.6721021 22.1909206,17.6418109 C22.1530124,17.6101027 22.1250241,17.5941599 22.1250241,17.5941599 C22.0197137,17.5472175 21.9232603,17.5096636 21.8346011,17.4796382 C21.7447019,17.4529784 21.6602942,17.4404014 21.5833263,17.4283558 C21.4296563,17.4007218 21.2948519,17.4153359 21.1661588,17.4226873 C20.9077098,17.4438556 20.6628121,17.4913295 20.2491874,17.5023122 C20.4955908,17.4008103 20.0966688,17.3564365 20.6847776,17.2753944 C20.5368647,17.2771658 20.3958603,17.2790258 20.291967,17.2856686 C20.1952479,17.295677 20.136437,17.3118854 20.1362599,17.340228 C20.0557492,17.3211854 19.8717881,17.3636107 19.6774642,17.404796 C19.4837603,17.4535984 19.2795165,17.5002751 19.1522405,17.4767153 C19.0445387,17.5276434 19.0173475,17.6144426 18.7203703,17.6495166 C18.6987591,17.6419881 18.7028333,17.6285253 18.7087675,17.6191369 C18.6532338,17.6616507 18.2805287,17.7330386 18.5310063,17.7829039 C18.1066646,17.707796 17.5401671,17.8038066 16.9892579,17.9056627 C16.437906,18.0063675 15.900371,18.1056552 15.5291716,18.0587127 C14.9625855,18.1926315 14.2792633,18.3471872 13.762011,18.4499291 C13.7905308,18.4194608 13.7559882,18.4091866 13.8556302,18.3992667 C13.1262513,18.4609118 13.4594539,18.7066067 12.6326473,18.7888002 C12.1921857,18.742832 13.0492834,18.6303474 12.7811802,18.6336245 C12.6986324,18.5121942 12.4551519,18.5711822 12.1604775,18.6551471 C12.1252264,18.6654213 12.0891781,18.6758727 12.0525099,18.6865011 L11.9958247,18.7071381 C11.9566765,18.7208665 11.9145169,18.7338864 11.8731544,18.7435406 C11.7922009,18.7615204 11.7080589,18.7712632 11.6918504,18.7297236 C11.6883076,18.7349493 11.7628841,18.7002296 11.7610241,18.7015581 C11.7548241,18.6969525 11.7480928,18.6936754 11.7405643,18.6915497 L11.7286958,18.6891583 C11.7261273,18.6866783 11.7301129,18.6762269 11.7301129,18.670647 C11.7337443,18.6438987 11.7338329,18.6208703 11.7314415,18.5985505 C11.7266587,18.553911 11.7116902,18.5107771 11.6945076,18.4519662 L11.6813991,18.4051123 C11.6769706,18.3829697 11.6724535,18.384564 11.6682021,18.3358501 C11.6606736,18.2583509 11.6527908,18.1789916 11.6448194,18.0979495 C11.6314453,17.9358653 11.6235625,17.7671383 11.6290539,17.5932742 C11.6290539,17.5932742 11.6528794,17.6271968 11.6699735,17.5976142 C11.5336633,17.1209272 11.4915037,16.22105 11.4557212,15.5526077 C11.5609431,15.7603057 11.5107236,15.8563162 11.6188683,15.7289517 C11.6048741,15.4292288 11.4455356,15.817168 11.4177244,15.2192279 C11.4765353,15.0244612 11.5289691,14.5925024 11.6441995,14.5342229 L11.6481851,15.0988605 C11.7981352,14.8086146 11.6460594,14.3677102 11.6729849,14.0700244 L11.7378186,14.1074012 C11.7193959,13.6726967 11.6657221,13.4526873 11.618514,13.2256809 C11.5946885,13.1119562 11.5717487,12.9964602 11.5541232,12.8510273 C11.550226,12.8146247 11.5462404,12.7764508 11.5419004,12.735974 C11.5389776,12.7009001 11.5358776,12.6638776 11.5325119,12.6245522 C11.5277291,12.5662728 11.5248063,12.4997563 11.5243634,12.423497 C11.5242749,12.4215484 11.4760925,12.466808 11.476181,12.4688451 C11.4544812,12.4150828 11.4395128,12.3651289 11.4295929,12.3222608 C11.4273786,12.3116323 11.4252529,12.3012695 11.4231272,12.2913496 C11.4244558,12.2834669 11.4348186,12.281784 11.4402214,12.2771783 C11.453507,12.2693841 11.4668811,12.2626528 11.4801667,12.2569842 C11.5333976,12.2338673 11.5837943,12.2268702 11.6308253,12.2226189 C11.6783877,12.2181903 11.722673,12.2164189 11.7720954,12.2005648 C11.8286034,12.1818764 11.9168198,12.1381225 12.0196502,12.0630146 L12.2231855,12.1570766 C12.5144942,11.9887925 13.2492758,11.5742821 13.7969079,11.326373 C13.5238447,11.563565 12.8949049,11.8776364 12.5206055,12.1066799 C12.6204246,12.0663803 12.7656804,12.0072152 12.9204132,11.9411415 C13.1225313,11.7880915 13.3384664,11.653907 13.5649415,11.5369053 C13.8689157,11.3393928 14.2572093,11.1556089 14.7269877,10.9824533 C14.7261906,11.0474642 14.7893414,11.0668611 14.8930576,11.0582698 C14.9920795,11.0352414 15.0917214,11.0147816 15.1918062,10.9961818 C15.1937548,10.9955618 15.1955262,10.9952075 15.1974747,10.9946761 C16.8826189,10.1951493 18.7467643,9.5407897 20.6383666,9.26657513 C20.661395,9.23991538 20.6668863,9.20864996 20.6422637,9.17109602 C20.9400381,9.07003697 21.0581027,9.04302294 21.0909624,9.05267713 L21.0240916,9.05834565 C21.052877,9.05630853 21.0690854,9.05515711 21.0936195,9.0533857 L21.0934423,9.05267713 L22.0560276,8.96986362 C22.2922454,8.98757774 21.7789788,9.09678529 21.8206069,9.14541055 C22.2828569,9.04514863 22.2527429,9.09837956 22.3380364,9.12911356 C22.41403,9.12796214 22.4900235,9.12743072 22.5659285,9.12787357 C22.5086234,9.05958564 22.8071948,8.95480662 23.1760914,8.9108756 C23.1760914,8.9108756 23.0346441,8.91114132 22.8931969,8.91140703 C22.7521925,8.91308987 22.6112767,8.91468414 22.6112767,8.91468414 C23.5228453,8.57315591 23.4746629,8.9476324 24.3890657,8.64348097 L24.1052855,8.77642544 C24.2237044,8.74294575 24.3940257,8.70618895 24.5899439,8.66544648 C24.6894972,8.64720093 24.7954276,8.62780397 24.9045466,8.60778702 C24.9590175,8.5976014 25.0143742,8.58715007 25.0700851,8.57669874 L25.1537843,8.56049032 C25.1758384,8.55597322 25.224995,8.54711616 25.2172008,8.54711616 C25.3241055,8.53179344 25.4309217,8.51647073 25.5346379,8.50167944 C25.6450854,8.48440817 25.7520787,8.46554264 25.852252,8.44472854 C25.9455169,8.42586301 26.0593301,8.39743184 26.1560492,8.36572357 C26.2525911,8.33596385 26.3344304,8.30195274 26.3964298,8.25952742 C26.4989945,8.26696735 26.6502731,8.304787 26.4028954,8.37847774 C27.0961375,8.26271596 27.7962881,7.8429799 28.2768722,7.30500208 C28.5193785,7.03672174 28.7175995,6.74815873 28.8764065,6.4659728 C29.0266223,6.17935834 29.158061,5.90948373 29.2549573,5.66148606 L29.2842741,5.77955066 C29.3127053,5.65271757 29.3208538,5.53872721 29.3223595,5.41756263 C29.3284709,5.29692947 29.3459193,5.17399348 29.3904703,5.0190835 C29.4142958,5.03786047 29.4407784,5.1293539 29.4577839,5.01075787 C29.4676153,4.86824777 29.3818789,4.32814426 29.3570792,3.99494167 M1.88354235,14.6523761 C1.88454235,14.4655807 1.91934235,14.4060613 1.94894235,14.3830329 C1.94074235,14.4705406 1.93284235,14.5731054 1.92804235,14.708087 C1.93234235,14.7139327 1.93684235,14.7254468 1.94184235,14.7313811 C1.91854235,14.7115412 1.89704235,14.6892215 1.88354235,14.6523761" id="Shape"></path>
                    <path d="M0.794571971,46.196808 C0.79393556,46.1958881 0.70908076,46.1194082 0.616801166,45.9795892 L0.527703626,45.8441066 C0.580101465,45.99273 0.635469222,46.1408278 0.694655444,46.2885314 L0.823422603,46.2199359 L0.794571971,46.196808 L0.794571971,46.196808 Z" id="Shape"></path>
                    <path d="M0.490944509,45.2645892 L0.507404684,44.7170458 C0.50880982,44.6672691 0.510315324,44.6172267 0.51111826,44.5673615 L0.640390851,40.3216413 L0.646011398,40.14884 L0.593619867,40.1259888 L0.560799884,39.663916 L0.344609541,39.6925243 C0.312893595,39.6966871 0.283385721,39.7062527 0.256487387,39.721044 C0.252372343,39.6965985 0.248658767,39.6716216 0.244844824,39.646999 C0.291415075,40.8930102 0.271241324,42.1397299 0.201787416,43.3857411 C0.202188884,43.3927382 0.202590352,43.3998238 0.203092186,43.4067323 C0.202690718,43.4011524 0.202188884,43.3943325 0.201687049,43.3873354 C0.201586682,43.3883097 0.201586682,43.3891954 0.201586682,43.3901696 C0.203092186,43.4093895 0.205099524,43.4324178 0.207608697,43.4611147 C0.218548692,43.5888335 0.229488686,43.7165523 0.242235284,43.8441825 C0.267427381,44.097583 0.297236356,44.3508064 0.333368447,44.6032326 C0.376827322,44.9072954 0.430523624,45.210384 0.495059553,45.5117012 L0.491747444,45.3684825 C0.491044876,45.3352686 0.490743775,45.3003717 0.490944509,45.2645892" id="Shape"></path>
                    <path d="M29.6385565,4.26906768 C29.619691,3.64827635 29.4262528,3.10250432 29.0462849,2.59898047 C28.7761446,2.24841804 28.4610104,1.95498365 28.0031004,1.62957527 C27.9564237,1.40425166 27.6369496,1.16821102 27.5396105,1.10098594 C27.3359867,0.95670443 27.093569,0.836514128 26.877811,0.75246063 L26.9321933,0.704986789 L26.5896023,0.629613209 C26.5622339,0.623590409 26.5350428,0.617124755 26.5079402,0.610747672 C26.4361094,0.593742117 26.3617101,0.576027997 26.2804909,0.565576667 L25.9916621,0.534222675 C25.8475578,0.522177073 25.7262161,0.519519955 25.6083286,0.516951408 L25.5020439,0.514471431 C25.1739784,0.501805836 24.8581356,0.52456848 24.5917153,0.546622559 C24.2620555,0.566816655 23.947807,0.602156324 23.6149587,0.639444546 C23.3649239,0.667609996 23.1064749,0.696572582 22.8357146,0.719335226 C22.2618657,0.596753517 21.2199211,0.683286992 20.2122534,0.767074778 C19.727418,0.807374401 19.2694194,0.845459758 18.8661575,0.861313895 L18.8766088,1.21612771 C18.8531376,1.21187632 18.7984896,1.18105376 18.7798897,1.1128544 C18.7613785,1.04562931 18.7925553,0.990626969 18.8096494,0.975835679 C18.7936182,0.989741263 18.716916,1.0303066 18.617097,1.05351209 C18.4822925,1.05687778 18.3282682,1.09336886 18.1916038,1.1257857 C18.1645898,1.13225136 18.1331472,1.13969129 18.1017932,1.14668836 L18.0547622,1.12047147 C17.804816,0.980972774 17.3709972,1.04952642 16.9119358,1.12224288 C16.8139767,1.13774273 16.7172576,1.15306545 16.6254985,1.1655539 L16.4997282,1.18264803 L16.4612,1.38042617 C15.8683084,1.34756648 15.1928691,1.49255655 14.5378009,1.63311809 L14.2388751,1.70060889 C13.613301,1.84931892 13.022978,1.98952618 12.7244065,1.92672963 L12.6712641,1.91548116 L12.620956,1.93594097 C12.487923,1.99014617 12.3285845,2.03779716 12.1745602,2.08385387 C12.0889124,2.1093622 12.0018475,2.13540196 11.9169083,2.16321312 L11.9108855,2.08287959 L11.7186873,2.11591642 C11.1870866,2.20732128 10.8241243,2.27569778 10.3739199,2.38127394 L10.5294499,2.26923213 L9.66119232,2.47471592 C9.32559832,2.55416375 9.1403972,2.71049085 8.97689588,2.8483067 C8.85431417,2.95175716 8.74616947,3.04289631 8.57868247,3.10144147 L8.3827643,2.97319125 L8.30756786,2.99196821 C8.02095341,3.06379897 7.72521618,3.12597553 7.43922171,3.18611497 C7.23249794,3.22951456 7.02612844,3.27282558 6.8217075,3.31994514 C6.44802815,3.40515006 5.93139584,3.57662274 5.4664002,3.91868239 L5.43956331,3.87368852 C5.29058756,3.9565906 4.7771438,4.2545421 4.42666995,4.60351026 C4.15794675,4.86443924 4.01277954,5.07559155 3.99311687,5.23351292 C3.85388388,5.36149744 3.72359653,5.58460678 3.64707154,5.73057112 C3.58383213,5.84854716 3.52324984,5.98370589 3.4667418,6.13206165 L3.43025071,5.99442294 L3.23557254,6.51318093 C3.17135885,6.68421076 3.13849916,6.80324964 3.10935943,6.90829437 C3.09509957,6.95957675 3.08199112,7.00740487 3.06498556,7.06037009 C3.04532289,7.12591233 3.02061169,7.19402312 2.99014341,7.2784309 C2.9591437,7.3646101 2.92194405,7.46806055 2.87783589,7.60109359 L2.86481601,7.59409652 C2.77659969,8.56173031 2.5844015,9.51448423 2.36164644,10.4629868 C2.36341785,10.4699839 2.36518926,10.4754752 2.36696068,10.4835352 L2.30194986,10.8130178 C2.24898464,11.0814753 2.22763912,11.3104303 2.21887064,11.5150283 C2.20425649,11.5274282 2.1909709,11.5415995 2.17874815,11.5567451 C2.02870956,12.8440302 1.85599689,14.1287467 1.67177005,15.411869 L1.73244091,15.4060233 C1.75334357,15.4612028 1.80409452,15.5559733 1.91719918,15.5573019 C1.9177306,15.5573019 1.91826202,15.5573905 1.91879345,15.5573905 C1.86113399,15.7049491 1.80825734,15.8661476 1.75963208,16.015389 C1.70932398,16.169059 1.64094748,16.3779971 1.60578495,16.4314051 L1.55237688,16.476399 L1.55078261,16.5567325 C1.54661979,16.7838275 1.53448562,17.0280167 1.52173145,17.2864657 C1.5077373,17.5703345 1.49347743,17.8579232 1.48984604,18.1288607 L1.3995926,17.8398548 L1.42890947,19.0980001 C1.43254086,19.2529987 1.42191239,19.4573311 1.41066392,19.6736205 C1.39268409,20.0199315 1.38356132,20.2664235 1.39720119,20.4425904 L1.26833097,20.9821625 C1.25539966,21.0363677 1.24583404,21.0887129 1.23485129,21.1419438 C1.21430291,21.7568895 1.1766604,22.3703295 1.1254666,22.9825295 C1.12750372,23.0354061 1.12954084,23.0882827 1.13166654,23.1408051 C1.15983199,23.8196987 1.18888314,24.5208236 0.987119321,25.3786299 C0.978970826,25.4090096 0.970910901,25.4431093 0.96178813,25.4815489 L0.958776729,25.4943916 L0.998190646,25.5041344 C0.877823202,26.3957746 0.822643719,27.3217802 0.769147078,28.2195318 C0.70139057,29.3571326 0.631419797,30.5333501 0.426910285,31.6349027 C0.357382365,32.0913069 0.394316305,32.2656139 0.437007333,32.4673777 C0.446307246,32.5113973 0.4557843,32.5563026 0.46464136,32.6066107 L0.328774062,32.7246753 L0.441435863,33.431823 C0.454455741,33.7848654 0.381473568,34.0992024 0.304062865,34.4316964 C0.201763824,34.8718923 0.0859134806,35.3706334 0.16571559,36.0253472 L0.222666485,36.4935314 L0.225057891,36.4899886 C0.221337926,36.5760792 0.217086537,36.6669526 0.211683731,36.746489 L0.0294054387,36.6094703 C0.034188251,36.6643841 0.0389710634,36.7192979 0.0438424463,36.7741231 L0.1479129,37.1005057 C0.151898577,37.112817 0.158098518,37.1280512 0.166158443,37.1458539 C0.170852685,37.1561281 0.175281215,37.1659594 0.178824039,37.1757022 L0.0895448752,37.1880135 L0.114344643,37.5577072 C0.126124532,37.6925116 0.13755014,37.8276703 0.14800147,37.9630062 C0.177406909,38.3422655 0.198840994,38.7217905 0.216643684,39.1014927 C0.229132138,38.9464056 0.243923428,38.869172 0.254286188,38.8319724 C0.453038612,38.7859156 0.492098246,38.5778633 0.518492284,38.3319913 L0.520175125,38.3164915 L0.464907072,37.4941135 L0.474826979,37.4927849 L0.510698071,37.390663 C0.557109065,37.2587814 0.542229204,37.1519652 0.519555131,37.0788059 C0.559146189,36.9640184 0.569066096,36.7598632 0.584123098,36.3710383 C0.590943034,36.1938971 0.598028682,36.0106445 0.610605707,35.8847857 L0.680222197,35.1907465 L0.49564107,35.4621268 C0.509989507,35.1103244 0.580314562,34.8077672 0.649045346,34.5119414 C0.728936026,34.1679332 0.811572395,33.8124108 0.794832552,33.4070232 L0.709273353,32.8630226 L0.842217822,32.7474379 L0.829817938,32.6531988 C0.816089495,32.5484198 0.798729658,32.466492 0.783406944,32.3941298 C0.744878734,32.2122058 0.717244707,32.0808556 0.775967014,31.6938021 C0.983487926,30.5763069 1.05416726,29.3889294 1.12263234,28.2406116 C1.17976037,27.2811263 1.23874839,26.2889585 1.37762709,25.3497558 L1.4468893,24.8811288 L1.43962651,24.8872402 C1.53156279,24.2372206 1.50818015,23.6747973 1.48541751,23.1260138 C1.46690625,22.6775809 1.44901499,22.2456221 1.493566,21.7815121 L1.59825645,22.1140947 L1.65423307,21.1508009 C1.65724447,21.0991642 1.65999016,21.0556761 1.66238156,21.0190079 C1.75582355,20.9609055 1.78460899,20.8195469 1.81064875,20.6916509 L1.83084284,20.5928061 L1.76875485,20.5366524 C1.7261524,20.4246991 1.74997789,19.9677634 1.76414918,19.6920431 C1.76618631,19.6529835 1.768312,19.6142782 1.77017198,19.5760157 L1.77938333,19.5575044 C1.78239473,19.5514816 1.79196035,19.5392589 1.8014374,19.5273904 C1.86901677,19.4425398 1.93447044,19.3410379 1.92924478,19.1162457 L1.92871335,19.0919773 L1.92153914,19.0687718 C1.80684021,18.6922582 1.84164846,17.9864391 1.87539385,17.3039141 C1.88726231,17.0646849 1.89842221,16.8376785 1.9035593,16.6226291 C1.96175019,16.5315785 2.01250114,16.3811856 2.09611179,16.1253937 C2.17210536,15.8929845 2.25810741,15.6296641 2.34977798,15.4616456 L2.38520622,15.3966348 L2.36394928,15.3256898 C2.3352524,15.2310078 2.27963007,15.0836263 2.22994196,14.9598932 C2.3120469,14.6537046 2.28467859,14.4073898 2.24898464,14.1807376 L2.20283936,13.888189 L2.2060279,13.8729548 L2.2045222,13.8491293 C2.20044795,13.7840299 2.20044795,13.7243334 2.20469934,13.6672053 C2.22701913,13.6383313 2.24234184,13.609103 2.25438745,13.5858089 L2.26599019,13.5634006 L2.27086158,13.538778 C2.2991156,13.3968879 2.31426117,13.2405607 2.32054968,13.0784765 L2.3816634,12.9023982 L2.4373743,12.8904412 L2.46757688,12.7901793 C2.56403026,12.4696423 2.56518168,12.1868363 2.56624452,11.8874677 C2.56668738,11.7791459 2.5672188,11.6651555 2.57226732,11.5424852 L2.59254999,11.4723373 L2.57563301,11.4717173 C2.58121295,11.3702154 2.5904243,11.2625136 2.60556987,11.1471946 C2.622044,11.1394004 2.63780957,11.1293034 2.65260086,11.1169035 L2.69927756,11.0773124 L2.71158888,11.0174387 C2.76473123,10.759964 2.74471428,10.4975293 2.69148335,10.3303966 C2.84993615,10.0493621 2.92716971,9.45292767 2.92185548,9.25638951 L2.91910979,9.22981833 C2.90697562,9.1615304 2.89501858,9.10998231 2.88483297,9.06551987 C2.88164442,9.05126 2.87863302,9.03815155 2.87588734,9.02584024 L2.93664677,8.75879989 C3.00980608,8.43746576 3.02504022,8.28981857 3.02628021,8.15209129 L3.0275202,8.12782294 C3.03008875,8.08203194 3.03239158,8.0390752 3.0431972,7.98823568 C3.09492243,7.95838739 3.1392963,7.9038279 3.17587595,7.82508864 L3.18393588,7.80454026 C3.2399125,7.62952476 3.28588064,7.50207166 3.323346,7.39835549 C3.35629426,7.30686206 3.38286544,7.23290561 3.40297097,7.16550339 C3.40881663,7.14752356 3.414308,7.12980944 3.41962224,7.11200675 L3.65185435,6.70502485 L3.66682278,6.67251944 C3.67435128,6.6551596 3.68799115,6.62415989 3.69109112,6.581646 L3.7077424,6.5199123 C3.71925657,6.47978982 3.73201074,6.43895877 3.74821916,6.39502775 C3.81305284,6.20628381 3.88603501,6.0342797 3.95990289,5.89619814 C4.07876463,5.66954598 4.18318937,5.53890435 4.23208034,5.49267049 L4.77298099,5.48691341 L4.37733612,5.20747317 C4.42339283,5.13245387 4.51763195,5.00863217 4.67484476,4.85584789 C4.82692048,4.70448074 5.01469015,4.56250207 5.18483427,4.44682887 L5.17544579,4.63574995 L5.4911114,4.35391831 C5.94778141,3.9460507 6.50967328,3.75420679 6.90097819,3.66492762 C7.10336201,3.61833949 7.30760581,3.57547132 7.51193818,3.53251458 C7.77649855,3.47689224 8.049296,3.41958706 8.31819633,3.35404482 L8.5201373,3.48628072 L8.59648516,3.46599806 C8.8843396,3.3896502 9.05474943,3.24581155 9.20514231,3.11888988 C9.2500476,3.08098167 9.29327005,3.04457915 9.33826392,3.01056804 L9.56217039,2.95131431 C10.4634648,2.71279369 10.8853266,2.62130026 11.5864514,2.49818713 L11.5987627,2.66620555 L11.824972,2.57285214 C11.9581822,2.51793837 12.119735,2.46966739 12.275885,2.42299069 C12.4206979,2.37967967 12.5700279,2.33512866 12.7061609,2.282872 C13.0820545,2.33849434 13.6594463,2.20227276 14.3208029,2.04497137 L14.6122002,1.97916342 C15.3002166,1.83151623 16.0115271,1.67926337 16.5839589,1.7460456 L16.7470173,1.76517685 L16.7990083,1.4981365 C16.8542763,1.48981086 16.9106072,1.48086523 16.9672924,1.4719196 C17.2043073,1.43436567 17.504916,1.38680326 17.7062369,1.39433176 C17.718194,1.41975152 17.7350224,1.4426913 17.7563679,1.46217684 C17.8700925,1.56589301 18.0392624,1.52577053 18.2733545,1.47023676 C18.3979733,1.44065418 18.539332,1.40708592 18.6372025,1.40717449 L18.6734279,1.4035431 C18.7331244,1.39105465 18.9713794,1.3345466 19.0771327,1.20585352 C19.4366407,1.18672227 19.8295399,1.15412829 20.2416589,1.11985147 C21.2386981,1.03694939 22.2693056,0.951124482 22.7836351,1.07034051 L22.8105605,1.07662902 L22.838106,1.07432618 C23.1238347,1.05085498 23.3935322,1.02047526 23.6544612,0.991246963 C23.9826153,0.954401594 24.2927009,0.919593349 24.617135,0.899664964 C24.8769126,0.87823088 25.1800012,0.856353942 25.490264,0.868310973 L25.6008001,0.87087952 C25.7184218,0.873448067 25.8296665,0.875573762 25.957651,0.886556516 L26.1610091,0.908610595 L26.1562263,0.912861984 L26.4841147,0.995409782 C26.703504,1.05058926 27.063455,1.19761646 27.3366953,1.39105465 C27.5015251,1.50495644 27.5958528,1.60938117 27.6354439,1.6662435 L27.563436,1.75481409 L27.7204717,1.86375593 C28.1908701,2.19013859 28.5036129,2.47462735 28.7648076,2.81358703 C28.9313203,3.03430496 29.0571791,3.26449995 29.1433583,3.50762624 L29.180558,4.00805012 C29.1916293,4.15569731 29.2135062,4.33770989 29.2348518,4.51378824 C29.2461888,4.60776164 29.2588544,4.71324923 29.2681543,4.80305981 L29.2203262,4.9693954 C29.176218,5.1227111 29.1531897,5.25786984 29.1453069,5.41490551 C29.1451297,5.42943109 29.1447755,5.44351381 29.1444212,5.45733083 L29.0901274,5.59629809 C29.006251,5.81072751 28.888895,6.06005375 28.720788,6.38076789 C28.553301,6.67792224 28.3597742,6.94868256 28.1448134,7.18631748 C27.7345544,7.64582175 27.1831138,7.9923985 26.6302562,8.14597992 C26.5794166,8.11055168 26.5056373,8.08920616 26.4093611,8.08220908 L26.3474502,8.07769198 L26.296345,8.11276594 C26.2544511,8.14146282 26.1896174,8.16945112 26.1007811,8.19681944 C26.0194733,8.22356776 25.9134543,8.25102465 25.8162038,8.27068732 C25.7239132,8.28990714 25.6230313,8.30806411 25.5096609,8.32577823 L25.1920468,8.37121495 L25.2009038,8.49574521 L25.1735355,8.37546634 L24.5539842,8.49158239 C24.4818877,8.50655082 24.4163455,8.52036784 24.3565603,8.53338771 L24.3331777,8.47493112 C23.9196416,8.61248126 23.7283291,8.60096708 23.5257681,8.58874434 C23.2925617,8.57466161 23.0512954,8.56013603 22.5491001,8.74834856 L22.246543,8.86171892 C22.2129747,8.82691068 22.1580609,8.79936522 22.0692246,8.79272243 L22.0551419,8.79165958 L21.0997308,8.87385309 C21.0711225,8.87110741 21.0355172,8.87314453 20.980692,8.884393 L20.8646645,8.89475576 L20.869713,8.91229273 C20.7985022,8.93248683 20.706566,8.96171513 20.5854014,9.00281189 L20.3686691,9.07632548 L20.4360713,9.17897881 C20.3995803,9.19182154 20.3585721,9.20404429 20.3325323,9.2118385 C20.2402418,9.23938395 20.1319199,9.27286364 20.0874575,9.35647429 C21.0262172,9.18420447 21.9753398,9.10103668 22.9161367,9.13487065 C22.9932817,9.11662511 23.0877865,9.09899956 23.196994,9.08597968 L23.1884027,8.94338101 C23.3069987,8.930184 23.4023893,8.93594108 23.5044226,8.94214103 C23.6686325,8.95197236 23.8494051,8.96286655 24.1355767,8.89829858 L24.1533794,8.9461267 C24.2616126,8.91556985 24.4205083,8.88085017 24.6220064,8.83895628 L25.2144551,8.7283316 C25.224995,8.72629448 25.2350035,8.72399164 25.2443034,8.72142309 L25.5620947,8.67589781 C25.6836136,8.65685513 25.7903412,8.63772388 25.8872374,8.61752978 C25.9978621,8.59520999 26.1159267,8.56447599 26.2081287,8.53427342 C26.2872222,8.50982793 26.3532073,8.48423103 26.4097154,8.4557113 L26.4322123,8.55243039 C27.1440542,8.43348008 27.8830873,8.01099832 28.4082224,7.42306669 C28.640543,7.16612338 28.8500125,6.87304327 29.030608,6.55206342 L29.0330879,6.54745775 C29.0981873,6.42354749 29.1559353,6.30955712 29.2074834,6.20353812 L29.2935741,6.54940631 L29.4570754,5.81745888 C29.4848866,5.69292862 29.4975521,5.57371259 29.4991464,5.42597683 C29.5026007,5.35706891 29.5102177,5.29170381 29.5227948,5.22509872 C29.5447603,5.21349597 29.5637144,5.19755326 29.57948,5.17718202 L29.6749591,5.45998794 L29.6385565,4.26906768 L29.6385565,4.26906768 Z M26.3898357,8.39539472 C26.3754357,8.37599776 26.3638357,8.35128656 26.3607357,8.32090685 C26.3586357,8.30009276 26.3609357,8.28105008 26.3661357,8.26431024 L26.3923357,8.36492644 L26.3898357,8.39539472 L26.3898357,8.39539472 Z" id="Shape"></path>
                    <path d="M10.5504411,46.3855387 C10.5908293,46.3619789 10.6307747,46.3437334 10.6702772,46.3279678 C10.8528212,45.9060175 10.9843485,45.4743244 11.0824847,45.0356342 C11.0835476,45.0126944 11.0845218,44.9896661 11.0854075,44.9673463 L11.0885961,44.8877213 C11.1021474,44.5915412 11.1242015,44.2692328 11.193198,43.9190247 L11.2198577,43.7840431 L11.1344757,43.7433892 L11.162464,43.5313512 C11.2093178,43.1765374 11.2791114,42.8949714 11.3194996,42.828012 L11.3772477,42.7320901 C11.3845105,42.6313853 11.3915961,42.5306805 11.3985932,42.4296215 L11.2370404,42.5072093 C11.2427089,42.3908276 11.2504146,42.3300681 11.2560831,42.2993341 C11.3461594,42.2445089 11.3812333,42.1495613 11.4037303,42.0264481 L11.4117016,41.9793286 L11.3963789,41.9352204 C11.3871676,41.9088264 11.3869019,41.8190158 11.3867247,41.765342 C11.3861933,41.6555145 11.3857504,41.5095501 11.3249024,41.4115025 C11.3307481,41.3989254 11.3384537,41.388917 11.3485508,41.3759857 C11.3634307,41.3567658 11.3774248,41.3376346 11.3900018,41.3161119 L11.420913,41.2631467 L11.4124988,41.2024759 C11.3998332,41.1108053 11.4019589,40.9019558 11.4037303,40.7179061 C11.4085131,40.2471534 11.4105502,40.0481352 11.2891199,39.9772788 C11.2753029,39.527163 11.3204739,39.0577388 11.3644049,38.6016002 C11.4004532,38.2271237 11.4375642,37.8416645 11.4423471,37.4655052 L11.4923894,37.4691366 L11.4829124,37.2696756 C11.4730811,37.0655203 11.4722839,36.8404624 11.4714868,36.6229331 C11.4703354,36.2861876 11.4692725,35.9652964 11.4374757,35.7082645 L11.5810486,35.930931 L11.5527946,35.2786971 C11.5480118,35.1698438 11.5417233,35.084816 11.5359662,35.008911 C11.5264006,34.8812808 11.5190492,34.7827903 11.5261348,34.6352317 L11.6125797,34.6409002 C11.6240939,34.5096386 11.636671,34.4025567 11.6478308,34.3075205 C11.6802477,34.0299402 11.7029218,33.8360592 11.6512851,33.4549399 C11.7651869,33.2832901 11.7611126,32.9127107 11.7507499,32.7278638 L11.7544698,32.7318495 L11.8121293,32.37429 C11.9042427,31.8031868 11.8466718,31.279026 11.7955666,30.8165989 C11.7713868,30.5972095 11.7495985,30.3911943 11.7425128,30.1935047 C11.5299434,29.8108797 11.5690916,29.374581 11.7731582,29.0002816 L11.803538,28.8740685 C11.8077893,28.8683114 11.8119522,28.8622886 11.8159378,28.855823 L11.8212521,28.8484716 C11.8309063,28.8350089 11.8428633,28.8182691 11.8532261,28.798075 C11.8793544,28.7818665 11.8987514,28.7643296 11.9135426,28.7500697 C11.9315225,28.7320899 11.9463138,28.7133129 11.9588908,28.6958645 C11.967305,28.6887788 11.9777563,28.6808075 11.9882962,28.6723933 C12.0064532,28.6580448 12.0248759,28.643165 12.0410843,28.6292594 C12.0586213,28.6147338 12.0760697,28.6002968 12.093961,28.5859484 C12.4811916,28.1857864 12.9204132,27.8461182 13.3942659,27.5545437 C13.2633586,27.4960872 13.0492834,27.5173441 12.7658575,27.6223003 L12.746992,27.6305373 C12.5121913,27.7502848 12.2978505,27.8844692 12.2861592,28.0590419 C12.0510042,28.1612524 11.9255882,28.2650571 11.8070808,28.363459 C11.7957437,28.3734675 11.7817496,28.3841845 11.7682869,28.3949016 C11.7411843,28.4164242 11.7154102,28.4376812 11.6994675,28.4536239 L11.6785648,28.4789551 C11.6745792,28.4848007 11.6710363,28.4904693 11.6669621,28.4955178 C11.650488,28.5009206 11.6258653,28.5107519 11.6015084,28.5296175 L11.5478346,28.5744342 L11.5348148,28.6390022 L11.5167464,28.6666362 C11.4998294,28.688956 11.4822924,28.71597 11.4669697,28.7619381 L11.4242787,28.9370422 C11.3692763,29.1721086 11.3116169,29.4502203 11.3005455,29.7316091 L11.2991284,29.7701373 L11.3137425,29.8058312 C11.3352652,29.8583536 11.3615707,29.8944018 11.388939,29.9187587 C11.3739706,30.2241502 11.4082474,30.5343244 11.4436756,30.8553928 C11.4820267,31.2039181 11.5215292,31.5611233 11.5021322,31.9406484 L11.3446537,31.7713899 L11.3239282,32.1904174 C11.3170197,32.3308904 11.3100226,32.4739319 11.3063912,32.6243248 L11.0808019,32.162252 L11.2784915,33.3573351 C11.2882342,33.4163231 11.2963827,33.4704397 11.3028484,33.5204821 L11.2187063,34.1538505 C11.1536069,34.6437345 11.1652982,34.7994416 11.1828352,35.0351279 C11.1860237,35.078439 11.1896551,35.1251157 11.1928437,35.177638 C11.0753105,35.3205024 11.0658334,35.5984369 11.0657449,35.6018912 L11.0688448,35.6400651 C11.1149016,35.8823943 11.1161415,36.2426109 11.1174701,36.6239073 C11.1180015,36.7774002 11.1185329,36.934613 11.1222529,37.0872201 L11.0839018,37.0844744 L11.087799,37.2785326 C11.0961246,37.6945487 11.055205,38.1185362 11.0119825,38.5675891 C10.959283,39.1141583 10.9049007,39.6794158 10.9478574,40.2233279 L11.0156139,41.2379927 C10.9858542,41.292995 10.9624716,41.3644715 10.956803,41.4726162 L10.9483888,41.6370032 L11.0299624,41.6471003 C11.0322652,41.6847428 11.0324423,41.732748 11.0325309,41.7663163 C11.0328852,41.8493955 11.0331509,41.9287548 11.0478536,41.9993455 C11.0469679,42.0027998 11.0461708,42.0059883 11.0453736,42.008734 C10.9166806,42.0801219 10.8952465,42.227592 10.8826694,42.5081836 C10.8816066,42.6013599 10.8886922,42.723233 10.9469717,42.8118036 C10.9337747,42.853609 10.9214634,42.8988685 10.9098606,42.9453681 L10.8568954,42.7117189 L10.7467136,43.1269378 L10.7235967,43.1237493 L10.705174,43.2833535 L10.6722257,43.4072638 C10.67134,43.4108066 10.6703657,43.414438 10.66948,43.4179808 L10.6127948,43.3927382 L10.5919807,43.6410016 C10.5810866,43.7699604 10.5695724,43.8995392 10.5569954,44.0298265 L10.5481383,44.1222056 L10.6190833,44.1820794 C10.67568,44.2298189 10.732188,44.2426616 10.7846218,44.2356646 C10.7569878,44.4605453 10.744145,44.6719633 10.7349337,44.8718672 L10.731568,44.9529093 C10.7273166,45.0580426 10.7230652,45.1644159 10.7141196,45.270612 L10.6540687,45.1577731 L10.5470754,45.6170116 C10.5224528,45.7224106 10.5002216,45.8078813 10.4815332,45.8798892 C10.4690448,45.9277173 10.4577963,45.970674 10.4482307,46.0107079 L10.3484116,45.9208088 L10.2443411,46.1282411 C10.197753,46.2212403 10.1336279,46.3227422 10.0640114,46.4159184 L10.0556858,46.426104 C9.97676936,46.5218489 9.89776439,46.6176823 9.82929932,46.7067843 C9.75498858,46.8012005 9.69422915,46.8938454 9.64675531,46.9681561 C9.94063256,46.7636466 10.2397355,46.566577 10.5504411,46.3855387" id="Shape"></path>
                    <path d="M1.12759229,47.3681409 L1.15779486,47.3537039 L1.12617516,47.4011778 C1.44396647,47.6405841 1.56716817,47.7084292 1.66078729,47.7169319 L1.69612696,47.7376575 L1.68620706,47.7167548 C1.69851837,47.7159577 1.71056397,47.7140977 1.72278671,47.711352 C1.73793229,47.7079863 1.75493784,47.7024064 1.77265196,47.6935493 C1.85307406,47.7497916 1.93659614,47.8051483 2.02472388,47.8603277 L2.0529779,47.9202015 C2.12587151,48.0519945 2.20611647,48.1810419 2.20948215,48.1865333 L2.2225906,48.2075245 C3.78417882,48.3465803 5.29510466,49.0816277 6.87236988,48.6682687 C7.45543013,48.5154845 7.97330242,48.1821047 8.45884645,47.8307452 C8.43998091,47.8400451 8.41969824,47.8500536 8.4023384,47.8584678 L8.4532665,47.7289776 L7.99934218,48.0113406 C7.71830767,48.186179 7.36101388,48.2895409 7.073868,48.3725315 C6.8208218,48.4456908 6.63694923,48.4990103 6.55351573,48.5959066 C6.43261686,48.6206178 6.27363264,48.6161892 6.11925408,48.612115 C6.07319737,48.610875 6.02749494,48.609635 5.98232394,48.609015 C5.9387472,48.6085722 5.89579046,48.6087493 5.853808,48.6097236 L5.52352824,48.5393985 C5.39510087,48.5120302 5.27154489,48.5141559 5.16242591,48.5159273 L5.14825461,48.5162816 C5.05366121,48.5142445 4.96145922,48.5185844 4.88032855,48.5225701 L4.82018912,48.5252272 C4.73967844,48.5286815 4.65775064,48.5303643 4.61275677,48.5219501 C4.59061412,48.5162816 4.57723996,48.5090188 4.57298857,48.5002503 L4.52737472,48.4066312 L4.42330426,48.4011398 C4.32295377,48.3956484 4.23828028,48.3913085 4.17238376,48.4031769 C4.12552991,48.3891828 4.07185613,48.3756315 4.00923671,48.3623459 L3.81110429,48.3065464 C3.76416187,48.2931723 3.71553661,48.280241 3.66620279,48.2673096 C3.5682437,48.2415356 3.46691894,48.2147873 3.38321972,48.1841419 C3.22777832,48.118511 3.11254797,48.0590802 3.03124017,48.0025721 L2.98854914,47.972901 L2.9365582,47.971041 C2.90768418,47.9698896 2.84382478,47.9676753 2.78581104,47.9933608 C2.73585722,47.955364 2.6723521,47.9171901 2.5979528,47.8739676 L2.52018781,47.8288852 L2.43108579,47.8679448 C2.41036027,47.8328709 2.38777477,47.7934569 2.36580926,47.7539545 L2.30115272,47.6148986 L2.25607029,47.5869989 C2.11763444,47.5017054 1.99204133,47.417209 1.8719396,47.328727 L1.81888581,47.289756 L1.753255,47.294893 C1.71844675,47.2976387 1.67735,47.3070272 1.63926464,47.3307641 C1.59843359,47.3053444 1.5339542,47.2619448 1.43307228,47.1880769 C1.36230438,47.0580553 1.24485976,46.9612476 1.11023245,46.8503572 C1.06178434,46.8103233 1.00997054,46.7676323 0.956208182,46.7198927 L1.46584341,46.9779874 L0.597585829,46.1441838 C0.600862941,46.1572037 0.603431488,46.1704007 0.6067086,46.1835092 C0.640896851,46.3185793 0.680045056,46.4519667 0.717953272,46.5860625 C0.730353156,46.6299936 0.744524452,46.6734817 0.758518606,46.7170585 C0.767109954,46.7428325 0.77685272,46.7714408 0.781369821,46.7830436 C0.832209344,46.9128881 0.884377427,47.0416697 0.939999763,47.1691228 C1.0293675,47.2440535 1.09845256,47.3069386 1.12759229,47.3681409" id="Shape"></path>
                    <path d="M24.6237778,21.9336764 L24.6296235,21.914988 C24.7577851,21.5036662 24.7604423,21.0730359 24.637772,20.558795 C24.5340558,20.130999 24.3686945,19.6950545 24.1173311,19.1867479 L24.035669,19.2258961 C24.0285834,19.2137619 24.0216749,19.2018935 24.0151207,19.1905564 C23.923273,19.0319265 23.8127368,18.8411454 23.6797924,18.6903097 C23.6799695,18.579065 23.6106187,18.4556862 23.5329423,18.3174275 L23.3550926,17.997599 L23.294776,18.1072494 C23.2422536,18.0636727 23.1795456,18.0136303 23.1148005,17.9704078 C23.0324299,17.9085856 22.7847865,17.7409214 22.5851484,17.7335701 C22.5589315,17.7093017 22.5252746,17.6821991 22.489315,17.6534137 L22.304291,17.5054122 C22.2569943,17.4659097 22.2201489,17.4442099 22.2132404,17.4402242 L22.1972091,17.4320758 C22.0927844,17.3854876 21.9900425,17.3449223 21.8849092,17.3094055 C21.7881015,17.2807972 21.6998852,17.2669802 21.6146803,17.2536946 C21.4603903,17.2261491 21.3262059,17.2347405 21.2074327,17.2423575 L21.1518104,17.2458118 C21.0639483,17.2530746 20.977592,17.2631716 20.88601,17.2738887 C20.826402,17.2809743 20.7641368,17.2882371 20.6974432,17.2951456 L20.6827405,17.0978989 C20.5947013,17.0989617 20.5055993,17.1002903 20.4220772,17.1027703 C20.2751386,17.2009951 20.0925946,17.2556431 19.8994221,17.2666259 C19.4857974,17.2902742 19.0774869,17.3528936 18.6704165,17.4249901 L18.6099227,17.4714011 C18.5934486,17.4786639 18.5693574,17.486281 18.5441148,17.4949609 C18.4788383,17.5173692 18.4052361,17.5425233 18.3504995,17.58362 C17.9444918,17.5582003 17.4594792,17.6382681 16.9574611,17.7310901 L16.9402784,17.7341015 C16.4246204,17.828252 15.8883254,17.9258568 15.5514914,17.8825458 L15.519606,17.8785601 L15.4885177,17.8859115 C14.8706492,18.0319644 14.2800605,18.1634918 13.8434074,18.2524166 L13.8407503,18.2223912 C13.4664509,18.2540109 13.3281037,18.3342559 13.1860364,18.4358463 C13.1325398,18.4741088 13.0806374,18.5112199 12.9858669,18.5431939 C12.9646099,18.5078542 12.9273217,18.4772088 12.8634623,18.4637461 C12.6858783,18.3209703 12.3828782,18.4073266 12.1113208,18.4846487 L11.9919276,18.5197227 L11.9372796,18.5396511 C11.9262968,18.5435482 11.9150483,18.5473567 11.9036227,18.5508996 C11.8968028,18.5098914 11.8855543,18.4720717 11.8735973,18.4323921 L11.8534918,18.3622442 C11.8511004,18.3517043 11.8487975,18.3439986 11.8464947,18.3370901 C11.8457861,18.333193 11.8453433,18.3278788 11.8444576,18.318136 L11.8213406,18.0827154 C11.8102693,17.9491509 11.8046008,17.8271006 11.8044237,17.7130217 C11.8114207,17.7044303 11.8177093,17.695219 11.8233778,17.6853877 L11.8608431,17.620554 L11.8402062,17.5484575 C11.7347186,17.1794724 11.6862705,16.5098787 11.6537651,15.9354983 C11.6971647,15.9098129 11.7298472,15.8713732 11.7539384,15.8432078 L11.7991094,15.7899769 L11.7958323,15.7201832 C11.7915809,15.6290441 11.7723611,15.5108023 11.6662535,15.4493343 L11.8055751,15.1796369 C11.9254111,14.9476705 11.8946771,14.6664588 11.8674859,14.4183726 C11.8663345,14.4067698 11.865006,14.3952556 11.863766,14.38383 L11.9283339,14.4209411 L11.9147826,14.0994298 C11.9097341,13.9810995 11.9018513,13.8788005 11.8924628,13.7864213 C11.8657145,13.6921822 11.8522518,13.5937803 11.8524289,13.4928098 C11.8369291,13.4039735 11.8205435,13.3254999 11.8047779,13.2509235 L11.7917581,13.1886584 C11.7698811,13.0847651 11.7471185,12.9713947 11.7291387,12.8225075 L11.7090331,12.6094952 C11.704516,12.5552015 11.7018589,12.4931135 11.7013275,12.4219027 L11.7011503,12.3935601 C11.7379071,12.3897516 11.7805096,12.3833745 11.8279834,12.3681403 C11.8902486,12.3474148 11.9621679,12.3118094 12.0363015,12.2651327 L12.2322197,12.355829 L12.3117561,12.3098609 C12.3513471,12.2870983 12.4323006,12.2405101 12.5409768,12.1792193 L12.5708251,12.2385616 C13.2760242,11.563565 14.2158468,11.1768658 15.1971204,10.9946761 C15.6331535,10.7877752 16.0807893,10.5904399 16.5381679,10.4070987 C16.2719247,10.4583811 15.9549305,10.5628944 15.6435163,10.6666106 C15.4065013,10.745527 15.0682502,10.8581888 14.9051918,10.8805971 L14.9070517,10.7268386 L14.6656969,10.815852 C14.6590541,10.818332 14.6523227,10.820812 14.6456799,10.8232034 L14.8283125,10.664662 L13.7239257,11.1645545 C13.1918821,11.4054665 12.5068771,11.7900401 12.214417,11.9574385 L11.9994561,11.8580623 L11.9152255,11.9195303 C11.8291349,11.9824154 11.7559755,12.0189065 11.7181559,12.0315721 C11.6953047,12.0388349 11.6709478,12.040872 11.6373795,12.0437948 L11.6147054,12.0458319 C11.5560717,12.0512347 11.4857467,12.0611547 11.4090445,12.0942801 C11.3899133,12.1026943 11.370162,12.1125256 11.3509422,12.1238626 L11.3365052,12.132454 C11.2731772,12.1719565 11.2543117,12.2285531 11.2488203,12.2602614 L11.2428861,12.293741 L11.2572345,12.3619404 C11.2705201,12.419157 11.2889428,12.4771708 11.3119711,12.5344759 L11.3566993,12.645632 L11.3770705,12.8597957 L11.3783991,12.8718413 C11.3973532,13.0281684 11.4217987,13.1500416 11.4451813,13.2611091 L11.4583783,13.3239942 C11.4868095,13.4587987 11.5158607,13.5966146 11.5367633,13.7867756 L11.5218835,13.7780957 L11.4967294,14.0535503 C11.4865438,14.1663006 11.4971723,14.2858709 11.510635,14.4118183 C11.4149787,14.4948976 11.3666192,14.6525532 11.3146283,14.8824825 L11.234029,14.7234983 L11.2563488,15.1392487 C11.2536031,15.1493457 11.250946,15.1589113 11.2482889,15.1676798 L11.239609,15.196731 L11.2409375,15.2270221 C11.2461632,15.3392411 11.2559059,15.4354287 11.2764543,15.5144337 L11.2842485,15.6597781 C11.3157797,16.2553268 11.3543079,16.9793914 11.4559869,17.466264 L11.4521784,17.5872514 C11.4471299,17.7474757 11.4524441,17.919214 11.4686525,18.1149551 L11.491858,18.35073 C11.4956666,18.394041 11.5006265,18.4163608 11.5078893,18.4391235 L11.5343719,18.5339826 C11.5446461,18.5679937 11.552706,18.5950077 11.5552746,18.6150247 L11.4707782,18.7429206 L11.5446461,18.8299855 C11.5875143,18.9012848 11.6645707,18.9356502 11.7744868,18.9337903 L12.3561299,19.375669 L12.0635812,18.8704623 L12.2090142,18.8248484 C12.2386853,18.8164342 12.2824392,18.8041229 12.3312416,18.7911916 C12.359407,18.9376874 12.529994,18.95549 12.6143132,18.9643471 L12.632293,18.9662957 L12.6501843,18.9644357 C13.0863059,18.9210361 13.2384702,18.8335283 13.3920516,18.7237008 C13.4058687,18.7138695 13.4191542,18.7043924 13.4327055,18.6951811 L13.7965536,18.622996 C14.2385209,18.5352226 14.8725092,18.3951039 15.5398001,18.2375368 C15.9313707,18.2780135 16.4525201,18.1831544 17.0038721,18.0823611 L17.0214091,18.0791725 C17.5810867,17.9758107 18.1157874,17.8887458 18.5001838,17.956768 L18.5457976,17.7147045 C18.5609432,17.7461471 18.5846801,17.7728954 18.6144398,17.7927352 C18.6015971,17.8318834 18.5760888,17.8581889 18.5607661,17.8671345 C18.5763545,17.8581003 18.6280797,17.8404748 18.6589909,17.8298463 C18.6662536,17.8273663 18.6732507,17.8248864 18.6799821,17.8226721 L18.7002648,17.8298463 L18.7411844,17.8248864 C18.9811221,17.7966323 19.0840412,17.7349872 19.176686,17.6690907 C19.1819117,17.6652821 19.1869602,17.6618279 19.1915659,17.6585508 C19.2735822,17.6631564 19.36543,17.6527051 19.4620605,17.6348139 L19.2928021,17.7045189 L20.2540588,17.6788334 C20.5382818,17.6712164 20.744917,17.646948 20.9273725,17.6255139 C21.0146145,17.6152397 21.0968966,17.605497 21.1763444,17.5989428 L21.2302839,17.5956656 C21.3382515,17.58858 21.4409048,17.5820258 21.5519723,17.6020427 L21.5673836,17.6045227 C21.6374429,17.6155055 21.7101594,17.6268425 21.7777388,17.6467709 C21.8624123,17.6754678 21.9512486,17.7103646 22.0417677,17.7503985 C22.0495619,17.7556241 22.0629361,17.7650126 22.0805617,17.7797154 L22.2681542,17.9298425 C22.2970282,17.9529594 22.3242194,17.9743935 22.3422878,17.9911334 L22.4915292,18.1358577 L22.5843512,18.0874096 C22.6319136,18.0950267 22.759721,18.1465748 22.9100253,18.2589709 C22.9865503,18.3104304 23.0568754,18.3694184 23.1132948,18.4168037 C23.1600601,18.4559519 23.1985883,18.4884573 23.2356108,18.5108656 C23.2510221,18.5385882 23.2697991,18.5725993 23.2863618,18.6046619 L23.1263147,18.6528443 L23.3546497,18.8631995 C23.4869742,18.9850726 23.6099102,19.1973764 23.7086664,19.3680519 C23.8097254,19.5424474 23.8827076,19.6684834 23.9724296,19.734557 L23.9864238,19.7449198 C24.1245939,20.0641282 24.2242358,20.3557912 24.2934981,20.6416971 C24.3841944,21.0217535 24.3976571,21.3459219 24.3337977,21.6475048 L24.1114855,21.5911739 L24.0552431,21.7381125 C23.9880181,21.9134823 23.9486041,22.0794636 23.9106074,22.2400421 C23.8892618,22.3298527 23.8684478,22.4182462 23.843028,22.5049568 C23.8131797,22.605573 23.7794343,22.7194748 23.7214206,22.8192938 C23.6754524,22.9105216 23.6148701,22.9862494 23.5413565,23.0444403 L23.5944103,23.1214967 C23.5846676,23.1485108 23.5678391,23.1911132 23.5503022,23.2353985 L23.398935,23.6213006 C23.3022159,23.6268806 23.2195795,23.6896771 23.1752943,23.7233339 L23.144206,23.7538022 C22.9910674,23.9453804 22.7752209,24.0983419 22.497552,24.2107379 C22.4267841,24.2420919 22.3576105,24.269726 22.290474,24.2964743 C22.2345859,24.3187055 22.1795836,24.340671 22.1259984,24.3637879 L22.0934044,24.340051 L21.9958882,24.3908905 C21.860818,24.4613927 21.7340735,24.5079809 21.6222974,24.5491662 L21.5556923,24.5737888 C21.4147765,24.6275512 21.3093775,24.6721908 21.2371038,24.7574842 L21.1835186,24.8207237 C21.1052222,24.8464091 21.0031889,24.8725375 20.8518217,24.9002601 L20.8237449,24.9054857 L20.7987679,24.9192142 C20.7282658,24.9579195 20.6681263,24.9960049 20.6185268,25.0334702 L20.4033002,25.1039724 C20.0210295,25.2293884 19.9071277,25.3288532 19.8072201,25.4367322 C19.7890631,25.4563063 19.7721461,25.4744632 19.7453093,25.4926202 L19.6178562,25.3985582 C19.4625033,25.2839479 19.242494,25.3694185 18.9638509,25.4775632 C18.8385235,25.5261885 18.7087675,25.5764966 18.623474,25.589605 L18.5874258,25.5950964 L18.556249,25.6143162 C18.4635155,25.6722414 18.3758307,25.7382265 18.337391,25.8271514 C19.1654375,25.652933 20.0007469,25.5069687 20.8315391,25.3432902 L20.8237449,25.3232732 C20.8519989,25.3012192 20.8923871,25.273408 20.9450866,25.2432054 C21.2706721,25.1813831 21.4036166,25.119738 21.5213269,25.0652671 C21.5874891,25.0346217 21.6447057,25.008139 21.7376163,24.9818336 L21.7149422,24.8924658 L21.7447019,24.8813945 C21.7639218,24.8743089 21.7840273,24.8669575 21.8047528,24.8591633 C21.8382325,24.8718289 21.8820749,24.8760803 21.938583,24.8640347 L21.9779969,24.8555319 L22.0097937,24.8308207 C22.0350364,24.8113352 22.0617847,24.7933553 22.0900387,24.7765269 C22.1013757,24.7702384 22.1124471,24.7640385 22.122987,24.7575728 C22.2104947,24.7095676 22.3109338,24.6695336 22.421647,24.6253369 C22.4927692,24.5970829 22.5661942,24.5676775 22.6357222,24.5366777 C22.8339432,24.4565214 23.008693,24.3561709 23.158023,24.2366006 L23.114092,24.3485538 L23.4091206,23.9930314 C23.5467593,24.0511337 23.6679239,23.9495432 23.7177892,23.9078265 L23.7387804,23.8902895 L23.7534831,23.8672612 C23.9436442,23.5696639 24.0609117,23.4238767 24.1853534,23.2696753 L24.205016,23.243547 C24.3243206,23.0819942 24.4727649,22.880939 24.5649669,22.4767913 L24.7098684,21.8420059 L24.6237778,21.9336764 L24.6237778,21.9336764 Z M24.4320225,22.1372117 L24.3045694,22.1215347 C24.3142236,22.0854864 24.3243206,22.0494382 24.3352148,22.0131243 L24.5077503,22.0567896 L24.4320225,22.1372117 L24.4320225,22.1372117 Z" id="Shape"></path>
                    <path d="M23.5999017,23.1294681 C23.6016794,23.1683552 23.6099013,23.2125755 23.6265672,23.2574624 C23.6361223,23.2419075 23.6456774,23.2259082 23.6552326,23.2096867 L23.5999017,23.1294681 L23.5999017,23.1294681 Z" id="Shape"></path>
                    <path d="M13.8708643,18.551431 L13.8746419,18.5925403 C13.8826416,18.5878738 13.8906412,18.5832073 13.8988631,18.5778742 L13.8708643,18.551431 L13.8708643,18.551431 Z" id="Shape"></path>
                    <path d="M29.6775091,12.6996601 C29.5428021,12.8345531 29.403216,12.9687376 29.2602356,13.102302 L29.2513259,13.2235552 L29.6775091,12.6996601 L29.6775091,12.6996601 Z" id="Shape"></path>
                    <path d="M34.5914244,6.80448963 L34.5918688,6.8238221 C34.5956464,6.82182219 34.5996463,6.81982228 34.6036461,6.81782237 L34.5914244,6.80448963 L34.5914244,6.80448963 Z" id="Shape"></path>
                </g>
            </g>
        </g>
    </g>
</svg>