<?xml version="1.0" encoding="UTF-8" standalone="no"?>
<svg width="78px" height="106px" viewBox="0 0 78 106" version="1.1" xmlns="http://www.w3.org/2000/svg" xmlns:xlink="http://www.w3.org/1999/xlink">
    <!-- Generator: Sketch 40 (33762) - http://www.bohemiancoding.com/sketch -->
    <title>plan-marker-new</title>
    <desc>Created with Sketch.</desc>
    <defs></defs>
    <g id="Page-1" stroke="none" stroke-width="1" fill="none" fill-rule="evenodd">
        <g id="plan-marker-new" transform="translate(0.019531, 0.527344)">
            <polygon id="Rectangle-2" fill="#FFFFFF" points="7.95305713 49.8294966 70.0469429 49.8294966 39 100.818099"></polygon>
            <path d="M77.5537109,39 C77.5537109,60.2923578 60.2923578,77.5537109 39,77.5537109 C17.7076422,77.5537109 0.446289062,60.2923578 0.446289062,39 C0.446289062,17.7076422 17.7076422,0.446289062 39,0.446289062 C60.2923578,0.446289062 77.5537109,17.7076422 77.5537109,39" id="Fill-1" fill="#FFFFFF"></path>
            <polygon id="Rectangle-2" fill="#FFDD67" points="52.1046222 69.9116548 39 104.875268 25.8953778 69.9116548"></polygon>
            <g id="Page-1" transform="translate(5.039062, 5.011719)">
                <path d="M67.6446752,33.8223376 C67.6446752,52.501896 52.501896,67.6446752 33.8223376,67.6446752 C15.1427791,67.6446752 0,52.501896 0,33.8223376 C0,15.1427791 15.1427791,0 33.8223376,0 C52.501896,0 67.6446752,15.1427791 67.6446752,33.8223376 L67.6446752,33.8223376 Z" id="Fill-1" fill="#FFDD67"></path>
                <path d="M40.9701249,49.6049677 L26.6632761,49.6049677 C25.6790461,49.6049677 25.6790461,46.222734 26.6632761,46.222734 L40.9689975,46.222734 C41.9566098,46.222734 41.9566098,49.6049677 40.9701249,49.6049677" id="Fill-3" fill="#664E27"></path>
                <path d="M25.9304588,28.8527088 C25.9304588,31.6546414 23.6590408,33.9260594 20.8571082,33.9260594 C18.0551755,33.9260594 15.7837575,31.6546414 15.7837575,28.8527088 C15.7837575,26.0507761 18.0551755,23.7793581 20.8571082,23.7793581 C23.6590408,23.7793581 25.9304588,26.0507761 25.9304588,28.8527088 L25.9304588,28.8527088 Z" id="Fill-4" fill="#664E27"></path>
                <path d="M51.8609176,28.8527088 C51.8609176,31.6546414 49.5894996,33.9260594 46.787567,33.9260594 C43.9856344,33.9260594 41.7142164,31.6546414 41.7142164,28.8527088 C41.7142164,26.0507761 43.9856344,23.7793581 46.787567,23.7793581 C49.5894996,23.7793581 51.8609176,26.0507761 51.8609176,28.8527088 L51.8609176,28.8527088 Z" id="Fill-5" fill="#664E27"></path>
            </g>
        </g>
    </g>
</svg>