<?xml version="1.0" encoding="UTF-8" standalone="no"?>
<svg width="31px" height="43px" viewBox="0 0 31 43" version="1.1" xmlns="http://www.w3.org/2000/svg" xmlns:xlink="http://www.w3.org/1999/xlink">
    <!-- Generator: Sketch 39.1 (31720) - http://www.bohemiancoding.com/sketch -->
    <title>like-spot</title>
    <desc>Created with Sketch.</desc>
    <defs></defs>
    <g id="Page-1" stroke="none" stroke-width="1" fill="none" fill-rule="evenodd">
        <g id="Artboard" transform="translate(-951.000000, -567.000000)">
            <g id="like-spot" transform="translate(951.000000, 567.000000)">
                <ellipse id="Oval-8" fill="#FFFFFF" cx="15.5" cy="15.5" rx="15" ry="15"></ellipse>
                <path d="M29,14.5 C29,7.04415588 22.9558441,1 15.5,1 C8.04415588,1 2,7.04415588 2,14.5 C2,20.736207 4.22846808,25.9848023 9.97469152,27.5350733 L15.9629657,42 L22.0386353,27.2181022 C27.2618095,25.3539738 29,20.3635375 29,14.5 Z" id="Path" fill="#FFFFFF"></path>
                <path d="M20.0386353,28.2181022 C25.2618095,26.3539738 29,21.3635375 29,15.5 C29,8.04415588 22.9558441,2 15.5,2 C8.04415588,2 2,8.04415588 2,15.5 C2,21.736207 6.22846808,26.9848023 11.9746915,28.5350733 L15.9629657,43 L20.0386353,28.2181022 L20.0386353,28.2181022 Z M15.5,26 C21.2989899,26 26,21.2989899 26,15.5 C26,9.70101013 21.2989899,5 15.5,5 C9.70101013,5 5,9.70101013 5,15.5 C5,21.2989899 9.70101013,26 15.5,26 L15.5,26 Z" id="Shape" fill="#E1D01F"></path>
                <path d="M23.9385542,12.5875 C23.9385542,12.73625 23.8566265,12.90625 23.6722892,13.0975 L19.9650602,16.8375 L20.8457831,22.12875 C20.8457831,22.17125 20.8662651,22.25625 20.8662651,22.34125 C20.8662651,22.49 20.8253012,22.6175 20.7638554,22.72375 C20.7024096,22.83 20.5795181,22.8725 20.4566265,22.8725 C20.3337349,22.8725 20.1903614,22.83 20.046988,22.745 L15.4590361,20.2375 L10.8915663,22.72375 C10.7481928,22.80875 10.6048193,22.85125 10.4819277,22.85125 C10.3385542,22.85125 10.2361446,22.80875 10.1542169,22.7025 C10.0927711,22.59625 10.0518072,22.46875 10.0518072,22.32 C10.0518072,22.2775 10.0518072,22.21375 10.0722892,22.1075 L10.953012,16.8375 L7.24578313,13.0975 C7.08192771,12.90625 7,12.73625 7,12.5875 C7,12.3325 7.18433735,12.1625 7.57349398,12.09875 L12.6939759,11.33375 L14.9674699,6.53125 C15.0903614,6.23375 15.2542169,6.10625 15.4590361,6.10625 C15.6638554,6.10625 15.8277108,6.255 15.9506024,6.53125 L18.2445783,11.33375 L23.3650602,12.09875 C23.7337349,12.1625 23.9385542,12.3325 23.9385542,12.5875 L23.9385542,12.5875 Z" id="Shape" fill="#E1D01F"></path>
            </g>
        </g>
    </g>
</svg>