<?xml version="1.0" encoding="UTF-8"?>
<svg width="29px" height="42px" viewBox="0 0 29 42" version="1.1" xmlns="http://www.w3.org/2000/svg" xmlns:xlink="http://www.w3.org/1999/xlink">
    <!-- Generator: Sketch 40.3 (33839) - http://www.bohemiancoding.com/sketch -->
    <title>spot-add</title>
    <desc>Created with Sketch.</desc>
    <defs></defs>
    <g id="Page-1" stroke="none" stroke-width="1" fill="none" fill-rule="evenodd">
        <g id="spot-add">
            <circle id="Oval-8" fill="#FFFFFF" cx="14.5" cy="14.5" r="14.5"></circle>
            <path d="M28,13.5 C28,6.04415588 21.9558441,0 14.5,0 C7.04415588,0 1,6.04415588 1,13.5 C1,19.736207 3.22846808,24.9848023 8.97469152,26.5350733 L14.9629657,41 L21.0386353,26.2181022 C26.2618095,24.3539738 28,19.3635375 28,13.5 Z" id="radspot-path" fill="#FFFFFF"></path>
            <path d="M19.0386353,27.2181022 C24.2618095,25.3539738 28,20.3635375 28,14.5 C28,7.04415588 21.9558441,1 14.5,1 C7.04415588,1 1,7.04415588 1,14.5 C1,20.736207 5.22846808,25.9848023 10.9746915,27.5350733 L14.9629657,42 L19.0386353,27.2181022 L19.0386353,27.2181022 Z M14.5,25 C20.2989899,25 25,20.2989899 25,14.5 C25,8.70101013 20.2989899,4 14.5,4 C8.70101013,4 4,8.70101013 4,14.5 C4,20.2989899 8.70101013,25 14.5,25 L14.5,25 Z M12.7991667,16.4908333 L12.7991667,21.29 L16.4908333,21.29 L16.4908333,16.4908333 L21.29,16.4908333 L21.29,12.7991667 L16.4908333,12.7991667 L16.4908333,8 L12.7991667,8 L12.7991667,12.7991667 L8,12.7991667 L8,16.4908333 L12.7991667,16.4908333 L12.7991667,16.4908333 L12.7991667,16.4908333 Z" id="radspot" fill="#17206B"></path>
        </g>
    </g>
</svg>