<?xml version="1.0" encoding="UTF-8" standalone="no"?>
<svg width="31px" height="43px" viewBox="0 0 31 43" version="1.1" xmlns="http://www.w3.org/2000/svg" xmlns:xlink="http://www.w3.org/1999/xlink">
    <!-- Generator: Sketch 39.1 (31720) - http://www.bohemiancoding.com/sketch -->
    <title>bus-spot</title>
    <desc>Created with Sketch.</desc>
    <defs></defs>
    <g id="Page-1" stroke="none" stroke-width="1" fill="none" fill-rule="evenodd">
        <g id="Artboard" transform="translate(-768.000000, -567.000000)">
            <g id="bus-spot" transform="translate(768.000000, 567.000000)">
                <ellipse id="Oval-8" fill="#FFFFFF" cx="15.5" cy="15.5" rx="15" ry="15"></ellipse>
                <path d="M29,14.5 C29,7.04415588 22.9558441,1 15.5,1 C8.04415588,1 2,7.04415588 2,14.5 C2,20.736207 4.22846808,25.9848023 9.97469152,27.5350733 L15.9629657,42 L22.0386353,27.2181022 C27.2618095,25.3539738 29,20.3635375 29,14.5 Z" id="Path" fill="#FFFFFF"></path>
                <path d="M20.0386353,28.2181022 C25.2618095,26.3539738 29,21.3635375 29,15.5 C29,8.04415588 22.9558441,2 15.5,2 C8.04415588,2 2,8.04415588 2,15.5 C2,21.736207 6.22846808,26.9848023 11.9746915,28.5350733 L15.9629657,43 L20.0386353,28.2181022 L20.0386353,28.2181022 Z M15.5,26 C21.2989899,26 26,21.2989899 26,15.5 C26,9.70101013 21.2989899,5 15.5,5 C9.70101013,5 5,9.70101013 5,15.5 C5,21.2989899 9.70101013,26 15.5,26 L15.5,26 Z" id="Shape" fill="#FAA71B"></path>
                <path d="M20.5715014,21.0591151 L20.5715014,22.038261 C20.5715014,22.7384753 20.1406002,23.1809185 19.4576989,23.1924605 L18.5170263,23.1924605 C18.2289667,23.1964492 17.9520037,23.0815091 17.7514132,22.8747298 C17.5508228,22.6679505 17.4443491,22.3876238 17.4570864,22.0998183 L17.4570864,21.0571914 L13.3000446,21.0571914 L13.3000446,21.3919093 C13.3866096,22.8808266 13.0172657,23.2751781 11.5495087,23.1866895 L11.2417222,23.1866895 C10.9557097,23.1884344 10.6813553,23.0734632 10.4820356,22.8683345 C10.2827158,22.6632057 10.1756713,22.3856626 10.1856296,22.0998183 L10.1856296,21.0610387 C9.79027268,21.0563731 9.43268443,20.8252125 9.26611737,20.466626 C9.1947701,20.3174012 9.15545348,20.1548925 9.15069743,19.9895569 C9.15069743,16.7443326 9.13146077,13.5010321 9.15069743,10.2558078 C9.1750562,8.72160478 10.302272,7.42859805 11.8188219,7.19525553 C11.9622505,7.1751238 12.1068215,7.16420066 12.2516467,7.16255321 L18.4689346,7.16255321 C19.9997692,7.16624064 21.303003,8.27736748 21.5487236,9.78835705 C21.5852096,10.0076377 21.6019485,10.2297496 21.5987389,10.4520218 C21.5987389,13.5741314 21.5987389,16.696241 21.6179756,19.8183506 C21.6218229,20.4454657 21.2928761,20.9840921 20.5715014,21.0591151 Z M10.183706,10.3750751 L10.183706,16.7674166 L20.5541884,16.7577983 L20.5541884,10.3654568 L10.183706,10.3750751 Z M13.2961973,9.28628027 L17.4320788,9.28628027 L17.4320788,8.2321114 L13.2961973,8.2321114 L13.2961973,9.28628027 Z M19.5269508,17.8427458 C19.0921291,17.8325746 18.694604,18.0871943 18.5220085,18.4864238 C18.3494129,18.8856534 18.4362538,19.3496749 18.7415421,19.6594693 C19.0468303,19.9692636 19.5095297,20.0628937 19.9112451,19.8961658 C20.3129606,19.729438 20.5733772,19.3356862 20.5695777,18.900762 C20.5635449,18.3249099 20.1026528,17.8572149 19.5269508,17.8427458 L19.5269508,17.8427458 Z M11.2224855,19.9837859 C11.8121238,19.9837859 12.29012,19.5057896 12.29012,18.9161514 C12.29012,18.3265131 11.8121238,17.8485168 11.2224855,17.8485168 C10.6328472,17.8485168 10.154851,18.3265131 10.154851,18.9161514 C10.154851,19.5057896 10.6328472,19.9837859 11.2224855,19.9837859 Z M23.6839927,14.2301014 C23.4723894,14.6706209 23.2992595,14.6533079 22.6548315,14.6148346 L22.6548315,11.4504043 C23.1646029,11.3119004 23.4800841,11.4253967 23.6859163,11.8235955 L23.6839927,14.2301014 Z M7.05774902,11.8409085 C7.27127592,11.3965417 7.44248218,11.4196257 8.08691023,11.4561753 L8.08691023,14.6206056 C7.58675712,14.7629569 7.26165759,14.6436896 7.05774902,14.2474144 L7.05774902,11.8409085 Z" id="bus" fill="#FAA71B"></path>
            </g>
        </g>
    </g>
</svg>