<?xml version="1.0" encoding="UTF-8" standalone="no"?>
<svg width="386px" height="43px" viewBox="0 0 386 43" version="1.1" xmlns="http://www.w3.org/2000/svg" xmlns:xlink="http://www.w3.org/1999/xlink">
    <!-- Generator: Sketch 39.1 (31720) - http://www.bohemiancoding.com/sketch -->
    <title>header-image</title>
    <desc>Created with Sketch.</desc>
    <defs>
        <polygon id="path-1" points="0.0222413793 0.228344828 0.0222413793 22.9826484 70.3150247 22.9826484 70.3150247 0.228344828 0.0222413793 0.228344828"></polygon>
    </defs>
    <g id="Page-1" stroke="none" stroke-width="1" fill="none" fill-rule="evenodd">
        <g id="header-image">
            <path d="M25.8196466,26.9383879 C26.1280603,26.3141466 26.3782759,26.3463966 27.305,26.396069 C27.3064828,27.8754914 27.3079655,29.3552845 27.3094483,30.8365603 C26.5880862,31.03525 26.1187931,30.8706638 25.8229828,30.3127759 C25.8218707,29.1881034 25.8207586,28.0630603 25.8196466,26.9383879" id="Fill-1" fill="#EEA02F"></path>
            <path d="M49.8184655,30.2894224 C49.5126466,30.9077328 49.2594655,30.8836379 48.332,30.831 C48.3305172,29.3515776 48.3290345,27.8714138 48.3275517,26.3901379 C49.0641121,26.1947845 49.5178362,26.354181 49.8151293,26.9150345 C49.8162414,28.0397069 49.8173534,29.1643793 49.8184655,30.2894224" id="Fill-2" fill="#EEA02F"></path>
            <path d="M31.83075,38.3656379 C32.6381121,38.3645259 33.3194397,37.6831983 33.3257414,36.8717586 C33.3320431,36.0692155 32.6514569,35.3823276 31.8381638,35.3704655 C31.0289483,35.3586034 30.3235259,36.0640259 30.3320517,36.8762069 C30.3402069,37.6880172 31.0237586,38.3671207 31.83075,38.3656379 L31.83075,38.3656379 Z M43.8181121,35.3586034 C43.0085259,35.3660172 42.327569,36.0510517 42.3283103,36.8584138 C42.328681,37.6654052 43.0103793,38.3474741 43.8221897,38.3541466 C44.6328879,38.3604483 45.337569,37.651319 45.3234828,36.8428448 C45.3093966,36.029181 44.6221379,35.3515603 43.8181121,35.3586034 L43.8181121,35.3586034 Z M34.8244397,23.3523362 C36.8287586,23.3504828 38.8149138,23.3482586 40.7955086,23.3464052 C40.7951379,22.8433793 40.7943966,22.3562931 40.7940259,21.8736552 C38.7948966,21.8755086 36.8143017,21.8773621 34.8229569,21.8792155 C34.8236983,22.3726034 34.824069,22.8537586 34.8244397,23.3523362 L34.8244397,23.3523362 Z M30.3327931,24.881431 C30.3357586,27.8862414 30.3387241,30.8725172 30.3416897,33.8521207 C35.3437759,33.8473017 40.3295517,33.8424828 45.3108793,33.8376638 C45.3079138,30.8384138 45.3049483,27.8576983 45.3019828,24.8669741 C40.3095345,24.8717931 35.329319,24.8766121 30.3327931,24.881431 L30.3327931,24.881431 Z M45.3275603,39.8728621 C45.327931,40.3295517 45.3290431,40.7884655 45.3290431,41.24775 C45.3283017,42.2311897 44.7066552,42.8520948 43.72025,42.854319 C43.2672672,42.855431 42.8142845,42.8583966 42.3613017,42.8550603 C41.4823966,42.8487586 40.8403621,42.210431 40.8325776,41.3341207 C40.8281293,40.8514828 40.8307241,40.3688448 40.8303534,39.8721207 C38.8260345,39.8739741 36.8398793,39.8758276 34.8296293,39.8780517 C34.83,40.038931 34.8222155,40.1935086 34.8314828,40.3469741 C34.9552931,42.4354397 34.4233534,42.9896207 32.3056034,42.8665517 C32.1576983,42.8580259 32.008681,42.8672931 31.8604052,42.8658103 C30.9837241,42.8569138 30.3439138,42.2193276 30.3346466,41.339681 C30.3298276,40.8570431 30.3331638,40.3740345 30.3324224,39.8810172 C29.7345,39.8309741 29.2633534,39.5878017 29.0049828,39.0477069 C28.9071207,38.8430862 28.8392845,38.6017672 28.8385431,38.3771293 C28.8251983,33.8239483 28.8114828,29.2711379 28.825569,24.7179569 C28.8318707,22.5738879 30.5503879,20.6933793 32.6922328,20.4186983 C32.9005603,20.3920086 33.1114828,20.3731034 33.3212931,20.3727328 C36.3123879,20.3668017 39.3034828,20.3612414 42.2945776,20.3634655 C44.4964741,20.3649483 46.3261983,21.881069 46.7365517,24.0444138 C46.7943793,24.3483793 46.8092069,24.6645776 46.8099483,24.9752155 C46.8184741,29.3563966 46.8084655,33.7375776 46.8362672,38.1183879 C46.8418276,39.0128621 46.3714224,39.7683276 45.3275603,39.8728621 L45.3275603,39.8728621 Z" id="Fill-3" fill="#EEA02F"></path>
            <g id="Group-8" transform="translate(0.000000, 20.017241)">
                <mask id="mask-2" fill="white">
                    <use xlink:href="#path-1"></use>
                </mask>
                <g id="Clip-5"></g>
                <polygon id="Fill-4" fill="#62B449" mask="url(#mask-2)" points="59.7440517 7.00371552 59.9925517 7.00371552 59.9925517 6.87221552 59.7440517 6.87221552"></polygon>
                <path d="M17.0335603,17.452069 C16.3967155,17.4453966 15.8747845,16.9078966 15.8866466,16.2710517 C15.8985086,15.6468103 16.4311897,15.1248793 17.0532069,15.1278448 C17.6859741,15.1304397 18.2171724,15.6694224 18.2116121,16.3021897 C18.205681,16.9416293 17.6755948,17.4587414 17.0335603,17.452069 L17.0335603,17.452069 Z M11.8605862,11.4027845 C9.8325431,11.3972241 7.80487069,11.3920345 5.77719828,11.3861034 C5.36017241,11.3849914 5.24859483,11.2782328 5.24933621,10.86825 C5.25489655,8.50028448 5.26119828,6.13231897 5.26935345,3.76398276 C5.27046552,3.37809483 5.39872414,3.25391379 5.78943103,3.25502586 C9.85256034,3.26577586 13.9156897,3.27689655 17.9791897,3.28838793 C18.3680431,3.2895 18.495931,3.4147931 18.494819,3.8017931 C18.4896293,6.16975862 18.4833276,8.53809483 18.4751724,10.9060603 C18.4740603,11.3153017 18.3621121,11.4205776 17.9436034,11.4194655 C15.915931,11.4142759 13.8882586,11.4083448 11.8605862,11.4027845 L11.8605862,11.4027845 Z M6.71059483,17.4238966 C6.06893103,17.4168534 5.56405172,16.8919569 5.5722069,16.2410259 C5.57999138,15.6115948 6.10562931,15.0952241 6.73394828,15.0993017 C7.36560345,15.10375 7.90199138,15.6482931 7.89198276,16.2758707 C7.88160345,16.9153103 7.35077586,17.4309397 6.71059483,17.4238966 L6.71059483,17.4238966 Z M18.2920517,18.7457759 C18.6972155,18.7046293 19.0760603,18.7061121 19.4552759,18.7064828 C20.0695086,18.7072241 20.3660603,18.4169741 20.3682845,17.7986638 C20.3823707,13.0008276 20.398681,8.20299138 20.3997931,3.40478448 C20.3997931,3.08228448 20.3338103,2.73494828 20.2011034,2.44321552 C19.85525,1.68256034 19.2069138,1.35227586 18.3902845,1.34634483 C17.1291983,1.33596552 15.8677414,1.33744828 14.6062845,1.33411207 L14.3264138,1.33337069 L14.3293793,0.274310345 L9.45036207,0.260965517 L9.44739655,1.32002586 L9.17864655,1.31928448 C7.90940517,1.31557759 6.64016379,1.30593966 5.3712931,1.31112931 C4.55355172,1.31483621 3.92893966,1.66217241 3.55157759,2.40614655 C3.38625,2.73235345 3.35956034,3.08673276 3.35807759,3.4437069 C3.34436207,8.18705172 3.33212931,12.9311379 3.31915517,17.6748534 C3.31878448,17.7289741 3.31730172,17.7830948 3.31952586,17.8375862 C3.34139655,18.3676724 3.64276724,18.6605172 4.17322414,18.6642241 C4.57356897,18.6671897 4.97317241,18.666819 5.37314655,18.667931 C5.37648276,18.6842414 5.38018966,18.7005517 5.38426724,18.7164914 C3.58975862,20.0906379 1.79450862,21.4647845 0,22.8385603 C0.00630172414,22.8545 0.0122327586,22.8704397 0.0181637931,22.88675 L0.242060345,22.8871207 C1.24032759,22.8900862 2.23896552,22.8889741 3.23723276,22.8989828 C3.4114569,22.9008362 3.53675,22.8545 3.66352586,22.7295776 C4.98725862,21.4269741 6.31877586,20.1321552 7.64436207,18.8310345 C7.75705172,18.7201983 7.86862931,18.6708966 8.02913793,18.6720086 C10.56725,18.6838707 13.1057328,18.6912845 15.6438448,18.6923966 C15.8147328,18.6923966 15.9296466,18.7476293 16.0471552,18.8643966 C17.3708879,20.1773793 18.6972155,21.4885086 20.0302155,22.7929655 C20.1125086,22.8730345 20.2526293,22.9341983 20.3668017,22.9360517 C21.3954655,22.9493966 22.4248707,22.9486552 23.4542759,22.9505086 C23.5184052,22.9505086 23.5832759,22.9416121 23.6974483,22.9330862 C21.8684655,21.5159397 20.0802586,20.1306724 18.2920517,18.7457759 L18.2920517,18.7457759 Z" id="Fill-6" fill="#23A3BC" mask="url(#mask-2)"></path>
                <path d="M68.987569,17.4094397 L68.987569,17.4146293 C68.8682069,17.9458276 68.3966897,18.3791638 67.8495517,18.4336552 L67.8465862,18.4336552 C67.8032155,18.43625 67.7654052,18.43625 67.7246293,18.43625 C67.2045517,18.4336552 66.74675,18.1055948 66.5462069,17.6503879 C66.5462069,17.6451983 66.5406466,17.6451983 66.5462069,17.6422328 C66.4783707,17.4906207 66.4379655,17.3226983 66.4379655,17.1518103 C66.4379655,17.1273448 66.4379655,17.1084397 66.4431552,17.0869397 C66.4461207,16.9731379 66.4702155,16.8593362 66.5109914,16.7507241 C66.6815086,16.2469569 67.1667414,15.872931 67.7194397,15.8703362 C67.7520603,15.8703362 67.7735603,15.8703362 67.8032155,15.872931 L67.827681,15.872931 C67.838431,15.872931 67.8465862,15.872931 67.8577069,15.8758966 C68.4889914,15.9381724 68.998319,16.4934655 69.0146293,17.1384655 C69.0146293,17.2303966 69.0064741,17.3226983 68.987569,17.4094397 L68.987569,17.4094397 Z M58.4529397,20.4520603 C58.49075,20.365319 58.528931,20.2893276 58.5641466,20.2137069 C58.5723017,20.1973966 58.5774914,20.1866466 58.5856466,20.1703362 C58.6508879,20.0457845 58.7183534,19.9156724 58.7835948,19.7911207 C58.79175,19.78 58.7943448,19.7636897 58.8025,19.7529397 L60.0135431,19.7529397 L60.0135431,19.7447845 C61.731319,19.7395948 63.4383448,19.7395948 65.161681,19.7366293 L65.161681,19.7529397 L66.3104483,19.7529397 C66.3186034,19.7636897 66.3211983,19.78 66.3293534,19.7911207 C66.4053448,19.9319828 66.4783707,20.0728448 66.5488017,20.2137069 C66.5921724,20.2922931 66.6303534,20.3708793 66.6707586,20.4520603 L58.4529397,20.4520603 L58.4529397,20.4520603 Z M57.5262155,18.4444052 C57.4935948,18.447 57.4695,18.447 57.4368793,18.447 C56.7407241,18.4525603 56.1554052,17.8672414 56.1498448,17.1707155 C56.1498448,17.0569138 56.1635603,16.9405172 56.1906207,16.8348707 C56.2310259,16.6914138 56.2962672,16.5531466 56.3856034,16.43675 C56.5290603,16.2306466 56.7296034,16.0679138 56.9653621,15.9733879 C57.0224483,15.9489224 57.0791638,15.9270517 57.1414397,15.9111121 C57.2148362,15.8973966 57.2904569,15.8840517 57.3608879,15.8810862 C57.3879483,15.8758966 57.4153793,15.8758966 57.4424397,15.8758966 C57.4746897,15.8758966 57.5099052,15.8810862 57.539931,15.8810862 L57.5480862,15.8810862 C58.0411034,15.9352069 58.4636897,16.2658621 58.6345776,16.710319 C58.6723879,16.8052155 58.6968534,16.9027069 58.7076034,17.0057586 C58.7101983,17.0569138 58.7157586,17.1084397 58.7157586,17.1625603 C58.7101983,17.5339914 58.5478362,17.8728017 58.2850172,18.1081897 C58.0818793,18.3035431 57.8135,18.4255 57.5262155,18.4444052 L57.5262155,18.4444052 Z M56.1498448,6.87221552 L57.7945948,6.87221552 C60.9699224,6.87221552 64.1348707,6.86925 67.3101983,6.86406034 L69.1799569,6.86406034 C69.1799569,9.42700862 69.1851466,11.9877328 69.1881121,14.5618017 L67.6705086,14.5618017 C66.9120776,14.5618017 66.150681,14.5643966 65.3892845,14.5643966 C63.5306466,14.5643966 61.6664483,14.5695862 59.80225,14.5695862 C59.0193534,14.5695862 58.2390517,14.5725517 57.4557845,14.5725517 L56.1554052,14.5725517 C56.1554052,12.0526034 56.1524397,9.51931034 56.1498448,6.9697069 L56.1498448,6.87221552 L56.1498448,6.87221552 Z M69.0172241,19.7395948 C69.9113276,19.6498879 70.3179741,18.9996983 70.3150086,18.2357069 C70.2905431,14.4750603 70.2961034,10.7170086 70.2905431,6.95599138 C70.2905431,6.69057759 70.2771983,6.41700862 70.2256724,6.15678448 C69.8761121,4.29814655 68.3073534,3.00036207 66.4135,2.99739655 C65.3892845,2.99739655 64.3676638,2.99739655 63.3434483,3.00036207 L63.3434483,1.71036207 L67.8684569,1.71036207 C68.2910431,1.71036207 68.4589655,1.85937931 68.5160517,2.28493103 C68.5675776,2.68601724 68.9060172,2.96218103 69.3096983,2.94068103 C69.6785345,2.91621552 69.987319,2.58556034 69.9899138,2.20078448 C70.0036293,1.29333621 69.353069,0.483008621 68.4508103,0.274681034 C68.4104052,0.263560345 68.3670345,0.244655172 68.3288534,0.228344828 L56.8382155,0.228344828 C56.7377586,0.263560345 56.6321121,0.288025862 56.5320259,0.325836207 C55.8410603,0.575310345 55.4021638,1.05757759 55.217931,1.76744828 C55.2042155,1.81081897 55.1908707,1.85122414 55.1745603,1.89459483 L55.1745603,2.39613793 C55.250181,2.50697414 55.3124569,2.62893103 55.3991983,2.71826724 C55.6053017,2.93512069 55.8625603,2.99739655 56.1442845,2.90287069 C56.4289741,2.80241379 56.6050517,2.60187069 56.6458276,2.29568103 C56.7188534,1.80266379 56.8219052,1.71036207 57.3204828,1.71036207 L61.8180603,1.71036207 L61.8180603,3.00036207 L61.6312328,3.00036207 C60.6637328,3.00555172 59.6884483,3.00555172 58.7101983,3.00851724 C58.5370862,3.00851724 58.3554483,3.0244569 58.1764052,3.04892241 C56.3340776,3.28208621 54.8628103,4.89421552 54.8602155,6.73394828 C54.8439052,10.6410172 54.8602155,14.5454914 54.8683707,18.4551552 C54.8683707,18.6449483 54.9280517,18.8588362 55.0118276,19.032319 C55.2312759,19.4982759 55.6379224,19.7014138 56.1498448,19.74775 L56.1498448,19.7529397 L56.5590862,19.7529397 C56.5561207,19.7636897 56.5483362,19.78 56.540181,19.7911207 C56.4667845,19.9319828 56.3911638,20.0728448 56.3151724,20.2137069 C56.0901638,20.6388879 55.8681207,21.0644397 55.6431121,21.495181 C55.410319,21.9314828 55.4940948,22.4408103 55.8355,22.7525603 C56.2773621,23.1562414 57.0113276,23.0124138 57.3393879,22.4489655 C57.4179741,22.3106983 57.4991552,22.1672414 57.5562414,22.0182241 C57.6073966,21.8855172 57.6889483,21.8447414 57.8324052,21.8447414 C59.2603017,21.8503017 60.6830086,21.8473362 62.1079397,21.8473362 C63.8149655,21.8473362 65.5219914,21.8503017 67.2342069,21.8447414 C67.3754397,21.8447414 67.4592155,21.8825517 67.5107414,22.0152586 C67.5678276,22.1642759 67.6434483,22.3081034 67.7246293,22.4434052 C67.9414828,22.828181 68.3751897,23.0368793 68.7651552,22.9664483 C69.2259224,22.8745172 69.5373017,22.5842672 69.5754828,22.1320259 C69.5917931,21.9477931 69.5373017,21.7335345 69.450931,21.5630172 C69.2233276,21.1104052 68.987569,20.6607586 68.74625,20.2137069 C68.6702586,20.0728448 68.5998276,19.9319828 68.5242069,19.7911207 C68.5160517,19.78 68.5104914,19.7636897 68.5053017,19.7529397 L69.0172241,19.7529397 L69.0172241,19.7395948 L69.0172241,19.7395948 Z" id="Fill-7" fill="#62B449" mask="url(#mask-2)"></path>
            </g>
            <path d="M37.9760431,9.87999138 C35.6996379,9.87999138 33.8558276,8.11068966 33.8558276,5.92473276 C33.8558276,3.74285345 35.6996379,1.97355172 37.9760431,1.97355172 C40.252819,1.97355172 42.0962586,3.74285345 42.0962586,5.92473276 C42.0962586,8.11068966 40.252819,9.87999138 37.9760431,9.87999138 L37.9760431,9.87999138 Z M37.9760431,0.113431034 C34.6313103,0.113431034 31.9174914,2.7160431 31.9174914,5.92473276 C31.9174914,8.62187069 33.8313621,10.894569 36.4295259,11.550319 L37.9719655,17.023181 L38.0464741,17.023181 L39.6011466,11.5295603 C42.1581638,10.8448966 44.0349655,8.59740517 44.0349655,5.92473276 C44.0349655,2.7160431 41.3211466,0.113431034 37.9760431,0.113431034 L37.9760431,0.113431034 Z" id="Fill-9" fill="#E3682E"></path>
            <path d="M11.7938621,9.87999138 C9.51708621,9.87999138 7.67364655,8.11068966 7.67364655,5.92473276 C7.67364655,3.74285345 9.51708621,1.97355172 11.7938621,1.97355172 C14.0706379,1.97355172 15.9140776,3.74285345 15.9140776,5.92473276 C15.9140776,8.11068966 14.0706379,9.87999138 11.7938621,9.87999138 L11.7938621,9.87999138 Z M11.7938621,0.113431034 C8.44912931,0.113431034 5.73531034,2.7160431 5.73531034,5.92473276 C5.73531034,8.62187069 7.64881034,10.894569 10.2473448,11.550319 L11.7897845,17.023181 L11.8639224,17.023181 L13.4189655,11.5295603 C15.9759828,10.8448966 17.8524138,8.59740517 17.8524138,5.92473276 C17.8524138,2.7160431 15.1385948,0.113431034 11.7938621,0.113431034 L11.7938621,0.113431034 Z" id="Fill-10" fill="#1D6EA2"></path>
            <path d="M62.6687931,9.87999138 C60.3923879,9.87999138 58.5485776,8.11068966 58.5485776,5.92473276 C58.5485776,3.74285345 60.3923879,1.97355172 62.6687931,1.97355172 C64.945569,1.97355172 66.7890086,3.74285345 66.7890086,5.92473276 C66.7890086,8.11068966 64.945569,9.87999138 62.6687931,9.87999138 L62.6687931,9.87999138 Z M62.6687931,0.113431034 C59.3240603,0.113431034 56.6102414,2.7160431 56.6102414,5.92473276 C56.6102414,8.62187069 58.5237414,10.894569 61.1222759,11.550319 L62.6647155,17.023181 L62.7388534,17.023181 L64.2938966,11.5295603 C66.8509138,10.8448966 68.7277155,8.59740517 68.7277155,5.92473276 C68.7277155,2.7160431 66.0138966,0.113431034 62.6687931,0.113431034 L62.6687931,0.113431034 Z" id="Fill-11" fill="#109346"></path>
            <polyline id="Fill-12" fill="#484845" points="97.2567328 4.3037069 92.1727241 4.3037069 92.1727241 23.3523362 87.7711552 23.3523362 87.7711552 4.3037069 82.7182845 4.3037069 82.7182845 0.785491379 97.2567328 0.785491379 97.2567328 4.3037069"></polyline>
            <path d="M103.797181,10.8600948 L106.74231,10.8600948 C107.641233,10.8600948 108.322931,10.5865259 108.788147,10.0386466 C109.252991,9.49113793 109.485414,8.71083621 109.485414,7.69811207 C109.485414,6.665 109.252991,5.84355172 108.788147,5.23376724 C108.322931,4.62435345 107.646422,4.31927586 106.757879,4.31927586 L103.797181,4.31927586 L103.797181,10.8600948 L103.797181,10.8600948 Z M103.797181,14.3783103 L103.797181,23.3523362 L99.3956121,23.3523362 L99.3956121,0.801060345 L106.757879,0.801060345 C108.979052,0.801060345 110.722776,1.38749138 111.988681,2.55998276 C113.254216,3.73284483 113.887353,5.36313793 113.887353,7.45012069 C113.887353,8.62780172 113.623793,9.64349138 113.097043,10.4957069 C112.569922,11.3479224 111.8,12.0277672 110.787647,12.5341293 C111.944569,12.9266897 112.778991,13.5776207 113.290543,14.4869224 C113.802095,15.3962241 114.057871,16.5327586 114.057871,17.8965259 L114.057871,19.4930862 C114.057871,20.11325 114.129784,20.7771552 114.274724,21.4848017 C114.419293,22.1924483 114.672474,22.7062241 115.034267,23.0268707 L115.034267,23.3523362 L110.477379,23.3523362 C110.115586,23.021681 109.888353,22.484181 109.79531,21.7402069 C109.702267,20.9966034 109.655931,20.2370603 109.655931,19.4619483 L109.655931,17.9276638 C109.655931,16.8015086 109.425733,15.9281638 108.966448,15.3083707 C108.506422,14.6882069 107.847707,14.3783103 106.990302,14.3783103 L103.797181,14.3783103 L103.797181,14.3783103 Z" id="Fill-13" fill="#484845"></path>
            <path d="M122.489578,15.0136724 L126.643155,15.0136724 L124.612888,7.03161207 L124.519845,7.03161207 L122.489578,15.0136724 L122.489578,15.0136724 Z M127.542078,18.5318879 L121.590284,18.5318879 L120.381466,23.3523362 L115.93319,23.3523362 L122.287922,0.785491379 L126.875578,0.785491379 L133.214741,23.3523362 L128.766466,23.3523362 L127.542078,18.5318879 L127.542078,18.5318879 Z" id="Fill-14" fill="#484845"></path>
            <polyline id="Fill-15" fill="#484845" points="150.759853 23.3523362 146.373853 23.3523362 139.476431 8.9225 139.383388 8.95363793 139.383388 23.3523362 134.96625 23.3523362 134.96625 0.785491379 139.383388 0.785491379 146.28081 15.1997586 146.373853 15.1686207 146.373853 0.785491379 150.759853 0.785491379 150.759853 23.3523362"></polyline>
            <path d="M164.228862,17.4624483 C164.228862,16.5842845 164.001259,15.8892414 163.546793,15.3776897 C163.091957,14.8665086 162.291638,14.3627414 161.144353,13.8667586 C158.798629,13.0505 157.039707,12.1230345 155.867216,11.0847328 C154.693983,10.046431 154.107922,8.59221552 154.107922,6.72171552 C154.107922,4.87197414 154.789621,3.36623276 156.153759,2.20337931 C157.517526,1.04126724 159.258655,0.460025862 161.376776,0.460025862 C163.526034,0.460025862 165.272353,1.10836207 166.615733,2.40503448 C167.958741,3.7017069 168.609672,5.33681897 168.568526,7.31074138 L168.537759,7.40378448 L164.26,7.40378448 C164.26,6.37067241 164.001259,5.53365517 163.484888,4.89273276 C162.968147,4.25218103 162.239371,3.93153448 161.299302,3.93153448 C160.421138,3.93153448 159.736474,4.19806034 159.245681,4.73 C158.754888,5.26231034 158.509491,5.93140517 158.509491,6.73728448 C158.509491,7.48125862 158.783431,8.09326724 159.33094,8.57405172 C159.878448,9.05446552 160.829267,9.589 162.183026,10.1780259 C164.321905,10.9012414 165.931069,11.8186983 167.010888,12.9292845 C168.090707,14.0398707 168.630802,15.5407931 168.630802,17.431681 C168.630802,19.3844741 167.9795,20.9139397 166.677638,22.0193362 C165.375776,23.1247328 163.645026,23.6778017 161.485388,23.6778017 C159.336129,23.6778017 157.473784,23.0498534 155.897983,21.7943276 C154.322181,20.5391724 153.560043,18.7391034 153.61194,16.3933793 L153.643078,16.3003362 L157.936034,16.3003362 C157.936034,17.6948707 158.230362,18.6972155 158.819388,19.307 C159.408414,19.9167845 160.296957,20.2214914 161.485388,20.2214914 C162.415448,20.2214914 163.104931,19.9735 163.554578,19.4775172 C164.004224,18.9815345 164.228862,18.3102155 164.228862,17.4624483" id="Fill-16" fill="#484845"></path>
            <path d="M175.806612,11.7278793 L179.232155,11.7278793 C180.172224,11.7278793 180.89025,11.3809138 181.386233,10.6873534 C181.882216,9.9937931 182.130207,9.11340517 182.130207,8.04693103 C182.130207,6.97007759 181.88481,6.07708621 181.394017,5.36758621 C180.903224,4.6584569 180.182603,4.3037069 179.232155,4.3037069 L175.806612,4.3037069 L175.806612,11.7278793 L175.806612,11.7278793 Z M175.806612,15.2464655 L175.806612,23.3523362 L171.389474,23.3523362 L171.389474,0.785491379 L179.232155,0.785491379 C181.484466,0.785491379 183.261922,1.45125 184.563784,2.78276724 C185.865647,4.11428448 186.516578,5.85875 186.516578,8.0157931 C186.516578,10.1835862 185.863052,11.9302759 184.556,13.2569741 C183.248578,14.5833017 181.474086,15.2464655 179.232155,15.2464655 L175.806612,15.2464655 L175.806612,15.2464655 Z" id="Fill-17" fill="#484845"></path>
            <path d="M200.156103,8.87431034 C200.156103,7.25810345 199.856216,6.03816379 199.257181,5.21412069 C198.657776,4.39044828 197.784802,3.97824138 196.637517,3.97824138 C195.480224,3.97824138 194.61244,4.38785345 194.033793,5.20633621 C193.455147,6.02481897 193.166009,7.24772414 193.166009,8.87431034 L193.166009,15.2479483 C193.166009,16.8852845 193.460336,18.1130086 194.049362,18.9314914 C194.638388,19.7499741 195.506172,20.1595862 196.653086,20.1595862 C197.789621,20.1595862 198.657776,19.7499741 199.257181,18.9314914 C199.856216,18.1130086 200.156103,16.8852845 200.156103,15.2479483 L200.156103,8.87431034 L200.156103,8.87431034 Z M204.542474,15.2464655 C204.542474,17.8917069 203.824448,19.957931 202.388026,21.4458793 C200.951603,22.9338276 199.039957,23.6778017 196.653086,23.6778017 C194.266216,23.6778017 192.359759,22.9338276 190.934086,21.4458793 C189.508043,19.957931 188.795207,17.8917069 188.795207,15.2464655 L188.795207,8.9225 C188.795207,6.28763793 189.508043,4.21844828 190.934086,2.71493103 C192.359759,1.21178448 194.261026,0.460025862 196.637517,0.460025862 C199.014009,0.460025862 200.925655,1.21178448 202.372457,2.71493103 C203.819259,4.21844828 204.542474,6.28763793 204.542474,8.9225 L204.542474,15.2464655 L204.542474,15.2464655 Z" id="Fill-18" fill="#484845"></path>
            <path d="M211.826526,10.8600948 L214.772026,10.8600948 C215.670578,10.8600948 216.352276,10.5865259 216.817862,10.0386466 C217.282707,9.49113793 217.515129,8.71083621 217.515129,7.69811207 C217.515129,6.665 217.282707,5.84355172 216.817862,5.23376724 C216.352276,4.62435345 215.675397,4.31927586 214.787224,4.31927586 L211.826526,4.31927586 L211.826526,10.8600948 L211.826526,10.8600948 Z M211.826526,14.3783103 L211.826526,23.3523362 L207.424957,23.3523362 L207.424957,0.801060345 L214.787224,0.801060345 C217.008397,0.801060345 218.752491,1.38749138 220.018026,2.55998276 C221.28356,3.73284483 221.917069,5.36313793 221.917069,7.45012069 C221.917069,8.62780172 221.653509,9.64349138 221.126388,10.4957069 C220.599267,11.3479224 219.829716,12.0277672 218.816991,12.5341293 C219.973914,12.9266897 220.808707,13.5776207 221.319888,14.4869224 C221.83181,15.3962241 222.087216,16.5327586 222.087216,17.8965259 L222.087216,19.4930862 C222.087216,20.11325 222.1595,20.7771552 222.30444,21.4848017 C222.449379,22.1924483 222.701819,22.7062241 223.063983,23.0268707 L223.063983,23.3523362 L218.507095,23.3523362 C218.144931,23.021681 217.91844,22.484181 217.825026,21.7402069 C217.732353,20.9966034 217.685276,20.2370603 217.685276,19.4619483 L217.685276,17.9276638 C217.685276,16.8015086 217.455819,15.9281638 216.996164,15.3083707 C216.536509,14.6882069 215.877422,14.3783103 215.019647,14.3783103 L211.826526,14.3783103 L211.826526,14.3783103 Z" id="Fill-19" fill="#484845"></path>
            <polyline id="Fill-20" fill="#484845" points="237.462681 4.3037069 232.379043 4.3037069 232.379043 23.3523362 227.977103 23.3523362 227.977103 4.3037069 222.924603 4.3037069 222.924603 0.785491379 237.462681 0.785491379 237.462681 4.3037069"></polyline>
            <polyline id="Fill-21" fill="#484845" points="266.787198 4.3037069 261.70356 4.3037069 261.70356 23.3523362 257.301621 23.3523362 257.301621 4.3037069 252.249121 4.3037069 252.249121 0.785491379 266.787198 0.785491379 266.787198 4.3037069"></polyline>
            <path d="M273.328017,10.8600948 L276.272776,10.8600948 C277.171698,10.8600948 277.853767,10.5865259 278.318612,10.0386466 C278.783457,9.49113793 279.015879,8.71083621 279.015879,7.69811207 C279.015879,6.665 278.783457,5.84355172 278.318612,5.23376724 C277.853767,4.62435345 277.176517,4.31927586 276.288345,4.31927586 L273.328017,4.31927586 L273.328017,10.8600948 L273.328017,10.8600948 Z M273.328017,14.3783103 L273.328017,23.3523362 L268.926448,23.3523362 L268.926448,0.801060345 L276.288345,0.801060345 C278.509517,0.801060345 280.253241,1.38749138 281.519147,2.55998276 C282.784681,3.73284483 283.417819,5.36313793 283.417819,7.45012069 C283.417819,8.62780172 283.154259,9.64349138 282.627509,10.4957069 C282.100759,11.3479224 281.330466,12.0277672 280.318112,12.5341293 C281.475034,12.9266897 282.309828,13.5776207 282.821009,14.4869224 C283.33256,15.3962241 283.588336,16.5327586 283.588336,17.8965259 L283.588336,19.4930862 C283.588336,20.11325 283.660621,20.7771552 283.80519,21.4848017 C283.950129,22.1924483 284.20331,22.7062241 284.564733,23.0268707 L284.564733,23.3523362 L280.007845,23.3523362 C279.646422,23.021681 279.41919,22.484181 279.326147,21.7402069 C279.233103,20.9966034 279.186397,20.2370603 279.186397,19.4619483 L279.186397,17.9276638 C279.186397,16.8015086 278.956569,15.9281638 278.496914,15.3083707 C278.037259,14.6882069 277.378172,14.3783103 276.520767,14.3783103 L273.328017,14.3783103 L273.328017,14.3783103 Z" id="Fill-22" fill="#484845"></path>
            <path d="M297.739414,8.87431034 C297.739414,7.25810345 297.439897,6.03816379 296.840491,5.21412069 C296.241086,4.39044828 295.368112,3.97824138 294.221198,3.97824138 C293.063905,3.97824138 292.19575,4.38785345 291.617103,5.20633621 C291.038457,6.02481897 290.749319,7.24772414 290.749319,8.87431034 L290.749319,15.2479483 C290.749319,16.8852845 291.044017,18.1130086 291.632672,18.9314914 C292.221698,19.7499741 293.089483,20.1595862 294.236767,20.1595862 C295.372931,20.1595862 296.241086,19.7499741 296.840491,18.9314914 C297.439897,18.1130086 297.739414,16.8852845 297.739414,15.2479483 L297.739414,8.87431034 L297.739414,8.87431034 Z M302.125784,15.2464655 C302.125784,17.8917069 301.407388,19.957931 299.971336,21.4458793 C298.534914,22.9338276 296.623267,23.6778017 294.236767,23.6778017 C291.849526,23.6778017 289.94344,22.9338276 288.517397,21.4458793 C287.091353,19.957931 286.378517,17.8917069 286.378517,15.2464655 L286.378517,8.9225 C286.378517,6.28763793 287.091353,4.21844828 288.517397,2.71493103 C289.94344,1.21178448 291.844336,0.460025862 294.221198,0.460025862 C296.59769,0.460025862 298.508966,1.21178448 299.955767,2.71493103 C301.402198,4.21844828 302.125784,6.28763793 302.125784,8.9225 L302.125784,15.2464655 L302.125784,15.2464655 Z" id="Fill-23" fill="#484845"></path>
            <path d="M320.057897,0.785491379 L320.057897,16.1453879 C320.057897,18.5530172 319.352845,20.4101724 317.942371,21.7168534 C316.531897,23.0242759 314.68475,23.6778017 312.401302,23.6778017 C310.117853,23.6778017 308.270707,23.021681 306.860603,21.7094397 C305.450129,20.3971983 304.745078,18.5422672 304.745078,16.1453879 L304.745078,0.785491379 L309.146647,0.785491379 L309.146647,16.1453879 C309.146647,17.5195345 309.430595,18.5318879 309.998862,19.1831897 C310.5675,19.8341207 311.36819,20.1595862 312.401302,20.1595862 C313.465552,20.1595862 314.276621,19.8496897 314.834509,19.2295259 C315.392767,18.6093621 315.671526,17.5818103 315.671526,16.1453879 L315.671526,0.785491379 L320.057897,0.785491379" id="Fill-24" fill="#484845"></path>
            <path d="M327.637017,13.4019138 L327.637017,19.8341207 L330.752664,19.8341207 C331.682353,19.8341207 332.377397,19.5761207 332.837422,19.0590086 C333.296707,18.5422672 333.526905,17.7723448 333.526905,16.7499828 C333.526905,15.6749828 333.33044,14.8487155 332.937879,14.2696983 C332.545319,13.6914224 331.914776,13.4019138 331.046991,13.4019138 L327.637017,13.4019138 L327.637017,13.4019138 Z M327.637017,10.3174052 L330.070595,10.3174052 C330.969517,10.2966466 331.659371,10.0353103 332.139784,9.53302586 C332.620198,9.03037069 332.860405,8.30789655 332.860405,7.36523276 C332.860405,6.30839655 332.612414,5.53402586 332.116431,5.04212069 C331.620448,4.54984483 330.871284,4.3037069 329.86894,4.3037069 L327.637017,4.3037069 L327.637017,10.3174052 L327.637017,10.3174052 Z M323.219879,23.3523362 L323.219879,0.785491379 L329.86894,0.785491379 C332.193905,0.785491379 334.009914,1.30223276 335.316966,2.33534483 C336.624388,3.36882759 337.277543,4.90830172 337.277543,6.95413793 C337.277543,8.02876724 337.039931,8.98181034 336.564707,9.81400862 C336.089112,10.6458362 335.376276,11.2682241 334.425828,11.6815431 C335.613888,11.9606724 336.492422,12.5648966 337.06069,13.4945862 C337.628957,14.4246466 337.913276,15.5148448 337.913276,16.765181 C337.913276,18.9251897 337.295707,20.5625259 336.06094,21.6783017 C334.826172,22.7944483 333.056871,23.3523362 330.752664,23.3523362 L323.219879,23.3523362 L323.219879,23.3523362 Z" id="Fill-25" fill="#484845"></path>
            <polyline id="Fill-26" fill="#484845" points="345.244034 19.8341207 353.490026 19.8341207 353.490026 23.3523362 340.826897 23.3523362 340.826897 0.785491379 345.244034 0.785491379 345.244034 19.8341207"></polyline>
            <polyline id="Fill-27" fill="#484845" points="367.687069 13.44825 360.107948 13.44825 360.107948 19.8341207 369.020069 19.8341207 369.020069 23.3523362 355.69081 23.3523362 355.69081 0.785491379 368.988931 0.785491379 368.988931 4.3037069 360.107948 4.3037069 360.107948 9.93003448 367.687069 9.93003448 367.687069 13.44825"></polyline>
            <path d="M381.343276,17.4624483 C381.343276,16.5842845 381.113448,15.8892414 380.661207,15.3776897 C380.205259,14.8665086 379.404569,14.3627414 378.259138,13.8667586 C375.912672,13.0505 374.151897,12.1230345 372.980517,11.0847328 C371.805431,10.046431 371.219741,8.59221552 371.219741,6.72171552 C371.219741,4.87197414 371.90181,3.36623276 373.265948,2.20337931 C374.630086,1.04126724 376.372328,0.460025862 378.488966,0.460025862 C380.638966,0.460025862 382.384914,1.10836207 383.730517,2.40503448 C385.072414,3.7017069 385.721121,5.33681897 385.680345,7.31074138 L385.65069,7.40378448 L381.372931,7.40378448 C381.372931,6.37067241 381.113448,5.53365517 380.59819,4.89273276 C380.079224,4.25218103 379.352672,3.93153448 378.411121,3.93153448 C377.532586,3.93153448 376.850517,4.19806034 376.3575,4.73 C375.86819,5.26231034 375.623534,5.93140517 375.623534,6.73728448 C375.623534,7.48125862 375.897845,8.09326724 376.442759,8.57405172 C376.991379,9.05446552 377.944052,9.589 379.297069,10.1780259 C381.435948,10.9012414 383.044741,11.8186983 384.123448,12.9292845 C385.202155,14.0398707 385.743362,15.5407931 385.743362,17.431681 C385.743362,19.3844741 385.094655,20.9139397 383.789828,22.0193362 C382.488707,23.1247328 380.757586,23.6778017 378.600172,23.6778017 C376.450172,23.6778017 374.585603,23.0498534 373.010172,21.7943276 C371.434741,20.5391724 370.673345,18.7391034 370.726724,16.3933793 L370.756379,16.3003362 L375.048966,16.3003362 C375.048966,17.6948707 375.345517,18.6972155 375.931207,19.307 C376.520603,19.9167845 377.410259,20.2214914 378.600172,20.2214914 C379.526897,20.2214914 380.220086,19.9735 380.668621,19.4775172 C381.117155,18.9815345 381.343276,18.3102155 381.343276,17.4624483" id="Fill-28" fill="#484845"></path>
            <polyline id="Fill-29" fill="#868884" points="92.896681 38.8100948 92.9500603 38.8100948 94.6882241 29.6051293 96.4527069 29.6051293 93.8456466 42.5166207 92.187181 42.5166207 89.9971466 33.3472414 89.9437672 33.3472414 87.7359397 42.5166207 86.0774741 42.5166207 83.4793103 29.6051293 85.2437931 29.6051293 86.9908534 38.8100948 87.0442328 38.8100948 89.2435345 29.6051293 90.6710603 29.6051293 92.896681 38.8100948"></polyline>
            <polyline id="Fill-30" fill="#868884" points="106.659276 42.5166207 104.868103 42.5166207 104.868103 36.8146724 99.9197672 36.8146724 99.9197672 42.5166207 98.1196983 42.5166207 98.1196983 29.6051293 99.9197672 29.6051293 99.9197672 35.448681 104.868103 35.448681 104.868103 29.6051293 106.659276 29.6051293 106.659276 42.5166207"></polyline>
            <path d="M111.501224,37.8255431 L114.791095,37.8255431 L113.177112,32.1858707 L113.124103,32.1858707 L111.501224,37.8255431 L111.501224,37.8255431 Z M115.199224,39.253069 L111.084198,39.253069 L110.1445,42.5166207 L108.317741,42.5166207 L112.290422,29.6051293 L114.028586,29.6051293 L117.965681,42.5166207 L116.138922,42.5166207 L115.199224,39.253069 L115.199224,39.253069 Z" id="Fill-31" fill="#868884"></path>
            <polyline id="Fill-32" fill="#868884" points="125.74275 30.97075 122.42619 30.97075 122.42619 42.5166207 120.626121 42.5166207 120.626121 30.97075 117.327353 30.97075 117.327353 29.6051293 125.74275 29.6051293 125.74275 30.97075"></polyline>
            <path d="M133.422328,37.8255431 L136.712198,37.8255431 L135.098216,32.1858707 L135.045207,32.1858707 L133.422328,37.8255431 L133.422328,37.8255431 Z M137.119957,39.253069 L133.005302,39.253069 L132.065603,42.5166207 L130.238845,42.5166207 L134.211526,29.6051293 L135.94969,29.6051293 L139.886784,42.5166207 L138.060026,42.5166207 L137.119957,39.253069 L137.119957,39.253069 Z" id="Fill-33" fill="#868884"></path>
            <path d="M143.132172,35.5821293 L145.260672,35.5821293 C145.987595,35.5821293 146.523983,35.3852931 146.870207,34.99125 C147.21606,34.5972069 147.388802,34.039319 147.388802,33.3161034 C147.388802,32.5758362 147.220138,32.0016379 146.883181,31.5927672 C146.546224,31.1838966 146.035043,30.9796466 145.349267,30.9796466 L143.132172,30.9796466 L143.132172,35.5821293 L143.132172,35.5821293 Z M143.132172,36.9473793 L143.132172,42.5166207 L141.332103,42.5166207 L141.332103,29.6140259 L145.349267,29.6140259 C146.572914,29.6140259 147.518914,29.9302241 148.186897,30.56225 C148.854879,31.1946466 149.188871,32.1013534 149.188871,33.2831121 C149.188871,33.9566552 149.033552,34.544569 148.723284,35.0464828 C148.413017,35.5487672 147.965224,35.9416983 147.379905,36.2252759 C148.024164,36.4439828 148.48975,36.8154138 148.776664,37.3388276 C149.063207,37.8622414 149.206664,38.5087241 149.206664,39.2775345 L149.206664,40.4048017 C149.206664,40.801069 149.246698,41.1691638 149.326397,41.5094569 C149.406095,41.84975 149.543621,42.1173879 149.738603,42.3123707 L149.738603,42.5166207 L147.885155,42.5166207 C147.684241,42.3208966 147.555612,42.026569 147.499638,41.6328966 C147.443293,41.2388534 147.415491,40.8229397 147.415491,40.3851552 L147.415491,39.2927328 C147.415491,38.5698879 147.251276,37.9986552 146.923216,37.5782931 C146.595155,37.157931 146.144397,36.9473793 145.57094,36.9473793 L143.132172,36.9473793 L143.132172,36.9473793 Z" id="Fill-34" fill="#868884"></path>
            <polyline id="Fill-35" fill="#868884" points="158.224802 36.512931 153.436233 36.512931 153.436233 41.151 158.987681 41.151 158.987681 42.5166207 151.636164 42.5166207 151.636164 29.6051293 158.934302 29.6051293 158.934302 30.97075 153.436233 30.97075 153.436233 35.147681 158.224802 35.147681 158.224802 36.512931"></polyline>
            <polyline id="Fill-36" fill="#868884" points="168.218966 35.8746034 168.272345 35.8746034 170.914991 29.6051293 172.910043 29.6051293 169.114552 37.8700259 169.114552 42.5166207 167.323379 42.5166207 167.323379 37.7543707 163.572371 29.6051293 165.585216 29.6051293 168.218966 35.8746034"></polyline>
            <path d="M180.545138,34.2695172 C180.545138,33.1463276 180.3205,32.2937414 179.871224,31.7110172 C179.421948,31.1290345 178.786216,30.8376724 177.964767,30.8376724 C177.15481,30.8376724 176.533905,31.1290345 176.102422,31.7110172 C175.67094,32.2937414 175.455198,33.1463276 175.455198,34.2695172 L175.455198,37.8429655 C175.455198,38.9783879 175.672422,39.8383879 176.106871,40.4237069 C176.541319,41.0090259 177.160371,41.3015 177.964767,41.3015 C178.792147,41.3015 179.429362,41.0105086 179.875672,40.4281552 C180.321983,39.8461724 180.545138,38.9839483 180.545138,37.8429655 L180.545138,34.2695172 L180.545138,34.2695172 Z M182.33631,37.8429655 C182.33631,39.3742845 181.940043,40.5671638 181.14825,41.4216034 C180.356086,42.2756724 179.294802,42.7027069 177.964767,42.7027069 C176.652155,42.7027069 175.608664,42.2756724 174.834293,41.4216034 C174.059922,40.5671638 173.672552,39.3742845 173.672552,37.8429655 L173.672552,34.2962069 C173.672552,32.7711897 174.061405,31.5768276 174.838741,30.7134914 C175.616078,29.8505259 176.658086,29.4190431 177.964767,29.4190431 C179.288871,29.4190431 180.348302,29.8505259 181.143802,30.7134914 C181.938931,31.5768276 182.33631,32.7711897 182.33631,34.2962069 L182.33631,37.8429655 L182.33631,37.8429655 Z" id="Fill-37" fill="#868884"></path>
            <path d="M192.418698,29.6051293 L192.418698,38.5524655 C192.418698,39.8888017 192.036147,40.9145 191.270672,41.6295603 C190.504828,42.3453621 189.504336,42.7027069 188.268828,42.7027069 C187.051112,42.7027069 186.06656,42.3453621 185.315914,41.6295603 C184.564897,40.9145 184.189759,39.8888017 184.189759,38.5524655 L184.189759,29.6051293 L185.972034,29.6051293 L185.972034,38.5524655 C185.972034,39.4751121 186.178879,40.1697845 186.59294,40.6364828 C187.006629,41.1035517 187.565259,41.3370862 188.268828,41.3370862 C189.001681,41.3370862 189.578103,41.112819 189.998095,40.6631724 C190.417716,40.2138966 190.627526,39.5103276 190.627526,38.5524655 L190.627526,29.6051293 L192.418698,29.6051293" id="Fill-38" fill="#868884"></path>
            <path d="M196.488871,35.5821293 L198.617371,35.5821293 C199.344664,35.5821293 199.881052,35.3852931 200.226905,34.99125 C200.572759,34.5972069 200.7455,34.039319 200.7455,33.3161034 C200.7455,32.5758362 200.577207,32.0016379 200.24025,31.5927672 C199.903293,31.1838966 199.391741,30.9796466 198.705966,30.9796466 L196.488871,30.9796466 L196.488871,35.5821293 L196.488871,35.5821293 Z M196.488871,36.9473793 L196.488871,42.5166207 L194.689172,42.5166207 L194.689172,29.6140259 L198.705966,29.6140259 C199.929983,29.6140259 200.875612,29.9302241 201.543595,30.56225 C202.211578,31.1946466 202.545569,32.1013534 202.545569,33.2831121 C202.545569,33.9566552 202.390621,34.544569 202.079983,35.0464828 C201.770086,35.5487672 201.321922,35.9416983 200.736603,36.2252759 C201.381233,36.4439828 201.846819,36.8154138 202.133362,37.3388276 C202.419905,37.8622414 202.563362,38.5087241 202.563362,39.2775345 L202.563362,40.4048017 C202.563362,40.801069 202.603397,41.1691638 202.683095,41.5094569 C202.763164,41.84975 202.900319,42.1173879 203.095672,42.3123707 L203.095672,42.5166207 L201.242224,42.5166207 C201.04131,42.3208966 200.912681,42.026569 200.856336,41.6328966 C200.799991,41.2388534 200.77219,40.8229397 200.77219,40.3851552 L200.77219,39.2927328 C200.77219,38.5698879 200.607974,37.9986552 200.280284,37.5782931 C199.951853,37.157931 199.501095,36.9473793 198.927638,36.9473793 L196.488871,36.9473793 L196.488871,36.9473793 Z" id="Fill-39" fill="#868884"></path>
            <polyline id="Fill-40" fill="#868884" points="216.423819 30.97075 213.107629 30.97075 213.107629 42.5166207 211.30719 42.5166207 211.30719 30.97075 208.008422 30.97075 208.008422 29.6051293 216.423819 29.6051293 216.423819 30.97075"></polyline>
            <path d="M219.775966,35.5821293 L221.904095,35.5821293 C222.631388,35.5821293 223.167776,35.3852931 223.513629,34.99125 C223.859112,34.5972069 224.032224,34.039319 224.032224,33.3161034 C224.032224,32.5758362 223.863931,32.0016379 223.526974,31.5927672 C223.190017,31.1838966 222.678466,30.9796466 221.99269,30.9796466 L219.775966,30.9796466 L219.775966,35.5821293 L219.775966,35.5821293 Z M219.775966,36.9473793 L219.775966,42.5166207 L217.975526,42.5166207 L217.975526,29.6140259 L221.99269,29.6140259 C223.216336,29.6140259 224.162336,29.9302241 224.83069,30.56225 C225.498302,31.1946466 225.832664,32.1013534 225.832664,33.2831121 C225.832664,33.9566552 225.677345,34.544569 225.367078,35.0464828 C225.05644,35.5487672 224.608647,35.9416983 224.023328,36.2252759 C224.667586,36.4439828 225.133172,36.8154138 225.420086,37.3388276 C225.707,37.8622414 225.850457,38.5087241 225.850457,39.2775345 L225.850457,40.4048017 C225.850457,40.801069 225.890121,41.1691638 225.969819,41.5094569 C226.049888,41.84975 226.187414,42.1173879 226.382026,42.3123707 L226.382026,42.5166207 L224.528948,42.5166207 C224.327664,42.3208966 224.199034,42.026569 224.14306,41.6328966 C224.087086,41.2388534 224.058914,40.8229397 224.058914,40.3851552 L224.058914,39.2927328 C224.058914,38.5698879 223.894698,37.9986552 223.566638,37.5782931 C223.238948,37.157931 222.787819,36.9473793 222.214362,36.9473793 L219.775966,36.9473793 L219.775966,36.9473793 Z" id="Fill-41" fill="#868884"></path>
            <path d="M230.452569,37.8255431 L233.74244,37.8255431 L232.128086,32.1858707 L232.075078,32.1858707 L230.452569,37.8255431 L230.452569,37.8255431 Z M234.150198,39.253069 L230.035543,39.253069 L229.095474,42.5166207 L227.268716,42.5166207 L231.241397,29.6051293 L232.97956,29.6051293 L236.916655,42.5166207 L235.089897,42.5166207 L234.150198,39.253069 L234.150198,39.253069 Z" id="Fill-42" fill="#868884"></path>
            <polyline id="Fill-43" fill="#868884" points="246.902293 42.5166207 245.11075 42.5166207 240.215793 32.9131638 240.162784 32.9305862 240.162784 42.5166207 238.362345 42.5166207 238.362345 29.6051293 240.162784 29.6051293 245.057741 39.1822672 245.11075 39.1644741 245.11075 29.6051293 246.902293 29.6051293 246.902293 42.5166207"></polyline>
            <path d="M255.326586,39.2619655 C255.326586,38.6532931 255.154957,38.1536034 254.812069,37.7636379 C254.469181,37.3733017 253.869034,37.0304138 253.012,36.7346034 C251.782422,36.3628017 250.839388,35.877569 250.183267,35.2777931 C249.527147,34.6783879 249.199086,33.8862241 249.199086,32.899819 C249.199086,31.8841293 249.563845,31.0500776 250.294103,30.3976638 C251.024362,29.74525 251.962578,29.4190431 253.109491,29.4190431 C254.303483,29.4190431 255.265793,29.7956638 255.996052,30.5496466 C256.72594,31.3032586 257.079207,32.2121897 257.055483,33.2764397 L257.03769,33.329819 L255.308793,33.329819 C255.308793,32.5762069 255.114922,31.9638276 254.727922,31.4919397 C254.340552,31.0204224 253.795267,30.7842931 253.091698,30.7842931 C252.423716,30.7842931 251.907716,30.9815 251.54444,31.3740603 C251.180793,31.7677328 250.998784,32.2685345 250.998784,32.8775776 C250.998784,33.4269397 251.194138,33.8895603 251.584103,34.265069 C251.97444,34.6405776 252.618698,34.9823534 253.51725,35.2896552 C254.693819,35.6562672 255.589405,36.1566983 256.204379,36.7898362 C256.818983,37.4233448 257.126655,38.242569 257.126655,39.2489914 C257.126655,40.3087931 256.763009,41.1491466 256.035716,41.7704224 C255.308793,42.392069 254.353897,42.7027069 253.171767,42.7027069 C252.018552,42.7027069 251.012129,42.3613017 250.152129,41.6784914 C249.292129,40.995681 248.876586,40.0337414 248.906241,38.7923017 L248.924034,38.7389224 L250.653302,38.7389224 C250.653302,39.6226466 250.885353,40.2765431 251.349457,40.7006121 C251.81356,41.1250517 252.42075,41.3370862 253.171767,41.3370862 C253.845681,41.3370862 254.373172,41.1495172 254.754241,40.7740086 C255.135681,40.3988707 255.326586,39.8951034 255.326586,39.2619655" id="Fill-44" fill="#868884"></path>
            <path d="M260.859871,36.0432672 L263.298267,36.0432672 C263.978112,36.0432672 264.492629,35.8041724 264.841448,35.3267241 C265.189897,34.8492759 265.364491,34.2483879 265.364491,33.5248017 C265.364491,32.7893534 265.191379,32.179569 264.845897,31.6961897 C264.499672,31.2128103 263.984043,30.97075 263.298267,30.97075 L260.859871,30.97075 L260.859871,36.0432672 L260.859871,36.0432672 Z M260.859871,37.4085172 L260.859871,42.5166207 L259.059431,42.5166207 L259.059431,29.6051293 L263.298267,29.6051293 C264.504491,29.6051293 265.450121,29.9635862 266.135897,30.6801293 C266.821672,31.3970431 267.164931,32.3393362 267.164931,33.5070086 C267.164931,34.6806121 266.821672,35.6243879 266.135897,36.3383362 C265.450121,37.0522845 264.504491,37.4085172 263.298267,37.4085172 L260.859871,37.4085172 L260.859871,37.4085172 Z" id="Fill-45" fill="#868884"></path>
            <path d="M275.526948,34.2695172 C275.526948,33.1463276 275.30231,32.2937414 274.853034,31.7110172 C274.403759,31.1290345 273.768026,30.8376724 272.946207,30.8376724 C272.136621,30.8376724 271.515716,31.1290345 271.084233,31.7110172 C270.65275,32.2937414 270.437009,33.1463276 270.437009,34.2695172 L270.437009,37.8429655 C270.437009,38.9783879 270.654233,39.8383879 271.088681,40.4237069 C271.523129,41.0090259 272.142181,41.3015 272.946207,41.3015 C273.774328,41.3015 274.410802,41.0105086 274.857483,40.4281552 C275.303793,39.8461724 275.526948,38.9839483 275.526948,37.8429655 L275.526948,34.2695172 L275.526948,34.2695172 Z M277.318121,37.8429655 C277.318121,39.3742845 276.922224,40.5671638 276.13006,41.4216034 C275.337526,42.2756724 274.276612,42.7027069 272.946207,42.7027069 C271.633966,42.7027069 270.590474,42.2756724 269.816103,41.4216034 C269.041733,40.5671638 268.654362,39.3742845 268.654362,37.8429655 L268.654362,34.2962069 C268.654362,32.7711897 269.043216,31.5768276 269.820552,30.7134914 C270.597888,29.8505259 271.639897,29.4190431 272.946207,29.4190431 C274.270681,29.4190431 275.330483,29.8505259 276.125241,30.7134914 C276.920741,31.5768276 277.318121,32.7711897 277.318121,34.2962069 L277.318121,37.8429655 L277.318121,37.8429655 Z" id="Fill-46" fill="#868884"></path>
            <path d="M281.184414,35.5821293 L283.312543,35.5821293 C284.039836,35.5821293 284.576224,35.3852931 284.922078,34.99125 C285.267931,34.5972069 285.440672,34.039319 285.440672,33.3161034 C285.440672,32.5758362 285.272379,32.0016379 284.935422,31.5927672 C284.598466,31.1838966 284.086914,30.9796466 283.401138,30.9796466 L281.184414,30.9796466 L281.184414,35.5821293 L281.184414,35.5821293 Z M281.184414,36.9473793 L281.184414,42.5166207 L279.384345,42.5166207 L279.384345,29.6140259 L283.401138,29.6140259 C284.624784,29.6140259 285.570784,29.9302241 286.239138,30.56225 C286.90675,31.1946466 287.241112,32.1013534 287.241112,33.2831121 C287.241112,33.9566552 287.085793,34.544569 286.775526,35.0464828 C286.464888,35.5487672 286.017095,35.9416983 285.431776,36.2252759 C286.076034,36.4439828 286.541621,36.8154138 286.828905,37.3388276 C287.115448,37.8622414 287.258905,38.5087241 287.258905,39.2775345 L287.258905,40.4048017 C287.258905,40.801069 287.298569,41.1691638 287.378267,41.5094569 C287.458336,41.84975 287.595862,42.1173879 287.790474,42.3123707 L287.790474,42.5166207 L285.937397,42.5166207 C285.736112,42.3208966 285.607853,42.026569 285.551509,41.6328966 C285.495534,41.2388534 285.467362,40.8229397 285.467362,40.3851552 L285.467362,39.2927328 C285.467362,38.5698879 285.303147,37.9986552 284.975457,37.5782931 C284.647397,37.157931 284.196267,36.9473793 283.62281,36.9473793 L281.184414,36.9473793 L281.184414,36.9473793 Z" id="Fill-47" fill="#868884"></path>
            <polyline id="Fill-48" fill="#868884" points="296.454603 30.97075 293.138414 30.97075 293.138414 42.5166207 291.338345 42.5166207 291.338345 30.97075 288.039207 30.97075 288.039207 29.6051293 296.454603 29.6051293 296.454603 30.97075"></polyline>
            <polyline id="Fill-49" fill="#868884" points="309.436897 30.97075 306.120336 30.97075 306.120336 42.5166207 304.320267 42.5166207 304.320267 30.97075 301.0215 30.97075 301.0215 29.6051293 309.436897 29.6051293 309.436897 30.97075"></polyline>
            <path d="M312.789043,35.5821293 L314.917172,35.5821293 C315.644466,35.5821293 316.180853,35.3852931 316.526707,34.99125 C316.87219,34.5972069 317.045302,34.039319 317.045302,33.3161034 C317.045302,32.5758362 316.877009,32.0016379 316.540052,31.5927672 C316.203095,31.1838966 315.691543,30.9796466 315.005767,30.9796466 L312.789043,30.9796466 L312.789043,35.5821293 L312.789043,35.5821293 Z M312.789043,36.9473793 L312.789043,42.5166207 L310.988603,42.5166207 L310.988603,29.6140259 L315.005767,29.6140259 C316.229414,29.6140259 317.175414,29.9302241 317.843397,30.56225 C318.511379,31.1946466 318.845741,32.1013534 318.845741,33.2831121 C318.845741,33.9566552 318.690422,34.544569 318.380155,35.0464828 C318.069517,35.5487672 317.621724,35.9416983 317.036405,36.2252759 C317.680664,36.4439828 318.14625,36.8154138 318.433164,37.3388276 C318.720078,37.8622414 318.863164,38.5087241 318.863164,39.2775345 L318.863164,40.4048017 C318.863164,40.801069 318.903198,41.1691638 318.982897,41.5094569 C319.062966,41.84975 319.200491,42.1173879 319.395103,42.3123707 L319.395103,42.5166207 L317.542026,42.5166207 C317.340741,42.3208966 317.212112,42.026569 317.156138,41.6328966 C317.100164,41.2388534 317.071621,40.8229397 317.071621,40.3851552 L317.071621,39.2927328 C317.071621,38.5698879 316.907776,37.9986552 316.579716,37.5782931 C316.252026,37.157931 315.800897,36.9473793 315.22744,36.9473793 L312.789043,36.9473793 L312.789043,36.9473793 Z" id="Fill-50" fill="#868884"></path>
            <path d="M327.722276,34.2695172 C327.722276,33.1463276 327.497267,32.2937414 327.048362,31.7110172 C326.599086,31.1290345 325.963353,30.8376724 325.141534,30.8376724 C324.331578,30.8376724 323.711043,31.1290345 323.27956,31.7110172 C322.847707,32.2937414 322.631966,33.1463276 322.631966,34.2695172 L322.631966,37.8429655 C322.631966,38.9783879 322.84919,39.8383879 323.283638,40.4237069 C323.718457,41.0090259 324.337509,41.3015 325.141534,41.3015 C325.969284,41.3015 326.606129,41.0105086 327.05244,40.4281552 C327.49875,39.8461724 327.722276,38.9839483 327.722276,37.8429655 L327.722276,34.2695172 L327.722276,34.2695172 Z M329.513448,37.8429655 C329.513448,39.3742845 329.117552,40.5671638 328.325388,41.4216034 C327.532853,42.2756724 326.47194,42.7027069 325.141534,42.7027069 C323.829293,42.7027069 322.785802,42.2756724 322.011431,41.4216034 C321.23706,40.5671638 320.84969,39.3742845 320.84969,37.8429655 L320.84969,34.2962069 C320.84969,32.7711897 321.238543,31.5768276 322.015509,30.7134914 C322.793216,29.8505259 323.835224,29.4190431 325.141534,29.4190431 C326.465638,29.4190431 327.52581,29.8505259 328.320569,30.7134914 C329.116069,31.5768276 329.513448,32.7711897 329.513448,34.2962069 L329.513448,37.8429655 L329.513448,37.8429655 Z" id="Fill-51" fill="#868884"></path>
            <path d="M339.596207,29.6051293 L339.596207,38.5524655 C339.596207,39.8888017 339.213284,40.9145 338.44744,41.6295603 C337.681966,42.3453621 336.681474,42.7027069 335.445966,42.7027069 C334.22825,42.7027069 333.243698,42.3453621 332.493052,41.6295603 C331.742405,40.9145 331.366897,39.8888017 331.366897,38.5524655 L331.366897,29.6051293 L333.149543,29.6051293 L333.149543,38.5524655 C333.149543,39.4751121 333.356017,40.1697845 333.770078,40.6364828 C334.183767,41.1035517 334.742397,41.3370862 335.445966,41.3370862 C336.178819,41.3370862 336.755241,41.112819 337.175233,40.6631724 C337.594853,40.2138966 337.804664,39.5103276 337.804664,38.5524655 L337.804664,29.6051293 L339.596207,29.6051293" id="Fill-52" fill="#868884"></path>
            <path d="M343.666379,36.4955086 L343.666379,41.151 L345.971698,41.151 C346.610026,41.151 347.102302,40.9545345 347.448155,40.5612328 C347.794009,40.1683017 347.96675,39.6048534 347.96675,38.872 C347.96675,38.1447069 347.819216,37.5668017 347.523776,37.1382845 C347.227966,36.7097672 346.772388,36.4955086 346.157784,36.4955086 L343.666379,36.4955086 L343.666379,36.4955086 Z M343.666379,35.2006897 L345.643638,35.2006897 C346.234517,35.2006897 346.698621,35.0212759 347.035578,34.6617069 C347.372905,34.3028793 347.541569,33.7846552 347.541569,33.1081466 C347.541569,32.395681 347.365491,31.8615172 347.013707,31.5052845 C346.661922,31.1490517 346.145922,30.97075 345.466078,30.97075 L343.666379,30.97075 L343.666379,35.2006897 L343.666379,35.2006897 Z M341.86594,42.5166207 L341.86594,29.6051293 L345.466078,29.6051293 C346.683793,29.6051293 347.634612,29.8950086 348.317052,30.4743966 C348.999862,31.0537845 349.341267,31.922681 349.341267,33.0814569 C349.341267,33.696431 349.186319,34.23875 348.875681,34.7084138 C348.565414,35.1784483 348.135414,35.5231897 347.585681,35.7415259 C348.283319,35.8957328 348.819707,36.2604914 349.195216,36.8365431 C349.570353,37.4129655 349.758293,38.0883621 349.758293,38.8631034 C349.758293,40.0511638 349.422819,40.9575 348.7515,41.581 C348.080922,42.2048707 347.154198,42.5166207 345.971698,42.5166207 L341.86594,42.5166207 L341.86594,42.5166207 Z" id="Fill-53" fill="#868884"></path>
            <polyline id="Fill-54" fill="#868884" points="353.61569 41.151 358.652621 41.151 358.652621 42.5166207 351.815621 42.5166207 351.815621 29.6051293 353.61569 29.6051293 353.61569 41.151"></polyline>
            <polyline id="Fill-55" fill="#868884" points="366.837448 36.512931 362.048879 36.512931 362.048879 41.151 367.599957 41.151 367.599957 42.5166207 360.24881 42.5166207 360.24881 29.6051293 367.546578 29.6051293 367.546578 30.97075 362.048879 30.97075 362.048879 35.147681 366.837448 35.147681 366.837448 36.512931"></polyline>
            <path d="M375.182414,39.2619655 C375.182414,38.6532931 375.011897,38.1536034 374.667155,37.7636379 C374.326121,37.3733017 373.725603,37.0304138 372.86931,36.7346034 C371.638621,36.3628017 370.693362,35.877569 370.038724,35.2777931 C369.382603,34.6783879 369.054543,33.8862241 369.054543,32.899819 C369.054543,31.8841293 369.419302,31.0500776 370.14956,30.3976638 C370.878707,29.74525 371.816552,29.4190431 372.96569,29.4190431 C374.15931,29.4190431 375.123103,29.7956638 375.849655,30.5496466 C376.579914,31.3032586 376.935776,32.2121897 376.909828,33.2764397 L376.895,33.329819 L375.163879,33.329819 C375.163879,32.5762069 374.971121,31.9638276 374.581897,31.4919397 C374.196379,31.0204224 373.651466,30.7842931 372.947155,30.7842931 C372.279914,30.7842931 371.764655,30.9815 371.401379,31.3740603 C371.034397,31.7677328 370.852759,32.2685345 370.852759,32.8775776 C370.852759,33.4269397 371.049224,33.8895603 371.438448,34.265069 C371.831379,34.6405776 372.472672,34.9823534 373.373448,35.2896552 C374.548534,35.6562672 375.445603,36.1566983 376.060948,36.7898362 C376.676293,37.4233448 376.980259,38.242569 376.980259,39.2489914 C376.980259,40.3087931 376.616983,41.1491466 375.890431,41.7704224 C375.163879,42.392069 374.211207,42.7027069 373.028707,42.7027069 C371.875862,42.7027069 370.867586,42.3613017 370.007586,41.6784914 C369.147586,40.995681 368.732043,40.0337414 368.761698,38.7923017 L368.779491,38.7389224 L370.508759,38.7389224 C370.508759,39.6226466 370.741552,40.2765431 371.204914,40.7006121 C371.668276,41.1250517 372.276207,41.3370862 373.028707,41.3370862 C373.699655,41.3370862 374.229741,41.1495172 374.611552,40.7740086 C374.989655,40.3988707 375.182414,39.8951034 375.182414,39.2619655" id="Fill-56" fill="#868884"></path>
            <path d="M380.279397,42.5166207 L382.125431,42.5166207 L382.125431,40.7606638 L380.279397,40.7606638 L380.279397,42.5166207 Z M380.290517,38.8986897 C380.294224,38.1124569 380.379483,37.5475259 380.538879,37.2050086 C380.698276,36.8621207 381.054138,36.4158103 381.610172,35.8657069 C382.029052,35.3337672 382.351552,34.8533534 382.573966,34.4248362 C382.796379,33.9959483 382.907586,33.492181 382.907586,32.9131638 C382.907586,32.2626034 382.770431,31.7555 382.503534,31.3918534 C382.232931,31.0285776 381.851121,30.846569 381.354397,30.846569 C380.939224,30.846569 380.587069,31.0133793 380.290517,31.3477414 C379.993966,31.6817328 379.84569,32.1443534 379.84569,32.7356034 L378.118276,32.7356034 L378.099741,32.6822241 C378.081207,31.6598621 378.377759,30.8602845 378.989397,30.2834914 C379.601034,29.707069 380.390603,29.4190431 381.354397,29.4190431 C382.399741,29.4190431 383.218966,29.7293103 383.815776,30.3498448 C384.408879,30.97075 384.705431,31.8162931 384.705431,32.8861034 C384.705431,33.6545431 384.5275,34.352181 384.167931,34.9790172 C383.812069,35.6054828 383.337586,36.2234224 382.744483,36.8324655 C382.455345,37.1338362 382.273707,37.4222328 382.199569,37.6969138 C382.125431,37.9719655 382.088362,38.3723103 382.088362,38.8986897 L380.290517,38.8986897 L380.290517,38.8986897 Z" id="Fill-57" fill="#868884"></path>
        </g>
    </g>
</svg>