<?xml version="1.0" encoding="UTF-8" standalone="no"?>
<svg width="31px" height="43px" viewBox="0 0 31 43" version="1.1" xmlns="http://www.w3.org/2000/svg" xmlns:xlink="http://www.w3.org/1999/xlink">
    <!-- Generator: Sketch 39.1 (31720) - http://www.bohemiancoding.com/sketch -->
    <title>train-spot</title>
    <desc>Created with Sketch.</desc>
    <defs></defs>
    <g id="Page-1" stroke="none" stroke-width="1" fill="none" fill-rule="evenodd">
        <g id="Artboard" transform="translate(-850.000000, -567.000000)">
            <g id="train-spot" transform="translate(850.000000, 567.000000)">
                <ellipse id="Oval-8" fill="#FFFFFF" cx="15.5" cy="15.5" rx="15" ry="15"></ellipse>
                <path d="M29,14.5 C29,7.04415588 22.9558441,1 15.5,1 C8.04415588,1 2,7.04415588 2,14.5 C2,20.736207 4.22846808,25.9848023 9.97469152,27.5350733 L15.9629657,42 L22.0386353,27.2181022 C27.2618095,25.3539738 29,20.3635375 29,14.5 Z" id="Path" fill="#FFFFFF"></path>
                <path d="M20.0386353,28.2181022 C25.2618095,26.3539738 29,21.3635375 29,15.5 C29,8.04415588 22.9558441,2 15.5,2 C8.04415588,2 2,8.04415588 2,15.5 C2,21.736207 6.22846808,26.9848023 11.9746915,28.5350733 L15.9629657,43 L20.0386353,28.2181022 L20.0386353,28.2181022 Z M15.5,26 C21.2989899,26 26,21.2989899 26,15.5 C26,9.70101013 21.2989899,5 15.5,5 C9.70101013,5 5,9.70101013 5,15.5 C5,21.2989899 9.70101013,26 15.5,26 L15.5,26 Z" id="Shape" fill="#00ACCD"></path>
                <path d="M19.9335079,19.0590121 C20.1856757,19.0374794 20.4388011,19.0292189 20.6918363,19.0342648 C21.0930963,19.0342648 21.2857718,18.8451246 21.2875394,18.442097 C21.296967,15.3121511 21.3040377,12.1822052 21.3087514,9.05225932 C21.3096933,8.83640311 21.2657504,8.62270828 21.1797119,8.42473817 C20.9534507,7.92802424 20.5309787,7.71767208 19.9989115,7.71767208 L17.5241802,7.71767208 L17.3474137,7.71767208 L17.3474137,7 L14.1656163,7 L14.1656163,7.6911571 L13.9888498,7.6911571 L11.5052801,7.6911571 C11.002309,7.66306982 10.5325204,7.94270594 10.3174091,8.39822319 C10.2226567,8.61080485 10.1796461,8.84281972 10.1919049,9.07523897 C10.1824773,12.1698315 10.173639,15.2650133 10.1653899,18.3607844 L10.1653899,18.4668443 C10.1559,18.6156952 10.2121646,18.7612201 10.3193189,18.8649727 C10.4264732,18.9687253 10.573737,19.0202675 10.7222044,19.0059822 L11.5052801,19.0059822 L11.5052801,19.0378001 L8,21.7299543 L8.01237366,21.7617722 L8.1573222,21.7617722 L10.1105923,21.7617722 C10.2147397,21.7679806 10.3163113,21.7278695 10.3881157,21.652177 C11.252504,20.80193 12.1204276,19.9569861 12.9848159,19.1085067 C13.0524758,19.0441177 13.1445514,19.0119235 13.237592,19.0201235 C14.8933051,19.0283726 16.5490182,19.0330864 18.2047313,19.0342648 C18.3045972,19.0310251 18.4008634,19.0717283 18.4681134,19.1456277 C19.3319125,20.0023561 20.1980685,20.8567276 21.0665813,21.7087423 C21.1265961,21.764404 21.2040658,21.797516 21.2857718,21.8024285 C21.9574846,21.8024285 22.6291973,21.8024285 23.3009101,21.8112669 C23.3433341,21.8112669 23.3857581,21.8112669 23.46,21.8006609 L19.9335079,19.0590121 Z M12.3785067,18.1963915 C11.9596936,18.1919983 11.6237397,17.8489218 11.6281329,17.4301086 C11.632526,17.0112954 11.9756025,16.6753416 12.3944157,16.6797347 C12.8120674,16.6892854 13.14645,17.0291497 13.1492088,17.4469014 C13.1414673,17.865877 12.7975352,18.2003431 12.3785067,18.1963915 L12.3785067,18.1963915 Z M15.7370707,14.2686394 L11.7686622,14.2580334 C11.4964418,14.2580334 11.4151292,14.1873268 11.4239675,13.9204093 C11.4239675,12.3754699 11.4280921,10.8305305 11.4363412,9.28559113 C11.4363412,9.03458267 11.5211891,8.95327007 11.7757329,8.95327007 L19.7302264,8.97448205 C19.9847702,8.97448205 20.0678504,9.05756231 20.0660828,9.30857078 C20.0660828,10.8535102 20.0619582,12.3984496 20.0537091,13.943389 C20.0537091,14.2103064 19.9794672,14.2792454 19.7001761,14.2774777 L15.7370707,14.2686394 Z M19.1133112,18.2158358 C18.6946154,18.2080919 18.3606591,17.8638722 18.3655888,17.4451338 C18.3709582,17.0263206 18.7148262,16.6911582 19.1336394,16.6965276 C19.5524526,16.701897 19.887615,17.0457649 19.8822456,17.4645781 C19.8799151,17.6661724 19.79759,17.8585826 19.6533839,17.9994737 C19.5091777,18.1403648 19.3149053,18.2181936 19.1133112,18.2158358 L19.1133112,18.2158358 Z" id="Shape" fill="#00ACCD" transform="translate(15.730000, 14.405633) scale(-1, 1) translate(-15.730000, -14.405633) "></path>
            </g>
        </g>
    </g>
</svg>