<?xml version="1.0" encoding="UTF-8" standalone="no"?>
<svg width="31px" height="43px" viewBox="0 0 31 43" version="1.1" xmlns="http://www.w3.org/2000/svg" xmlns:xlink="http://www.w3.org/1999/xlink">
    <!-- Generator: Sketch 39.1 (31720) - http://www.bohemiancoding.com/sketch -->
    <title>tram-spot</title>
    <desc>Created with Sketch.</desc>
    <defs></defs>
    <g id="Page-1" stroke="none" stroke-width="1" fill="none" fill-rule="evenodd">
        <g id="Artboard" transform="translate(-894.000000, -567.000000)">
            <g id="tram-spot" transform="translate(894.000000, 567.000000)">
                <ellipse id="Oval-8" fill="#FFFFFF" cx="15.5" cy="15.5" rx="15" ry="15"></ellipse>
                <path d="M29,14.5 C29,7.04415588 22.9558441,1 15.5,1 C8.04415588,1 2,7.04415588 2,14.5 C2,20.736207 4.22846808,25.9848023 9.97469152,27.5350733 L15.9629657,42 L22.0386353,27.2181022 C27.2618095,25.3539738 29,20.3635375 29,14.5 Z" id="Path" fill="#FFFFFF"></path>
                <path d="M20.0386353,28.2181022 C25.2618095,26.3539738 29,21.3635375 29,15.5 C29,8.04415588 22.9558441,2 15.5,2 C8.04415588,2 2,8.04415588 2,15.5 C2,21.736207 6.22846808,26.9848023 11.9746915,28.5350733 L15.9629657,43 L20.0386353,28.2181022 L20.0386353,28.2181022 Z M15.5,26 C21.2989899,26 26,21.2989899 26,15.5 C26,9.70101013 21.2989899,5 15.5,5 C9.70101013,5 5,9.70101013 5,15.5 C5,21.2989899 9.70101013,26 15.5,26 L15.5,26 Z" id="Shape" fill="#66BD48"></path>
                <path d="M20.8774194,20.7430588 C21.1557793,20.7414667 21.4212304,20.6286728 21.6115546,20.4311146 C21.8018789,20.2335563 21.9003439,19.9686019 21.883871,19.6983529 C21.8645161,17.0856471 21.8683871,14.4748235 21.8645161,11.8621176 C21.8675755,11.6758237 21.8507106,11.4897252 21.8141935,11.3068235 C21.5374194,10.0155294 20.3354839,9.11388235 18.8780645,9.112 L16.5206452,9.112 L16.5206452,8.21788235 L20.0045161,8.21788235 C20.3296774,8.21788235 20.4574194,8.32141176 20.5019355,8.61694118 C20.5503936,8.90025769 20.8156299,9.09906396 21.1096774,9.07247059 C21.3933883,9.05640566 21.6188755,8.83467168 21.6322581,8.55858824 C21.6184641,7.89076469 21.1204107,7.3259161 20.443871,7.21082353 C20.4122212,7.20213145 20.3811876,7.19144212 20.3509677,7.17882353 L11.5251613,7.17882353 C11.4477419,7.20329412 11.3664516,7.22023529 11.2909677,7.24658824 C10.7898428,7.38234367 10.4011115,7.76757769 10.2709677,8.25741176 C10.2612903,8.28752941 10.2496774,8.31576471 10.2380645,8.34588235 L10.2380645,8.69411765 C10.2890367,8.7732747 10.3466524,8.84819668 10.4103226,8.91811765 C10.5602825,9.06962111 10.7884949,9.11992926 10.9909677,9.04611765 C11.197036,8.99661422 11.3507429,8.82918819 11.3780645,8.62447059 C11.4341935,8.28188235 11.5135484,8.21788235 11.8967742,8.21788235 L15.3496774,8.21788235 L15.3496774,9.11388235 L15.2064516,9.11388235 L12.9632258,9.11388235 C12.82598,9.11496187 12.688938,9.12439206 12.5529032,9.14211765 C11.1380645,9.304 10.0077419,10.424 10.0058065,11.7021176 C9.99419355,14.4164706 10.0058065,17.1289412 10.0058065,19.8451765 C10.0105102,19.9852787 10.0482557,20.1224559 10.116129,20.2461176 C10.2914285,20.5557752 10.6275215,20.7466886 10.9909677,20.7430588 L10.9909677,20.7430588 L11.3045161,20.7430588 C11.3010284,20.7526781 11.2957829,20.7616058 11.2890323,20.7694118 C11.2329032,20.8672941 11.1748387,20.9576471 11.1167742,21.0630588 C10.9445161,21.3585882 10.7741935,21.6541176 10.6,21.9534118 C10.4178704,22.2434057 10.4840034,22.6196634 10.7548387,22.8343529 C10.9333718,22.9684826 11.162267,23.0221577 11.3840351,22.9818974 C11.6058032,22.9416371 11.7993735,22.8112665 11.916129,22.6235294 C11.979588,22.5281589 12.0352431,22.4280862 12.0825806,22.3242353 C12.1147273,22.2396747 12.2040094,22.1891547 12.2954839,22.2037647 L15.5858065,22.2037647 L19.5225806,22.2037647 C19.6135361,22.1889119 19.7026325,22.2385391 19.7354839,22.3223529 C19.7809249,22.426142 19.8359911,22.5256904 19.9,22.6197647 C20.0654951,22.8799739 20.371663,23.0226063 20.683871,22.9849412 C21.0380645,22.9209412 21.276129,22.7195294 21.3051613,22.4051765 C21.3126958,22.2673343 21.279806,22.130247 21.2103226,22.0098824 C21.036129,21.6961569 20.8554839,21.3824314 20.6683871,21.0687059 C20.6103226,20.9708235 20.556129,20.8804706 20.4980645,20.7750588 C20.492094,20.7667483 20.4869114,20.7579277 20.4825806,20.7487059 L20.8696774,20.7487059 L20.8774194,20.7430588 Z M10.9967742,11.8037647 L12.2606452,11.8037647 L19.5690323,11.8037647 L21.0051613,11.8037647 L21.0051613,17.1515294 L18.0922581,17.1515294 L13.8012903,17.1515294 L11.0006452,17.1515294 L11.0006452,11.8696471 L10.9967742,11.8037647 Z M12.0535484,19.8432941 L11.9858065,19.8432941 C11.4643192,19.8553008 11.0268828,19.4631741 10.9967742,18.9567059 C10.9964543,18.8779134 11.0068675,18.7994269 11.0277419,18.7232941 C11.0582885,18.6224494 11.1089266,18.5284306 11.1767742,18.4465882 C11.3247098,18.2670895 11.5284096,18.1389797 11.7574194,18.0814118 C11.8130232,18.070941 11.8692727,18.0640242 11.9258065,18.0607059 C11.9464083,18.0588663 11.9671401,18.0588663 11.9877419,18.0607059 L12.0632258,18.0607059 L12.0632258,18.0607059 C12.4280804,18.0914757 12.7472477,18.3118566 12.8974194,18.6367059 C12.9264651,18.7020201 12.9453809,18.7711658 12.9535484,18.8418824 L12.9535484,18.9510588 C12.9473793,19.206589 12.8264275,19.4466675 12.6225806,19.608 C12.4644638,19.7448395 12.2645791,19.8274916 12.0535484,19.8432941 L12.0535484,19.8432941 Z M12.7658065,21.2381176 C12.7948387,21.1778824 12.823871,21.1251765 12.8509677,21.0724706 L12.8683871,21.0423529 L13.0193548,20.7788235 C13.0193548,20.7788235 13.0193548,20.76 13.0348387,20.7524706 L13.9658065,20.7524706 L13.9658065,20.7524706 L17.92,20.7524706 L17.92,20.7637647 L18.8025806,20.7637647 C18.8025806,20.7637647 18.8025806,20.7825882 18.8180645,20.7901176 C18.876129,20.888 18.9322581,20.9858824 18.9864516,21.0837647 C19.0193548,21.1383529 19.0483871,21.1929412 19.0793548,21.2494118 L12.7658065,21.2381176 Z M20.856129,19.1242353 L20.856129,19.1242353 C20.7442585,19.5141534 20.3958801,19.7959995 19.9812903,19.832 L19.8864516,19.832 C19.5036661,19.8333463 19.1529706,19.6241868 18.9806452,19.2917647 L18.9806452,19.2917647 C18.9271266,19.1856528 18.8986904,19.0692423 18.8974194,18.9510588 C18.8952734,18.9360723 18.8952734,18.9208689 18.8974194,18.9058824 C18.9003657,18.8256675 18.9180646,18.7466149 18.9496774,18.6724706 C19.1000483,18.3026122 19.4678276,18.0599251 19.8767742,18.0607059 L19.9832258,18.0607059 C20.4622085,18.0980445 20.8404738,18.4715365 20.8716129,18.9378824 C20.8730801,19.0004411 20.8672361,19.0629594 20.8541935,19.1242353 L20.856129,19.1242353 Z" id="Shape" fill="#66BD48"></path>
            </g>
        </g>
    </g>
</svg>