<?xml version="1.0" encoding="UTF-8" standalone="no"?>
<svg width="284px" height="69px" viewBox="0 0 284 69" version="1.1" xmlns="http://www.w3.org/2000/svg" xmlns:xlink="http://www.w3.org/1999/xlink">
    <!-- Generator: Sketch 39.1 (31720) - http://www.bohemiancoding.com/sketch -->
    <title>PI_BIAAG_Logo_rgb_blue_magenta</title>
    <desc>Created with Sketch.</desc>
    <defs>
        <polygon id="path-1" points="283.464 60.8517291 283.464 0.155242342 0.06 0.155242342 0.06 60.8517291 283.464 60.8517291"></polygon>
    </defs>
    <g id="Page-1" stroke="none" stroke-width="1" fill="none" fill-rule="evenodd">
        <g id="PI_BIAAG_Logo_rgb_blue_magenta">
            <path d="M48.731,61.278 C48.653,61.192 48.578,61.1 48.377,61.129 C48.248,61.391 48.663,61.377 48.731,61.278 M56.645,48.634 C56.534,48.294 55.951,48.427 55.923,48.837 C56.103,49.39 56.752,48.997 56.645,48.634 M49.806,32.513 C50.545,32.652 50.667,31.728 50.365,31.303 C49.604,31.128 49.667,32.115 49.806,32.513 M46.741,48.233 C46.593,48.177 46.483,48.085 46.334,48.035 C46.206,48.173 46.117,48.351 46.028,48.534 C46.178,48.728 46.683,48.56 46.741,48.837 C46.802,50.942 46.559,53.323 46.943,55.082 C47.012,55.387 46.973,55.697 47.051,55.937 C47.597,57.576 49.109,58.241 51.279,58.409 C52.376,58.496 53.771,58.462 54.905,58.309 C55.957,58.168 56.478,57.806 56.844,57 C57.061,55.806 56.854,54.21 56.948,53.067 C57.026,52.14 57.271,51.211 56.336,51.054 C55.519,50.914 54.331,51.031 53.377,50.95 C52.501,50.883 51.671,50.908 51.538,50.147 C51.45,49.648 51.609,48.851 51.639,48.138 C51.675,47.435 51.609,47.001 51.739,46.519 C51.953,46.453 52.119,46.358 52.252,46.217 C52.838,46.269 53.471,46.189 53.935,46.116 C55.188,45.923 56.598,46.132 57.914,46.017 C59.413,45.883 62.373,45.525 63.071,46.519 C63.588,47.259 63.302,49.044 63.328,49.946 C63.355,51.222 63.221,52.594 63.221,53.926 C63.224,57.115 63.301,60.35 61.336,61.534 C60.768,61.871 59.453,62.138 58.631,62.239 C57.539,62.373 56.308,62.373 54.905,62.437 C51.703,62.598 47.861,62.618 45.215,61.534 C43.909,61.004 42.938,60.113 42.042,59.22 C41.717,58.639 41.508,57.94 41.13,57.4 C40.77,56.26 40.565,54.971 40.414,53.624 C40.372,53.011 40.516,52.216 40.316,51.762 L40.316,45.613 C40.316,43.139 40.213,40.572 40.414,38.355 C40.436,38.071 40.578,37.769 40.614,37.449 C40.787,36.113 41.119,35.01 41.644,33.975 C41.949,33.359 42.148,33.216 42.559,32.714 C42.75,32.471 42.894,32.173 43.071,32.01 C45.435,29.849 50.458,29.425 55.213,29.79 C60.47,30.196 64.049,32.387 63.582,38.457 C63.424,38.411 63.491,38.57 63.477,38.66 C63.061,39.104 61.79,39.192 61.029,38.96 C60.791,39.164 60.454,38.958 60.165,38.96 C59.427,38.974 58.266,39.224 57.56,38.96 C57.003,38.66 57.193,37.636 57.051,36.846 C56.935,36.236 56.705,35.47 56.383,35.082 C55.999,34.612 55.558,34.517 54.905,34.126 C53.656,34.066 52.347,33.683 51.233,34.126 C50.898,34.032 50.724,34.168 50.213,34.126 C49.188,34.473 48.365,35.018 47.866,36.039 C47.27,37.25 46.886,39.501 46.741,41.279 C46.542,43.684 46.934,46.258 46.741,48.233" id="Fill-1" fill="#DA277F"></path>
            <path d="M74.42,33.183 C75.044,34.521 75.19,37.133 73.909,37.865 C72.616,37.782 71.223,37.95 70.084,37.765 C69.688,37.696 69.434,37.351 69.061,37.359 C68.786,36.92 68.487,36.679 68.452,35.898 C68.432,35.514 68.524,34.999 68.604,34.488 C68.674,34.051 68.663,33.36 68.756,33.231 C69.045,32.821 70.323,32.767 71.1,32.826 C72.215,32.915 73.516,33.027 74.42,33.183" id="Fill-2" fill="#DA277F"></path>
            <path d="M78.942,61.734 C78.723,60.395 78.778,58.447 78.788,56.645 C78.809,52.651 78.924,47.689 78.836,43.191 C78.823,42.561 78.715,40.897 79.092,40.572 C79.463,40.259 80.18,40.43 80.873,40.375 C81.729,40.307 82.794,40.213 83.534,40.274 C84.161,40.738 84.248,41.746 84.809,42.286 C85.62,42.162 86.022,41.702 86.643,41.279 C87.227,40.887 87.856,40.531 88.428,40.071 C88.852,40.047 89.102,39.853 89.346,39.666 C89.715,39.695 89.848,39.488 90.266,39.564 C90.844,39.282 91.62,39.632 92.207,39.666 C92.295,39.849 92.43,39.978 92.612,40.071 C93.135,41.684 92.637,43.956 91.592,44.808 C89.294,45.426 85.698,44.759 84.862,46.821 C84.547,48.296 84.604,50.113 84.653,52.015 C84.717,54.563 84.827,56.607 84.967,59.22 C84.993,59.828 85.059,61.25 84.862,61.534 C84.707,61.743 83.93,61.903 83.585,61.934 C82.881,61.996 82.137,61.902 81.387,61.886 C80.493,61.871 79.553,62.084 78.942,61.734" id="Fill-3" fill="#DA277F"></path>
            <g id="Group-7" transform="translate(0.000000, 6.000000)">
                <path d="M70.825,48.783 C71.1,48.911 71.258,49.16 71.641,49.184 C71.795,48.847 71.489,48.618 71.387,48.378 C70.995,48.31 70.879,48.517 70.825,48.783 M72.612,47.471 C72.627,47.202 72.803,47.086 72.919,46.919 C72.832,46.817 72.811,46.652 72.713,46.566 C71.905,46.456 71.795,47.505 72.612,47.471 M75.165,44.547 C75.073,44.816 74.672,44.767 74.498,44.95 C74.491,45.405 75.09,45.142 75.264,45.303 C75.239,47.567 75.291,50.036 75.264,52.409 C75.247,53.795 75.522,55.656 74.243,55.837 C72.899,55.858 70.864,56.046 69.653,55.634 C69.399,55.025 69.522,54.342 69.549,53.722 C69.715,50.305 69.51,46.864 69.497,44.147 C69.493,42.617 69.672,40.49 69.248,39.209 C68.401,38.818 67.059,38.921 65.829,38.905 C64.983,38.314 64.924,35.81 65.67,35.18 C65.901,34.985 66.85,34.815 67.358,34.777 C67.489,34.765 67.618,34.88 67.764,34.878 C68.075,34.872 69.018,34.732 69.395,34.674 C69.713,34.628 70.059,34.704 70.368,34.674 C71.444,34.579 73.809,33.965 74.758,34.674 C75.092,34.927 75.165,35.465 75.215,36.137 C75.426,38.911 75.133,41.808 75.165,44.547" id="Fill-4" fill="#DA277F"></path>
                <path d="M7.743,6.842 C7.928,6.885 7.98,6.791 8.013,6.677 C7.956,6.635 7.869,6.61 7.743,6.626 L7.743,6.842 L7.743,6.842 Z M4.438,3.695 C4.082,2.955 2.323,3.399 1.995,3.971 C1.207,5.362 3.157,5.889 4.328,5.65 C4.512,5.077 4.646,4.123 4.438,3.695 L4.438,3.695 Z M6.062,5.707 C6.888,5.846 8.044,5.861 8.446,5.268 C8.963,4.518 8.422,3.462 7.414,3.48 C7.247,2.701 7.281,1.603 7.743,1.151 C10.646,0.917 10.778,5.541 9.422,7.167 C8.091,8.11 6.363,8.078 4.76,8.087 C3.877,8.095 2.727,7.997 1.995,7.707 C-0.099,6.871 -0.244,2.612 1.616,1.48 C2.341,1.032 5.308,0.46 5.736,1.583 C5.855,1.889 5.754,2.227 5.736,2.561 C5.691,3.686 5.683,4.942 6.062,5.707 L6.062,5.707 Z" id="Fill-6" fill="#015295"></path>
            </g>
            <path d="M26.191,20.346 L26.191,20.869 C26.63,21.274 27.277,21.609 27.912,21.28 C28.201,21.815 28.873,21.458 28.896,21.077 C28.577,20.179 27.085,19.944 26.191,20.346 M29.518,50.652 C29.352,50.932 28.842,50.869 28.694,51.171 C28.772,51.453 29.211,51.376 29.415,51.536 C29.653,52.358 29.242,53.714 29.625,54.496 C29.775,54.801 30.099,54.98 30.561,55.117 C31.792,55.497 33.427,55.361 34.825,55.486 C35.846,55.577 37.075,55.872 37.529,56.519 C37.738,56.832 37.633,57.906 37.633,58.447 C37.633,60.171 37.648,61.89 36.692,62.555 C30.901,62.476 24.941,62.763 19.072,62.763 C17.282,62.763 14.613,63.069 13.411,62.344 C13.098,62.156 12.969,61.803 12.676,61.515 C12.548,59.471 12.285,57.024 13.566,56.054 C14.747,55.162 17.742,56.04 19.072,55.174 C19.171,55.108 19.211,54.98 19.388,54.965 C19.816,54.322 19.985,53.523 20.061,52.623 C20.291,49.878 20.061,47.149 20.061,44.517 C20.061,41.859 19.978,39.2 20.061,36.46 C20.126,34.275 20.133,31.837 20.165,29.391 C20.236,24.277 20.093,19.37 19.851,14.419 C18.452,12.947 14.524,14.693 13.508,13.016 C13.115,12.361 13.131,10.877 13.198,10 C13.276,9.057 13.577,7.969 14.082,7.559 C14.785,6.983 16.255,7.046 17.305,7.04 C21.703,6.998 26.54,7.298 31.079,7.298 C31.835,7.298 32.603,7.286 33.476,7.298 C34.27,7.308 35.32,7.266 35.758,7.662 C36.422,8.267 37.154,10.176 37.107,11.407 C37.061,12.732 36.224,13.616 35.135,13.849 C34.635,13.955 34.005,13.901 33.368,13.955 C32.419,14.032 30.229,13.775 29.625,14.419 C29.379,14.685 29.25,15.404 29.208,15.875 C29.118,16.864 29.229,18.087 29.31,19.1 C29.592,22.33 29.152,25.821 29.415,29.135 C29.757,33.378 29.094,37.777 29.415,41.919 C29.619,44.517 29.476,47.779 29.518,50.652" id="Fill-8" fill="#015295"></path>
            <path d="M77.237,25.784 C76.614,24.106 76.942,22.012 76.987,19.912 C77.032,18.04 77.237,16.021 76.926,13.922 C76.752,12.735 75.77,11.541 74.112,12.137 C73.053,12.527 72.823,13.982 72.709,15.365 C72.497,17.842 72.997,21.426 72.95,23.541 C72.915,25.066 72.118,26.039 70.502,26.245 C69.608,26.357 68.432,26.143 68.051,25.443 C67.713,24.803 67.924,23.284 67.93,22.388 C67.948,20.38 67.934,18.155 68.051,15.88 C68.106,14.82 68.268,13.56 67.93,12.774 C67.391,11.534 64.868,11.273 63.891,12.372 C63.501,12.809 63.275,13.716 63.216,14.388 C62.901,17.758 63.385,22.123 63.335,25.037 C62.837,25.649 62.015,25.995 61.068,26.131 C60.146,26.264 58.467,26.099 58.012,25.443 C57.615,24.862 57.881,23.782 57.954,23.018 C58.11,21.136 57.879,19.122 58.072,17.035 C58.222,15.365 58.056,13.819 58.072,12.317 C58.091,10.882 57.823,8.413 58.563,7.998 C59.381,7.538 61.053,8.159 61.748,8.168 C62.328,8.582 62.359,9.517 62.908,9.955 C63.545,9.853 63.768,9.277 64.196,8.976 C64.756,8.578 65.545,8.115 66.338,7.998 C67.901,7.776 69.497,8.163 70.502,8.631 C71.268,8.992 72.137,9.954 73.01,9.955 C73.594,9.959 74.149,9.414 74.727,9.034 C75.469,8.54 76.387,7.799 77.602,7.823 C79.258,7.861 80.909,8.147 81.577,9.262 C82.407,10.636 82.315,13.524 82.377,15.712 C82.446,17.991 82.317,19.632 82.559,22.216 C82.651,23.199 82.881,24.933 82.559,25.386 C81.873,26.338 78.596,25.523 77.237,25.784" id="Fill-9" fill="#015295"></path>
            <path d="M50.113,17.899 C50.078,16.806 50.185,15.641 50.113,14.732 C50.072,14.291 50.088,13.613 49.989,13.235 C49.757,12.319 47.894,11.524 46.741,11.681 C46.005,11.783 45.581,12.4 45.455,13.235 C45.292,14.4 45.306,15.75 45.338,17.207 C45.376,18.906 45.237,21.311 46.133,22.159 C47.027,22.993 48.512,22.396 49.443,21.87 C50.106,21.018 50.154,19.326 50.113,17.899 M50.786,9.549 C51.352,9.363 51.554,8.637 52.192,8.399 C52.992,8.1 54.02,8.35 54.947,8.455 C55.029,13.872 55.262,20.035 55.071,25.84 C54.22,25.721 52.726,26.24 51.703,25.784 C51.229,25.572 51.201,24.656 50.667,24.519 C50.157,24.392 49.652,24.99 49.197,25.267 C47.847,26.087 45.004,26.625 43.257,25.613 C41.224,24.429 40.697,21.993 40.321,19.047 C40.321,17.242 40.284,15.493 40.437,13.922 C40.759,10.62 41.919,8.275 45.399,7.998 C47.923,7.788 49.141,8.782 50.786,9.549" id="Fill-10" fill="#015295"></path>
            <path d="M96.614,21.812 C97.416,20.853 97.206,18.977 97.127,17.035 C97.082,15.809 97.161,14.659 97.073,13.814 C96.926,12.441 95.366,11.546 94.018,11.685 C93.383,11.743 92.934,12.317 92.811,12.89 C92.579,13.997 92.68,15.658 92.698,17.151 C92.723,19.276 92.713,21.219 93.559,22.33 C94.563,22.799 96.063,22.466 96.614,21.812 M97.76,9.549 C98.174,9.391 98.206,8.97 98.565,8.689 C99.309,8.115 100.547,8.257 101.62,8.455 C101.811,13.702 102.043,20.258 101.79,25.902 C100.842,25.81 99.301,26.084 98.46,25.727 C98.169,25.361 98.077,24.8 97.707,24.519 C97.041,24.507 96.608,25.118 96.036,25.443 C94.803,26.139 92.573,26.587 90.971,25.784 C90.803,25.701 90.686,25.426 90.393,25.443 C87.983,23.199 87.772,18.49 88.09,14.213 C88.233,12.323 88.641,10.335 89.645,9.262 C90.541,8.311 92.274,7.865 93.963,7.994 C95.61,8.129 96.352,8.992 97.76,9.549" id="Fill-11" fill="#015295"></path>
            <path d="M5.413,24.871 C5.482,24.945 5.645,24.926 5.79,24.927 C5.79,24.624 5.461,24.605 5.413,24.871 L5.413,24.871 Z M9.263,23.628 C9.428,23.647 9.409,23.491 9.474,23.406 L9.263,23.406 L9.263,23.628 L9.263,23.628 Z M9.853,22.923 C10.476,23.836 10.017,24.837 9.154,25.199 C9.807,26.475 10.71,28.086 9.912,29.803 C9.011,31.044 6.687,30.756 4.385,30.833 C2.897,30.882 1.43,30.965 0.588,30.561 C0.32,29.93 0.581,28.989 0.644,28.34 C2.756,28.036 5.69,28.418 7.633,27.958 C8.114,27.496 8.257,26.117 7.743,25.572 C6.465,24.864 3.34,25.58 1.565,25.199 C1.32,25.144 0.938,24.991 0.803,24.871 C0.291,24.394 0.481,22.896 1.289,22.758 C2.115,22.621 3.374,22.718 4.492,22.81 C6.33,22.964 8.247,22.693 9.853,22.923 L9.853,22.923 Z" id="Fill-12" fill="#015295"></path>
            <g id="Group-21" transform="translate(0.000000, 2.000000)">
                <mask id="mask-2" fill="white">
                    <use xlink:href="#path-1"></use>
                </mask>
                <g id="Clip-14"></g>
                <path d="M7.199,32.679 C6.693,32.595 5.918,32.679 5.192,32.679 C4.46,32.679 3.581,32.559 3.138,32.679 C2.468,32.868 2.218,33.82 2.378,34.523 C2.517,34.612 2.802,34.815 3.025,34.846 C4.448,35.064 7.182,35.057 8.066,34.523 C8.307,33.755 8.143,32.843 7.199,32.679 M10.017,30.135 L10.017,31.813 C9.738,32.081 9.529,32.11 9.263,32.408 C9.702,33.052 10.341,34.056 10.18,35.169 C10.104,35.696 9.757,36.053 9.529,36.475 C8.931,36.772 8.243,37.238 7.258,37.336 C4.77,37.588 1.334,37.584 0.481,35.822 C0.112,34.363 0.593,33.082 1.187,32.246 C0.658,31.915 0.244,31.055 0.589,30.188 C3.501,29.974 7.019,30.073 10.017,30.135" id="Fill-13" fill="#015295" mask="url(#mask-2)"></path>
                <path d="M2.703,38.317 C2.855,38.971 3.01,39.761 2.811,40.373 C1.616,40.152 1.892,41.7 2.328,42.107 C3.467,42.247 8.13,42.905 8.502,41.455 C8.567,41.201 8.502,40.793 8.393,40.483 C8.116,40.324 7.597,40.41 7.313,40.267 C7.248,39.797 7.014,38.747 7.473,38.206 C10.691,37.69 10.646,42.332 9.366,43.951 C9.042,43.962 8.957,44.228 8.773,44.386 C8.417,44.444 8.067,44.513 7.849,44.704 C6.404,44.788 4.661,44.947 3.301,44.816 C0.535,44.558 -0.156,42.542 0.427,39.508 C0.769,39.033 1.057,38.511 1.677,38.317 C2.131,38.307 2.273,38.291 2.703,38.317" id="Fill-15" fill="#015295" mask="url(#mask-2)"></path>
                <path d="M7.688,51.374 L7.688,51.534 L7.958,51.534 C8.02,51.316 7.793,51.269 7.688,51.374 M4.059,48.069 C2.745,47.949 1.56,48.426 1.836,49.586 C2.016,50.335 3.447,50.535 4.328,50.344 C4.475,49.685 4.609,48.359 4.059,48.069 M5.683,46.223 C5.817,47.612 5.404,49.665 6.062,50.456 C6.772,50.415 7.768,50.641 8.288,50.127 C8.706,49.705 8.577,48.883 8.229,48.395 C7.947,48.335 7.659,48.277 7.417,48.176 C7.126,47.474 7.274,46.422 7.633,45.9 C7.975,45.881 8.264,45.906 8.555,46.012 C8.809,46.101 8.863,46.163 9.043,46.284 C9.172,46.367 9.479,46.534 9.583,46.661 C10.423,47.697 10.316,50.32 9.797,51.32 C9.403,52.081 8.143,52.666 6.931,52.73 C5.117,52.824 2.814,52.812 1.46,52.187 C0.435,51.477 -0.025,49.255 0.481,47.633 C0.622,47.195 0.952,46.895 1.079,46.55 C1.943,45.815 3.653,45.452 5.249,45.796 C5.347,45.982 5.49,46.129 5.683,46.223" id="Fill-16" fill="#015295" mask="url(#mask-2)"></path>
                <path d="M9.47,56.914 C9.575,57.083 9.78,57.083 9.894,56.914 C9.868,56.65 9.479,56.616 9.47,56.914 M1.459,56.533 C1.132,57.057 1.125,58.038 1.342,58.682 C2.121,58.613 3.562,58.88 4.104,58.45 C4.044,57.692 4.244,56.671 3.952,56.148 C3.091,55.938 1.902,55.826 1.459,56.533 M8.319,55.996 C7.993,55.681 7.272,55.64 6.825,55.689 C5.482,55.851 5.127,57.083 5.522,58.682 C6.475,58.816 7.765,58.772 8.546,58.682 C8.502,57.828 8.804,56.465 8.319,55.996 M1.382,55.689 C1.444,55.201 0.82,55.275 0.809,55.801 C0.941,56.168 1.355,55.879 1.382,55.689 M0.193,60.133 C-0.016,59.505 0.015,58.586 0.002,57.723 C-0.008,56.833 0.015,55.991 0.193,55.308 C0.581,54.239 2.345,53.572 3.453,54.309 C3.745,54.505 4.136,55.234 4.485,55.23 C4.885,55.22 5.158,54.307 5.482,54.08 C5.761,53.884 6.333,53.74 6.785,53.697 C8.398,53.547 9.86,54.334 10.046,55.729 C10.181,56.784 10.039,58.271 9.968,59.175 C9.946,59.443 10.048,59.99 9.894,60.215 C9.626,60.579 8.138,60.454 7.473,60.405 C6.011,60.291 4.046,60.234 2.38,60.289 C1.611,60.315 0.809,60.519 0.193,60.133" id="Fill-17" fill="#015295" mask="url(#mask-2)"></path>
                <path d="M8.555,18.699 C8.594,18.712 8.621,18.743 8.608,18.812 C8.907,18.853 9.042,18.732 9.043,18.482 C8.851,18.281 8.577,18.428 8.555,18.699 M3.138,13.116 C3.233,13.712 3.079,14.401 3.138,15.12 C2.861,15.349 2.497,15.201 2.215,15.557 C1.792,16.095 2.17,17.077 2.811,17.077 C3.476,17.077 4.141,15.934 4.546,15.393 C5.002,14.772 5.5,13.903 6.062,13.502 C7.371,12.55 9.524,13.091 9.968,14.471 C10.7,16.77 9.957,20.388 7.309,19.68 C6.949,19.358 6.984,18.346 7.145,17.83 C7.483,17.559 7.846,17.697 8.175,17.506 C8.875,17.101 8.645,15.884 8.124,15.447 L7.362,15.447 C6.119,16.585 5.445,18.301 4.004,19.239 C2.361,19.873 0.93,19.018 0.481,17.452 C-0.12,15.378 0.813,12.552 3.138,13.116" id="Fill-18" fill="#015295" mask="url(#mask-2)"></path>
                <path d="M97.106,55.201 C98.038,55.348 97.623,53.346 96.694,54.095 C96.707,54.607 96.731,55.142 97.106,55.201 M100.985,32.425 C101.108,32.297 101.352,32.291 101.389,32.073 C101.321,31.964 101.038,32.057 100.881,32.021 C100.922,32.151 100.778,32.459 100.985,32.425 M100.167,31.318 C100.383,31.401 100.516,31.577 100.881,31.518 C101.366,31.12 100.881,30.617 100.377,30.615 C100.233,30.782 100.102,30.955 100.167,31.318 M95.674,32.021 C95.063,31.795 94.526,31.785 93.887,31.824 C93.348,31.857 92.698,32.073 92.207,31.824 C91.413,31.426 91.544,29.37 92.051,28.748 C92.627,28.055 94.59,27.989 95.627,27.891 C97.02,27.761 98.731,27.761 100.27,27.891 C100.602,27.921 101.088,28.017 101.292,28.193 C101.659,28.523 101.733,29.604 101.803,30.363 C101.899,31.523 101.805,32.559 101.899,33.482 C102.04,34.81 101.899,36.495 101.899,38.172 C101.899,39.693 102.02,41.333 101.899,42.809 C101.719,45.09 101.899,47.353 101.7,49.255 C101.594,50.266 101.7,51.745 101.75,52.48 C101.776,52.849 101.586,53.543 101.803,53.941 C101.727,54.519 101.75,55.356 101.803,56.309 C101.85,57.207 101.999,58.54 101.7,59.283 C101.362,60.096 98.436,61.355 97.106,60.64 C96.829,60.49 96.776,60.138 96.489,60.039 C96.001,58.765 96.059,56.383 96.085,54.645 C96.108,53.054 96.184,51.389 96.184,49.806 C96.184,46.223 96.323,42.247 96.085,38.878 C95.946,36.916 96.34,34.806 96.085,32.98 C96.038,32.642 95.86,32.327 95.674,32.021" id="Fill-19" fill="#DA277F" mask="url(#mask-2)"></path>
                <path d="M127.665,58.558 C127.639,59.036 126.967,59.043 126.946,59.487 C126.946,59.51 126.788,59.558 126.717,59.542 C125.379,59.246 124.856,58.663 124.711,57.355 C124.69,57.149 124.883,56.812 124.292,56.892 C124.008,56.932 124.071,56.456 124.211,56.414 C124.881,56.216 124.952,55.535 125.52,55.256 C125.883,55.079 125.602,55.034 125.383,54.917 C124.204,54.266 124.157,53.494 125.239,52.691 C125.655,52.386 125.7,51.993 125.256,51.828 C124.657,51.606 124.866,51.175 124.965,50.974 C125.114,50.674 125.385,50.5 124.946,50.208 C124.821,50.127 124.959,49.934 125.213,49.868 C126.092,49.648 126.118,49.123 125.514,48.44 C125.215,48.111 124.754,47.555 125.43,47.134 C125.721,46.953 125.7,46.772 125.708,46.555 C125.725,45.773 125.391,45.02 125.499,44.233 C125.514,44.124 125.469,44.035 125.338,43.953 C124.497,43.457 124.913,43.037 125.477,42.643 C124.676,42.029 124.563,41.203 125.165,40.489 C125.184,40.469 125.237,40.442 125.229,40.432 C124.817,39.454 125.706,38.641 125.667,37.674 C125.624,36.751 124.69,36.105 124.907,35.164 C124.969,34.899 124.821,34.597 125.268,34.453 C125.481,34.385 125.522,34.196 125.385,33.951 C125.155,33.514 125.276,33.136 125.938,33.017 C125.213,32.609 125.12,32.188 125.575,31.655 C125.792,31.404 125.799,31.135 125.571,30.913 C124.975,30.329 124.926,29.827 125.456,29.289 C125.506,29.234 125.631,29.241 125.588,29.117 C125.135,27.799 125.762,26.512 125.817,25.208 C125.858,24.109 124.809,23.312 125.1,22.232 C125.139,22.067 124.993,21.978 124.799,21.971 C124.596,21.96 124.456,21.735 124.542,21.699 C125.114,21.479 124.942,20.821 125.409,20.596 C126.258,20.177 126.375,19.79 125.678,19.187 C125.379,18.932 125.059,18.892 125.735,18.601 C126.479,18.278 126.481,16.989 125.897,16.392 C125.565,16.058 125.602,15.669 125.848,15.384 C126.167,15.01 126.293,14.738 125.79,14.443 C125.708,14.392 125.653,14.314 125.584,14.254 C126.356,13.616 124.907,12.916 125.745,12.142 C126.387,11.554 125.5,10.479 126.194,9.724 C126.463,9.435 126.004,9.449 125.93,9.3 C125.711,8.884 125.446,8.463 126.297,8.369 C126.465,8.351 126.75,8.523 126.776,8.16 C126.792,7.896 126.805,7.576 126.506,7.535 C125.969,7.464 126.092,7.153 126.118,6.894 C126.161,6.479 126.567,6.628 126.815,6.638 C127.713,6.678 128.551,6.683 128.698,5.63 C128.75,5.275 129.114,5.426 129.34,5.412 C132.489,5.281 135.645,5.179 138.795,5.231 C139.92,5.25 141.026,4.881 142.196,5.167 C142.485,5.234 142.973,4.562 143.606,4.707 C143.959,4.792 144.364,4.552 144.631,5.101 C144.79,5.431 145.809,5.376 145.967,5.161 C146.331,4.659 146.747,4.899 147.141,4.893 C148.131,4.876 149.124,4.881 150.112,4.91 C150.325,4.913 150.374,4.915 150.516,4.737 C150.799,4.393 151.245,4.348 151.458,4.816 C151.61,5.144 151.928,5.122 152.088,5.044 C153.434,4.375 154.893,4.86 156.282,4.714 C156.915,4.645 157.583,4.863 158.167,4.405 C158.321,4.283 158.719,4.277 158.983,4.48 C159.34,4.756 159.686,5.101 160.071,4.448 C160.196,4.233 160.571,4.361 160.717,4.588 C160.989,5.002 161.278,5.017 161.602,4.661 C161.788,4.466 162.026,4.547 162.245,4.539 C163.231,4.533 164.221,4.542 165.215,4.533 C165.415,4.533 165.715,4.78 165.774,4.348 C165.805,4.118 166.159,4.137 166.262,4.201 C167.358,4.938 168.393,3.849 169.52,4.165 C170.711,4.494 171.995,4.375 173.247,4.356 C173.795,4.346 174.418,4.547 174.874,4.043 C174.938,3.97 175.26,3.953 175.344,4.026 C176.167,4.771 176.936,3.799 177.788,3.981 C178.737,4.183 179.758,4.152 180.745,4.178 C181.075,4.187 181.514,4.366 181.661,3.802 C181.733,3.527 183.413,3.711 183.686,3.997 C184.071,4.402 184.975,4.411 185.383,3.979 C185.577,3.77 185.801,3.841 186.006,3.849 C186.883,3.88 187.76,3.799 188.651,3.97 C189.112,4.055 189.784,4.316 190.256,3.605 C190.483,3.26 191.385,3.42 191.946,3.54 C192.375,3.629 192.786,3.679 193.202,3.658 C195.752,3.548 198.284,3.919 200.838,3.833 C201.165,3.823 201.641,4.024 201.735,3.454 C201.772,3.258 202.006,3.278 202.2,3.479 C202.698,3.997 202.981,4.014 203.413,3.514 C203.534,3.375 203.604,3.44 203.727,3.467 C204.485,3.624 205.434,3.166 205.991,4.009 C206.034,4.063 206.225,4.109 206.254,4.082 C207.209,3.164 208.417,3.814 209.495,3.694 C210.247,3.608 211.297,3.917 211.774,3.702 C212.467,3.389 212.741,3.464 213.202,3.828 C213.28,3.885 213.612,3.839 213.649,3.766 C213.918,3.265 214.133,2.988 214.391,3.768 C214.407,3.81 214.719,3.844 214.745,3.807 C215.415,2.795 216.536,3.299 217.352,3.365 C220.047,3.579 222.747,3.608 225.444,3.743 C226.354,3.789 227.26,3.846 228.17,3.833 C228.567,3.825 229.083,4.036 229.28,3.423 C229.319,3.299 229.93,3.074 230.184,3.608 C230.358,3.981 230.829,4.002 231.155,3.762 C231.848,3.247 232.057,3.263 232.518,3.987 C232.989,3.686 233.411,2.889 234.008,3.908 C234.092,4.058 234.487,4.22 234.834,3.997 C235.561,3.537 236.305,3.317 236.979,4.1 C237.088,4.23 237.264,4.204 237.407,4.112 C238.356,3.496 239.823,3.464 240.682,4.063 C240.94,4.238 241.049,4.139 241.303,3.995 C241.678,3.784 242.293,3.514 242.448,4.268 C242.518,4.639 242.827,4.531 243.055,4.531 C245.303,4.539 247.545,4.536 249.792,4.536 C249.858,4.536 249.954,4.561 249.989,4.531 C250.538,4.02 251.194,4.348 251.809,4.313 C252.053,4.304 252.625,4.552 252.625,3.924 C252.625,3.784 253.161,3.766 253.346,3.867 C254.096,4.272 254.725,4.165 255.35,3.679 C255.409,3.629 255.536,3.484 255.729,3.674 C256.1,4.026 256.604,3.927 256.844,3.512 C256.924,3.375 257.772,3.26 257.825,3.396 C257.92,3.668 258.313,3.702 258.321,3.718 C259.042,4.947 259.241,3.688 259.334,3.484 C259.696,2.706 260.428,2.98 260.84,3.159 C261.292,3.35 261.733,3.409 262.008,3.234 C263.297,2.415 264.817,2.583 266.213,2.486 C269.184,2.28 272.122,1.909 275.086,1.741 C275.247,1.735 275.514,1.696 275.532,1.639 C275.77,0.444 276.928,1.206 277.594,0.908 C277.975,0.734 278.436,0.606 278.827,0.48 C280.034,0.094 281.377,0.123 282.672,0.21 C283.034,0.23 282.811,0.599 282.92,0.794 C283.053,1.025 283.374,0.564 283.454,0.91 C283.547,1.307 282.975,1.163 282.967,1.284 C282.917,2.014 281.981,2.291 281.856,2.834 C281.727,3.37 281.627,4.126 282.11,4.606 C282.704,5.186 282.594,5.875 282.395,6.397 C282.254,6.779 282.336,7.104 282.278,7.446 C282.151,8.162 282.706,8.894 282.135,9.635 C282.028,9.776 281.514,10.681 282.614,10.727 C282.645,10.727 282.713,11.009 282.668,11.135 C282.444,11.76 282.385,12.4 282.274,13.039 C282.108,14.004 281.956,14.087 282.627,14.952 C282.737,15.096 282.77,15.444 282.659,15.538 C282.18,15.945 282.516,16.639 281.956,16.994 C281.936,17.01 281.93,17.044 281.909,17.062 C281.477,17.569 282.612,17.663 282.278,18.14 C281.987,18.55 281.917,18.924 282.497,19.187 C282.635,19.254 282.723,19.429 282.659,19.454 C281.817,19.842 282.696,20.724 282.016,21.147 C281.961,21.182 281.961,21.289 281.936,21.362 C282.909,21.518 282.286,22.267 282.555,22.695 C282.659,22.857 282.667,23.15 282.309,23.281 C282.071,23.37 282.047,23.61 282.092,23.814 C282.272,24.664 282.458,25.493 282.239,26.388 C282.18,26.648 282.502,27.142 282.614,27.551 C282.926,28.645 282.645,29.699 282.51,30.779 C282.42,31.448 282.586,32.149 282.713,32.829 C282.782,33.2 283.038,33.54 282.389,33.723 C282.176,33.781 282.28,34.087 282.317,34.28 C282.571,35.66 283.084,37.096 282.78,38.428 C282.555,39.394 283.174,40.5 282.239,41.379 C282.141,41.476 282.057,42.185 282.495,42.332 C282.895,42.467 282.815,42.664 282.889,42.905 C283.051,43.465 282.965,43.923 282.385,44.246 C282.131,44.388 281.854,44.537 282.389,44.634 C282.672,44.685 282.665,44.83 282.678,45.002 C282.723,45.538 282.131,46.124 282.866,46.616 C282.938,46.667 282.95,47.036 282.717,47.049 C281.793,47.101 282.014,47.605 282.067,48.111 C282.102,48.45 282.108,48.77 281.795,49.133 C281.553,49.419 281.549,49.977 282.047,50.435 C282.536,50.882 282.629,51.687 282.356,52.219 C282.188,52.537 282.092,52.822 282.096,53.133 C282.116,54.033 281.639,54.917 281.969,55.835 C282.034,56.014 281.127,56.364 280.913,56.266 C280.315,55.996 279.51,56.189 279.401,56.538 C279.211,57.1 278.881,57.017 278.479,57.023 C277.467,57.044 276.463,57.032 275.442,57.17 C274.348,57.319 273.241,56.916 272.118,57.017 C271.456,57.073 270.79,57.042 270.256,57.5 C270.211,57.539 269.813,57.863 269.545,57.461 C269.362,57.185 267.561,57.254 267.27,57.468 C266.452,58.083 266.331,58.015 265.096,57.648 C264.829,57.565 263.915,57.379 263.647,58.057 C263.542,58.312 263.354,58.43 263.055,58.418 C262.53,58.393 262.024,58.496 261.502,58.564 C261.147,58.613 260.741,58.736 260.381,58.214 C260.038,57.725 259.211,58.205 258.655,58.31 C257.975,58.434 257.674,58.496 257.682,57.774 C257.688,57.392 257.297,57.371 256.95,57.371 C253.583,57.374 250.215,57.371 246.842,57.376 C246.575,57.376 246.174,57.288 246.217,57.715 C246.292,58.333 245.823,58.263 245.399,58.242 C240.954,58.038 236.495,58.049 232.049,57.737 C231.645,57.708 231.114,57.476 230.838,58.132 C230.741,58.372 229.915,58.411 229.608,58.103 C229.004,57.497 228.407,57.623 227.756,57.946 C227.633,58.01 227.583,58.054 227.44,57.978 C226.288,57.392 226.315,57.437 225.043,58.01 C224.67,58.175 224.01,58.281 223.698,57.824 C223.43,57.434 222.967,57.449 222.792,57.594 C222.028,58.203 221.155,57.732 220.368,57.9 C219.831,58.013 220.102,57.419 219.688,57.353 C219.168,57.272 218.883,57.698 218.481,57.701 C216.715,57.732 214.958,57.732 213.194,57.664 C212.807,57.648 212.319,57.698 211.969,57.262 C211.717,56.936 211.547,57.552 211.208,57.547 C210.053,57.529 208.874,57.667 207.749,57.5 C206.297,57.28 204.84,57.316 203.426,57.439 C202.786,57.495 202.106,57.717 201.413,57.717 C201.028,57.717 200.616,57.809 200.413,57.36 C200.299,57.117 199.885,57.154 199.895,57.314 C199.93,58.142 199.196,57.726 198.973,57.687 C197.883,57.507 196.792,57.565 195.7,57.552 C195.493,57.55 195.25,57.468 195.083,57.698 C194.879,57.974 194.68,58.043 194.571,57.623 C194.561,57.586 194.309,57.539 194.241,57.584 C193.143,58.284 191.903,57.715 190.754,57.887 C190.565,57.918 190.356,57.907 190.323,57.657 C190.262,57.238 189.784,57.298 189.641,57.397 C188.827,57.978 187.895,57.63 187.026,57.717 C186.663,57.756 186.223,57.599 186.04,58.059 C186.024,58.113 185.86,58.18 185.829,58.159 C184.497,57.369 183.127,58.462 181.79,58.077 C181.592,58.019 181.448,58.113 181.391,58.342 C181.282,58.747 181.065,58.587 180.889,58.37 C180.495,57.884 180.415,57.852 180.239,58.297 C180.077,58.713 179.875,58.535 179.583,58.507 C177.854,58.328 176.059,58.205 174.409,58.501 C173.202,58.716 172.026,58.844 170.887,58.721 C169.5,58.566 168.086,58.457 166.768,58.658 C165.625,58.83 164.506,58.948 163.364,58.935 C162.778,58.927 162.19,59.05 161.618,58.802 C161.45,58.731 161.092,58.762 160.979,58.872 C160.145,59.704 159.081,59.181 158.133,59.251 C157.594,59.293 157.024,58.912 156.528,59.414 C156.43,59.51 156.186,59.51 156.083,59.372 C155.838,59.018 155.641,58.992 155.397,59.372 C155.354,59.439 155.129,59.489 155.04,59.455 C153.952,59.026 152.866,59.685 151.774,59.45 C150.776,59.238 149.874,58.82 148.731,58.992 C146.366,59.346 143.991,59.673 141.575,59.641 C140.19,60.596 138.5,60.211 136.956,60.426 C135.364,60.65 133.725,60.613 132.11,60.682 C131.684,60.7 130.54,60.059 130.219,59.751 C129.77,59.311 129.059,59.29 128.485,59.167 C128.032,59.07 127.901,58.857 127.665,58.558" id="Fill-20" fill="#015295" mask="url(#mask-2)"></path>
            </g>
            <path d="M198.696,27.417 L201.141,27.417 C203.188,27.417 204.254,26.412 204.254,24.605 C204.254,22.794 203.155,21.792 201.042,21.792 L198.696,21.792 L198.696,27.417 L198.696,27.417 Z M192.065,20.45 C192.065,18.037 193.272,16.729 195.481,16.729 L201.211,16.729 C207.409,16.729 210.793,19.413 210.793,24.605 C210.793,29.762 207.545,32.309 201.413,32.309 L198.797,32.309 L198.797,38.408 L192.065,38.408 L192.065,20.45 L192.065,20.45 Z" id="Fill-22" fill="#FFFFFF"></path>
            <path d="M212.635,19.679 C212.635,17.569 213.604,16.565 215.452,16.565 L216.42,16.565 C218.327,16.565 219.334,17.569 219.334,19.679 L219.334,32.578 L225.932,32.578 C228.01,32.578 229.016,33.519 229.016,35.362 L229.016,35.459 C229.016,37.371 228.01,38.408 225.932,38.408 L212.635,38.408 L212.635,19.679" id="Fill-23" fill="#FFFFFF"></path>
            <path d="M238.631,29.096 L243.284,29.096 L240.944,22.794 L238.631,29.096 L238.631,29.096 Z M244.491,33.922 L237.493,33.922 L235.784,38.408 L229.083,38.408 L236.825,18.408 C237.155,17.332 238.055,16.565 241.073,16.565 C244.127,16.565 244.895,17.332 245.231,18.408 L253.303,38.408 L246.299,38.408 L244.491,33.922 L244.491,33.922 Z" id="Fill-24" fill="#FFFFFF"></path>
            <path d="M254.174,19.679 C254.174,17.604 255.209,16.565 256.922,16.565 L257.557,16.565 C259.131,16.565 259.633,17.034 260.569,18.14 L268.344,28.26 L268.344,16.729 L274.643,16.729 L274.643,35.459 C274.643,37.538 273.602,38.575 271.93,38.575 L271.393,38.575 C269.782,38.575 269.317,38.175 268.413,37.101 L260.469,26.817 L260.469,38.408 L254.174,38.408 L254.174,19.679" id="Fill-25" fill="#FFFFFF"></path>
            <path d="M192.583,45.512 C192.583,44.955 192.913,44.683 193.407,44.683 L193.69,44.683 C194.198,44.683 194.54,44.955 194.54,45.512 L194.54,51.039 L192.583,51.039 L192.583,45.512" id="Fill-26" fill="#FFFFFF"></path>
            <path d="M195.995,45.582 C195.995,44.974 196.297,44.673 196.793,44.673 L196.979,44.673 C197.436,44.673 197.586,44.806 197.854,45.136 L200.124,48.082 L200.124,44.72 L201.961,44.72 L201.961,50.179 C201.961,50.785 201.655,51.092 201.17,51.092 L201.016,51.092 C200.545,51.092 200.409,50.971 200.145,50.66 L197.829,47.661 L197.829,51.039 L195.995,51.039 L195.995,45.582" id="Fill-27" fill="#FFFFFF"></path>
            <path d="M202.995,45.561 L202.995,45.532 C202.995,44.994 203.311,44.72 203.895,44.72 L207.944,44.72 C208.551,44.72 208.856,44.994 208.856,45.532 L208.856,45.561 C208.856,46.116 208.551,46.422 207.944,46.422 L206.924,46.422 L206.924,51.039 L204.959,51.039 L204.959,46.422 L203.895,46.422 C203.311,46.422 202.995,46.116 202.995,45.561" id="Fill-28" fill="#FFFFFF"></path>
            <path d="M209.877,50.057 L209.877,45.807 C209.877,45.101 210.229,44.72 210.877,44.72 L215.106,44.72 L215.106,46.411 L211.834,46.411 L211.834,47.047 L214.276,47.047 L214.276,48.628 L211.834,48.628 L211.834,49.36 L215.116,49.36 L215.116,51.039 L210.877,51.039 C210.278,51.039 209.877,50.716 209.877,50.057" id="Fill-29" fill="#FFFFFF"></path>
            <path d="M218.311,47.682 L219.137,47.682 C219.717,47.682 220.012,47.416 220.012,46.947 C220.012,46.461 219.725,46.205 219.114,46.205 L218.311,46.205 L218.311,47.682 L218.311,47.682 Z M219.588,50.26 L218.696,49.067 L218.342,49.067 L218.342,51.039 L216.393,51.039 L216.393,45.807 C216.393,45.101 216.737,44.72 217.381,44.72 L219.334,44.72 C221.092,44.72 221.971,45.444 221.971,46.796 C221.971,47.711 221.495,48.393 220.606,48.643 L222.028,50.414 C222.088,50.489 221.749,51.092 220.907,51.092 C220.303,51.092 219.995,50.821 219.588,50.26 L219.588,50.26 Z" id="Fill-30" fill="#FFFFFF"></path>
            <path d="M223.221,45.582 C223.221,44.974 223.53,44.673 224.02,44.673 L224.209,44.673 C224.67,44.673 224.817,44.806 225.09,45.136 L227.356,48.082 L227.356,44.72 L229.188,44.72 L229.188,50.179 C229.188,50.785 228.885,51.092 228.395,51.092 L228.241,51.092 C227.776,51.092 227.637,50.971 227.372,50.66 L225.057,47.661 L225.057,51.039 L223.221,51.039 L223.221,45.582" id="Fill-31" fill="#FFFFFF"></path>
            <path d="M232.764,48.325 L234.124,48.325 L233.444,46.489 L232.764,48.325 L232.764,48.325 Z M234.473,49.734 L232.432,49.734 L231.936,51.039 L229.985,51.039 L232.235,45.214 C232.334,44.897 232.6,44.673 233.477,44.673 C234.364,44.673 234.588,44.897 234.686,45.214 L237.043,51.039 L235.002,51.039 L234.473,49.734 L234.473,49.734 Z" id="Fill-32" fill="#FFFFFF"></path>
            <path d="M237.43,45.561 L237.43,45.532 C237.43,44.994 237.747,44.72 238.331,44.72 L242.389,44.72 C242.995,44.72 243.293,44.994 243.293,45.532 L243.293,45.561 C243.293,46.116 242.995,46.422 242.389,46.422 L241.36,46.422 L241.36,51.039 L239.401,51.039 L239.401,46.422 L238.331,46.422 C237.747,46.422 237.43,46.116 237.43,45.561" id="Fill-33" fill="#FFFFFF"></path>
            <path d="M244.391,45.512 C244.391,44.955 244.723,44.683 245.209,44.683 L245.495,44.683 C245.999,44.683 246.344,44.955 246.344,45.512 L246.344,51.039 L244.391,51.039 L244.391,45.512" id="Fill-34" fill="#FFFFFF"></path>
            <path d="M252.317,47.872 C252.317,46.947 251.76,46.314 250.92,46.314 C250.065,46.314 249.514,46.919 249.514,47.872 C249.514,48.811 250.075,49.432 250.92,49.432 C251.76,49.432 252.317,48.811 252.317,47.872 L252.317,47.872 Z M247.583,47.872 C247.583,45.962 248.979,44.586 250.92,44.586 C252.868,44.586 254.252,45.953 254.252,47.872 C254.252,49.8 252.868,51.178 250.92,51.178 C248.971,51.178 247.583,49.808 247.583,47.872 L247.583,47.872 Z" id="Fill-35" fill="#FFFFFF"></path>
            <path d="M255.436,45.582 C255.436,44.974 255.735,44.673 256.231,44.673 L256.42,44.673 C256.877,44.673 257.03,44.806 257.303,45.136 L259.567,48.082 L259.567,44.72 L261.401,44.72 L261.401,50.179 C261.401,50.785 261.1,51.092 260.608,51.092 L260.458,51.092 C259.987,51.092 259.85,50.971 259.586,50.66 L257.272,47.661 L257.272,51.039 L255.436,51.039 L255.436,45.582" id="Fill-36" fill="#FFFFFF"></path>
            <path d="M264.977,48.325 L266.331,48.325 L265.651,46.489 L264.977,48.325 L264.977,48.325 Z M266.684,49.734 L264.643,49.734 L264.147,51.039 L262.19,51.039 L264.452,45.214 C264.549,44.897 264.813,44.673 265.688,44.673 C266.581,44.673 266.805,44.897 266.901,45.214 L269.252,51.039 L267.213,51.039 L266.684,49.734 L266.684,49.734 Z" id="Fill-37" fill="#FFFFFF"></path>
            <path d="M269.997,45.582 C269.997,44.969 270.282,44.673 270.815,44.673 L271.1,44.673 C271.657,44.673 271.952,44.969 271.952,45.582 L271.952,49.342 L273.874,49.342 C274.481,49.342 274.772,49.614 274.772,50.15 L274.772,50.179 C274.772,50.736 274.481,51.039 273.874,51.039 L269.997,51.039 L269.997,45.582" id="Fill-38" fill="#FFFFFF"></path>
            <path d="M138.766,19.019 C138.313,19.301 136.258,21.488 135.995,21.854 C135.883,22.019 135.481,22.703 135.452,22.739 C135.391,22.815 135.096,23.208 135.038,23.263 C134.989,23.309 134.766,23.994 134.711,24.078 C134.624,24.227 134.26,24.551 134.237,24.628 C134.221,24.677 134.407,25.079 133.901,25.506 C133.569,25.794 133.315,26.897 133.284,26.986 C133.206,27.186 132.772,27.696 132.844,28.162 C132.875,28.363 132.756,28.562 132.639,28.734 C132.563,28.896 132.59,29.451 132.262,29.565 C131.969,29.668 132.077,30.149 132.153,30.296 C132.372,30.706 132.19,31.106 132.19,31.138 C132.186,31.168 132.079,31.532 132.249,31.767 C132.483,32.104 132.221,32.659 132.211,32.851 C132.151,33.856 132.856,34.154 132.655,34.749 C132.526,35.117 132.782,35.431 132.727,35.807 C132.682,36.116 132.926,36.254 132.967,36.356 C132.997,36.416 133.208,36.92 133.196,37.01 C133.1,37.552 133.92,38.351 133.875,39.148 C133.833,39.833 134.643,40.135 134.7,40.199 C135.096,40.678 135.096,41.253 135.522,41.536 C135.561,41.563 136.022,41.912 136.077,41.943 C136.336,42.093 136.094,42.267 136.131,42.353 C136.469,43.109 137.196,43.599 137.196,43.599 C138.952,45.601 143.125,48.233 143.528,48.284 C143.928,48.341 144.311,48.408 144.625,48.667 C144.956,48.939 146.448,49.486 146.448,49.486 C146.668,49.578 146.901,49.555 147.12,49.628 C147.327,49.703 148.622,50.166 148.809,50.23 C149.073,50.325 149.381,50.508 150.352,50.741 C150.776,50.835 151.196,51.084 151.629,51.167 C152.116,51.261 152.534,50.84 152.94,51.097 C153.391,51.371 154.014,51.549 154.313,51.591 C156.385,52.046 159.34,52.132 161.45,52.069 C161.45,52.069 162.12,52.216 162.836,52.069 C163.573,52.032 164.407,51.781 165.141,51.742 C166.204,51.441 167.454,51.19 168.45,50.684 C168.799,50.601 169.184,50.221 169.403,50.205 C169.887,50.019 170.583,49.392 170.657,49.342 C170.731,49.301 171.379,48.905 171.379,48.905 C171.379,48.905 171.59,48.769 171.805,48.628 C171.95,48.511 173.676,47.142 173.676,47.142 C173.807,46.855 174.143,46.752 174.389,46.558 C174.418,46.518 174.444,46.477 174.475,46.443 C174.573,46.349 174.692,46.283 174.807,46.212 C174.86,46.182 174.915,46.15 174.963,46.108 C174.983,46.079 175.004,46.059 175.024,46.035 C175.038,46.001 175.047,45.962 175.073,45.933 C175.083,45.917 175.098,45.904 175.114,45.904 C175.145,45.904 175.165,45.935 175.192,45.931 C175.213,45.928 175.231,45.889 175.239,45.873 C175.258,45.831 175.276,45.818 175.313,45.795 C175.362,45.763 175.352,45.697 175.313,45.66 C175.284,45.633 175.237,45.601 175.231,45.551 C175.213,45.477 175.286,45.42 175.35,45.384 C175.409,45.351 175.477,45.357 175.532,45.394 C175.581,45.426 175.598,45.491 175.649,45.509 C175.711,45.53 175.75,45.457 175.75,45.408 C175.75,45.369 175.75,45.351 175.78,45.31 C175.823,45.245 175.708,45.259 175.676,45.232 C175.647,45.209 175.702,45.19 175.711,45.164 C175.727,45.097 175.647,45.064 175.586,45.059 C175.522,45.052 175.471,45.094 175.428,45.141 C175.407,45.167 175.383,45.193 175.354,45.214 C175.34,45.219 175.307,45.219 175.299,45.232 C175.286,45.245 175.297,45.271 175.288,45.289 C175.284,45.323 175.243,45.313 175.215,45.31 C175.19,45.306 175.153,45.303 175.124,45.303 C175.083,45.306 175.038,45.318 174.999,45.332 C174.969,45.342 174.95,45.369 174.926,45.381 C174.883,45.401 174.846,45.413 174.797,45.415 C174.674,45.429 174.579,45.499 174.473,45.546 C174.389,45.585 174.311,45.635 174.225,45.653 C174.192,45.658 174.143,45.66 174.112,45.658 C174.081,45.653 174.067,45.64 174.036,45.66 C174.012,45.684 173.995,45.711 173.959,45.728 C173.94,45.752 173.903,45.758 173.885,45.784 C173.862,45.818 173.862,45.859 173.831,45.892 C173.795,45.935 173.762,45.96 173.715,45.975 C173.594,46.006 173.432,45.956 173.342,45.889 C173.211,45.8 173.176,45.601 173.147,45.457 C173.137,45.405 173.147,45.326 173.038,45.342 C172.993,45.351 172.959,45.405 172.928,45.435 C172.805,45.599 172.622,45.697 172.43,45.752 C172.325,45.774 172.225,45.784 172.124,45.795 C172.04,45.795 171.956,45.752 171.874,45.763 C171.825,45.767 171.809,45.818 171.799,45.862 C171.78,45.896 171.764,45.931 171.754,45.962 C171.709,46.04 171.645,46.063 171.565,46.029 C171.516,46.006 171.415,45.948 171.487,45.889 C171.528,45.852 171.655,45.809 171.62,45.728 C171.61,45.684 171.54,45.722 171.51,45.733 C171.456,45.763 171.401,45.795 171.336,45.795 C171.243,45.795 171.116,45.756 171.106,45.645 C171.106,45.63 171.106,45.609 171.114,45.591 C171.124,45.569 171.145,45.561 171.161,45.551 C171.19,45.543 171.225,45.52 171.235,45.499 C171.258,45.465 171.213,45.429 171.225,45.392 C171.225,45.355 171.323,45.301 171.346,45.262 C171.391,45.193 171.422,45.136 171.5,45.097 C171.565,45.069 171.717,45.097 171.743,45.025 C171.782,44.939 171.762,44.85 171.831,44.754 C171.909,44.654 171.979,44.664 171.895,44.55 C171.793,44.412 171.645,44.536 171.54,44.607 C171.487,44.643 171.424,44.691 171.36,44.696 C171.264,44.696 171.301,44.632 171.346,44.581 C171.389,44.529 171.456,44.487 171.497,44.433 C171.555,44.354 171.579,44.263 171.7,44.275 C171.76,44.283 171.819,44.302 171.864,44.244 C171.948,44.146 171.854,44.056 171.754,44.053 C171.633,44.051 171.524,44.098 171.424,44.16 C171.336,44.22 171.258,44.283 171.182,44.354 C171.106,44.412 171.04,44.485 170.94,44.433 C170.917,44.419 170.907,44.412 170.875,44.412 C170.819,44.419 170.766,44.472 170.721,44.506 C170.62,44.586 170.502,44.632 170.458,44.463 C170.444,44.419 170.561,44.371 170.596,44.341 C170.596,44.341 170.852,44.307 170.907,44.291 C170.991,44.275 171.145,44.236 171.2,44.165 C171.215,44.14 171.225,44.119 171.249,44.09 C171.36,43.961 171.206,43.775 171.061,43.862 C170.956,43.927 170.881,44.046 170.786,44.119 C170.721,44.174 170.639,44.233 170.545,44.233 C170.467,44.233 170.313,44.16 170.368,44.058 C170.393,44.007 170.491,44.007 170.543,43.977 C170.6,43.94 170.633,43.87 170.696,43.831 C170.786,43.753 170.897,43.692 171.018,43.668 C171.084,43.656 171.215,43.65 171.215,43.54 C171.215,43.489 171.17,43.467 171.124,43.476 C171.061,43.489 171.018,43.504 170.952,43.496 C170.864,43.48 170.76,43.477 170.696,43.416 C170.639,43.365 170.667,43.24 170.583,43.235 C170.432,43.219 170.536,43.313 170.491,43.392 C170.444,43.467 170.204,43.525 170.157,43.428 C170.106,43.321 170.249,43.214 170.331,43.18 C170.411,43.143 170.502,43.101 170.588,43.101 C170.627,43.099 170.657,43.109 170.696,43.084 C170.721,43.061 170.741,42.96 170.809,42.944 C170.852,42.934 170.897,42.855 170.833,42.83 C170.797,42.813 170.737,42.846 170.7,42.851 C170.657,42.855 170.608,42.843 170.567,42.852 C170.467,42.882 170.458,42.965 170.411,43.036 C170.368,43.101 170.268,43.15 170.194,43.167 C170.083,43.184 170.061,43.077 169.973,43.038 C169.852,42.978 169.877,43.128 169.852,43.193 C169.823,43.279 169.721,43.281 169.653,43.318 C169.569,43.35 169.524,43.428 169.458,43.482 C169.293,43.632 169.084,43.611 168.889,43.668 C168.721,43.724 168.778,43.731 168.7,43.787 C168.553,43.891 168.372,43.724 168.211,43.789 C168.196,43.794 168.125,43.862 168.086,43.87 C168.032,43.888 168.032,43.833 167.987,43.833 C167.743,43.823 167.657,43.787 167.612,43.794 C167.538,43.809 167.479,43.857 167.436,43.92 C167.368,44.029 167.151,44.105 167.094,44.105 C167.03,44.102 166.987,44.037 166.944,43.988 C166.889,43.931 166.84,43.949 166.776,43.995 C166.704,44.046 166.704,44.16 166.659,44.181 C166.614,44.202 166.526,44.204 166.538,44.135 C166.555,44.095 166.586,44.071 166.604,44.037 C166.614,44 166.598,43.973 166.555,43.973 C166.526,43.977 166.459,44.032 166.434,44.046 C166.36,44.071 166.252,44.066 166.182,44.051 C166.143,44.037 166.106,44.027 166.069,44.014 C166.04,44 166.01,43.977 165.979,43.977 C165.918,43.979 165.905,44.051 165.844,44.061 C165.79,44.076 165.725,44.058 165.665,44.046 C165.62,44.029 165.555,44.007 165.506,44.017 L165.385,44.124 C165.307,44.14 165.215,44.121 165.131,44.121 C165.077,44.119 164.606,44.135 164.428,44.165 C164.112,44.223 163.813,44.344 163.495,44.383 C163.184,44.419 161.756,44.485 161.557,44.476 C161.352,44.472 160.448,44.437 160.352,44.534 C160.334,44.555 160.129,44.534 160.09,44.531 C160.014,44.526 160.01,44.419 159.944,44.395 C159.75,44.311 159.903,44.511 159.67,44.354 C159.516,44.247 159.309,44.291 159.055,44.302 C158.641,44.309 157.948,44.197 157.803,44.181 C157.549,44.146 157.288,44.037 157.143,43.87 C157.014,43.724 156.805,43.684 156.776,43.48 C156.715,42.978 156.903,42.221 156.94,42.006 C156.991,41.792 157.049,41 157.122,40.945 C157.161,40.908 157.122,40.882 157.161,40.845 C157.442,40.567 157.342,40.558 157.397,40.277 C157.485,39.805 157.67,39.104 158.204,38.974 C158.461,38.91 158.768,38.756 158.946,38.69 C159.157,38.617 159.583,38.676 159.913,38.529 C159.985,38.495 160.036,38.456 160.12,38.445 C160.438,38.411 160.76,38.507 161.079,38.468 C161.387,38.429 161.735,38.403 161.805,38.413 C161.926,38.44 161.834,38.307 161.881,38.285 C162.03,38.233 162.026,38.424 162.206,38.468 C162.333,38.505 162.864,38.529 163,38.529 C163.04,38.529 163.008,38.463 163.036,38.432 C163.129,38.333 163.221,38.525 163.276,38.57 C163.413,38.683 165.735,38.941 165.897,38.976 C166.159,39.031 166.547,39.013 166.868,38.855 C167.014,38.79 167.502,38.57 167.6,38.466 C167.635,38.424 167.571,38.36 167.602,38.321 C167.69,38.218 167.795,38.021 167.75,37.792 C167.741,37.719 167.776,37.647 167.795,37.582 C167.833,37.472 167.766,37.398 167.778,37.289 C167.788,37.197 167.801,37.073 167.874,37.005 C167.993,36.884 168.006,36.725 167.956,36.631 C167.856,36.45 167.688,36.372 167.647,36.343 C167.557,36.29 167.647,36.346 167.657,36.23 C167.657,36.173 167.483,36.199 167.483,36.199 C167.483,36.199 167.147,36.183 167.032,36.143 C166.717,36.029 166.405,35.997 166.073,35.992 C165.547,35.987 165.045,35.775 164.528,35.82 C164.442,35.825 164.252,35.88 164.213,35.875 C164.127,35.862 164.208,35.721 163.897,35.731 C163.606,35.736 163.303,35.668 163.024,35.595 C162.77,35.525 162.03,35.569 161.946,35.525 C161.897,35.498 161.838,35.509 161.782,35.488 C161.672,35.452 161.625,35.297 161.399,35.289 C161.352,35.289 161.311,35.205 161.262,35.205 C161.176,35.203 161.024,35.244 160.975,35.205 C160.877,35.127 160.663,35.086 160.627,34.939 C160.565,34.662 161.102,34.335 161.278,34.199 C161.438,34.081 161.627,33.883 161.844,33.897 C161.975,33.906 162.036,33.814 162.122,33.715 C162.309,33.496 163.03,32.539 163.26,32.358 C163.508,32.164 163.317,31.928 163.627,31.685 C163.727,31.616 163.848,31.297 163.887,31.234 C164.042,30.955 163.987,30.486 164.27,30.288 C164.288,30.277 164.342,30.188 164.387,30.081 C164.428,29.981 164.331,29.892 164.309,29.856 C164.262,29.775 164.292,29.663 164.288,29.565 C164.282,29.498 164.262,28.873 164.262,28.75 C164.272,28.562 164.352,28.471 164.536,28.486 C164.667,28.496 164.538,28.204 164.516,28.115 C164.461,27.864 164.221,27.524 163.836,27.488 C163.385,27.445 163.036,27.774 162.749,28.095 C162.559,28.31 162.036,29.066 161.948,29.121 C161.799,29.213 161.936,29.281 161.762,29.508 C161.702,29.579 161.59,29.56 161.536,29.629 C161.477,29.721 161.342,29.942 161.342,30.053 C161.348,30.136 161.377,30.218 161.307,30.272 C161.102,30.434 161.063,30.218 160.975,30.272 C160.901,30.321 160.868,30.41 160.833,30.439 C160.614,30.628 160.565,30.701 160.338,30.751 C160.208,30.776 159.94,30.804 159.858,30.948 C159.803,31.049 159.518,31.067 159.518,30.868 C159.516,30.73 159.651,30.235 159.665,30.185 C159.741,29.94 159.34,29.791 159.532,29.542 C159.637,29.409 159.62,29.27 159.536,29.137 C159.504,29.08 159.438,28.818 159.397,28.766 C159.28,28.619 159.442,28.573 159.309,28.374 C159.231,28.253 159.116,28.457 159.096,28.159 C159.081,27.976 158.901,27.921 158.807,27.838 C158.684,27.72 158.549,27.602 158.407,27.506 C158.032,27.241 157.61,27.059 157.167,26.957 C156.715,26.854 156.249,26.826 155.795,26.907 C155.678,26.928 155.497,26.92 155.497,26.808 C155.497,26.773 155.452,26.771 155.424,26.753 C155.336,26.695 155.149,26.776 155.057,26.815 C154.77,26.928 155.051,27.061 154.895,27.108 C154.672,27.179 154.139,27.339 153.993,27.383 C153.93,27.403 153.819,27.435 153.657,27.435 C153.508,27.435 153.499,27.566 153.311,27.652 C152.952,27.817 153.036,28.656 153.059,28.868 C153.061,28.905 153.081,29.007 153.157,28.983 C153.233,28.956 153.325,29.059 153.311,29.239 C153.301,29.42 153.301,29.511 153.233,29.73 C153.17,29.947 153.313,29.828 153.301,30.037 C153.288,30.193 153.499,30.745 153.471,30.899 C153.465,30.946 153.514,31.004 153.536,31.046 C153.551,31.083 153.581,31.09 153.62,31.095 C153.719,31.108 153.709,31.314 153.79,31.507 C153.842,31.642 153.883,31.825 153.997,31.919 C154.075,31.976 154.081,32.055 154.12,32.104 C154.172,32.178 154.206,32.23 154.168,32.28 C154.124,32.34 153.948,32.478 153.883,32.452 C153.774,32.413 153.469,32.391 153.368,32.358 C153.163,32.288 152.909,32.408 152.85,32.348 C152.786,32.28 152.678,32.28 152.586,32.246 C152.5,32.215 152.489,32.324 152.446,32.31 C152.348,32.285 152.329,32.215 152.268,32.154 C152.127,32.003 151.938,31.995 151.735,31.919 C151.483,31.82 151.219,31.731 150.999,31.576 C150.756,31.404 149.944,31.103 149.907,31.015 C149.862,30.889 149.604,30.943 149.594,30.912 C149.573,30.824 149.342,30.8 149.334,30.735 C149.325,30.643 149.165,30.662 149.096,30.611 C149.042,30.575 148.909,30.499 148.84,30.531 C148.768,30.572 148.667,30.616 148.588,30.557 C148.547,30.52 148.51,30.486 148.45,30.474 C148.284,30.426 148.174,30.492 148.053,30.589 C147.907,30.703 147.768,30.826 147.645,30.962 C147.573,31.051 147.547,31.158 147.497,31.258 C147.452,31.349 147.372,31.404 147.321,31.49 C147.264,31.601 147.284,31.715 147.407,31.747 C147.551,31.777 147.426,31.893 147.522,31.944 C147.68,32.026 147.737,32.324 147.93,32.513 C148.163,32.737 148.239,33.077 148.315,33.219 C148.415,33.423 148.788,33.263 148.856,33.517 C148.885,33.618 149.1,33.809 149.491,34.154 C149.633,34.272 150.231,34.596 150.461,34.623 C151.077,34.693 151.346,34.976 151.594,35.152 C151.711,35.229 151.928,35.164 152.202,35.677 C152.307,35.869 152.36,36.528 152.417,36.858 C152.528,37.572 152.809,37.462 152.676,37.713 C152.512,38.035 152.809,38.411 152.807,39.229 C152.801,39.42 152.708,39.734 152.608,39.967 C152.417,40.433 152.731,41.03 152.647,41.222 C152.534,41.485 152.483,42.505 152.252,42.715 C152.153,42.803 151.977,42.779 151.854,42.725 C151.635,42.633 150.961,42.803 150.799,42.66 C150.502,42.391 150.149,42.427 149.93,42.401 C149.743,42.374 149.491,42.223 149.348,42.154 C149.051,42.006 147.836,41.568 147.387,41.337 C146.274,40.751 144.741,40.098 144.625,39.496 C144.583,39.244 142.905,38.173 142.649,37.802 C142.508,37.602 142.209,37.286 142.161,37.197 C142.094,37.061 142.061,36.764 141.969,36.634 C141.752,36.336 141.483,36.299 141.37,35.726 C141.333,35.509 141.182,35.626 140.948,35.033 C140.344,33.504 140.418,31.738 140.442,31.074 C140.463,30.504 140.958,29.252 141.102,28.809 C141.194,28.546 141.52,28.377 141.584,27.914 C141.606,27.769 142.319,27.286 142.571,26.868 C142.792,26.504 143.28,26.073 143.631,25.849 C143.827,25.726 146.45,23.799 146.682,23.526 C146.766,23.422 147.014,23.048 147.559,23.037 C147.688,23.035 147.977,22.845 147.991,22.739 C148.032,22.447 150.737,21.8 151.163,21.334 C151.295,21.19 152.108,20.961 152.514,20.882 C152.629,20.853 152.602,20.997 152.866,20.757 C153.063,20.574 153.497,20.874 153.743,20.626 C154.059,20.312 154.151,20.244 154.784,20.252 C155.411,20.26 155.315,19.931 155.815,19.896 C156.083,19.876 156.518,19.731 156.661,19.466 C156.77,19.268 157.936,19.164 158.167,18.989 C158.729,18.57 159.145,19.033 159.829,18.892 C159.913,18.877 160.208,18.974 160.366,18.96 C160.528,18.944 160.79,18.71 160.887,18.926 C160.942,19.054 162.002,18.992 162.266,18.978 C162.342,18.976 162.514,18.871 162.495,18.944 C162.465,19.07 163.167,19.013 163.299,19.125 C163.485,19.273 163.764,19.429 164.124,19.321 C164.338,19.262 165.125,19.384 165.415,19.486 C165.616,19.554 165.262,19.672 166.01,19.703 C166.489,19.718 168.151,20.712 168.499,20.775 C168.92,20.801 169.03,21.231 169.458,21.392 C170.227,21.683 171.161,22.338 173.077,23.832 C173.17,23.9 173.268,24.229 173.368,24.227 C173.86,24.207 174.325,25.125 174.53,25.391 C174.598,25.464 174.915,25.269 174.877,25.835 C174.872,25.919 175.124,25.796 175.131,26.187 C175.141,26.63 175.926,26.881 176.12,27.838 C176.135,27.933 176.25,28.011 176.292,28.097 C176.43,28.445 176.956,30.053 176.946,30.639 C176.944,30.815 177.043,31.878 176.883,32.661 C176.737,33.359 176.477,34.032 176.211,34.696 C176.053,35.103 175.67,35.649 175.641,35.794 C175.618,35.933 175.52,36.079 175.547,36.228 C175.569,36.324 175.571,36.469 175.463,36.505 C175.344,36.549 175.168,36.641 175.153,36.81 C175.145,36.913 174.907,36.92 174.917,37.039 C174.934,37.187 174.661,37.177 174.643,37.332 C174.633,37.428 174.411,37.515 174.452,37.645 C174.475,37.724 174.356,37.726 174.27,37.763 C174.145,37.802 173.924,38.154 173.924,38.218 C173.926,38.285 173.792,38.241 173.774,38.461 C173.762,38.597 173.625,38.604 173.549,38.717 C173.477,38.818 173.391,38.846 173.377,38.866 C173.334,38.936 173.321,39.061 173.331,39.169 C173.334,39.263 173.167,39.561 173.364,39.554 C173.446,39.549 173.477,39.448 173.532,39.397 C173.616,39.324 173.725,39.253 173.831,39.205 C173.959,39.141 174.125,39.109 174.202,38.965 C174.235,38.902 174.321,38.74 174.411,38.726 C174.444,38.722 174.475,38.729 174.51,38.712 C174.543,38.701 174.573,38.665 174.596,38.639 C174.653,38.565 174.713,38.481 174.774,38.411 C174.807,38.367 174.905,38.411 174.928,38.346 C174.95,38.301 174.905,38.277 174.959,38.252 C174.999,38.23 175.045,38.23 175.083,38.207 C175.122,38.186 175.145,38.147 175.178,38.12 C175.243,38.065 175.321,38.026 175.399,38.081 C175.516,38.154 175.131,38.471 175.106,38.505 C175.014,38.604 174.989,38.748 174.895,38.852 C174.827,38.936 174.75,39.019 174.674,39.096 C174.643,39.12 174.604,39.141 174.579,39.169 C174.551,39.205 174.53,39.244 174.516,39.278 C174.475,39.34 174.411,39.373 174.364,39.425 C174.311,39.477 174.288,39.544 174.247,39.603 C174.174,39.684 174.135,39.741 174.17,39.857 C174.192,39.925 174.243,39.954 174.311,39.92 C174.374,39.891 174.395,39.825 174.428,39.768 C174.456,39.705 174.489,39.658 174.543,39.617 C174.598,39.574 174.659,39.549 174.715,39.515 C174.764,39.491 174.792,39.438 174.819,39.393 C174.895,39.278 174.989,39.169 175.073,39.065 C175.124,39.004 175.168,38.929 175.243,38.897 C175.286,38.885 175.34,38.885 175.362,38.834 C175.383,38.79 175.362,38.709 175.43,38.704 C175.493,38.701 175.487,38.782 175.493,38.821 C175.506,38.876 175.522,38.887 175.571,38.887 C175.647,38.89 175.672,38.855 175.702,38.795 C175.725,38.74 175.774,38.67 175.823,38.643 C175.881,38.612 175.936,38.594 175.991,38.548 C176.071,38.471 176.147,38.406 176.219,38.328 C176.266,38.275 176.321,38.223 176.372,38.165 C176.411,38.12 176.45,38.051 176.51,38.023 C176.551,38.006 176.586,38.032 176.625,38.035 C176.667,38.042 176.665,38.026 176.68,37.989 C176.696,37.967 176.717,37.933 176.75,37.933 C176.827,37.933 176.825,38.042 176.825,38.097 C176.825,38.12 176.813,38.163 176.834,38.186 C176.85,38.212 176.899,38.204 176.926,38.202 C176.987,38.191 177.02,38.191 177,38.262 C176.995,38.299 176.958,38.335 176.934,38.36 C176.858,38.437 176.78,38.505 176.713,38.592 C176.682,38.626 176.645,38.662 176.62,38.696 C176.526,38.811 176.43,38.921 176.336,39.038 C176.256,39.13 176.18,39.226 176.096,39.315 C176.057,39.37 176.014,39.43 175.959,39.471 C175.891,39.525 175.87,39.585 175.825,39.658 C175.774,39.752 175.696,39.805 175.631,39.878 C175.592,39.922 175.602,39.975 175.586,40.027 C175.571,40.084 175.54,40.11 175.499,40.157 C175.409,40.263 175.327,40.382 175.299,40.516 C175.284,40.576 175.286,40.686 175.368,40.62 C175.415,40.581 175.428,40.523 175.477,40.487 C175.52,40.458 175.575,40.455 175.629,40.437 C175.702,40.414 175.766,40.364 175.801,40.296 C175.829,40.238 175.823,40.142 175.868,40.102 C175.901,40.071 175.977,40.077 176.024,40.059 C176.081,40.045 176.147,40.027 176.206,40.009 C176.264,40 176.334,39.998 176.385,39.967 C176.387,39.961 176.395,39.956 176.401,39.954 C176.409,39.942 176.418,39.933 176.42,39.92 C176.43,39.898 176.442,39.867 176.44,39.844 C176.43,39.812 176.405,39.805 176.43,39.778 C176.45,39.752 176.467,39.729 176.477,39.697 C176.483,39.649 176.45,39.613 176.415,39.59 C176.366,39.559 176.288,39.515 176.278,39.448 C176.274,39.413 176.301,39.384 176.321,39.35 C176.334,39.324 176.346,39.29 176.35,39.253 C176.35,39.229 176.346,39.205 176.35,39.183 C176.356,39.153 176.366,39.13 176.381,39.111 C176.397,39.091 176.424,39.049 176.45,39.041 C176.518,39.019 176.542,39.109 176.606,39.12 C176.659,39.125 176.704,39.13 176.75,39.13 C176.811,39.13 176.866,39.141 176.92,39.13 C176.958,39.125 177.014,39.12 177.034,39.083 C177.049,39.067 177.055,39.038 177.049,39.013 C177.043,38.963 176.981,38.931 176.981,38.89 C176.973,38.848 177,38.793 177.024,38.761 C177.055,38.712 177.102,38.696 177.151,38.712 C177.252,38.74 177.362,38.861 177.473,38.821 C177.516,38.803 177.53,38.754 177.506,38.709 C177.499,38.69 177.473,38.678 177.459,38.657 C177.444,38.643 177.436,38.626 177.426,38.604 C177.393,38.529 177.434,38.456 177.479,38.394 C177.522,38.344 177.584,38.272 177.651,38.252 C177.684,38.241 177.719,38.218 177.756,38.218 L177.78,38.218 C177.825,38.218 177.85,38.272 177.854,38.314 C177.86,38.36 177.846,38.408 177.823,38.45 C177.788,38.516 177.719,38.592 177.784,38.657 C177.846,38.709 177.924,38.709 177.997,38.696 C178.03,38.696 178.057,38.69 178.088,38.69 C178.118,38.69 178.155,38.683 178.18,38.69 C178.219,38.709 178.25,38.782 178.237,38.824 C178.219,38.894 178.163,38.941 178.129,39.004 C178.088,39.07 178.008,39.122 177.942,39.164 C177.903,39.184 177.85,39.195 177.805,39.205 C177.737,39.229 177.684,39.251 177.661,39.315 C177.639,39.384 177.674,39.413 177.737,39.42 C177.815,39.434 177.889,39.477 177.889,39.561 C177.889,39.705 177.768,39.784 177.651,39.844 C177.602,39.872 177.547,39.898 177.506,39.935 C177.483,39.954 177.463,39.975 177.454,40 C177.444,40.009 177.409,40.084 177.407,40.084 C177.354,40.102 177.309,40.029 177.268,40.006 C177.245,39.993 177.221,39.988 177.2,40 C177.184,40.009 177.18,40.024 177.168,40.04 C177.151,40.053 177.124,40.059 177.114,40.084 C177.108,40.102 177.108,40.135 177.108,40.157 C177.108,40.199 177.108,40.254 177.098,40.299 C177.084,40.327 177.055,40.375 177.065,40.409 C177.077,40.467 177.17,40.434 177.196,40.414 C177.235,40.387 177.245,40.343 177.278,40.322 C177.331,40.277 177.391,40.398 177.383,40.439 C177.372,40.482 177.331,40.497 177.319,40.531 C177.299,40.572 177.338,40.604 177.372,40.618 C177.436,40.634 177.592,40.552 177.59,40.482 L177.59,40.472 C177.573,40.421 177.506,40.348 177.594,40.327 C177.639,40.317 177.674,40.348 177.708,40.372 C177.733,40.393 177.768,40.433 177.805,40.433 C177.85,40.433 177.887,40.356 177.915,40.327 C177.963,40.272 178.024,40.23 178.086,40.194 C178.172,40.14 178.293,40.118 178.364,40.043 C178.436,39.954 178.497,39.823 178.528,39.705 C178.542,39.658 178.557,39.588 178.594,39.551 C178.69,39.459 178.84,39.503 178.922,39.409 C178.965,39.373 178.987,39.329 178.999,39.285 C179.012,39.239 179.032,39.205 179.057,39.169 C179.09,39.125 179.075,39.083 179.077,39.031 C179.077,38.985 179.104,38.931 179.139,38.902 C179.188,38.868 179.227,38.868 179.272,38.9 C179.344,38.955 179.458,38.876 179.524,38.929 C179.594,38.985 179.506,39.104 179.454,39.148 C179.282,39.276 179.319,39.51 179.155,39.635 C179.098,39.679 179.012,39.684 178.958,39.734 C178.885,39.814 178.913,39.959 178.842,40.029 C178.811,40.063 178.749,39.998 178.711,40.018 C178.682,40.032 178.672,40.077 178.672,40.102 C178.672,40.123 178.672,40.146 178.667,40.167 C178.651,40.201 178.557,40.265 178.616,40.309 C178.637,40.327 178.682,40.327 178.711,40.33 C178.758,40.332 178.768,40.322 178.801,40.291 C178.811,40.272 178.827,40.249 178.846,40.252 C178.875,40.254 178.891,40.291 178.911,40.302 C178.922,40.311 178.948,40.343 178.967,40.327 C178.987,40.317 178.987,40.277 178.993,40.265 C179.006,40.238 179.03,40.218 179.059,40.218 C179.084,40.22 179.077,40.228 179.084,40.247 C179.112,40.291 179.188,40.267 179.221,40.244 C179.25,40.228 179.276,40.199 179.297,40.179 C179.352,40.118 179.389,40.048 179.428,39.993 C179.481,39.933 179.53,39.872 179.6,39.844 C179.639,39.828 179.682,39.833 179.725,39.814 C179.776,39.794 179.815,39.757 179.854,39.723 C179.924,39.658 180.014,39.64 180.094,39.574 C180.131,39.544 180.213,39.477 180.223,39.569 C180.227,39.588 180.213,39.61 180.217,39.619 C180.223,39.64 180.239,39.649 180.239,39.672 C180.233,39.762 180.077,39.794 180.043,39.872 C180.034,39.908 180.051,39.942 180.043,39.972 C180.032,40.079 179.93,40.053 179.858,40.098 C179.77,40.157 179.7,40.263 179.653,40.356 C179.627,40.403 179.631,40.409 179.655,40.458 C179.67,40.482 179.715,40.516 179.7,40.547 C179.682,40.576 179.616,40.542 179.59,40.547 C179.5,40.562 179.538,40.649 179.524,40.701 C179.506,40.762 179.428,40.659 179.405,40.771 C179.389,40.829 179.397,40.894 179.374,40.952 C179.344,41.018 179.266,41.062 179.208,41.094 C179.188,41.099 179.172,41.101 179.153,41.112 C179.139,41.117 179.12,41.133 179.106,41.151 C179.09,41.172 179.098,41.209 179.084,41.236 C179.077,41.259 179.059,41.277 179.043,41.292 C179.012,41.321 178.967,41.357 178.958,41.399 C178.948,41.429 178.958,41.438 178.989,41.441 C179.008,41.446 179.03,41.435 179.043,41.426 C179.051,41.424 179.057,41.417 179.067,41.415 C179.077,41.407 179.09,41.407 179.098,41.401 C179.112,41.394 179.124,41.39 179.139,41.378 C179.163,41.365 179.188,41.352 179.215,41.337 C179.245,41.321 179.282,41.308 179.309,41.287 C179.428,41.197 179.536,41.099 179.639,40.989 C179.747,40.879 179.825,40.735 179.934,40.625 C179.977,40.576 180.043,40.511 180.108,40.492 C180.233,40.458 180.194,40.586 180.145,40.643 C180.12,40.67 180.12,40.707 180.094,40.732 C180.073,40.751 180.043,40.751 180.022,40.767 C179.989,40.787 179.963,40.838 179.94,40.868 C179.901,40.945 179.864,41.03 179.799,41.088 C179.749,41.124 179.692,41.141 179.655,41.192 C179.616,41.243 179.594,41.309 179.569,41.371 C179.547,41.42 179.53,41.473 179.604,41.483 C179.702,41.499 179.709,41.42 179.758,41.365 C179.801,41.308 179.905,41.305 179.965,41.266 C180.032,41.222 180.034,41.17 180.055,41.103 C180.065,41.073 180.122,40.977 180.157,40.981 C180.165,40.904 180.229,40.916 180.272,40.865 C180.295,40.838 180.276,40.826 180.319,40.814 C180.383,40.787 180.489,40.767 180.479,40.868 C180.471,40.932 180.409,40.986 180.37,41.03 C180.262,41.17 180.157,41.289 180.077,41.438 C179.989,41.585 180.022,41.744 179.93,41.889 C179.879,41.956 179.833,42.045 179.77,42.098 C179.709,42.149 179.631,42.176 179.579,42.232 C179.524,42.288 179.477,42.358 179.436,42.42 C179.37,42.52 179.276,42.571 179.176,42.642 C179.139,42.67 179.106,42.706 179.077,42.745 C179.038,42.801 178.967,42.846 178.922,42.903 C178.885,42.958 178.868,43.017 178.827,43.065 C178.766,43.13 178.709,43.153 178.704,43.256 C178.659,43.261 178.657,43.245 178.618,43.279 C178.594,43.292 178.577,43.313 178.557,43.326 C178.536,43.357 178.51,43.393 178.489,43.423 C178.473,43.436 178.418,43.489 178.426,43.507 C178.452,43.603 178.754,43.348 178.782,43.321 C178.879,43.23 178.967,43.128 179.067,43.036 C179.309,42.801 179.549,42.555 179.78,42.306 C179.977,42.088 180.18,41.861 180.364,41.632 C180.45,41.527 180.545,41.42 180.604,41.305 C180.653,41.222 180.672,41.088 180.758,41.041 C180.819,41.007 180.913,41.033 180.985,41.002 C181.262,40.887 181.428,40.492 181.61,40.272 C182.133,39.658 182.786,38.186 182.84,38.026 C182.883,37.904 182.926,37.616 183.196,37.552 C183.372,37.506 183.338,37.13 183.374,36.966 C183.426,36.748 183.45,36.51 183.586,36.336 C183.821,36.04 183.84,35.53 183.877,35.362 C183.961,35.013 184.61,32.743 184.448,30.918 C184.413,30.565 184.422,28.445 183.838,27.796 C183.459,27.383 183.875,26.865 183.645,26.204 C183.59,26.044 183.833,25.971 183.877,25.809 C184.04,25.286 183.715,24.85 183.436,24.793 C183.196,24.747 182.875,24.747 182.78,24.463 C182.743,24.342 182.95,23.846 182.678,23.328 C182.543,23.08 182.325,22.509 180.653,21.211 C180.096,20.772 179.682,20.176 179.188,19.677 C179.032,19.394 178.165,18.618 177.94,18.458 C177.784,18.349 177.538,17.828 176.813,17.569 C176.575,17.483 174.956,16.178 174.768,16.116 C174.079,15.893 172.891,15.039 172.678,14.986 C171.467,14.698 171.03,14.017 170.575,13.973 C170.227,13.94 169.26,13.883 168.754,13.313 C168.469,13.004 168.073,12.936 167.69,13.148 C167.446,13.287 166.676,12.599 165.581,12.735 C165.35,12.764 165.149,12.358 164.309,12.466 C163.495,12.573 162.969,12.042 162.678,11.939 C162.405,11.841 160.684,11.401 159.913,11.431 L159.432,11.431 C157.782,11.214 156.336,11.214 154.741,11.431 C154.368,11.527 149.579,12.759 149.133,13.016 C148.764,13.232 147.756,13.554 147.504,13.671 C146.981,13.915 144.95,14.575 144.887,14.801 C144.85,14.921 144.522,14.934 144.44,15.028 C144.393,15.086 143.889,15.621 143.225,15.867 C142.807,16.021 140.805,17.483 140.434,17.808 C140.168,18.037 138.969,18.895 138.766,19.019" id="Fill-39" fill="#FFFFFF"></path>
            <path d="M184.696,24.898 C184.686,25.061 184.665,25.23 184.502,25.331 C184.491,25.341 184.456,25.333 184.436,25.331 C184.418,25.331 184.399,25.325 184.383,25.317 C184.309,25.297 184.249,25.244 184.204,25.184 C184.182,25.155 184.157,25.125 184.129,25.096 C184.102,25.061 184.075,25.029 184.051,24.988 C184.028,24.949 184.018,24.898 184.018,24.857 C184.024,24.82 184.038,24.784 184.047,24.747 C184.065,24.713 184.09,24.685 184.116,24.658 C184.139,24.64 184.184,24.614 184.217,24.612 C184.436,24.601 184.643,24.672 184.696,24.898" id="Fill-40" fill="#FFFFFF"></path>
            <path d="M172.698,39.661 C172.708,39.668 172.708,39.679 172.708,39.69 C172.698,39.781 172.573,39.823 172.528,39.878 C172.479,39.937 172.444,40.077 172.342,40.018 C172.364,39.903 172.479,39.723 172.577,39.658 C172.627,39.629 172.692,39.603 172.698,39.661" id="Fill-41" fill="#FFFFFF"></path>
            <path d="M173.192,39.898 C173.176,39.933 173.147,39.961 173.133,39.985 C173.077,40.053 173.022,40.118 172.971,40.185 C172.952,40.208 172.936,40.228 172.913,40.249 C172.792,40.398 172.665,40.536 172.528,40.662 C172.458,40.73 172.387,40.792 172.313,40.853 C172.278,40.882 172.161,41.015 172.104,40.952 C172.059,40.899 172.092,40.821 172.127,40.777 C172.161,40.743 172.192,40.709 172.215,40.668 C172.249,40.618 172.258,40.562 172.274,40.503 C172.288,40.439 172.313,40.364 172.377,40.332 C172.45,40.293 172.543,40.277 172.622,40.267 C172.708,40.254 172.752,40.194 172.797,40.121 C172.815,40.102 172.827,40.079 172.829,40.055 C172.842,40.018 172.852,40 172.883,39.975 C172.915,39.949 172.948,39.92 172.983,39.893 C173.028,39.857 173.104,39.762 173.17,39.799 C173.213,39.825 173.211,39.864 173.192,39.898" id="Fill-42" fill="#FFFFFF"></path>
            <path d="M178.637,40.528 C178.657,40.558 178.659,40.597 178.659,40.628 C178.649,40.678 178.59,40.698 178.549,40.712 C178.497,40.735 178.448,40.756 178.387,40.774 C178.329,40.787 178.272,40.809 178.217,40.819 C178.188,40.826 178.032,40.858 178.108,40.902 C178.165,40.934 178.124,40.971 178.069,40.989 C178.03,41.002 177.942,41.02 177.909,40.986 C177.86,40.938 177.934,40.814 177.969,40.777 C178.012,40.73 178.069,40.691 178.127,40.659 C178.188,40.628 178.249,40.601 178.309,40.567 C178.364,40.528 178.417,40.476 178.475,40.448 C178.549,40.421 178.612,40.467 178.637,40.528" id="Fill-43" fill="#FFFFFF"></path>
            <path d="M175.114,40.67 L175.11,40.678 C175.073,40.688 174.999,40.704 174.973,40.67 C174.928,40.613 175.038,40.567 175.083,40.567 C175.135,40.567 175.167,40.654 175.114,40.67" id="Fill-44" fill="#FFFFFF"></path>
            <path d="M175.209,40.782 C175.231,40.81 175.168,40.821 175.153,40.829 C175.124,40.845 175.098,40.858 175.069,40.879 C175.004,40.911 174.959,40.957 174.913,41.012 C174.877,41.055 174.834,41.101 174.782,41.122 C174.78,41.124 174.774,41.124 174.774,41.124 C174.764,41.128 174.752,41.131 174.749,41.131 C174.686,41.148 174.614,41.138 174.641,41.055 C174.653,41 174.696,40.971 174.743,40.952 C174.784,40.936 174.836,40.927 174.877,40.897 C174.917,40.868 174.936,40.81 174.926,40.762 C174.95,40.743 174.973,40.756 174.999,40.769 C175.024,40.78 175.047,40.796 175.083,40.792 C175.11,40.787 175.135,40.782 175.165,40.78 C175.168,40.78 175.204,40.78 175.209,40.782" id="Fill-45" fill="#FFFFFF"></path>
            <path d="M171.655,41.527 C171.497,41.719 171.215,41.914 171.038,41.766 C170.858,41.621 170.952,41.48 171.084,41.337 C171.288,41.148 171.721,40.963 171.805,41.046 C171.95,41.192 171.717,41.376 171.655,41.527" id="Fill-46" fill="#FFFFFF"></path>
            <path d="M177.649,41.438 C177.608,41.435 177.602,41.337 177.606,41.309 C177.608,41.287 177.608,41.266 177.608,41.24 C177.602,41.216 177.59,41.185 177.606,41.161 C177.625,41.124 177.694,41.141 177.729,41.148 C177.768,41.151 177.78,41.167 177.77,41.209 C177.766,41.253 177.723,41.289 177.708,41.328 C177.692,41.36 177.7,41.417 177.668,41.435 C177.661,41.438 177.651,41.441 177.649,41.438" id="Fill-47" fill="#FFFFFF"></path>
            <path d="M174.288,41.435 C174.243,41.441 174.192,41.292 174.235,41.216 C174.252,41.175 174.29,41.204 174.319,41.226 C174.344,41.266 174.344,41.316 174.34,41.362 C174.334,41.394 174.34,41.429 174.288,41.435" id="Fill-48" fill="#FFFFFF"></path>
            <path d="M174.016,41.666 C174.045,41.64 174.055,41.609 174.071,41.572 C174.09,41.548 174.116,41.536 174.116,41.504 C174.116,41.446 174.061,41.42 174.01,41.438 C173.959,41.456 173.924,41.493 173.872,41.519 C173.793,41.566 173.704,41.593 173.61,41.609 C173.549,41.609 173.489,41.609 173.422,41.621 C173.391,41.627 173.333,41.635 173.313,41.664 C173.292,41.692 173.313,41.758 173.321,41.786 C173.352,41.898 173.506,41.889 173.598,41.886 C173.68,41.878 173.762,41.854 173.84,41.815 C173.905,41.776 173.971,41.726 174.016,41.666" id="Fill-49" fill="#FFFFFF"></path>
            <path d="M178.805,41.674 C178.813,41.674 178.813,41.679 178.821,41.683 C178.831,41.703 178.801,41.731 178.782,41.742 C178.758,41.758 178.737,41.767 178.721,41.8 C178.704,41.829 178.684,41.841 178.649,41.847 C178.594,41.85 178.583,41.788 178.594,41.747 C178.616,41.692 178.672,41.674 178.721,41.674 C178.737,41.671 178.782,41.666 178.805,41.674" id="Fill-50" fill="#FFFFFF"></path>
            <path d="M173.247,42.176 L173.213,42.176 C173.167,42.171 173.114,42.102 173.147,42.054 C173.186,42.011 173.303,41.985 173.321,42.047 C173.342,42.113 173.303,42.166 173.247,42.176" id="Fill-51" fill="#FFFFFF"></path>
            <path d="M170.227,43.011 L170.227,43.017 C170.227,43.055 170.249,43.07 170.198,43.065 C170.151,43.065 170.083,42.988 170.071,42.953 C170.047,42.898 170.057,42.894 170.096,42.864 C170.151,42.83 170.198,42.774 170.252,42.745 C170.307,42.715 170.358,42.715 170.331,42.788 C170.311,42.83 170.268,42.864 170.237,42.903 C170.221,42.939 170.225,42.974 170.227,43.011" id="Fill-52" fill="#FFFFFF"></path>
            <path d="M178.254,43.538 C178.317,43.546 178.274,43.753 178.176,43.744 C178.088,43.736 178.188,43.519 178.254,43.538" id="Fill-53" fill="#FFFFFF"></path>
            <path d="M177.649,43.702 C177.717,43.851 177.602,44.014 177.485,44.102 C177.426,44.146 177.362,44.181 177.284,44.168 C177.213,44.158 177.157,44.107 177.133,44.046 C177.09,43.92 177.176,43.794 177.274,43.726 C177.327,43.689 177.391,43.658 177.459,43.65 C177.502,43.65 177.624,43.658 177.649,43.702" id="Fill-54" fill="#FFFFFF"></path>
            <path d="M177.163,44.38 C177.168,44.4 177.129,44.419 177.112,44.437 C177.102,44.451 177.075,44.463 177.055,44.469 C177.014,44.478 176.944,44.495 176.915,44.461 C176.899,44.434 176.915,44.414 176.936,44.405 C176.965,44.395 176.987,44.375 177.014,44.359 C177.043,44.341 177.075,44.33 177.108,44.339 C177.124,44.341 177.157,44.359 177.163,44.38" id="Fill-55" fill="#FFFFFF"></path>
            <path d="M162.823,20.123 C162.844,20.267 162.727,20.416 162.659,20.528 C162.624,20.584 162.6,20.657 162.551,20.704 C162.514,20.748 162.452,20.777 162.397,20.809 C162.305,20.86 162.206,20.882 162.12,20.809 C161.991,20.691 162.102,20.581 162.102,20.445 C162.045,20.265 162.102,20.089 162.19,19.931 C162.26,19.803 162.336,19.633 162.469,19.549 C162.542,19.507 162.596,19.42 162.694,19.476 C162.844,19.627 162.782,19.926 162.823,20.123" id="Fill-56" fill="#FFFFFF"></path>
            <path d="M160.43,20.981 C160.483,21.114 160.514,21.266 160.604,21.385 C160.692,21.499 160.708,21.792 160.653,21.795 C160.51,21.806 160.54,21.912 160.475,21.912 C160.354,21.909 159.969,21.904 159.872,21.65 C159.834,21.562 159.825,21.488 159.829,21.382 C159.838,21.279 159.862,20.94 159.85,20.757 C159.838,20.584 160.071,20.574 160.188,20.668 C160.243,20.712 160.409,20.932 160.43,20.981" id="Fill-57" fill="#FFFFFF"></path>
            <path d="M165.217,21.279 C165.165,21.441 164.868,21.513 164.991,21.705 C165.022,21.822 164.891,21.875 164.807,21.891 C164.588,21.959 164.358,22.186 164.127,22.06 C164.034,21.875 163.743,21.854 163.758,21.63 C163.87,21.429 164.094,21.468 164.233,21.309 C164.288,21.245 165.1,21.097 165.198,21.231 L165.217,21.279" id="Fill-58" fill="#FFFFFF"></path>
            <path d="M159.614,22.845 C159.614,22.928 159.604,23.032 159.536,23.103 C159.422,23.223 159.209,23.218 159.147,23.238 C158.993,23.284 158.77,23.245 158.706,23.228 C158.674,23.223 158.407,23.113 158.375,23.053 C158.346,23.007 158.297,22.778 158.319,22.724 C158.358,22.62 158.489,22.569 158.586,22.552 C158.725,22.527 158.881,22.506 159.006,22.572 C159.237,22.711 159.477,22.625 159.555,22.682 C159.575,22.7 159.61,22.812 159.614,22.845" id="Fill-59" fill="#FFFFFF"></path>
            <path d="M162.864,22.904 C162.844,22.833 162.616,22.641 162.551,22.608 C162.426,22.549 162.274,22.569 162.141,22.529 C161.866,22.44 161.696,22.698 161.477,22.734 C161.377,22.755 161.327,22.857 161.252,22.909 C161.034,23.051 160.86,23.628 160.817,23.759 C160.715,24.076 161.038,24.285 161.163,24.29 C161.342,24.298 161.536,24.271 161.708,24.232 C161.981,24.136 162.211,23.948 162.405,23.73 C162.542,23.573 162.629,23.38 162.754,23.218 C162.924,22.991 162.87,22.92 162.864,22.904 L162.864,22.904 Z M163.901,23.997 C163.758,24.358 163.133,25.203 162.09,25.404 C161.708,25.479 161.233,25.649 160.887,25.37 C160.868,25.354 160.702,25.203 160.54,25.135 C160.366,25.061 160.315,25.152 160.18,25.04 C160.157,25.024 160.081,24.834 160.098,24.711 C160.112,24.63 160.053,24.557 160.022,24.483 C159.981,24.397 159.862,24.234 159.881,24.086 C159.889,24.031 159.827,23.735 159.969,23.526 C160.022,23.463 160.178,23.149 160.02,23.121 C159.959,23.113 159.946,22.954 160.065,22.857 C160.219,22.726 160.299,22.171 160.86,22.01 C161.272,21.889 161.526,21.402 161.965,21.376 C162.174,21.339 162.383,21.373 162.575,21.451 C162.754,21.531 162.985,21.562 163.1,21.722 C163.172,21.831 163.502,21.991 163.618,22.202 C163.702,22.359 163.897,22.481 163.934,22.664 C163.958,22.75 164.043,23.085 164.042,23.174 C164.038,23.333 163.948,23.887 163.901,23.997 L163.901,23.997 Z" id="Fill-60" fill="#FFFFFF"></path>
            <path d="M165.5,24.086 C165.581,24.11 165.678,24.156 165.665,24.262 C165.649,24.351 165.571,24.316 165.506,24.345 C165.405,24.397 165.44,24.594 165.295,24.578 C165.209,24.569 165.141,24.612 165.067,24.638 C164.891,24.63 164.661,24.651 164.506,24.559 C164.461,24.536 164.446,24.507 164.407,24.476 C164.374,24.442 164.243,24.418 164.252,24.267 C164.258,24.219 164.233,24.217 164.198,24.183 C164.133,24.104 164.196,24 164.297,23.987 C164.352,23.978 164.405,23.994 164.452,23.974 C164.606,23.902 164.78,23.941 164.944,23.966 C165.03,23.978 165.116,23.992 165.198,24.013 C165.27,24.033 165.471,24.078 165.5,24.086" id="Fill-61" fill="#FFFFFF"></path>
            <path d="M159.495,25.142 C159.493,25.164 159.532,25.203 159.542,25.221 C159.602,25.312 159.504,25.414 159.432,25.467 C159.35,25.518 159.256,25.551 159.174,25.61 C159.135,25.639 158.946,25.726 158.879,25.738 C158.825,25.748 158.614,25.752 158.567,25.743 C158.465,25.723 158.368,25.629 158.362,25.523 C158.432,25.125 158.893,25.059 159.2,24.931 C159.368,24.892 159.51,24.975 159.495,25.142" id="Fill-62" fill="#FFFFFF"></path>
            <path d="M163.409,25.782 C163.508,25.869 163.598,25.94 163.661,26.059 C163.723,26.176 163.743,26.293 163.77,26.419 C163.813,26.575 163.625,26.609 163.569,26.729 C163.549,26.763 163.528,26.797 163.491,26.808 C163.424,26.817 163.331,26.781 163.26,26.761 C163.184,26.739 163.11,26.739 163.061,26.666 C163.02,26.611 163,26.538 162.997,26.468 C162.991,26.407 162.997,26.277 162.946,26.206 C162.924,26.176 162.899,26.151 162.891,26.114 C162.885,26.075 162.905,26.044 162.891,26.011 C162.864,25.903 162.954,25.894 162.942,25.809 C162.932,25.757 162.959,25.718 162.999,25.702 C163.075,25.691 163.139,25.721 163.209,25.743 C163.249,25.757 163.372,25.752 163.409,25.782" id="Fill-63" fill="#FFFFFF"></path>
            <path d="M161.393,26.172 C161.487,26.337 161.481,26.519 161.399,26.695 C161.342,26.831 161.252,26.952 161.163,27.071 C161.127,27.122 161.102,27.192 161.043,27.213 C160.901,27.266 160.799,27.153 160.768,27.119 C160.745,27.09 160.696,27.032 160.692,26.991 C160.668,26.604 160.977,26.034 161.127,26.02 C161.241,26.014 161.311,26.133 161.393,26.172" id="Fill-64" fill="#FFFFFF"></path>
            <path d="M173.817,45.323 C173.715,45.381 173.817,45.619 173.762,45.713 C173.704,45.813 173.571,45.839 173.461,45.8 C173.358,45.763 173.387,45.684 173.432,45.601 C173.432,45.594 173.43,45.555 173.43,45.543 C173.432,45.52 173.446,45.509 173.456,45.491 C173.475,45.47 173.5,45.426 173.477,45.394 C173.465,45.381 173.446,45.376 173.432,45.355 C173.411,45.332 173.422,45.303 173.422,45.268 C173.43,45.245 173.42,45.209 173.44,45.19 C173.456,45.175 173.485,45.185 173.5,45.188 C173.549,45.2 173.586,45.225 173.631,45.245 C173.663,45.262 173.694,45.264 173.725,45.264 C173.749,45.264 173.774,45.262 173.795,45.248 C173.817,45.237 173.84,45.225 173.862,45.216 C173.903,45.2 173.959,45.206 173.979,45.262 C173.979,45.289 173.981,45.371 173.934,45.355 C173.915,45.351 173.901,45.326 173.881,45.316 C173.862,45.306 173.84,45.31 173.817,45.323" id="Fill-65" fill="#FFFFFF"></path>
            <path d="M171.124,43.214 C171.069,43.217 171.045,43.281 170.985,43.256 C170.94,43.237 170.952,43.193 170.959,43.159 C170.975,43.125 170.961,43.072 170.981,43.038 C171.038,42.944 171.182,43.031 171.225,42.91 C171.249,42.864 171.315,42.66 171.391,42.764 C171.446,42.83 171.352,42.926 171.36,42.997 C171.36,43.05 171.37,43.061 171.325,43.109 C171.301,43.135 171.264,43.184 171.225,43.203 C171.194,43.217 171.157,43.208 171.124,43.214" id="Fill-66" fill="#FFFFFF"></path>
            <path d="M173.639,39.441 C173.61,39.448 173.571,39.477 173.563,39.503 C173.532,39.564 173.61,39.554 173.649,39.535 C173.67,39.521 173.758,39.459 173.725,39.42 C173.708,39.389 173.653,39.434 173.639,39.441" id="Fill-67" fill="#FFFFFF"></path>
            <path d="M176.262,40.137 C176.241,40.089 176.057,40.123 176.065,40.21 C176.071,40.249 176.311,40.23 176.262,40.137" id="Fill-68" fill="#FFFFFF"></path>
            <path d="M176.571,39.263 C176.532,39.268 176.487,39.141 176.444,39.268 C176.43,39.315 176.387,39.368 176.42,39.399 C176.463,39.452 176.573,39.436 176.62,39.409 C176.665,39.381 176.713,39.315 176.659,39.276 C176.629,39.258 176.59,39.258 176.571,39.263" id="Fill-69" fill="#FFFFFF"></path>
            <path d="M175.395,38.934 C175.34,38.91 175.243,39.019 175.209,39.054 C175.1,39.164 174.999,39.278 174.926,39.418 C174.889,39.491 174.819,39.515 174.764,39.569 C174.743,39.59 174.715,39.624 174.749,39.64 C174.784,39.658 174.872,39.619 174.905,39.605 C174.938,39.59 174.967,39.559 174.999,39.527 C175.024,39.503 175.059,39.493 175.092,39.471 C175.122,39.454 175.135,39.425 175.153,39.399 C175.178,39.373 175.204,39.347 175.231,39.324 C175.252,39.306 175.276,39.278 175.297,39.258 C175.334,39.205 175.37,39.156 175.415,39.109 C175.444,39.075 175.481,38.971 175.432,38.941 C175.417,38.931 175.409,38.941 175.395,38.934" id="Fill-70" fill="#FFFFFF"></path>
            <path d="M177.438,38.885 C177.407,38.887 177.372,38.885 177.338,38.88 C177.208,38.851 177.213,38.811 177.186,38.963 C177.184,38.992 177.145,39.229 177.184,39.232 C177.254,39.239 177.338,39.109 177.372,39.065 C177.387,39.044 177.522,38.876 177.438,38.885" id="Fill-71" fill="#FFFFFF"></path>
            <path d="M177.766,39.549 C177.834,39.561 177.719,39.684 177.668,39.718 C177.608,39.752 177.524,39.734 177.459,39.757 C177.434,39.773 177.372,39.794 177.342,39.778 C177.317,39.755 177.331,39.705 177.348,39.684 C177.372,39.649 177.405,39.632 177.444,39.619 C177.485,39.603 177.516,39.569 177.557,39.551 C177.624,39.515 177.694,39.53 177.766,39.549" id="Fill-72" fill="#FFFFFF"></path>
            <path d="M174.036,39.961 C174.135,39.942 174.079,40.063 174.047,40.098 C174.026,40.118 173.938,40.22 173.924,40.228 C173.784,40.272 173.948,39.988 174.036,39.961" id="Fill-73" fill="#FFFFFF"></path>
            <path d="M173.663,40.356 C173.606,40.302 173.5,40.482 173.422,40.547 C173.368,40.591 173.182,40.657 173.313,40.751 C173.432,40.831 173.52,40.686 173.563,40.613 C173.598,40.547 173.719,40.403 173.663,40.356" id="Fill-74" fill="#FFFFFF"></path>
            <path d="M176.948,40.428 C176.944,40.455 176.909,40.469 176.905,40.497 C176.899,40.523 176.903,40.552 176.909,40.576 C176.93,40.576 176.944,40.618 176.958,40.625 C176.975,40.634 177,40.634 177.024,40.625 C177.055,40.613 177.102,40.586 177.079,40.542 C177.067,40.516 177.03,40.487 177.01,40.467 C176.999,40.458 176.958,40.393 176.948,40.428" id="Fill-75" fill="#FFFFFF"></path>
            <path d="M176.987,40.792 C176.813,40.787 176.532,40.796 176.405,40.945 C176.301,41.073 176.409,41.226 176.551,41.266 C176.635,41.287 176.77,41.289 176.836,41.226 C176.893,41.18 176.899,41.073 176.956,41.02 C176.999,40.973 177.104,40.968 177.114,40.897 C177.133,40.819 177.055,40.796 176.987,40.792" id="Fill-76" fill="#FFFFFF"></path>
            <path d="M179.407,41.568 C179.309,41.614 179.116,41.731 179.153,41.898 C179.231,41.923 179.53,41.512 179.407,41.568" id="Fill-77" fill="#FFFFFF"></path>
            <path d="M176.459,41.365 C176.395,41.371 176.262,41.24 176.245,41.383 C176.229,41.527 176.43,41.431 176.504,41.415 C176.516,41.407 176.51,41.401 176.504,41.387 C176.495,41.365 176.481,41.365 176.459,41.365" id="Fill-78" fill="#FFFFFF"></path>
            <path d="M168.928,43.256 C168.875,43.193 168.764,43.271 168.723,43.306 C168.696,43.329 168.668,43.348 168.629,43.35 C168.588,43.35 168.536,43.329 168.499,43.363 C168.43,43.416 168.512,43.434 168.559,43.436 C168.602,43.443 168.645,43.446 168.69,43.457 C168.793,43.473 168.872,43.476 168.92,43.368 C168.936,43.329 168.952,43.292 168.928,43.256" id="Fill-79" fill="#FFFFFF"></path>
            <path d="M168.151,43.567 C168.129,43.521 168.114,43.569 168.1,43.583 C168.065,43.613 168.026,43.599 167.977,43.599 C167.942,43.599 167.915,43.611 167.901,43.642 C167.885,43.656 167.864,43.719 167.883,43.736 C167.901,43.76 167.963,43.726 167.987,43.719 C168.02,43.7 168.042,43.7 168.081,43.697 C168.163,43.692 168.186,43.638 168.151,43.567" id="Fill-80" fill="#FFFFFF"></path>
            <path d="M171.518,43.143 C171.469,43.183 171.43,43.224 171.379,43.276 C171.36,43.295 171.336,43.324 171.352,43.354 C171.389,43.404 171.434,43.363 171.463,43.339 C171.5,43.313 171.545,43.321 171.584,43.295 C171.62,43.279 171.633,43.248 171.665,43.217 C171.721,43.172 171.831,43.123 171.84,43.041 C171.858,42.921 171.694,43.017 171.655,43.041 C171.6,43.072 171.555,43.106 171.518,43.143" id="Fill-81" fill="#FFFFFF"></path>
            <path d="M171.61,43.799 C171.649,43.888 171.708,43.935 171.799,43.954 C171.854,43.964 172.028,44 172.026,43.901 C172.026,43.876 171.995,43.833 171.981,43.817 C171.958,43.775 171.95,43.768 171.895,43.778 C171.848,43.787 171.809,43.792 171.764,43.773 C171.704,43.753 171.62,43.624 171.594,43.656 C171.571,43.692 171.6,43.794 171.61,43.799" id="Fill-82" fill="#FFFFFF"></path>
            <path d="M172.036,43.624 C172.04,43.663 172.059,43.697 172.112,43.731 C172.297,43.847 172.215,43.695 172.288,43.574 C172.313,43.533 172.387,43.48 172.368,43.428 C172.334,43.326 172.026,43.476 172.036,43.624" id="Fill-83" fill="#FFFFFF"></path>
            <path d="M172.364,43.973 C172.395,43.949 172.424,43.927 172.458,43.906 C172.51,43.87 172.586,43.831 172.622,43.768 C172.622,43.763 172.67,43.632 172.622,43.65 C172.543,43.671 172.512,43.76 172.444,43.799 C172.389,43.833 172.127,43.959 172.133,44.027 C172.135,44.058 172.204,44.073 172.225,44.071 C172.28,44.063 172.256,44.051 172.293,44.017 C172.313,44.007 172.334,43.982 172.364,43.973" id="Fill-84" fill="#FFFFFF"></path>
            <path d="M172.467,44.066 C172.434,44.066 172.413,44.09 172.385,44.102 C172.352,44.119 172.313,44.126 172.28,44.146 C172.27,44.16 172.235,44.174 172.229,44.199 C172.225,44.233 172.264,44.259 172.28,44.283 C172.313,44.317 172.348,44.33 172.389,44.33 C172.43,44.33 172.45,44.277 172.43,44.247 C172.424,44.233 172.403,44.223 172.413,44.204 C172.42,44.184 172.444,44.174 172.458,44.16 C172.479,44.14 172.495,44.119 172.489,44.09 C172.489,44.073 172.485,44.066 172.467,44.066" id="Fill-85" fill="#FFFFFF"></path>
            <path d="M172.215,44.346 C172.2,44.344 172.182,44.354 172.161,44.359 C172.143,44.366 172.124,44.375 172.104,44.391 C172.073,44.405 172.018,44.448 172.049,44.485 C172.079,44.5 172.11,44.5 172.143,44.5 C172.161,44.5 172.182,44.5 172.2,44.492 C172.215,44.485 172.225,44.467 172.235,44.448 C172.249,44.433 172.254,44.412 172.254,44.388 C172.254,44.375 172.229,44.354 172.215,44.346" id="Fill-86" fill="#FFFFFF"></path>
            <path d="M174.383,45.342 C174.331,45.369 174.301,45.371 174.28,45.426 C174.264,45.47 174.247,45.522 174.309,45.517 C174.395,45.509 174.51,45.434 174.598,45.394 C174.608,45.394 174.803,45.267 174.764,45.262 C174.643,45.234 174.499,45.289 174.395,45.342 L174.383,45.342" id="Fill-87" fill="#FFFFFF"></path>
            <path d="M171.87,45.214 C171.838,45.264 171.721,45.355 171.717,45.426 C171.708,45.53 171.846,45.522 171.928,45.536 C172.149,45.569 172.458,45.599 172.616,45.413 C172.678,45.345 172.729,45.172 172.67,45.083 C172.598,44.96 172.512,45.069 172.407,45.083 C172.188,45.112 172.024,44.974 171.87,45.214" id="Fill-88" fill="#FFFFFF"></path>
            <path d="M175.575,44.863 C175.553,44.884 175.545,44.895 175.561,44.916 C175.581,44.955 175.608,44.969 175.649,44.976 C175.727,45 175.813,45.033 175.872,45.086 C175.911,45.117 175.936,45.172 175.987,45.185 C176.053,45.2 176.088,45.149 176.096,45.097 C176.102,45.062 176.102,45.033 176.118,45 C176.125,44.969 176.151,44.95 176.141,44.916 C176.118,44.85 176.014,44.81 175.948,44.806 C175.895,44.806 175.834,44.806 175.786,44.824 C175.75,44.838 175.727,44.85 175.696,44.853 C175.657,44.858 175.604,44.84 175.575,44.863" id="Fill-89" fill="#FFFFFF"></path>
            <path d="M113.254,0.882 L113.254,69" id="Stroke-90" stroke="#767A77" stroke-width="0.5"></path>
        </g>
    </g>
</svg>