<?xml version="1.0" encoding="UTF-8" standalone="no"?>
<svg width="27px" height="41px" viewBox="0 0 27 41" version="1.1" xmlns="http://www.w3.org/2000/svg" xmlns:xlink="http://www.w3.org/1999/xlink">
    <!-- Generator: Sketch 39.1 (31720) - http://www.bohemiancoding.com/sketch -->
    <title>bus-spot</title>
    <desc>Created with Sketch.</desc>
    <defs></defs>
    <g id="Page-1" stroke="none" stroke-width="1" fill="none" fill-rule="evenodd">
        <g id="bus-spot">
            <circle id="Oval-8" fill="#FFFFFF" cx="13.5" cy="13.5" r="12.5"></circle>
            <path d="M18.0386353,26.2181022 C23.2618095,24.3539738 27,19.3635375 27,13.5 C27,6.04415588 20.9558441,0 13.5,0 C6.04415588,0 0,6.04415588 0,13.5 C0,19.736207 4.22846808,24.9848023 9.97469152,26.5350733 L13.9629657,41 L18.0386353,26.2181022 L18.0386353,26.2181022 Z M13.5,24 C19.2989899,24 24,19.2989899 24,13.5 C24,7.70101013 19.2989899,3 13.5,3 C7.70101013,3 3,7.70101013 3,13.5 C3,19.2989899 7.70101013,24 13.5,24 L13.5,24 Z" id="Shape" fill="#FAA71B"></path>
            <path d="M18.5715014,19.0591151 L18.5715014,20.038261 C18.5715014,20.7384753 18.1406002,21.1809185 17.4576989,21.1924605 L16.5170263,21.1924605 C16.2289667,21.1964492 15.9520037,21.0815091 15.7514132,20.8747298 C15.5508228,20.6679505 15.4443491,20.3876238 15.4570864,20.0998183 L15.4570864,19.0571914 L11.3000446,19.0571914 L11.3000446,19.3919093 C11.3866096,20.8808266 11.0172657,21.2751781 9.5495087,21.1866895 L9.24172217,21.1866895 C8.95570972,21.1884344 8.68135535,21.0734632 8.48203558,20.8683345 C8.28271581,20.6632057 8.17567131,20.3856626 8.18562964,20.0998183 L8.18562964,19.0610387 C7.79027268,19.0563731 7.43268443,18.8252125 7.26611737,18.466626 C7.1947701,18.3174012 7.15545348,18.1548925 7.15069743,17.9895569 C7.15069743,14.7443326 7.13146077,11.5010321 7.15069743,8.25580784 C7.1750562,6.72160478 8.30227199,5.42859805 9.81882191,5.19525553 C9.96225054,5.1751238 10.1068215,5.16420066 10.2516467,5.16255321 L16.4689346,5.16255321 C17.9997692,5.16624064 19.303003,6.27736748 19.5487236,7.78835705 C19.5852096,8.00763766 19.6019485,8.22974959 19.5987389,8.45202176 C19.5987389,11.5741314 19.5987389,14.696241 19.6179756,17.8183506 C19.6218229,18.4454657 19.2928761,18.9840921 18.5715014,19.0591151 Z M8.18370597,8.37507512 L8.18370597,14.7674166 L18.5541884,14.7577983 L18.5541884,8.36545679 L8.18370597,8.37507512 Z M11.2961973,7.28628027 L15.4320788,7.28628027 L15.4320788,6.2321114 L11.2961973,6.2321114 L11.2961973,7.28628027 Z M17.5269508,15.8427458 C17.0921291,15.8325746 16.694604,16.0871943 16.5220085,16.4864238 C16.3494129,16.8856534 16.4362538,17.3496749 16.7415421,17.6594693 C17.0468303,17.9692636 17.5095297,18.0628937 17.9112451,17.8961658 C18.3129606,17.729438 18.5733772,17.3356862 18.5695777,16.900762 C18.5635449,16.3249099 18.1026528,15.8572149 17.5269508,15.8427458 L17.5269508,15.8427458 Z M9.22248551,17.9837859 C9.81212378,17.9837859 10.29012,17.5057896 10.29012,16.9161514 C10.29012,16.3265131 9.81212378,15.8485168 9.22248551,15.8485168 C8.63284724,15.8485168 8.15485098,16.3265131 8.15485098,16.9161514 C8.15485098,17.5057896 8.63284724,17.9837859 9.22248551,17.9837859 Z M21.6839927,12.2301014 C21.4723894,12.6706209 21.2992595,12.6533079 20.6548315,12.6148346 L20.6548315,9.45040432 C21.1646029,9.31190038 21.4800841,9.42539666 21.6859163,9.82359548 L21.6839927,12.2301014 Z M5.05774902,9.84090848 C5.27127592,9.39654167 5.44248218,9.41962566 6.08691023,9.45617531 L6.08691023,12.6206056 C5.58675712,12.7629569 5.26165759,12.6436896 5.05774902,12.2474144 L5.05774902,9.84090848 Z" id="bus" fill="#FAA71B"></path>
        </g>
    </g>
</svg>