<?xml version="1.0" encoding="UTF-8" standalone="no"?>
<svg width="27px" height="41px" viewBox="0 0 27 41" version="1.1" xmlns="http://www.w3.org/2000/svg" xmlns:xlink="http://www.w3.org/1999/xlink">
    <!-- Generator: Sketch 39.1 (31720) - http://www.bohemiancoding.com/sketch -->
    <title>like-spot</title>
    <desc>Created with Sketch.</desc>
    <defs></defs>
    <g id="Page-1" stroke="none" stroke-width="1" fill="none" fill-rule="evenodd">
        <g id="like-spot">
            <circle id="Oval-8" fill="#FFFFFF" cx="13.5" cy="13.5" r="12.5"></circle>
            <path d="M18.0386353,26.2181022 C23.2618095,24.3539738 27,19.3635375 27,13.5 C27,6.04415588 20.9558441,0 13.5,0 C6.04415588,0 0,6.04415588 0,13.5 C0,19.736207 4.22846808,24.9848023 9.97469152,26.5350733 L13.9629657,41 L18.0386353,26.2181022 L18.0386353,26.2181022 Z M13.5,24 C19.2989899,24 24,19.2989899 24,13.5 C24,7.70101013 19.2989899,3 13.5,3 C7.70101013,3 3,7.70101013 3,13.5 C3,19.2989899 7.70101013,24 13.5,24 L13.5,24 Z" id="Shape" fill="#F8E81C"></path>
            <path d="M21.9385542,10.5875 C21.9385542,10.73625 21.8566265,10.90625 21.6722892,11.0975 L17.9650602,14.8375 L18.8457831,20.12875 C18.8457831,20.17125 18.8662651,20.25625 18.8662651,20.34125 C18.8662651,20.49 18.8253012,20.6175 18.7638554,20.72375 C18.7024096,20.83 18.5795181,20.8725 18.4566265,20.8725 C18.3337349,20.8725 18.1903614,20.83 18.046988,20.745 L13.4590361,18.2375 L8.89156627,20.72375 C8.74819277,20.80875 8.60481928,20.85125 8.48192771,20.85125 C8.33855422,20.85125 8.23614458,20.80875 8.15421687,20.7025 C8.09277108,20.59625 8.05180723,20.46875 8.05180723,20.32 C8.05180723,20.2775 8.05180723,20.21375 8.07228916,20.1075 L8.95301205,14.8375 L5.24578313,11.0975 C5.08192771,10.90625 5,10.73625 5,10.5875 C5,10.3325 5.18433735,10.1625 5.57349398,10.09875 L10.6939759,9.33375 L12.9674699,4.53125 C13.0903614,4.23375 13.2542169,4.10625 13.4590361,4.10625 C13.6638554,4.10625 13.8277108,4.255 13.9506024,4.53125 L16.2445783,9.33375 L21.3650602,10.09875 C21.7337349,10.1625 21.9385542,10.3325 21.9385542,10.5875 L21.9385542,10.5875 Z" id="Shape" fill="#F8E81C"></path>
        </g>
    </g>
</svg>