<?xml version="1.0" encoding="UTF-8" standalone="no"?>
<svg width="27px" height="41px" viewBox="0 0 27 41" version="1.1" xmlns="http://www.w3.org/2000/svg" xmlns:xlink="http://www.w3.org/1999/xlink">
    <!-- Generator: Sketch 39.1 (31720) - http://www.bohemiancoding.com/sketch -->
    <title>train-spot</title>
    <desc>Created with Sketch.</desc>
    <defs></defs>
    <g id="Page-1" stroke="none" stroke-width="1" fill="none" fill-rule="evenodd">
        <g id="train-spot">
            <circle id="Oval-8" fill="#FFFFFF" cx="13.5" cy="13.5" r="12.5"></circle>
            <path d="M18.0386353,26.2181022 C23.2618095,24.3539738 27,19.3635375 27,13.5 C27,6.04415588 20.9558441,0 13.5,0 C6.04415588,0 0,6.04415588 0,13.5 C0,19.736207 4.22846808,24.9848023 9.97469152,26.5350733 L13.9629657,41 L18.0386353,26.2181022 L18.0386353,26.2181022 Z M13.5,24 C19.2989899,24 24,19.2989899 24,13.5 C24,7.70101013 19.2989899,3 13.5,3 C7.70101013,3 3,7.70101013 3,13.5 C3,19.2989899 7.70101013,24 13.5,24 L13.5,24 Z" id="Shape" fill="#00ACCD"></path>
            <path d="M17.9335079,17.0590121 C18.1856757,17.0374794 18.4388011,17.0292189 18.6918363,17.0342648 C19.0930963,17.0342648 19.2857718,16.8451246 19.2875394,16.442097 C19.296967,13.3121511 19.3040377,10.1822052 19.3087514,7.05225932 C19.3096933,6.83640311 19.2657504,6.62270828 19.1797119,6.42473817 C18.9534507,5.92802424 18.5309787,5.71767208 17.9989115,5.71767208 L15.5241802,5.71767208 L15.3474137,5.71767208 L15.3474137,5 L12.1656163,5 L12.1656163,5.6911571 L11.9888498,5.6911571 L9.50528013,5.6911571 C9.00230904,5.66306982 8.53252036,5.94270594 8.3174091,6.39822319 C8.2226567,6.61080485 8.17964611,6.84281972 8.19190487,7.07523897 C8.18247732,10.1698315 8.173639,13.2650133 8.16538989,16.3607844 L8.16538989,16.4668443 C8.15590004,16.6156952 8.21216457,16.7612201 8.3193189,16.8649727 C8.42647323,16.9687253 8.57373699,17.0202675 8.72220444,17.0059822 L9.50528013,17.0059822 L9.50528013,17.0378001 L6,19.7299543 L6.01237366,19.7617722 L6.1573222,19.7617722 L8.11059227,19.7617722 C8.21473971,19.7679806 8.31631129,19.7278695 8.38811571,19.652177 C9.252504,18.80193 10.1204276,17.9569861 10.9848159,17.1085067 C11.0524758,17.0441177 11.1445514,17.0119235 11.237592,17.0201235 C12.8933051,17.0283726 14.5490182,17.0330864 16.2047313,17.0342648 C16.3045972,17.0310251 16.4008634,17.0717283 16.4681134,17.1456277 C17.3319125,18.0023561 18.1980685,18.8567276 19.0665813,19.7087423 C19.1265961,19.764404 19.2040658,19.797516 19.2857718,19.8024285 C19.9574846,19.8024285 20.6291973,19.8024285 21.3009101,19.8112669 C21.3433341,19.8112669 21.3857581,19.8112669 21.46,19.8006609 L17.9335079,17.0590121 Z M10.3785067,16.1963915 C9.95969356,16.1919983 9.62373974,15.8489218 9.62813289,15.4301086 C9.63252603,15.0112954 9.97560254,14.6753416 10.3944157,14.6797347 C10.8120674,14.6892854 11.14645,15.0291497 11.1492088,15.4469014 C11.1414673,15.865877 10.7975352,16.2003431 10.3785067,16.1963915 L10.3785067,16.1963915 Z M13.7370707,12.2686394 L9.76866225,12.2580334 C9.4964418,12.2580334 9.4151292,12.1873268 9.42396753,11.9204093 C9.42396753,10.3754699 9.42809208,8.83053053 9.43634118,7.28559113 C9.43634118,7.03458267 9.52118912,6.95327007 9.77573291,6.95327007 L17.7302264,6.97448205 C17.9847702,6.97448205 18.0678504,7.05756231 18.0660828,7.30857078 C18.0660828,8.85351018 18.0619582,10.3984496 18.0537091,11.943389 C18.0537091,12.2103064 17.9794672,12.2792454 17.7001761,12.2774777 L13.7370707,12.2686394 Z M17.1133112,16.2158358 C16.6946154,16.2080919 16.3606591,15.8638722 16.3655888,15.4451338 C16.3709582,15.0263206 16.7148262,14.6911582 17.1336394,14.6965276 C17.5524526,14.701897 17.887615,15.0457649 17.8822456,15.4645781 C17.8799151,15.6661724 17.79759,15.8585826 17.6533839,15.9994737 C17.5091777,16.1403648 17.3149053,16.2181936 17.1133112,16.2158358 L17.1133112,16.2158358 Z" id="Shape" fill="#00ACCD" transform="translate(13.730000, 12.405633) scale(-1, 1) translate(-13.730000, -12.405633) "></path>
        </g>
    </g>
</svg>