<?xml version="1.0" encoding="UTF-8" standalone="no"?>
<svg width="27px" height="41px" viewBox="0 0 27 41" version="1.1" xmlns="http://www.w3.org/2000/svg" xmlns:xlink="http://www.w3.org/1999/xlink">
    <!-- Generator: Sketch 39.1 (31720) - http://www.bohemiancoding.com/sketch -->
    <title>tram-spot</title>
    <desc>Created with Sketch.</desc>
    <defs></defs>
    <g id="Page-1" stroke="none" stroke-width="1" fill="none" fill-rule="evenodd">
        <g id="tram-spot">
            <circle id="Oval-8" fill="#FFFFFF" cx="13.5" cy="13.5" r="12.5"></circle>
            <path d="M18.0386353,26.2181022 C23.2618095,24.3539738 27,19.3635375 27,13.5 C27,6.04415588 20.9558441,0 13.5,0 C6.04415588,0 0,6.04415588 0,13.5 C0,19.736207 4.22846808,24.9848023 9.97469152,26.5350733 L13.9629657,41 L18.0386353,26.2181022 L18.0386353,26.2181022 Z M13.5,24 C19.2989899,24 24,19.2989899 24,13.5 C24,7.70101013 19.2989899,3 13.5,3 C7.70101013,3 3,7.70101013 3,13.5 C3,19.2989899 7.70101013,24 13.5,24 L13.5,24 Z" id="Shape" fill="#66BD48"></path>
            <path d="M18.8774194,18.7430588 C19.1557793,18.7414667 19.4212304,18.6286728 19.6115546,18.4311146 C19.8018789,18.2335563 19.9003439,17.9686019 19.883871,17.6983529 C19.8645161,15.0856471 19.8683871,12.4748235 19.8645161,9.86211765 C19.8675755,9.67582367 19.8507106,9.48972516 19.8141935,9.30682353 C19.5374194,8.01552941 18.3354839,7.11388235 16.8780645,7.112 L14.5206452,7.112 L14.5206452,6.21788235 L18.0045161,6.21788235 C18.3296774,6.21788235 18.4574194,6.32141176 18.5019355,6.61694118 C18.5503936,6.90025769 18.8156299,7.09906396 19.1096774,7.07247059 C19.3933883,7.05640566 19.6188755,6.83467168 19.6322581,6.55858824 C19.6184641,5.89076469 19.1204107,5.3259161 18.443871,5.21082353 C18.4122212,5.20213145 18.3811876,5.19144212 18.3509677,5.17882353 L9.52516129,5.17882353 C9.44774194,5.20329412 9.36645161,5.22023529 9.29096774,5.24658824 C8.78984277,5.38234367 8.40111152,5.76757769 8.27096774,6.25741176 C8.26129032,6.28752941 8.24967742,6.31576471 8.23806452,6.34588235 L8.23806452,6.69411765 C8.28903672,6.7732747 8.34665242,6.84819668 8.41032258,6.91811765 C8.56028252,7.06962111 8.78849485,7.11992926 8.99096774,7.04611765 C9.19703598,6.99661422 9.35074292,6.82918819 9.37806452,6.62447059 C9.43419355,6.28188235 9.51354839,6.21788235 9.89677419,6.21788235 L13.3496774,6.21788235 L13.3496774,7.11388235 L13.2064516,7.11388235 L10.9632258,7.11388235 C10.82598,7.11496187 10.688938,7.12439206 10.5529032,7.14211765 C9.13806452,7.304 8.00774194,8.424 8.00580645,9.70211765 C7.99419355,12.4164706 8.00580645,15.1289412 8.00580645,17.8451765 C8.01051016,17.9852787 8.0482557,18.1224559 8.11612903,18.2461176 C8.29142848,18.5557752 8.6275215,18.7466886 8.99096774,18.7430588 L8.99096774,18.7430588 L9.30451613,18.7430588 C9.30102836,18.7526781 9.29578288,18.7616058 9.28903226,18.7694118 C9.23290323,18.8672941 9.17483871,18.9576471 9.11677419,19.0630588 C8.94451613,19.3585882 8.77419355,19.6541176 8.6,19.9534118 C8.41787045,20.2434057 8.48400343,20.6196634 8.75483871,20.8343529 C8.93337184,20.9684826 9.16226705,21.0221577 9.38403515,20.9818974 C9.60580325,20.9416371 9.79937355,20.8112665 9.91612903,20.6235294 C9.97958798,20.5281589 10.0352431,20.4280862 10.0825806,20.3242353 C10.1147273,20.2396747 10.2040094,20.1891547 10.2954839,20.2037647 L13.5858065,20.2037647 L17.5225806,20.2037647 C17.6135361,20.1889119 17.7026325,20.2385391 17.7354839,20.3223529 C17.7809249,20.426142 17.8359911,20.5256904 17.9,20.6197647 C18.0654951,20.8799739 18.371663,21.0226063 18.683871,20.9849412 C19.0380645,20.9209412 19.276129,20.7195294 19.3051613,20.4051765 C19.3126958,20.2673343 19.279806,20.130247 19.2103226,20.0098824 C19.036129,19.6961569 18.8554839,19.3824314 18.6683871,19.0687059 C18.6103226,18.9708235 18.556129,18.8804706 18.4980645,18.7750588 C18.492094,18.7667483 18.4869114,18.7579277 18.4825806,18.7487059 L18.8696774,18.7487059 L18.8774194,18.7430588 Z M8.99677419,9.80376471 L10.2606452,9.80376471 L17.5690323,9.80376471 L19.0051613,9.80376471 L19.0051613,15.1515294 L16.0922581,15.1515294 L11.8012903,15.1515294 L9.00064516,15.1515294 L9.00064516,9.86964706 L8.99677419,9.80376471 Z M10.0535484,17.8432941 L9.98580645,17.8432941 C9.46431919,17.8553008 9.02688282,17.4631741 8.99677419,16.9567059 C8.99645432,16.8779134 9.00686747,16.7994269 9.02774194,16.7232941 C9.05828854,16.6224494 9.10892655,16.5284306 9.17677419,16.4465882 C9.32470981,16.2670895 9.52840957,16.1389797 9.75741935,16.0814118 C9.81302323,16.070941 9.86927272,16.0640242 9.92580645,16.0607059 C9.94640829,16.0588663 9.9671401,16.0588663 9.98774194,16.0607059 L10.0632258,16.0607059 L10.0632258,16.0607059 C10.4280804,16.0914757 10.7472477,16.3118566 10.8974194,16.6367059 C10.9264651,16.7020201 10.9453809,16.7711658 10.9535484,16.8418824 L10.9535484,16.9510588 C10.9473793,17.206589 10.8264275,17.4466675 10.6225806,17.608 C10.4644638,17.7448395 10.2645791,17.8274916 10.0535484,17.8432941 L10.0535484,17.8432941 Z M10.7658065,19.2381176 C10.7948387,19.1778824 10.823871,19.1251765 10.8509677,19.0724706 L10.8683871,19.0423529 L11.0193548,18.7788235 C11.0193548,18.7788235 11.0193548,18.76 11.0348387,18.7524706 L11.9658065,18.7524706 L11.9658065,18.7524706 L15.92,18.7524706 L15.92,18.7637647 L16.8025806,18.7637647 C16.8025806,18.7637647 16.8025806,18.7825882 16.8180645,18.7901176 C16.876129,18.888 16.9322581,18.9858824 16.9864516,19.0837647 C17.0193548,19.1383529 17.0483871,19.1929412 17.0793548,19.2494118 L10.7658065,19.2381176 Z M18.856129,17.1242353 L18.856129,17.1242353 C18.7442585,17.5141534 18.3958801,17.7959995 17.9812903,17.832 L17.8864516,17.832 C17.5036661,17.8333463 17.1529706,17.6241868 16.9806452,17.2917647 L16.9806452,17.2917647 C16.9271266,17.1856528 16.8986904,17.0692423 16.8974194,16.9510588 C16.8952734,16.9360723 16.8952734,16.9208689 16.8974194,16.9058824 C16.9003657,16.8256675 16.9180646,16.7466149 16.9496774,16.6724706 C17.1000483,16.3026122 17.4678276,16.0599251 17.8767742,16.0607059 L17.9832258,16.0607059 C18.4622085,16.0980445 18.8404738,16.4715365 18.8716129,16.9378824 C18.8730801,17.0004411 18.8672361,17.0629594 18.8541935,17.1242353 L18.856129,17.1242353 Z" id="Shape" fill="#66BD48"></path>
        </g>
    </g>
</svg>