<?xml version="1.0" encoding="UTF-8" standalone="no"?>
<svg width="178px" height="28px" viewBox="0 0 178 28" version="1.1" xmlns="http://www.w3.org/2000/svg" xmlns:xlink="http://www.w3.org/1999/xlink">
    <!-- Generator: Sketch 3.8.3 (29802) - http://www.bohemiancoding.com/sketch -->
    <title>crowdspot-logo</title>
    <desc>Created with Sketch.</desc>
    <defs></defs>
    <g id="Page-1" stroke="none" stroke-width="1" fill="none" fill-rule="evenodd">
        <g id="Desktop-HD" transform="translate(-250.000000, -27.000000)">
            <g id="Header" transform="translate(250.000000, 22.000000)">
                <g id="crowdspot-logo" transform="translate(0.000000, 5.000000)">
                    <g id="logotype" transform="translate(0.000000, 4.219599)" fill="#595B5A">
                        <path d="M121.411258,5.21189191 L116.979857,5.21189191 L116.979857,2.02819831 L113.212787,2.02819831 L113.212787,5.21189191 L111.431105,5.21189191 L111.431105,8.2374651 L113.208226,8.2374651 L113.208226,13.2000133 C113.208226,15.0579281 113.474262,15.9595185 114.296694,16.8352623 C115.198176,17.8174333 116.472108,18.3480489 117.931506,18.3480489 C118.925763,18.3450847 119.912446,18.1749642 120.850302,17.8448003 C120.951649,17.7920935 121.137621,17.7125265 121.408218,17.6060993 L121.408218,14.2338775 C120.453528,14.7903397 119.682784,15.0031941 118.755458,15.0031941 C118.091128,15.0031941 117.539293,14.7903397 117.29606,14.4193649 C117.052827,14.0483901 116.978337,13.7032619 116.978337,12.6937239 L116.978337,8.2374651 L121.409738,8.2374651 L121.409738,5.21189191 L121.411258,5.21189191 Z M107.960475,11.6598597 C107.960475,13.484326 106.607491,14.8709203 104.856214,14.8709203 C103.079093,14.8709203 101.72611,13.4904075 101.72611,11.6598597 C101.72611,9.8293119 103.053249,8.4761661 104.83037,8.4761661 C105.669962,8.47605173 106.474437,8.81311593 107.06324,9.41170804 C107.652042,10.0103002 107.975852,10.8202814 107.961995,11.6598597 L107.960475,11.6598597 Z M111.703222,11.6598597 C111.703222,7.9455505 108.652168,4.94734431 104.862295,4.94734431 C101.014653,4.94734431 98.0213673,7.8923369 98.0213673,11.6598597 C98.0213673,15.4015359 101.046577,18.3738955 104.892699,18.3738955 C108.712977,18.3738955 111.710823,15.4289029 111.710823,11.6598597 L111.703222,11.6598597 Z M87.9652042,9.13905551 C88.9731008,8.60843991 89.5568599,8.42295251 90.3260842,8.42295251 C92.1503315,8.42295251 93.4561885,9.7502517 93.4561885,11.6340131 C93.4561885,13.5968347 92.2096195,14.9788679 90.4051349,14.9788679 C89.5502638,14.9786203 88.7097155,14.7592978 87.963684,14.3418251 L87.963684,9.13905551 L87.9652042,9.13905551 Z M87.7006883,5.21189191 L84.1449263,5.21189191 L84.1449263,22.9897951 L87.9652042,22.9897951 L87.9652042,17.6365071 C88.4327431,17.9582645 88.9688884,18.1665012 89.5310164,18.2446625 C89.9668065,18.3398505 90.4121538,18.3842375 90.8581563,18.3769363 C94.4139183,18.3769363 97.1730924,15.5110039 97.1730924,11.7693277 C97.1730924,7.92122429 94.3865546,4.95038508 90.8049491,4.95038508 C89.7696888,4.95038508 88.8955703,5.18908608 88.2312402,5.66648808 C88.0792196,5.77291528 87.9135172,5.93103569 87.7006883,6.09067649 L87.7006883,5.21493269 L87.7006883,5.21189191 Z M82.0759258,2.90394211 C81.1197162,0.966967111 79.4763735,0.0152038854 77.0592458,0.0152038854 C73.7953634,0.0152038854 71.4876906,2.00539248 71.4876906,4.81811128 C71.4876906,6.38411147 72.2037076,7.73725727 73.6372619,8.85170207 C74.1190255,9.2253733 74.6339919,9.55413641 75.1757105,9.83387307 C75.2547612,9.85971967 75.7336261,10.0984207 76.6077446,10.4967625 C78.2526076,11.2934461 78.8637304,11.9031219 78.8637304,12.7514987 C78.8622489,13.2740448 78.6503839,13.7739697 78.2759591,14.1384269 C77.9015343,14.502884 77.3961124,14.701151 76.8737807,14.6884737 C75.6804189,14.6884737 74.7242093,13.9465241 73.9853891,12.4595841 L70.7488704,14.588128 C72.2873189,17.268573 74.1450108,18.4362314 76.7977704,18.4362314 C80.5116338,18.4362314 83.2449643,16.0218544 83.2449643,12.7317336 C83.2449643,10.9072674 82.3434821,9.28197203 80.7518264,8.22074083 C80.2909734,7.91839501 79.8022863,7.66078527 79.2924285,7.45142423 C79.1860141,7.39821063 78.7345129,7.21272323 77.9926523,6.92080863 C76.109117,6.15149203 75.4189435,5.56766283 75.4189435,4.71928602 C75.4189435,3.94996942 76.0817533,3.36614022 76.9847557,3.36614022 C77.9668088,3.36614022 78.4973608,3.79032863 78.868291,4.85155983 L82.0759258,2.90394211 Z M65.9617415,9.0599953 L65.9617415,14.0225435 C65.2905622,14.4843831 64.4961124,14.7338703 63.6814324,14.7386465 C62.8365839,14.7555839 62.0209764,14.4291755 61.4210279,13.8340263 C60.8210794,13.238877 60.4880727,12.4258594 60.4981209,11.5807995 C60.4981209,9.7760983 61.8252608,8.4761661 63.7620033,8.4761661 C64.5053841,8.4761661 65.035936,8.62820496 65.9647819,9.0599953 L65.9617415,9.0599953 Z M69.7774587,0.355770918 L65.9617415,0.355770918 L65.9617415,5.52509195 C65.0810492,5.14680164 64.13366,4.94830677 63.1752037,4.94126275 C59.6194417,4.94126275 56.8070605,7.86040875 56.8070605,11.5215043 C56.8070605,15.1567533 59.6954521,18.2112139 63.1219965,18.2112139 C64.237953,18.2388976 65.3279552,17.8722899 66.2004138,17.1758293 L66.2004138,18.0515731 L69.7774587,18.0515731 L69.7774587,0.355770918 L69.7774587,0.355770918 Z M57.5732444,5.21189191 L53.3820362,5.21189191 L51.4711372,13.1984929 L49.4553439,5.21189191 L45.4222372,5.21189191 L43.4322875,13.1984929 L41.5016258,5.21189191 L37.3621046,5.21189191 L41.3146404,18.0546139 L45.4267979,18.0546139 L47.4167476,10.4906809 L49.4599046,18.0530935 L53.6252692,18.0530935 L57.5732444,5.21189191 Z M34.3566572,11.6598597 C34.3566572,13.484326 33.0036738,14.8709203 31.2523964,14.8709203 C29.4752755,14.8709203 28.1222921,13.4904075 28.1222921,11.6598597 C28.1222921,9.8293119 29.449432,8.4761661 31.2265529,8.4761661 C32.0658812,8.47645925 32.869963,8.81370285 33.458435,9.41224992 C34.0469071,10.010797 34.3705103,10.820545 34.3566572,11.6598597 L34.3566572,11.6598597 Z M38.0978844,11.6598597 C38.0978844,7.9455505 35.0468308,4.94734431 31.2569571,4.94734431 C27.4093155,4.94734431 24.4160297,7.8923369 24.4160297,11.6598597 C24.4160297,15.4015359 27.4397196,18.3738955 31.2873612,18.3738955 C35.107639,18.3738955 38.1054854,15.4289029 38.1054854,11.6598597 L38.0978844,11.6598597 Z M24.5589291,5.21189191 C24.1732742,5.14489993 23.7828209,5.10930747 23.3914108,5.10546471 C22.9267821,5.09892609 22.4631337,5.14999482 22.0110637,5.25750357 C21.2950467,5.47035796 20.9469195,5.68169197 20.28715,6.34458137 L20.28715,5.20428997 L16.731388,5.20428997 L16.731388,18.047012 L20.5516659,18.047012 L20.5516659,9.4583371 C20.9518818,9.02920563 21.4677056,8.72506014 22.0369072,8.5825933 C22.5076161,8.4260383 23.0002527,8.34546201 23.4963051,8.3438923 C23.8566991,8.33996568 24.2155704,8.39123916 24.5604493,8.49593115 L24.5604493,5.21189191 L24.5589291,5.21189191 Z M15.6718044,1.41092056 C14.1865631,0.720664167 13.5754402,0.509330161 12.3030277,0.243262166 C11.4986489,0.0862511025 10.6811308,0.00632223572 9.86157679,0.00456116562 C4.36907225,0.00456116562 0.150500401,3.98493836 0.150500401,9.18466716 C0.152020607,14.4436911 4.256577,18.4271091 9.72931886,18.4271091 C11.5351668,18.4170607 13.3206521,18.0448245 14.9801106,17.3324293 C15.1321312,17.2792157 15.3784046,17.1803905 15.6702842,17.0405147 L15.6702842,12.9597919 C14.1044719,13.8613823 13.4416621,14.1532969 12.3015075,14.4452115 C11.6584979,14.6020836 10.99926,14.6827121 10.3374013,14.6854329 C6.91541742,14.6854329 4.31434483,12.3242695 4.31434483,9.19226911 C4.31434483,6.16669591 6.88805371,3.75231891 10.0911279,3.75231891 C11.5505257,3.75231891 13.168025,4.20843548 14.6517461,5.02640451 C14.8904185,5.15867831 15.2355053,5.37153271 15.6596428,5.66344731 L15.6596428,1.41700212 L15.6718044,1.41092056 Z" id="Shape"></path>
                    </g>
                    <g id="bird2" transform="translate(158.578607, 0.000000)" fill="#FF1609">
                        <polygon id="Shape" points="6.17507707 15.2054058 9.41919682 27.4551762 9.56513661 27.4551762 13.0251256 15.2054058"></polygon>
                        <path d="M7.74240953,7.0181135 C7.73989187,8.37193267 6.64094038,9.46761502 5.28728237,9.46593716 C3.93362437,9.4642593 2.83739179,8.36585603 2.83822945,7.01203477 C2.83906711,5.65821351 3.93665809,4.56116796 5.29031713,4.56116562 C6.64457037,4.56116562 7.74240953,5.65913655 7.74240953,7.01355233 M19.1029095,9.56780507 C19.1029094,4.31995673 14.8493467,0.0656566828 9.60212821,0.0653768423 C4.35490968,0.0650970018 0.100893336,4.31894333 0.100333655,9.56679164 C0.0997739739,14.81464 4.35288288,19.0693938 9.60010135,19.0702334 C14.8477638,19.0702335 19.10207,14.8160973 19.1029095,9.56780507" id="Shape"></path>
                    </g>
                    <g id="bird1" transform="translate(131.923905, 4.723618)" fill="#FF1609">
                        <polygon id="Shape" points="14.1774418 14.2277959 26.8498797 14.2642853 26.8863646 14.1228891 15.9515223 7.60954464"></polygon>
                        <path d="M15.624678,6.02682017 C15.624678,7.38123595 14.5268389,8.47920688 13.1725856,8.47920688 C11.8183324,8.47920688 10.7204932,7.38123595 10.7204932,6.02682017 C10.7204932,4.67240439 11.8183324,3.57443345 13.1725856,3.57443345 C14.5268389,3.57443345 15.624678,4.67240439 15.624678,6.02682017 M19.0588235,9.54347886 C19.057984,4.29563058 14.8037408,0.042011185 9.55652227,0.0425709331 C4.30930377,0.0431306812 0.0559679529,4.29765763 0.0562477598,9.54550596 C0.0565275667,14.7933543 4.31031704,19.0474275 9.55753558,19.0474276 C14.8051979,19.046588 19.0588236,14.7917711 19.0588235,9.54347886" id="Shape"></path>
                    </g>
                </g>
            </g>
        </g>
    </g>
</svg>