<?xml version="1.0" encoding="UTF-8" standalone="no"?>
<svg width="69px" height="64px" viewBox="0 0 69 64" version="1.1" xmlns="http://www.w3.org/2000/svg" xmlns:xlink="http://www.w3.org/1999/xlink">
    <!-- Generator: Sketch 3.8.2 (29753) - http://www.bohemiancoding.com/sketch -->
    <title>projects-comments-icon@3x</title>
    <desc>Created with Sketch.</desc>
    <defs></defs>
    <g id="Page-1" stroke="none" stroke-width="1" fill="none" fill-rule="evenodd">
        <g id="Desktop-HD" transform="translate(-927.000000, -5725.000000)" fill="#DB3833">
            <g id="Projects" transform="translate(0.000000, 4550.000000)">
                <g id="Group-22" transform="translate(890.000000, 1175.000000)">
                    <g id="projects-comments-icon" transform="translate(37.000000, 0.000000)">
                        <path d="M52.8648724,44.2593761 C52.7716988,33.6057743 44.1059514,24.9988614 33.4307426,25 C22.6986999,25.0011447 13.9994277,33.7018087 14,44.4338516 C14.0005723,55.1658944 22.7007723,63.8656306 33.4328151,63.8656307 C40.6738123,63.8644724 46.9894422,59.9036823 50.332535,54.0307579 L68.8005392,54.0839288 L68.8751612,53.7947685 L52.8648724,44.2593761 Z M45.8418338,37.2380097 C45.8418338,40.0078398 43.5964428,42.2532307 40.8266128,42.2532307 C38.0567827,42.2532307 35.8113918,40.0078398 35.8113918,37.2380097 C35.8113918,34.4681797 38.0567827,32.2227887 40.8266128,32.2227887 C43.5964428,32.2227887 45.8418338,34.4681797 45.8418338,37.2380097 Z" id="Combined-Shape"></path>
                        <path d="M0,9.12695039 C0,11.6420853 1.08016504,13.9130628 2.82295232,15.5767768 C4.56573961,17.229535 6.97197433,18.2539008 9.61338631,18.2539008 L13.013967,18.2539008 L18.6285147,24.9611881 C18.6920538,25.037096 18.8199572,24.9940554 18.8199572,24.897801 L18.8199572,18.1521685 C23.4286064,17.4830831 27,13.6798611 27,9.12695039 C27,6.61181547 25.919835,4.34083802 24.1770477,2.67712401 C22.423533,1.02436578 20.0280257,0 17.3758863,0 L9.61256112,0 C4.33056235,0.00078255598 0,4.10763634 0,9.12695039 L0,9.12695039 Z M18.6788509,9.6121351 C18.6788509,8.4602127 19.6632946,7.52662341 20.8779645,7.52662341 C22.0926345,7.52662341 23.0770782,8.4602127 23.0770782,9.6121351 C23.0770782,10.7640575 22.0926345,11.6976468 20.8779645,11.6976468 C19.6641198,11.6976468 18.6788509,10.7640575 18.6788509,9.6121351 L18.6788509,9.6121351 Z M11.5897005,9.6121351 C11.5897005,8.4602127 12.5741443,7.52662341 13.7888142,7.52662341 C15.0034841,7.52662341 15.9879279,8.4602127 15.9879279,9.6121351 C15.9879279,10.7640575 15.0034841,11.6976468 13.7888142,11.6976468 C12.5749694,11.6976468 11.5897005,10.7640575 11.5897005,9.6121351 L11.5897005,9.6121351 Z M4.50137531,9.6121351 C4.50137531,8.4602127 5.48581907,7.52662341 6.700489,7.52662341 C7.91515892,7.52662341 8.89960269,8.4602127 8.89960269,9.6121351 C8.89960269,10.7640575 7.91515892,11.6976468 6.700489,11.6976468 C5.48581907,11.6976468 4.50137531,10.7640575 4.50137531,9.6121351 L4.50137531,9.6121351 Z" id="Shape-Copy-2"></path>
                    </g>
                </g>
            </g>
        </g>
    </g>
</svg>