<?xml version="1.0" encoding="UTF-8" standalone="no"?>
<svg width="55px" height="85px" viewBox="0 0 55 85" version="1.1" xmlns="http://www.w3.org/2000/svg" xmlns:xlink="http://www.w3.org/1999/xlink">
    <!-- Generator: Sketch 3.8.2 (29753) - http://www.bohemiancoding.com/sketch -->
    <title>projects-supports-icon@3x</title>
    <desc>Created with Sketch.</desc>
    <defs></defs>
    <g id="Page-1" stroke="none" stroke-width="1" fill="none" fill-rule="evenodd">
        <g id="Desktop-HD" transform="translate(-1093.000000, -5703.000000)" fill="#DB3833">
            <g id="Projects" transform="translate(0.000000, 4550.000000)">
                <g id="Group-23" transform="translate(1050.000000, 1153.000000)">
                    <g id="projects-supports-icon" transform="translate(43.000000, 0.000000)">
                        <path d="M38.8648724,65.2593761 C38.7716988,54.6057743 30.1059514,45.9988614 19.4307426,46 C8.69869988,46.0011447 -0.00057228404,54.7018087 0,65.4338516 C0.00057228404,76.1658944 8.70077232,84.8656306 19.4328151,84.8656307 C26.6738123,84.8644724 32.9894422,80.9036823 36.332535,75.0307579 L54.8005392,75.0839288 L54.8751612,74.7947685 L38.8648724,65.2593761 Z M31.8418338,58.2380097 C31.8418338,61.0078398 29.5964428,63.2532307 26.8266128,63.2532307 C24.0567827,63.2532307 21.8113918,61.0078398 21.8113918,58.2380097 C21.8113918,55.4681797 24.0567827,53.2227887 26.8266128,53.2227887 C29.5964428,53.2227887 31.8418338,55.4681797 31.8418338,58.2380097 Z" id="Combined-Shape" transform="translate(27.437581, 65.432815) scale(-1, 1) translate(-27.437581, -65.432815) "></path>
                        <path d="M22.633104,34.2477042 C25.7856119,31.2142285 25.7183617,26.7928253 22.8521046,24.0499245 C19.9858474,21.306302 15.3510858,21.3183291 12.4998287,24.0763841 C9.6488216,21.3183291 5.01406002,21.306302 2.14780286,24.0499245 C-0.718454299,26.7928253 -0.785454466,31.2142285 2.36680341,34.2477042 C5.8853122,37.6328523 11.5145763,43.0515427 12.4998287,44 C13.4858312,43.0515427 19.1143452,37.6328523 22.633104,34.2477042 Z M8.55103514,28.3038795 C8.54851511,29.6318705 7.44852634,30.7066494 6.09359066,30.7050036 C4.73865498,30.7033577 3.6413877,29.6259098 3.64222615,28.2979168 C3.6430646,26.9699237 4.74169156,25.8938076 6.09662828,25.8938053 C7.45215976,25.8938053 8.55103514,26.9708291 8.55103514,28.2994054 L8.55103514,28.3038795 Z" id="Combined-Shape"></path>
                        <path d="M47.633104,12.2477042 C50.7856119,9.21422853 50.7183617,4.79282534 47.8521046,2.04992448 C44.9858474,-0.693697996 40.3510858,-0.681670894 37.4998287,2.07638411 C34.6488216,-0.681670894 30.01406,-0.693697996 27.1478029,2.04992448 C24.2815457,4.79282534 24.2145455,9.21422853 27.3668034,12.2477042 C30.8853122,15.6328523 36.5145763,21.0515427 37.4998287,22 C38.4858312,21.0515427 44.1143452,15.6328523 47.633104,12.2477042 Z M33.5510351,6.30387952 C33.5485151,7.63187053 32.4485263,8.70664944 31.0935907,8.70500359 C29.738655,8.70335774 28.6413877,7.62590982 28.6422261,6.29791677 C28.6430646,4.96992371 29.7416916,3.89380761 31.0966283,3.89380531 C32.4521598,3.89380531 33.5510351,4.97082914 33.5510351,6.29940537 L33.5510351,6.30387952 Z" id="Combined-Shape-Copy" transform="translate(37.500000, 11.000000) scale(-1, 1) translate(-37.500000, -11.000000) "></path>
                    </g>
                </g>
            </g>
        </g>
    </g>
</svg>