<?xml version="1.0" encoding="UTF-8"?>
<svg width="31px" height="43px" viewBox="0 0 31 43" version="1.1" xmlns="http://www.w3.org/2000/svg" xmlns:xlink="http://www.w3.org/1999/xlink">
    <!-- Generator: Sketch 40.3 (33839) - http://www.bohemiancoding.com/sketch -->
    <title>bikelikespot</title>
    <desc>Created with Sketch.</desc>
    <defs></defs>
    <g id="Page-1" stroke="none" stroke-width="1" fill="none" fill-rule="evenodd">
        <g id="bikelikespot">
            <ellipse id="Oval-8" fill="#FFFFFF" cx="15.5" cy="15.5" rx="15" ry="15"></ellipse>
            <path d="M29,14.5 C29,7.04415588 22.9558441,1 15.5,1 C8.04415588,1 2,7.04415588 2,14.5 C2,20.736207 4.22846808,25.9848023 9.97469152,27.5350733 L15.9629657,42 L22.0386353,27.2181022 C27.2618095,25.3539738 29,20.3635375 29,14.5 Z" id="Path" fill="#FFFFFF"></path>
            <path d="M20.0386353,28.2181022 C25.2618095,26.3539738 29,21.3635375 29,15.5 C29,8.04415588 22.9558441,2 15.5,2 C8.04415588,2 2,8.04415588 2,15.5 C2,21.736207 6.22846808,26.9848023 11.9746915,28.5350733 L15.9629657,43 L20.0386353,28.2181022 L20.0386353,28.2181022 Z M15.5,26 C21.2989899,26 26,21.2989899 26,15.5 C26,9.70101013 21.2989899,5 15.5,5 C9.70101013,5 5,9.70101013 5,15.5 C5,21.2989899 9.70101013,26 15.5,26 L15.5,26 Z" id="Shape" fill="#66BD48"></path>
            <path d="M18.019104,9.62422398 C18.8108224,9.62422398 19.458592,8.97645438 19.458592,8.18473598 C19.458592,7.39301758 18.8108224,6.74524798 18.019104,6.74524798 C17.2273856,6.74524798 16.579616,7.39301758 16.579616,8.18473598 C16.579616,8.97645438 17.2273856,9.62422398 18.019104,9.62422398 L18.019104,9.62422398 Z M10.461792,14.30256 C8.48249599,14.30256 6.86307199,15.921984 6.86307199,17.90128 C6.86307199,19.880576 8.48249599,21.5 10.461792,21.5 C12.441088,21.5 14.060512,19.880576 14.060512,17.90128 C14.060512,15.921984 12.441088,14.30256 10.461792,14.30256 L10.461792,14.30256 Z M10.461792,20.420384 C9.05829119,20.420384 7.94268799,19.3047808 7.94268799,17.90128 C7.94268799,16.4977792 9.05829119,15.382176 10.461792,15.382176 C11.8652928,15.382176 12.980896,16.4977792 12.980896,17.90128 C12.980896,19.3047808 11.8652928,20.420384 10.461792,20.420384 L10.461792,20.420384 Z M14.6363072,13.2589312 L16.3277056,11.5315456 L16.8675136,12.0713536 C17.7671936,13.0070208 19.0267456,13.5468288 20.5022208,13.5468288 L20.5022208,12.1073408 C19.4226048,12.1073408 18.5229248,11.7114816 17.8751552,11.063712 L16.4716544,9.69619838 C16.2557312,9.44428798 15.8958592,9.26435198 15.5,9.26435198 C15.1041408,9.26435198 14.7442688,9.40830078 14.4923584,9.69619838 L12.5130624,11.6754944 C12.261152,11.9274048 12.081216,12.2872768 12.081216,12.683136 C12.081216,13.0789952 12.261152,13.4388672 12.5130624,13.7267648 L14.780256,15.742048 L14.780256,19.340768 L16.219744,19.340768 L16.219744,14.842368 L14.6363072,13.2589312 L14.6363072,13.2589312 Z M20.538208,14.30256 C18.558912,14.30256 16.939488,15.921984 16.939488,17.90128 C16.939488,19.880576 18.558912,21.5 20.538208,21.5 C22.517504,21.5 24.136928,19.880576 24.136928,17.90128 C24.136928,15.921984 22.517504,14.30256 20.538208,14.30256 L20.538208,14.30256 Z M20.538208,20.420384 C19.1347072,20.420384 18.019104,19.3047808 18.019104,17.90128 C18.019104,16.4977792 19.1347072,15.382176 20.538208,15.382176 C21.9417088,15.382176 23.057312,16.4977792 23.057312,17.90128 C23.057312,19.3047808 21.9417088,20.420384 20.538208,20.420384 L20.538208,20.420384 Z" id="Page-1" stroke="#66BD48" stroke-width="0.2" fill="#66BD48"></path>
        </g>
    </g>
</svg>