<?xml version="1.0" encoding="UTF-8" standalone="no"?>
<svg width="27px" height="41px" viewBox="0 0 27 41" version="1.1" xmlns="http://www.w3.org/2000/svg" xmlns:xlink="http://www.w3.org/1999/xlink">
    <!-- Generator: Sketch 39.1 (31720) - http://www.bohemiancoding.com/sketch -->
    <title>bike-spot</title>
    <desc>Created with Sketch.</desc>
    <defs>
        <linearGradient x1="50%" y1="98.6823038%" x2="50%" y2="0.827088648%" id="linearGradient-1">
            <stop stop-color="#C31C00" offset="0%"></stop>
            <stop stop-color="#FF0000" offset="100%"></stop>
        </linearGradient>
    </defs>
    <g id="Page-1" stroke="none" stroke-width="1" fill="none" fill-rule="evenodd">
        <g id="bike-spot">
            <circle id="Oval-8" fill="#FFFFFF" cx="13.5" cy="13.5" r="12.5"></circle>
            <path d="M18.0386353,26.2181022 C23.2618095,24.3539738 27,19.3635375 27,13.5 C27,6.04415588 20.9558441,0 13.5,0 C6.04415588,0 0,6.04415588 0,13.5 C0,19.736207 4.22846808,24.9848023 9.97469152,26.5350733 L13.9629657,41 L18.0386353,26.2181022 Z M13.5,24 C19.2989899,24 24,19.2989899 24,13.5 C24,7.70101013 19.2989899,3 13.5,3 C7.70101013,3 3,7.70101013 3,13.5 C3,19.2989899 7.70101013,24 13.5,24 Z M18.6300001,17.3992405 C17.5020001,17.3992405 16.5620001,16.600305 16.3270001,15.5193924 L18.6300001,15.5193924 C18.9120001,15.5193924 19.1000001,15.3314076 19.1000001,15.0494304 C19.1000001,14.9554379 19.0530001,14.8614455 19.0060001,14.8144493 L19.0060001,14.8144493 L17.8310001,12.8406088 C18.0660001,12.7466164 18.3480001,12.6996202 18.6300001,12.6996202 C19.9460001,12.6996202 20.9800001,13.7335367 20.9800001,15.0494304 C20.9800001,16.365324 19.9460001,17.3992405 18.6300001,17.3992405 L18.6300001,17.3992405 Z M13.789,14.0625101 L11.533,10.8197721 L15.058,10.8197721 L13.789,14.0625101 L13.789,14.0625101 Z M17.0320001,13.3105709 L17.7840001,14.5794683 L16.3270001,14.5794683 C16.4210001,14.0625101 16.7030001,13.6395443 17.0320001,13.3105709 L17.0320001,13.3105709 Z M16.5620001,12.5116354 C15.951,13.0285937 15.528,13.7335367 15.387,14.5794683 L14.635,14.5794683 L15.857,11.3367304 L16.5620001,12.5116354 L16.5620001,12.5116354 Z M10.64,15.0494304 C10.64,16.365324 9.60600002,17.3992405 8.29000001,17.3992405 C6.97400001,17.3992405 5.94,16.365324 5.94,15.0494304 C5.94,13.7335367 6.97400001,12.6996202 8.29000001,12.6996202 C8.47800002,12.6996202 8.71300002,12.7466164 8.90100002,12.7936126 L7.86700001,14.8614455 L7.86700001,14.8614455 C7.82000001,14.9084417 7.82000001,14.9554379 7.82000001,15.0494304 C7.82000001,15.3314076 8.00800001,15.5193924 8.29000001,15.5193924 C8.47800002,15.5193924 8.61900002,15.4254 8.71300002,15.2374152 L8.71300002,15.2374152 L9.74700002,13.1695823 C10.264,13.6395443 10.64,14.2974911 10.64,15.0494304 L10.64,15.0494304 Z M18.6300001,11.7596962 C18.1600001,11.7596962 17.7370001,11.8536886 17.3610001,11.9946772 L16.2800001,10.2088215 L16.6090001,9.40988607 L16.7500001,9.40988607 C17.0320001,9.40988607 17.2200001,9.22190126 17.2200001,8.93992405 C17.2200001,8.65794683 17.0320001,8.46996202 16.7500001,8.46996202 L15.34,8.46996202 C15.058,8.46996202 14.87,8.65794683 14.87,8.93992405 C14.87,9.22190126 15.058,9.40988607 15.34,9.40988607 L15.575,9.40988607 L15.387,9.87984809 L11.11,9.87984809 L11.11,8 L8.76000002,8 L8.76000002,8.93992405 L10.17,8.93992405 L10.17,10.2558177 L9.32400002,11.947681 C8.99500002,11.8066924 8.66600002,11.7596962 8.29000001,11.7596962 C6.45700001,11.7596962 5,13.2165785 5,15.0494304 C5,16.8822822 6.45700001,18.3391645 8.29000001,18.3391645 C10.123,18.3391645 11.58,16.8822822 11.58,15.0494304 C11.58,13.9215215 11.016,12.9346012 10.17,12.3706468 L10.734,11.2897342 L13.695,15.5663886 L15.387,15.5663886 C15.622,17.1642595 16.9850001,18.3861607 18.6300001,18.3861607 C20.4630001,18.3861607 21.9200001,16.9292784 21.9200001,15.0964266 C21.9200001,13.2165785 20.4630001,11.7596962 18.6300001,11.7596962 L18.6300001,11.7596962 Z" id="radspot" fill="url(#linearGradient-1)"></path>
        </g>
    </g>
</svg>