<?xml version="1.0" encoding="UTF-8" standalone="no"?>
<svg width="27px" height="41px" viewBox="0 0 27 41" version="1.1" xmlns="http://www.w3.org/2000/svg" xmlns:xlink="http://www.w3.org/1999/xlink">
    <!-- Generator: Sketch 39.1 (31720) - http://www.bohemiancoding.com/sketch -->
    <title>walk-spot</title>
    <desc>Created with Sketch.</desc>
    <defs>
        <linearGradient x1="50%" y1="98.6823038%" x2="50%" y2="0.827088648%" id="linearGradient-1">
            <stop stop-color="#C31C00" offset="0%"></stop>
            <stop stop-color="#FF0000" offset="100%"></stop>
        </linearGradient>
    </defs>
    <g id="Page-1" stroke="none" stroke-width="1" fill="none" fill-rule="evenodd">
        <g id="walk-spot">
            <circle id="Oval-8" fill="#FFFFFF" cx="13.5" cy="13.5" r="12.5"></circle>
            <path d="M18.0386353,26.2181022 C23.2618095,24.3539738 27,19.3635375 27,13.5 C27,6.04415588 20.9558441,0 13.5,0 C6.04415588,0 0,6.04415588 0,13.5 C0,19.736207 4.22846808,24.9848023 9.97469152,26.5350733 L13.9629657,41 L18.0386353,26.2181022 Z M13.5,24 C19.2989899,24 24,19.2989899 24,13.5 C24,7.70101013 19.2989899,3 13.5,3 C7.70101013,3 3,7.70101013 3,13.5 C3,19.2989899 7.70101013,24 13.5,24 Z M18.4425804,12.0867126 C18.0974808,12.0270166 16.7157051,11.7876173 16.6386234,11.7619234 C16.5503103,11.732537 16.6386234,11.7619234 16.609237,11.7177668 C16.5800044,11.6736103 15.3745457,9.13068472 15.2568462,8.9983689 C15.1393005,8.86605307 14.815896,8.52787844 14.3603295,8.38094633 C13.9046092,8.23401422 13.4488889,8.46910559 13.4488889,8.46910559 C13.4488889,8.46910559 11.1852113,9.76272357 11.0382791,9.8361127 C10.8911932,9.90965568 10.7590312,10.1742873 10.7590312,10.1742873 L9.70219701,12.1610248 C9.6155763,12.2701085 9.56357311,12.4078092 9.56357311,12.5579723 C9.56357311,12.911071 9.8498984,13.1973962 10.202997,13.1973962 C10.5048617,13.1973962 10.7573388,12.9878449 10.8244198,12.7065968 L11.8100189,10.8430977 L12.4274415,10.4976918 C12.3832849,10.6300077 11.817404,13.3861771 11.817404,13.3861771 L11.244138,16.6494546 L9.23524523,19.0699111 C9.09077481,19.2045347 9,19.3959311 9,19.6088673 C9,20.0161231 9.33017414,20.3464496 9.73742995,20.3464496 C9.98544519,20.3464496 10.2045356,20.2233651 10.3380823,20.0355074 C10.7061049,19.6028654 12.5572956,17.4270393 12.735922,17.2151801 C12.9343957,16.9800888 12.9857835,16.8625431 13.0151699,16.7082259 C13.0445563,16.5537549 13.3753459,14.562094 13.3753459,14.562094 L15.2714624,16.4583644 L15.2714624,19.8024177 L15.2753088,19.8024177 C15.313465,20.1767484 15.6296383,20.4687663 16.0139696,20.4687663 C16.3981471,20.4687663 16.7143204,20.1767484 16.7523227,19.8024177 L16.7561691,19.8024177 C16.7561691,19.8024177 16.7560152,19.7787239 16.7557075,19.7376444 C16.7557075,19.7339519 16.7561691,19.7301055 16.7561691,19.726413 C16.7561691,19.721645 16.7555537,19.7168755 16.7555537,19.7119506 C16.752015,19.2023823 16.7363217,16.6654556 16.7561691,16.0908049 C16.7781704,15.4515348 16.5501564,15.3118324 16.4987687,15.2530611 C16.447227,15.1942882 14.6760412,13.312788 14.6760412,13.312788 L15.0654498,11.4240565 C15.0654498,11.4240565 15.5727117,12.4161175 15.6240995,12.5264319 C15.6756411,12.6365925 15.8373434,12.8352201 16.006123,12.8718378 C16.1753642,12.9086093 18.2847246,13.3349432 18.2847246,13.3349432 L18.2856477,13.3304814 C18.3165727,13.335097 18.3479592,13.3400204 18.3802689,13.3400204 C18.7281365,13.3400204 19.0099999,13.0581569 19.0099999,12.7102894 C19.0103077,12.3835001 18.7609077,12.1184068 18.4425804,12.0867126 Z M15.8154959,6.74207635 C15.8154959,7.42805698 15.2593986,7.9841527 14.5734195,7.9841527 C13.8874389,7.9841527 13.3313432,7.42805698 13.3313432,6.74207635 C13.3313432,6.05609572 13.8874389,5.5 14.5734195,5.5 C15.2593986,5.5 15.8154959,6.05609572 15.8154959,6.74207635 Z" id="radspot" fill="url(#linearGradient-1)"></path>
        </g>
    </g>
</svg>