<?xml version="1.0" encoding="UTF-8" standalone="no"?>
<svg width="60px" height="60px" viewBox="0 0 60 60" version="1.1" xmlns="http://www.w3.org/2000/svg" xmlns:xlink="http://www.w3.org/1999/xlink">
    <!-- Generator: Sketch 40 (33762) - http://www.bohemiancoding.com/sketch -->
    <title>emoji-scared</title>
    <desc>Created with Sketch.</desc>
    <defs></defs>
    <g id="Page-1" stroke="none" stroke-width="1" fill="none" fill-rule="evenodd">
        <g id="emoji-scared">
            <path d="M60,30 C60,46.56854 46.56854,60 30,60 C13.43146,60 0,46.56854 0,30 C0,13.43146 13.43146,0 30,0 C46.56854,0 60,13.43146 60,30 L60,30 Z" id="Fill-1" fill="#FFDD67"></path>
            <path d="M14,47.5 C14,41.039 19.314,33.5 30,33.5 C40.689,33.5 46,41.039 46,47.5 L30,47.5 L14,47.5" id="Fill-3" fill="#FFFFFF"></path>
            <polygon id="Fill-4" fill="#664E27" points="13.916 48 16 40 44 40 46.08 48"></polygon>
            <polygon id="Fill-5" fill="#FFFFFF" points="13.917 46.699 14.917 43.699 45.077 43.699 46.077 46.699"></polygon>
            <path d="M30,32.498 C41.04,32.498 47,40.227 47,47.498 L47,48.498 L13,48.498 L13,47.498 C13,40.227 18.959,32.498 30,32.498 M44.957,46.498 C44.434,40.508 39.228,34.498 30,34.498 C20.772,34.498 15.568,40.508 15.045,46.498 L44.957,46.498" id="Fill-6" fill="#664E27"></path>
            <path d="M53.09,21.786 C53.09,26.75656 49.06056,30.786 44.09,30.786 C39.11944,30.786 35.09,26.75656 35.09,21.786 C35.09,16.81544 39.11944,12.786 44.09,12.786 C49.06056,12.786 53.09,16.81544 53.09,21.786 L53.09,21.786 Z" id="Fill-7" fill="#BA9436"></path>
            <path d="M24.906,21.786 C24.906,26.75656 20.87656,30.786 15.906,30.786 C10.93544,30.786 6.906,26.75656 6.906,21.786 C6.906,16.81544 10.93544,12.786 15.906,12.786 C20.87656,12.786 24.906,16.81544 24.906,21.786 L24.906,21.786 Z" id="Fill-8" fill="#BA9436"></path>
            <path d="M52.5,19.785 C52.5,24.75556 48.47056,28.785 43.5,28.785 C38.52944,28.785 34.5,24.75556 34.5,19.785 C34.5,14.81444 38.52944,10.785 43.5,10.785 C48.47056,10.785 52.5,14.81444 52.5,19.785 L52.5,19.785 Z" id="Fill-9" fill="#FFFFFF"></path>
            <path d="M48,19.785 C48,22.27028 45.98528,24.285 43.5,24.285 C41.01472,24.285 39,22.27028 39,19.785 C39,17.29972 41.01472,15.285 43.5,15.285 C45.98528,15.285 48,17.29972 48,19.785 L48,19.785 Z" id="Fill-10" fill="#664E27"></path>
            <path d="M25.5,19.785 C25.5,24.75556 21.47056,28.785 16.5,28.785 C11.52944,28.785 7.5,24.75556 7.5,19.785 C7.5,14.81444 11.52944,10.785 16.5,10.785 C21.47056,10.785 25.5,14.81444 25.5,19.785 L25.5,19.785 Z" id="Fill-11" fill="#FFFFFF"></path>
            <path d="M21,19.785 C21,22.27028 18.98528,24.285 16.5,24.285 C14.01472,24.285 12,22.27028 12,19.785 C12,17.29972 14.01472,15.285 16.5,15.285 C18.98528,15.285 21,17.29972 21,19.785 L21,19.785 Z" id="Fill-12" fill="#664E27"></path>
        </g>
    </g>
</svg>