<?xml version="1.0" encoding="UTF-8"?>
<svg width="68px" height="68px" viewBox="0 0 68 68" version="1.1" xmlns="http://www.w3.org/2000/svg" xmlns:xlink="http://www.w3.org/1999/xlink">
    <!-- Generator: Sketch 40 (33762) - http://www.bohemiancoding.com/sketch -->
    <title>emoji-sad</title>
    <desc>Created with Sketch.</desc>
    <defs></defs>
    <g id="Page-1" stroke="none" stroke-width="1" fill="none" fill-rule="evenodd">
        <g id="emoji-sad">
            <path d="M68,34 C68,52.7774444 52.7774444,68 34,68 C15.2225556,68 0,52.7774444 0,34 C0,15.2225556 15.2225556,0 34,0 C52.7774444,0 68,15.2225556 68,34" id="Fill-1" fill="#FFCC4D"></path>
            <path d="M48.1390889,51.7156924 C48.0540889,51.3775813 45.9328667,43.444248 34.0007556,43.444248 C22.0667556,43.444248 19.9455333,51.3775813 19.8624222,51.7156924 C19.7585333,52.1255813 19.9436444,52.5505813 20.3100889,52.7621369 C20.6784222,52.9718096 21.1393111,52.9094778 21.4415333,52.6166924 C21.4774222,52.5808036 25.1324222,49.1109147 34.0007556,49.1109147 C42.8672,49.1109147 46.5240889,52.5808036 46.5580889,52.6166924 C46.7394222,52.794248 46.9812,52.8886924 47.2229778,52.8886924 C47.3816444,52.8886924 47.5422,52.8490258 47.6876444,52.7678036 C48.0578667,52.556248 48.2429778,52.1274702 48.1390889,51.7156924" id="Fill-3" fill="#664500"></path>
            <path d="M27.3888889,25.5 C27.3888889,29.1531111 25.2752222,32.1111111 22.6666667,32.1111111 C20.0581111,32.1111111 17.9444444,29.1531111 17.9444444,25.5 C17.9444444,21.8487778 20.0581111,18.8888889 22.6666667,18.8888889 C25.2752222,18.8888889 27.3888889,21.8487778 27.3888889,25.5" id="Fill-4" fill="#664500"></path>
            <path d="M50.0555556,25.5 C50.0555556,29.1531111 47.9418889,32.1111111 45.3333333,32.1111111 C42.7247778,32.1111111 40.6111111,29.1531111 40.6111111,25.5 C40.6111111,21.8487778 42.7247778,18.8888889 45.3333333,18.8888889 C47.9418889,18.8888889 50.0555556,21.8487778 50.0555556,25.5" id="Fill-5" fill="#664500"></path>
        </g>
    </g>
</svg>