<?xml version="1.0" encoding="UTF-8"?>
<svg width="68px" height="68px" viewBox="0 0 68 68" version="1.1" xmlns="http://www.w3.org/2000/svg" xmlns:xlink="http://www.w3.org/1999/xlink">
    <!-- Generator: Sketch 40 (33762) - http://www.bohemiancoding.com/sketch -->
    <title>emoji-satisfied</title>
    <desc>Created with Sketch.</desc>
    <defs></defs>
    <g id="Page-1" stroke="none" stroke-width="1" fill="none" fill-rule="evenodd">
        <g id="emoji-satisfied">
            <path d="M68,34 C68,52.7774444 52.7774444,68 34,68 C15.2225556,68 0,52.7774444 0,34 C0,15.2225556 15.2225556,0 34,0 C52.7774444,0 68,15.2225556 68,34" id="Fill-1" fill="#FFCC4D"></path>
            <path d="M53.4791591,29.4889556 C53.1486036,29.2207333 52.6744924,29.2112889 52.3269369,29.4625111 C52.3042702,29.4814 49.9450631,31.1662889 45.3342853,31.1662889 C40.7235076,31.1662889 38.3623813,29.4814 38.3435076,29.4662889 C37.9997298,29.2075111 37.5237298,29.2150667 37.1893964,29.4832889 C36.8531591,29.7515111 36.7398409,30.2124 36.9136187,30.6052889 C37.026952,30.8602889 39.746952,36.8329556 45.3342853,36.8329556 C50.9216187,36.8329556 53.6397298,30.8602889 53.7530631,30.6052889 C53.924952,30.2142889 53.8135076,29.7571778 53.4791591,29.4889556" id="Fill-3" fill="#664500"></path>
            <path d="M29.6595147,29.4630853 C29.636848,29.4800853 27.2795147,31.1668631 22.666848,31.1668631 C18.0560853,31.1668631 15.696848,29.4800853 15.6779591,29.4668631 C15.3322924,29.2080853 14.8581889,29.2156409 14.5219667,29.4838631 C14.1857429,29.7520853 14.0742985,30.2129742 14.2480763,30.6058631 C14.3614111,30.8608631 17.0814036,36.8335298 22.666848,36.8335298 C28.2541813,36.8335298 30.9722924,30.8608631 31.0856258,30.6058631 C31.2594036,30.2148631 31.1460702,29.757752 30.8117369,29.4895298 C30.4792924,29.2194187 30.0032924,29.2118631 29.6595147,29.4630853" id="Fill-4" fill="#664500"></path>
            <path d="M54.7796667,24.5555556 C54.2035556,24.5555556 53.6368889,24.2948889 53.2666667,23.8 C48.3706667,17.272 40.1181111,18.836 40.0368889,18.8511111 C39.0036667,19.0551111 38.0195556,18.3921111 37.8136667,17.3702222 C37.6096667,16.3483333 38.2745556,15.3528889 39.2964444,15.1488889 C39.7308889,15.0582222 49.9818889,13.124 56.2888889,21.5333333 C56.916,22.3682222 56.746,23.5525556 55.9111111,24.1777778 C55.5711111,24.4327778 55.1744444,24.5555556 54.7796667,24.5555556" id="Fill-5" fill="#664500"></path>
            <path d="M13.2203333,24.5555556 C12.8274444,24.5555556 12.4288889,24.4327778 12.0888889,24.1777778 C11.254,23.5525556 11.0858889,22.3682222 11.7111111,21.5333333 C18.02,13.1202222 28.2691111,15.062 28.7035556,15.1488889 C29.7273333,15.3528889 30.3903333,16.3483333 30.1844444,17.3702222 C29.9804444,18.3902222 28.9868889,19.0532222 27.9687778,18.853 C27.6155556,18.7887778 19.5877778,17.3286667 14.7333333,23.8 C14.3612222,24.2948889 13.7945556,24.5555556 13.2203333,24.5555556" id="Fill-6" fill="#664500"></path>
            <path d="M43.9240409,44.5345147 C43.5708187,44.324848 43.1080409,44.3720702 42.7963742,44.647848 C42.7793742,44.6610702 40.8829298,46.2779591 33.9998187,46.2779591 C27.1223742,46.2779591 25.2259298,44.664848 25.2240409,44.664848 C24.9218187,44.3626258 24.4590409,44.3059591 24.0888187,44.5099591 C23.7204853,44.7215147 23.5353742,45.1502924 23.6392631,45.5620702 C23.6600409,45.6451813 25.8020409,53.8335222 33.9998187,53.8335222 C42.1975964,53.8335222 44.3395964,45.6451964 44.3603742,45.5620702 C44.4604853,45.1597369 44.2772631,44.7479591 43.9240409,44.5345147" id="Fill-7" fill="#664500"></path>
        </g>
    </g>
</svg>