<?xml version="1.0" encoding="UTF-8"?>
<svg width="68px" height="68px" viewBox="0 0 68 68" version="1.1" xmlns="http://www.w3.org/2000/svg" xmlns:xlink="http://www.w3.org/1999/xlink">
    <!-- Generator: Sketch 40 (33762) - http://www.bohemiancoding.com/sketch -->
    <title>emoji-creepy</title>
    <desc>Created with Sketch.</desc>
    <defs></defs>
    <g id="Page-1" stroke="none" stroke-width="1" fill="none" fill-rule="evenodd">
        <g id="emoji-creepy">
            <path d="M68,34 C68,52.7774444 52.7774444,68 34,68 C15.2244444,68 0,52.7774444 0,34 C0,15.2244444 15.2244444,0 34,0 C52.7774444,0 68,15.2244444 68,34" id="Fill-1" fill="#FFCC4D"></path>
            <path d="M48.1390889,52.6601369 C48.0540889,52.3220258 45.9328667,44.3886924 34.0007556,44.3886924 C22.0667556,44.3886924 19.9455333,52.3220258 19.8624222,52.6601369 C19.7585333,53.0700318 19.9436444,53.4950318 20.3100889,53.7065874 C20.6784222,53.916254 21.1393111,53.8539222 21.4415333,53.5611429 C21.4774222,53.525254 25.1324222,50.0553591 34.0007556,50.0553591 C42.8672,50.0553591 46.5240889,53.5252556 46.5580889,53.5611429 C46.7394222,53.7386985 46.9812,53.8331429 47.2229778,53.8331429 C47.3816444,53.8331429 47.5422,53.7934763 47.6876444,53.712254 C48.0578667,53.5006985 48.2429778,53.0719207 48.1390889,52.6601369" id="Fill-3" fill="#664500"></path>
            <path d="M54.7796667,26.4444444 C54.2035556,26.4444444 53.6368889,26.1837778 53.2666667,25.6888889 C48.6747778,19.5613333 40.9643333,24.0908889 40.6394444,24.2854444 C39.7422222,24.8237778 38.5824444,24.531 38.0478889,23.6394444 C37.5095556,22.7441111 37.8004444,21.5843333 38.6938889,21.0478889 C42.4678889,18.7831111 50.9981111,16.3691111 56.2888889,23.4222222 C56.916,24.2571111 56.746,25.4414444 55.9111111,26.0666667 C55.5711111,26.3216667 55.1744444,26.4444444 54.7796667,26.4444444" id="Fill-4" fill="#664500"></path>
            <path d="M13.2203333,26.4444444 C12.8274444,26.4444444 12.4288889,26.3216667 12.0888889,26.0666667 C11.254,25.4414444 11.0858889,24.2571111 11.7111111,23.4222222 C17.0018889,16.3672222 25.534,18.7831111 29.3061111,21.0478889 C30.1995556,21.5843333 30.4904444,22.7441111 29.9521111,23.6394444 C29.4175556,24.5328889 28.2596667,24.8256667 27.3643333,24.2873333 C27.0281111,24.0871111 19.2912222,19.6123333 14.7333333,25.6888889 C14.3612222,26.1837778 13.7945556,26.4444444 13.2203333,26.4444444" id="Fill-5" fill="#664500"></path>
            <path d="M54.7777778,30.2222222 C54.7777778,29.1795556 53.9334444,28.3333333 52.8888889,28.3333333 L39.6666667,28.3333333 C38.6221111,28.3333333 37.7777778,29.1795556 37.7777778,30.2222222 C37.7777778,31.2648889 38.6221111,32.1111111 39.6666667,32.1111111 L49.2848889,32.1111111 C49.6758889,33.2085556 50.7128889,34 51.9444444,34 C53.5084444,34 54.7777778,32.7325556 54.7777778,31.1666667 C54.7777778,30.9588889 54.7513333,30.7567778 54.7097778,30.5603333 C54.7324444,30.447 54.7777778,30.3412222 54.7777778,30.2222222" id="Fill-6" fill="#664500"></path>
            <path d="M30.2222222,30.2222222 C30.2222222,29.1795556 29.376,28.3333333 28.3333333,28.3333333 L15.1111111,28.3333333 C14.0684444,28.3333333 13.2222222,29.1795556 13.2222222,30.2222222 C13.2222222,31.2648889 14.0684444,32.1111111 15.1111111,32.1111111 L24.7293333,32.1111111 C25.1203333,33.2085556 26.1573333,34 27.3888889,34 C28.9528889,34 30.2222222,32.7325556 30.2222222,31.1666667 C30.2222222,30.9588889 30.1957778,30.7567778 30.1542222,30.5603333 C30.175,30.447 30.2222222,30.3412222 30.2222222,30.2222222" id="Fill-7" fill="#664500"></path>
        </g>
    </g>
</svg>