<?xml version="1.0" encoding="UTF-8"?>
<svg width="68px" height="68px" viewBox="0 0 68 68" version="1.1" xmlns="http://www.w3.org/2000/svg" xmlns:xlink="http://www.w3.org/1999/xlink">
    <!-- Generator: Sketch 40 (33762) - http://www.bohemiancoding.com/sketch -->
    <title>emoji-frustrated</title>
    <desc>Created with Sketch.</desc>
    <defs></defs>
    <g id="Page-1" stroke="none" stroke-width="1" fill="none" fill-rule="evenodd">
        <g id="emoji-frustrated">
            <path d="M68,34 C68,52.7774444 52.7774444,68 34,68 C15.2225556,68 0,52.7774444 0,34 C0,15.2225556 15.2225556,0 34,0 C52.7774444,0 68,15.2225556 68,34" id="Fill-1" fill="#FFCC4D"></path>
            <path d="M54.7777778,18.8888889 C44.2868889,18.8888889 40.0406667,10.6401111 39.865,10.2887778 C39.3984444,9.35566667 39.7781111,8.22044444 40.7112222,7.75388889 C41.6424444,7.29111111 42.7738889,7.66511111 43.2423333,8.59255556 C43.3821111,8.86644444 46.6801111,15.1111111 54.7777778,15.1111111 C55.8223333,15.1111111 56.6666667,15.9573333 56.6666667,17 C56.6666667,18.0426667 55.8223333,18.8888889 54.7777778,18.8888889" id="Fill-3" fill="#664500"></path>
            <path d="M13.2222222,18.8888889 C12.1795556,18.8888889 11.3333333,18.0426667 11.3333333,17 C11.3333333,15.9573333 12.1795556,15.1111111 13.2222222,15.1111111 C22.8234444,15.1111111 24.548,9.21777778 24.6178889,8.96655556 C24.8917778,7.96922222 25.925,7.36477778 26.9204444,7.62733333 C27.9215556,7.88988889 28.5278889,8.89855556 28.2766667,9.90344444 C28.1841111,10.2698889 25.8853333,18.8888889 13.2222222,18.8888889" id="Fill-4" fill="#664500"></path>
            <path d="M11.3352222,43.4444444 C10.761,43.4444444 10.1943333,43.1837778 9.82222222,42.6888889 C9.197,41.854 9.36511111,40.6696667 10.2,40.0444444 C10.4701111,39.8423333 15.7741111,35.9228889 23.1502222,34.5062222 C18.4752222,32.1621111 13.2864444,32.1111111 13.2203333,32.1111111 C12.1776667,32.1092222 11.3333333,31.2611111 11.3352222,30.2203333 C11.3352222,29.1776667 12.1795556,28.3333333 13.2222222,28.3333333 C13.6396667,28.3333333 23.5204444,28.4051111 29.6687778,34.5534444 C30.209,35.0936667 30.3714444,35.9058889 30.0786667,36.6123333 C29.7858889,37.3187778 29.0964444,37.7777778 28.3333333,37.7777778 C19.6198889,37.7777778 12.5365556,43.0156667 12.4666667,43.0666667 C12.1266667,43.3216667 11.7281111,43.4444444 11.3352222,43.4444444" id="Fill-5" fill="#664500"></path>
            <path d="M56.6647778,43.4425556 C56.2718889,43.4425556 55.8752222,43.3216667 55.5352222,43.0685556 C55.4634444,43.0156667 48.3366667,37.7777778 39.6666667,37.7777778 C38.9035556,37.7777778 38.2122222,37.3187778 37.9213333,36.6123333 C37.6285556,35.9058889 37.791,35.0936667 38.3312222,34.5534444 C44.4814444,28.4051111 54.3603333,28.3333333 54.7777778,28.3333333 C55.8204444,28.3333333 56.6628889,29.1776667 56.6647778,30.2203333 C56.6666667,31.2611111 55.8223333,32.1092222 54.7815556,32.1111111 C54.7135556,32.1111111 49.5247778,32.1621111 44.8497778,34.5062222 C52.2258889,35.9228889 57.5298889,39.8423333 57.8,40.0444444 C58.633,40.6696667 58.803,41.8502222 58.1796667,42.687 C57.8075556,43.18 57.2408889,43.4425556 56.6647778,43.4425556" id="Fill-6" fill="#664500"></path>
            <path d="M48.0799591,58.1607778 C47.8570702,57.6753333 42.5285147,46.2777778 34.4610702,46.2777778 C26.4351964,46.2777778 20.2075147,57.6243333 19.946848,58.106 C19.7334036,58.5007778 19.827848,58.99 20.1716409,59.279 C20.3473076,59.4263333 20.5626258,59.5 20.7779742,59.5 C20.9857369,59.5 21.1935298,59.432 21.3654187,59.2941111 C21.425848,59.2468889 27.3399742,54.6096667 34.4610853,54.6096667 C41.5311964,54.6096667 46.5273076,59.1996667 46.5764187,59.245 C46.9069742,59.551 47.4113076,59.585 47.7739742,59.3205556 C48.1404036,59.058 48.268848,58.5725556 48.0799591,58.1607778" id="Fill-7" fill="#664500"></path>
        </g>
    </g>
</svg>