<?xml version="1.0" encoding="UTF-8"?>
<svg width="68px" height="68px" viewBox="0 0 68 68" version="1.1" xmlns="http://www.w3.org/2000/svg" xmlns:xlink="http://www.w3.org/1999/xlink">
    <!-- Generator: Sketch 40 (33762) - http://www.bohemiancoding.com/sketch -->
    <title>emoji-scared</title>
    <desc>Created with Sketch.</desc>
    <defs></defs>
    <g id="Page-1" stroke="none" stroke-width="1" fill="none" fill-rule="evenodd">
        <g id="emoji-scared">
            <path d="M68,34 C68,52.7774444 52.7774444,68 34,68 C15.2225556,68 0,52.7774444 0,34 C0,15.2225556 15.2225556,0 34,0 C52.7774444,0 68,15.2225556 68,34" id="Fill-1" fill="#FFCC4D"></path>
            <path d="M44.3613111,54.5490333 C44.3386444,54.4659222 42.1966444,46.2775813 34.0007556,46.2775813 C25.8010889,46.2775813 23.6590889,54.4659222 23.6402,54.5490333 C23.5400889,54.9513667 23.7214222,55.3631444 24.0765333,55.5765889 C24.4316444,55.7881444 24.8944222,55.7390333 25.2023111,55.4632556 C25.2212,55.4500333 27.1176444,53.8331444 34.0007556,53.8331444 C40.7799778,53.8331444 42.7217556,55.4009222 42.7954222,55.4632556 C42.9748667,55.6332556 43.2090889,55.7220333 43.4452,55.7220333 C43.6038667,55.7220333 43.7644222,55.6823667 43.9098667,55.6011444 C44.2800889,55.3895889 44.4652,54.9608111 44.3613111,54.5490333" id="Fill-3" fill="#664500"></path>
            <path d="M54.7777778,22.6666667 C44.2868889,22.6666667 40.0406667,14.4178889 39.865,14.0665556 C39.3984444,13.1334444 39.7781111,11.9982222 40.7112222,11.5316667 C41.6424444,11.067 42.7738889,11.4428889 43.2423333,12.3703333 C43.3821111,12.6442222 46.6801111,18.8888889 54.7777778,18.8888889 C55.8223333,18.8888889 56.6666667,19.7351111 56.6666667,20.7777778 C56.6666667,21.8204444 55.8223333,22.6666667 54.7777778,22.6666667" id="Fill-4" fill="#664500"></path>
            <path d="M13.2222222,22.6666667 C12.1795556,22.6666667 11.3333333,21.8204444 11.3333333,20.7777778 C11.3333333,19.7351111 12.1795556,18.8888889 13.2222222,18.8888889 C22.8234444,18.8888889 24.548,12.9955556 24.6178889,12.7443333 C24.8917778,11.747 25.925,11.1425556 26.9204444,11.4051111 C27.9215556,11.6676667 28.5278889,12.6763333 28.2766667,13.6812222 C28.1841111,14.0476667 25.8853333,22.6666667 13.2222222,22.6666667" id="Fill-5" fill="#664500"></path>
            <path d="M27.3888889,31.1666667 C27.3888889,34.8197778 25.2752222,37.7777778 22.6666667,37.7777778 C20.0581111,37.7777778 17.9444444,34.8197778 17.9444444,31.1666667 C17.9444444,27.5154444 20.0581111,24.5555556 22.6666667,24.5555556 C25.2752222,24.5555556 27.3888889,27.5154444 27.3888889,31.1666667" id="Fill-6" fill="#664500"></path>
            <path d="M50.0555556,31.1666667 C50.0555556,34.8197778 47.9418889,37.7777778 45.3333333,37.7777778 C42.7247778,37.7777778 40.6111111,34.8197778 40.6111111,31.1666667 C40.6111111,27.5154444 42.7247778,24.5555556 45.3333333,24.5555556 C47.9418889,24.5555556 50.0555556,27.5154444 50.0555556,31.1666667" id="Fill-7" fill="#664500"></path>
        </g>
    </g>
</svg>