<?xml version="1.0" encoding="UTF-8"?>
<svg width="68px" height="68px" viewBox="0 0 68 68" version="1.1" xmlns="http://www.w3.org/2000/svg" xmlns:xlink="http://www.w3.org/1999/xlink">
    <!-- Generator: Sketch 40 (33762) - http://www.bohemiancoding.com/sketch -->
    <title>emoji-trust</title>
    <desc>Created with Sketch.</desc>
    <defs></defs>
    <g id="Page-1" stroke="none" stroke-width="1" fill="none" fill-rule="evenodd">
        <g id="emoji-trust">
            <path d="M68,34 C68,52.7774444 52.7774444,68 34,68 C15.2225556,68 0,52.7774444 0,34 C0,15.2225556 15.2225556,0 34,0 C52.7774444,0 68,15.2225556 68,34" id="Fill-1" fill="#FFCC4D"></path>
            <path d="M22.6666667,34 C22.6666667,39.2171111 18.4374444,43.4444444 13.2222222,43.4444444 C8.007,43.4444444 3.77777778,39.2171111 3.77777778,34 C3.77777778,28.7847778 8.007,24.5555556 13.2222222,24.5555556 C18.4374444,24.5555556 22.6666667,28.7847778 22.6666667,34" id="Fill-3" fill="#FF7892"></path>
            <path d="M64.2222222,34 C64.2222222,39.2171111 59.9948889,43.4444444 54.7777778,43.4444444 C49.5606667,43.4444444 45.3333333,39.2171111 45.3333333,34 C45.3333333,28.7847778 49.5606667,24.5555556 54.7777778,24.5555556 C59.9948889,24.5555556 64.2222222,28.7847778 64.2222222,34" id="Fill-4" fill="#FF7892"></path>
            <path d="M51.6327778,40.8545813 C51.2965556,40.5504702 50.7941111,40.5315813 50.4333333,40.7998036 C50.3596667,40.8545813 43.0251111,46.2775813 34,46.2775813 C24.9975556,46.2775813 17.6384444,40.8545813 17.5666667,40.7998036 C17.2058889,40.5315813 16.7034444,40.554248 16.3672222,40.8545813 C16.0328889,41.1568036 15.9573333,41.6554702 16.1896667,42.0408036 C16.4333333,42.4469147 22.2662222,51.944248 34,51.944248 C45.7337778,51.944248 51.5685556,42.4469147 51.8103333,42.0408036 C52.0426667,41.6535813 51.969,41.1568036 51.6327778,40.8545813" id="Fill-5" fill="#664500"></path>
            <path d="M15.1092222,28.3333333 C14.8258889,28.3333333 14.5368889,28.2691111 14.2667778,28.135 C13.3336667,27.6665556 12.954,26.5313333 13.4205556,25.6001111 C13.5206667,25.4017778 15.912,20.7777778 22.6666667,20.7777778 C29.4232222,20.7777778 31.8126667,25.4036667 31.9108889,25.6001111 C32.3793333,26.5332222 31.9996667,27.6665556 31.0665556,28.135 C30.1391111,28.5958889 29.0171111,28.2256667 28.543,27.3095556 C28.4617778,27.1603333 26.9752222,24.5555556 22.6666667,24.5555556 C18.2901111,24.5555556 16.813,27.2623333 16.8016667,27.2887778 C16.4692222,27.9517778 15.8024444,28.3333333 15.1092222,28.3333333" id="Fill-6" fill="#664500"></path>
            <path d="M52.8907778,28.3333333 C52.1975556,28.3352222 51.5307778,27.9517778 51.1983333,27.2887778 C51.1511111,27.2018889 49.6758889,24.5555556 45.3333333,24.5555556 C40.9907778,24.5555556 39.5155556,27.2018889 39.4551111,27.3133333 C38.964,28.2218889 37.8306667,28.5788889 36.9145556,28.1066667 C35.9984444,27.6306667 35.6263333,26.5237778 36.0872222,25.6001111 C36.1854444,25.4036667 38.5767778,20.7777778 45.3333333,20.7777778 C52.0898889,20.7777778 54.4812222,25.4036667 54.5775556,25.6001111 C55.046,26.5332222 54.6663333,27.6665556 53.7332222,28.135 C53.4631111,28.2691111 53.1741111,28.3333333 52.8907778,28.3333333" id="Fill-7" fill="#664500"></path>
        </g>
    </g>
</svg>