<?xml version="1.0" encoding="UTF-8"?>
<svg width="68px" height="68px" viewBox="0 0 68 68" version="1.1" xmlns="http://www.w3.org/2000/svg" xmlns:xlink="http://www.w3.org/1999/xlink">
    <!-- Generator: Sketch 40 (33762) - http://www.bohemiancoding.com/sketch -->
    <title>emoji-relaxed</title>
    <desc>Created with Sketch.</desc>
    <defs></defs>
    <g id="Page-1" stroke="none" stroke-width="1" fill="none" fill-rule="evenodd">
        <g id="emoji-relaxed">
            <path d="M68,34 C68,52.7774444 52.7774444,68 34,68 C15.2225556,68 0,52.7774444 0,34 C0,15.2225556 15.2225556,0 34,0 C52.7774444,0 68,15.2225556 68,34" id="Fill-1" fill="#FFCC4D"></path>
            <path d="M2.3426,20.8110222 C2.79593333,21.2624667 5.05693333,22.6205778 5.51026667,23.9749111 C5.9636,25.3292444 6.87026667,33.0113556 9.58648889,35.2723556 C12.3896,37.6013556 22.9541556,36.7343556 24.9790444,35.7256889 C29.5067111,33.4684667 30.0620444,27.1671333 30.8629333,23.9749111 C31.3143778,22.1672444 34.0306,22.1672444 34.0306,22.1672444 C34.0306,22.1672444 36.7487111,22.1672444 37.2001556,23.9730222 C38.0010444,27.1671333 38.5601556,33.4684667 43.0840444,35.7238 C45.1108222,36.7343556 55.6753778,37.6013556 58.4822667,35.2723556 C61.1928222,33.0113556 62.0994889,25.3292444 62.5528222,23.9730222 C63.0023778,22.6186889 65.2671556,21.2624667 65.7204889,20.8110222 C66.1757111,20.3595778 66.1757111,18.5519111 65.7204889,18.0985778 C64.8157111,17.1956889 54.1340444,16.3910222 42.6326,17.6471333 C40.3376,17.8983556 39.4649333,18.5519111 34.0306,18.5519111 C28.6000444,18.5519111 27.7236,17.8983556 25.4304889,17.6490222 C13.9328222,16.3910222 3.24737778,17.1956889 2.3426,18.0985778 C1.89115556,18.5519111 1.89115556,20.3595778 2.3426,20.8110222" id="Fill-3" fill="#292F33"></path>
            <path d="M51.6327778,44.6323591 C51.2965556,44.328248 50.7941111,44.3093591 50.4333333,44.5775813 C50.3596667,44.6323591 43.0251111,50.0553591 34,50.0553591 C24.9975556,50.0553591 17.6384444,44.6323591 17.5666667,44.5775813 C17.2058889,44.3093591 16.7034444,44.3320258 16.3672222,44.6323591 C16.0328889,44.9345813 15.9573333,45.433248 16.1896667,45.8185813 C16.4333333,46.2246924 22.2662222,55.7220318 34,55.7220318 C45.7337778,55.7220318 51.5685556,46.2246924 51.8103333,45.8185813 C52.0426667,45.4313591 51.969,44.9345813 51.6327778,44.6323591" id="Fill-4" fill="#664500"></path>
        </g>
    </g>
</svg>