<?xml version="1.0" encoding="UTF-8" standalone="no"?>
<svg width="60px" height="60px" viewBox="0 0 60 60" version="1.1" xmlns="http://www.w3.org/2000/svg" xmlns:xlink="http://www.w3.org/1999/xlink">
    <!-- Generator: Sketch 40 (33762) - http://www.bohemiancoding.com/sketch -->
    <title>emoji-disgusted</title>
    <desc>Created with Sketch.</desc>
    <defs></defs>
    <g id="Page-1" stroke="none" stroke-width="1" fill="none" fill-rule="evenodd">
        <g id="emoji-disgusted">
            <path d="M59.999,30 C59.999,46.572 46.573,60 30.001,60 C13.428,60 0.000999,46.572 0.000999,30 C0.000999,13.428 13.429,0 30.001,0 C46.573,0 59.999,13.428 59.999,30" id="Fill-1" fill="#FFDD67"></path>
            <path d="M40.683,46 C38.882,44.939 37.142,44.299 35.361,43.873 C33.586,43.445 31.795,43.264 30,43.26 C28.201,43.268 26.412,43.449 24.639,43.875 C22.858,44.30301 21.119,44.943 19.317,46 C20.088,44.021 21.801,42.467 23.713,41.473 C25.645,40.473 27.832,39.987 30,39.989 C32.166,39.993 34.353,40.475 36.283,41.477 C38.192,42.473 39.907,44.025 40.683,46" id="Fill-3" fill="#664E27"></path>
            <path d="M51.2,16.534 C47.966,13.802 43.677,12.653 39.509,13.401 C38.929,13.514 38.419,11.381 39.122,11.245 C43.933,10.382 48.88,11.706 52.614,14.86 C53.155,15.329 51.645,16.921 51.2,16.534" id="Fill-4" fill="#917524"></path>
            <path d="M20.488,13.251 C16.32,12.503 12.033,13.651 8.797,16.384 C8.354,16.773 6.842001,15.179 7.385001,14.71 C11.117,11.558 16.065,10.231 20.877,11.095 C21.58,11.229 21.068,13.364 20.488,13.251" id="Fill-5" fill="#917524"></path>
            <path d="M50.97,25.1 C47.991,21.643 38.519,22.86 35.71,27.582 C35.507,27.934 36.045,28.436 36.701,28.835 C38.602,27.503 40.827,26.759 43.092,26.6 C43.101,29.096 45.073,31.119 47.509,31.119 C51.034,31.118 52.717,27.127 50.97,25.099" id="Fill-6" fill="#664E27"></path>
            <path d="M23.636,25.1 C20.658,21.644 11.186,22.859 8.377,27.583 C8.173,27.934 8.711,28.436 9.368,28.835 C11.269,27.504 13.494,26.759 15.759,26.6 C15.768,29.095 17.74,31.119 20.176,31.119 C23.702,31.118 25.384,27.127 23.636,25.099" id="Fill-7" fill="#664E27"></path>
        </g>
    </g>
</svg>