<?xml version="1.0" encoding="UTF-8"?>
<svg width="68px" height="62px" viewBox="0 0 68 62" version="1.1" xmlns="http://www.w3.org/2000/svg" xmlns:xlink="http://www.w3.org/1999/xlink">
    <!-- Generator: Sketch 40 (33762) - http://www.bohemiancoding.com/sketch -->
    <title>emoji-excited</title>
    <desc>Created with Sketch.</desc>
    <defs></defs>
    <g id="Page-1" stroke="none" stroke-width="1" fill="none" fill-rule="evenodd">
        <g id="emoji-excited">
            <path d="M67.7824,19.3438034 C67.7824,9.04198927 59.4372889,0.690876585 49.1447333,0.690876585 C42.8962889,0.690876585 37.3826222,3.77766 33.9996222,8.49570878 C30.6185111,3.77766 25.1029556,0.690876585 18.8564,0.690876585 C8.56196009,0.690876585 0.21685064,9.04198927 0.21685064,19.3438034 C0.21685064,20.8030717 0.401960996,22.2169741 0.719292969,23.57984 C3.30895707,39.6696112 21.1854,56.6477714 33.9996222,61.3091128 C46.8119556,56.6477714 64.6921778,39.6695961 67.2761778,23.57984 C67.5972889,22.2169741 67.7824,20.8030717 67.7824,19.3438034" id="Fill-1" fill="#F2ABBA"></path>
            <path d="M59.3543591,22.2521478 C59.3543591,14.51916 53.0926924,8.25300146 45.3671369,8.25300146 C40.6770258,8.25300146 36.5403591,10.5685502 33.9998036,14.1108673 C31.4611369,10.5685502 27.3225813,8.25300146 22.6343591,8.25300146 C14.9088081,8.25300146 8.64525253,14.51916 8.64525253,22.2521478 C8.64525253,23.346599 8.78314142,24.4089161 9.02113991,25.4296478 C10.9648066,37.5064161 24.3815813,50.2485442 33.9998036,53.7473872 C43.6161369,50.2485457 57.0348036,37.5064161 58.9765813,25.431538 C59.2164702,24.4089161 59.3543591,23.346599 59.3543591,22.2521478" id="Fill-3" fill="#E75A70"></path>
            <path d="M51.3615333,25.009061 C51.3615333,19.7144878 47.0737556,15.4217439 41.7848667,15.4217439 C38.5718667,15.4217439 35.7385333,17.0076585 34.0007556,19.4347317 C32.2610889,17.0076585 29.4277556,15.4217439 26.2166444,15.4217439 C20.9258667,15.4217439 16.6362,19.7144878 16.6362,25.009061 C16.6362,25.7594878 16.7325333,26.4853415 16.8930889,27.1847317 C18.2247556,35.456439 27.4142,44.1818049 34.0007556,46.5786341 C40.5835333,44.1818049 49.7748667,35.456439 51.1027556,27.186622 C51.2670889,26.4853415 51.3615333,25.7594878 51.3615333,25.009061" id="Fill-4" fill="#BB1A34"></path>
        </g>
    </g>
</svg>