<?xml version="1.0" encoding="UTF-8"?>
<svg width="68px" height="68px" viewBox="0 0 68 68" version="1.1" xmlns="http://www.w3.org/2000/svg" xmlns:xlink="http://www.w3.org/1999/xlink">
    <!-- Generator: Sketch 40 (33762) - http://www.bohemiancoding.com/sketch -->
    <title>emoji-love</title>
    <desc>Created with Sketch.</desc>
    <defs></defs>
    <g id="Page-1" stroke="none" stroke-width="1" fill="none" fill-rule="evenodd">
        <g id="emoji-love">
            <path d="M68,34 C68,52.7774444 52.7774444,68 34,68 C15.2225556,68 0,52.7774444 0,34 C0,15.2225556 15.2225556,0 34,0 C52.7774444,0 68,15.2225556 68,34" id="Fill-1" fill="#FFCC4D"></path>
            <path d="M34,41.2695778 C28.3975556,41.2695778 24.6783333,40.6160222 20.0807778,39.7225778 C19.0286667,39.5204667 16.9867778,39.7225778 16.9867778,42.8146889 C16.9867778,49.0026889 24.0946667,56.7358 34,56.7358 C43.9053333,56.7358 51.0132222,49.0026889 51.0132222,42.8146889 C51.0132222,39.7225778 48.9694444,39.5185778 47.9192222,39.7225778 C43.3235556,40.6160222 39.6043333,41.2695778 34,41.2695778" id="Fill-3" fill="#664500"></path>
            <path d="M31.4498187,6.19706667 C29.8272631,1.60517778 24.7933742,-0.805044444 20.1995964,0.813733333 C17.4115964,1.79784444 15.4377076,4.04562222 14.6689237,6.67873333 C12.4192571,5.11095556 9.47258889,4.60095556 6.69025707,5.58128889 C2.09836818,7.20195556 -0.313743538,12.2396222 1.30692268,16.8315111 C1.53736667,17.4831778 1.84336818,18.0838444 2.19847778,18.6410667 C5.88370151,25.4070667 16.5313742,30.1632889 22.9800409,30.2218444 C27.959152,26.1286222 33.2669298,15.7454 31.8899298,8.16528889 C31.818152,7.50795556 31.6764853,6.84684444 31.4498187,6.19706667" id="Fill-4" fill="#E75A70"></path>
            <path d="M36.5492444,6.19706667 C38.1718,1.60517778 43.2075778,-0.805044444 47.7994667,0.813733333 C50.5893556,1.79784444 52.5613556,4.04562222 53.3320222,6.67873333 C55.5816889,5.11095556 58.5283556,4.60095556 61.3106889,5.58128889 C65.9006889,7.20195556 68.3128,12.2396222 66.6940222,16.8315111 C66.4616889,17.4831778 66.1575778,18.0838444 65.8005778,18.6410667 C62.1153556,25.4070667 51.4676889,30.1632889 45.0190222,30.2218444 C40.0399111,26.1286222 34.7340222,15.7454 36.1110222,8.16528889 C36.1828,7.50795556 36.3244667,6.84684444 36.5492444,6.19706667" id="Fill-5" fill="#E75A70"></path>
        </g>
    </g>
</svg>