<?xml version="1.0" encoding="UTF-8" standalone="no"?>
<svg width="60px" height="60px" viewBox="0 0 60 60" version="1.1" xmlns="http://www.w3.org/2000/svg" xmlns:xlink="http://www.w3.org/1999/xlink">
    <!-- Generator: Sketch 40 (33762) - http://www.bohemiancoding.com/sketch -->
    <title>emoji-love</title>
    <desc>Created with Sketch.</desc>
    <defs></defs>
    <g id="Page-1" stroke="none" stroke-width="1" fill="none" fill-rule="evenodd">
        <g id="emoji-love" transform="translate(-1.000000, -1.000000)">
            <path d="M61,30.999 C61,47.56754 47.56854,60.999001 31,60.999001 C14.43146,60.999001 1,47.56754 1,30.999 C1,14.43046 14.43146,0.999 31,0.999 C47.56854,0.999 61,14.43046 61,30.999 L61,30.999 Z" id="Fill-1" fill="#FFDD67"></path>
            <path d="M47,36.499 C47,42.96 41.686,50.499 31.002,50.499 C20.313,50.499 15.002,42.96 15.002,36.499 L31.002,36.499 L47,36.499" id="Fill-3" fill="#664E27"></path>
            <polygon id="Fill-4" fill="#FFFFFF" points="15.92 36.499 46.08 36.499 46.08 42.099 15.92 42.099"></polygon>
            <path d="M31,51.5 C19.96,51.5 14,43.771 14,36.5 L14,35.5 L47.998,35.5 L47.998,36.5 C47.998,43.772 42.041,51.5 31,51.5 M16.045,37.5 C16.568,43.49 21.772,49.5 31,49.5 C40.227,49.5 45.432,43.49 45.955,37.5 L16.045,37.5" id="Fill-5" fill="#664E27"></path>
            <path d="M60.848,12.22 C60.385,9.565 58.817,7.33 56.385,6.667 C53.731,5.939 51.303,6.982 48.947,9.37 C47.627,5.74 45.609,3.044 42.427,1.662 C39.168,0.238 36,1.196 34.002,3.723 C31.926,6.351 31.1,10.4 33.322,15.697 C35.404,20.656 44.734,30.707 45.004,31 C45.367,30.774 55.758,24.28 58.303,21.091 C60.793,17.971 61.313,14.864 60.848,12.22" id="Fill-6" fill="#F46767"></path>
            <path d="M28,3.723 C26.004,1.197 22.834,0.239 19.574,1.661 C16.39,3.043 14.373,5.739 13.051,9.369 C10.696,6.982 8.268002,5.939 5.613001,6.666 C3.183002,7.329 1.613001,9.564 1.150002,12.219 C0.691002,14.863 1.207001,17.97 3.695002,21.091 C6.242002,24.28 16.635,30.774 16.998,31 C17.266,30.709 26.598,20.656 28.68,15.697 C30.902,10.4 30.076,6.351 28,3.723" id="Fill-7" fill="#F46767"></path>
        </g>
    </g>
</svg>