<?xml version="1.0" encoding="UTF-8"?>
<svg width="68px" height="68px" viewBox="0 0 68 68" version="1.1" xmlns="http://www.w3.org/2000/svg" xmlns:xlink="http://www.w3.org/1999/xlink">
    <!-- Generator: Sketch 40 (33762) - http://www.bohemiancoding.com/sketch -->
    <title>emoji-disgust</title>
    <desc>Created with Sketch.</desc>
    <defs></defs>
    <g id="Page-1" stroke="none" stroke-width="1" fill="none" fill-rule="evenodd">
        <g id="emoji-disgust">
            <path d="M68,34 C68,52.7774444 52.7774444,68 34,68 C15.2244444,68 0,52.7774444 0,34 C0,15.2244444 15.2244444,0 34,0 C52.7774444,0 68,15.2244444 68,34" id="Fill-1" fill="#FFCC4D"></path>
            <path d="M11.3333333,24.5555556 C10.2906667,24.5555556 9.44444444,23.7093333 9.44444444,22.6666667 C9.44444444,21.6258889 10.285,20.7815556 11.3257778,20.7777778 C11.6185556,20.774 18.0653333,20.6153333 23.0444444,13.9777778 C23.6696667,13.1466667 24.854,12.9728889 25.6888889,13.6 C26.5237778,14.2252222 26.6918889,15.4095556 26.0666667,16.2444444 C19.9051111,24.4611111 11.6808889,24.5555556 11.3333333,24.5555556" id="Fill-3" fill="#664500"></path>
            <path d="M56.6666667,24.5555556 C56.3191111,24.5555556 48.0967778,24.4611111 41.9333333,16.2444444 C41.3062222,15.4095556 41.4762222,14.2252222 42.3111111,13.6 C43.146,12.971 44.3284444,13.1428889 44.9555556,13.9777778 C49.9422222,20.6285556 56.4041111,20.7758889 56.678,20.7777778 C57.7168889,20.7891111 58.5555556,21.6391111 58.5498889,22.6761111 C58.5442222,23.7168889 57.7055556,24.5555556 56.6666667,24.5555556" id="Fill-4" fill="#664500"></path>
            <path d="M57.7992444,38.1559333 C57.5839111,37.9934889 54.1518,35.4623778 49.0234667,33.7283778 C49.0744667,33.5111556 49.1103556,33.2882667 49.1103556,33.0559333 C49.1103556,32.3589333 48.8496889,31.7280444 48.4322444,31.2350444 C51.8379111,30.2509333 54.7298,30.2226 54.7808,30.2226 C55.8215778,30.2188222 56.6659111,29.3726 56.6640222,28.3299333 C56.6621333,27.2891556 55.8196889,26.4448222 54.7770222,26.4448222 C54.3614667,26.4448222 44.4806889,26.5147111 38.3304667,32.6649333 C37.7902444,33.2051556 37.6278,34.0173778 37.9224667,34.7238222 C38.2133556,35.4302667 38.9028,35.8892667 39.6659111,35.8892667 C48.3359111,35.8892667 55.4645778,41.1252667 55.5363556,41.1800444 C55.8763556,41.4312667 56.2711333,41.5540444 56.6640222,41.5540444 C57.2401333,41.5540444 57.8086889,41.2914889 58.1789111,40.7966 C58.8022444,39.9617111 58.6322444,38.7811556 57.7992444,38.1559333" id="Fill-5" fill="#664500"></path>
            <path d="M29.6687778,32.6645556 C23.5204444,26.5162222 13.6396667,26.4444444 13.2222222,26.4444444 C12.1795556,26.4444444 11.3352237,27.2887778 11.3352237,28.3314444 C11.3333333,29.3722222 12.1776682,30.2203333 13.2203348,30.2222222 C13.269446,30.2222222 16.1632222,30.2524444 19.567,31.2346667 C19.1514444,31.7276667 18.8888889,32.3585556 18.8888889,33.0555556 C18.8888889,33.2878889 18.9247778,33.5107778 18.9776667,33.728 C13.8474444,35.462 10.4153348,37.9931111 10.2000015,38.1555556 C9.36511111,38.7807778 9.19700151,39.9651111 9.82222373,40.8 C10.192446,41.2948889 10.7610015,41.5555556 11.3352237,41.5555556 C11.7281126,41.5555556 12.1266667,41.4327778 12.4666667,41.1777778 C12.5365556,41.1267778 19.6198889,35.8888889 28.3333333,35.8888889 C29.0964444,35.8888889 29.7858889,35.4298889 30.0786667,34.7234444 C30.3714444,34.017 30.209,33.2047778 29.6687778,32.6645556" id="Fill-6" fill="#664500"></path>
            <path d="M34,56.6666667 C33.4257778,56.6666667 32.8836667,56.406 32.5247778,55.9583333 L26.4916667,48.4178889 L22.2888889,54.0222222 C21.9602222,54.4604444 21.4577778,54.7343333 20.9118889,54.7721111 C20.3641111,54.8136667 19.8276667,54.6115556 19.4423333,54.2243333 L17.5534444,52.3354444 C16.8148889,51.5968889 16.8148889,50.4031111 17.5534444,49.6645556 C18.292,48.926 19.4857778,48.926 20.2243333,49.6645556 L20.5737778,50.0121111 L24.9333333,44.2 C25.2846667,43.7315556 25.8305556,43.4538889 26.4142222,43.4444444 C26.9733333,43.4255556 27.5532222,43.6956667 27.9196667,44.1527778 L34,51.7536667 L40.0803333,44.1527778 C40.4448889,43.6975556 40.9945556,43.4444444 41.5857778,43.4444444 C42.1694444,43.4538889 42.7153333,43.7315556 43.0666667,44.2 L47.4262222,50.0121111 L47.7756667,49.6645556 C48.5142222,48.926 49.708,48.926 50.4465556,49.6645556 C51.1851111,50.4031111 51.1851111,51.5968889 50.4465556,52.3354444 L48.5576667,54.2243333 C48.1704444,54.6115556 47.6547778,54.8174444 47.0881111,54.7721111 C46.5422222,54.7343333 46.0397778,54.4604444 45.7111111,54.0222222 L41.5083333,48.4178889 L35.4752222,55.9583333 C35.1163333,56.406 34.5742222,56.6666667 34,56.6666667" id="Fill-7" fill="#664500"></path>
        </g>
    </g>
</svg>