<?xml version="1.0" encoding="UTF-8"?>
<svg width="68px" height="68px" viewBox="0 0 68 68" version="1.1" xmlns="http://www.w3.org/2000/svg" xmlns:xlink="http://www.w3.org/1999/xlink">
    <!-- Generator: Sketch 40 (33762) - http://www.bohemiancoding.com/sketch -->
    <title>emoji-angry</title>
    <desc>Created with Sketch.</desc>
    <defs></defs>
    <g id="Page-1" stroke="none" stroke-width="1" fill="none" fill-rule="evenodd">
        <g id="emoji-angry">
            <path d="M68,34 C68,52.7774444 52.7774444,68 34,68 C15.2244444,68 0,52.7774444 0,34 C0,15.2244444 15.2244444,0 34,0 C52.7774444,0 68,15.2244444 68,34" id="Fill-1" fill="#DA2F47"></path>
            <path d="M48.1390889,56.4379222 C48.0540889,56.0998111 45.9328667,48.1664702 34.0007556,48.1664702 C22.0667556,48.1664702 19.9455333,56.0998111 19.8624222,56.4379222 C19.7585333,56.8478111 19.9436444,57.2728111 20.3100889,57.4843667 C20.6784222,57.6902556 21.1393111,57.6335889 21.4415333,57.3389222 C21.4774222,57.3030333 25.1324222,53.8331444 34.0007556,53.8331444 C42.8672,53.8331444 46.5240889,57.3030333 46.5580889,57.3389222 C46.7394222,57.5164778 46.9812,57.6109222 47.2229778,57.6109222 C47.3816444,57.6109222 47.5422,57.5712556 47.6876444,57.4900333 C48.0578667,57.2784778 48.2429778,56.8497 48.1390889,56.4379222" id="Fill-3" fill="#292F33"></path>
            <path d="M29.6687778,32.6645556 C23.5204444,26.5162222 13.6396667,26.4444444 13.2222222,26.4444444 C12.1795556,26.4444444 11.3352237,27.2887778 11.3352237,28.3314444 C11.3333333,29.3722222 12.1776682,30.2203333 13.2203348,30.2222222 C13.2751126,30.2222222 16.8564444,30.2637778 20.7437778,31.6143333 C19.6236667,32.8232222 18.8888889,34.7007778 18.8888889,36.8333333 C18.8888889,40.4864444 21.0025556,43.4444444 23.6111111,43.4444444 C26.2196667,43.4444444 28.3333333,40.4864444 28.3333333,36.8333333 C28.3333333,36.5046667 28.2974444,36.1911111 28.2634444,35.8756667 C28.288,35.8756667 28.3106667,35.8888889 28.3333333,35.8888889 C28.8168889,35.8888889 29.3004444,35.7037778 29.6687778,35.3354444 C30.4073333,34.5968889 30.4073333,33.4031111 29.6687778,32.6645556" id="Fill-4" fill="#292F33"></path>
            <path d="M54.7777778,26.4444444 C54.3603333,26.4444444 44.4814444,26.5162222 38.3312222,32.6645556 C37.5926667,33.4031111 37.5926667,34.5968889 38.3312222,35.3354444 C38.6995556,35.7037778 39.1831111,35.8888889 39.6666667,35.8888889 C39.6912222,35.8888889 39.712,35.8756667 39.7346667,35.8756667 C39.7044444,36.1911111 39.6666667,36.5046667 39.6666667,36.8333333 C39.6666667,40.4864444 41.7803333,43.4444444 44.3888889,43.4444444 C46.9974444,43.4444444 49.1111111,40.4864444 49.1111111,36.8333333 C49.1111111,34.7007778 48.3763333,32.8232222 47.2562222,31.6143333 C51.1435556,30.2637778 54.7248889,30.2222222 54.7815556,30.2222222 C55.8223333,30.2203333 56.6666667,29.3722222 56.6647778,28.3314444 C56.6628889,27.2887778 55.8204444,26.4444444 54.7777778,26.4444444" id="Fill-5" fill="#292F33"></path>
        </g>
    </g>
</svg>