<?xml version="1.0" encoding="UTF-8"?>
<svg width="32px" height="49px" viewBox="0 0 32 49" version="1.1" xmlns="http://www.w3.org/2000/svg" xmlns:xlink="http://www.w3.org/1999/xlink">
    <!-- Generator: Sketch 39.1 (31720) - http://www.bohemiancoding.com/sketch -->
    <title>plan-marker-sad</title>
    <desc>Created with Sketch.</desc>
    <defs>
        <linearGradient x1="50%" y1="98.6823038%" x2="50%" y2="0.827088648%" id="linearGradient-1">
            <stop stop-color="#C31C00" offset="0%"></stop>
            <stop stop-color="#FF0000" offset="100%"></stop>
        </linearGradient>
        <path d="M9.02216861,27.0804025 C3.76068273,25.062562 0,19.9491346 0,14 C0,6.3 6.3,0 14,0 C21.7,0 28,6.3 28,14 C28,19.9802705 24.1998499,25.1160632 18.8950976,27.11183 L13.9629657,45 L9.02216861,27.0804025 Z M6,10 C6,8.9 6.9,8 8,8 C9.1,8 10,8.9 10,10 C10,11.1 9.1,12 8,12 C6.9,12 6,11.1 6,10 L6,10 Z M7.3,21.2 C9.1,19.4 11.6,18.4 14,18.4 C16.4,18.4 18.9,19.3 20.7,21.2 C21.1,21.6 21.1,22.2 20.7,22.6 C20.3,23 19.7,23 19.3,22.6 C16.4,19.7 11.6,19.7 8.7,22.6 C8.3,23 7.7,23 7.3,22.6 C6.9,22.2 6.9,21.6 7.3,21.2 L7.3,21.2 Z M20,12 C18.9,12 18,11.1 18,10 C18,8.9 18.9,8 20,8 C21.1,8 22,8.9 22,10 C22,11.1 21.1,12 20,12 L20,12 Z" id="path-2"></path>
        <mask id="mask-3" maskContentUnits="userSpaceOnUse" maskUnits="objectBoundingBox" x="-1.5" y="-1.5" width="31" height="48">
            <rect x="-1.5" y="-1.5" width="31" height="48" fill="white"></rect>
            <use xlink:href="#path-2" fill="black"></use>
        </mask>
    </defs>
    <g id="Page-1" stroke="none" stroke-width="1" fill="none" fill-rule="evenodd">
        <g id="plan-marker-sad" transform="translate(2.000000, 2.000000)">
            <path d="M0,14 C0,21.7 6.3,28 14,28 C21.7,28 28,21.7 28,14 C28,6.3 21.7,0 14,0 C6.3,0 0,6.3 0,14 Z" id="Path" fill="#FFFFFF"></path>
            <g id="Page-1">
                <use fill="url(#linearGradient-1)" fill-rule="evenodd" xlink:href="#path-2"></use>
                <use stroke="#FFFFFF" mask="url(#mask-3)" stroke-width="3" stroke-linejoin="round" xlink:href="#path-2"></use>
            </g>
        </g>
    </g>
</svg>