<?xml version="1.0" encoding="UTF-8" standalone="no"?>
<svg width="78px" height="105px" viewBox="0 0 78 105" version="1.1" xmlns="http://www.w3.org/2000/svg" xmlns:xlink="http://www.w3.org/1999/xlink">
    <!-- Generator: Sketch 40 (33762) - http://www.bohemiancoding.com/sketch -->
    <title>plan-marker-happy</title>
    <desc>Created with Sketch.</desc>
    <defs></defs>
    <g id="Page-1" stroke="none" stroke-width="1" fill="none" fill-rule="evenodd">
        <g id="plan-marker-happy" transform="translate(-0.410156, -0.027344)">
            <polygon id="Rectangle-2" fill="#FFFFFF" points="7.95305713 49.8294966 70.0469429 49.8294966 39 100.818099"></polygon>
            <path d="M77.5537109,39 C77.5537109,60.2923578 60.2923578,77.5537109 39,77.5537109 C17.7076422,77.5537109 0.446289062,60.2923578 0.446289062,39 C0.446289062,17.7076422 17.7076422,0.446289062 39,0.446289062 C60.2923578,0.446289062 77.5537109,17.7076422 77.5537109,39" id="Fill-1" fill="#FFFFFF"></path>
            <polygon id="Rectangle-2" fill="#FFDD67" points="52.1046222 69.9116548 39 104.875268 25.8953778 69.9116548"></polygon>
            <g id="Page-1" transform="translate(5.000000, 5.000000)">
                <path d="M67.8007812,33.9003906 C67.8007812,52.6230566 52.6230566,67.8007812 33.9003906,67.8007812 C15.1777247,67.8007812 0,52.6230566 0,33.9003906 C0,15.1777247 15.1777247,0 33.9003906,0 C52.6230566,0 67.8007812,15.1777247 67.8007812,33.9003906 L67.8007812,33.9003906 Z" id="Fill-1" fill="#FFDD67"></path>
                <path d="M17.3072794,44.0128771 C20.1040617,45.6570461 22.8047928,46.6548476 25.5721947,47.3170352 C28.3282964,47.9792229 31.1092585,48.2617261 33.8992606,48.2662462 C36.6915228,48.254946 39.4702248,47.9724428 42.2240665,47.3102551 C44.9914684,46.6480675 47.6910695,45.652526 50.4912418,44.0128771 C49.292298,47.0831225 46.6311173,49.4979604 43.6659632,51.0426882 C40.6669086,52.6009761 37.2678294,53.3513048 33.9015206,53.3490447 C30.5352118,53.3445247 27.1395227,52.594196 24.1415982,51.0359081 C21.175314,49.4911803 18.5141333,47.0786025 17.3050194,44.0128771" id="Fill-3" fill="#664E27"></path>
                <path d="M25.9925595,27.7892802 C25.9925595,30.597679 23.7158997,32.8743388 20.9075009,32.8743388 C18.0991022,32.8743388 15.8224423,30.597679 15.8224423,27.7892802 C15.8224423,24.9808814 18.0991022,22.7042216 20.9075009,22.7042216 C23.7158997,22.7042216 25.9925595,24.9808814 25.9925595,27.7892802 L25.9925595,27.7892802 Z" id="Fill-4" fill="#664E27"></path>
                <path d="M51.982859,27.7892802 C51.982859,30.597679 49.7061992,32.8743388 46.8978004,32.8743388 C44.0894016,32.8743388 41.8127418,30.597679 41.8127418,27.7892802 C41.8127418,24.9808814 44.0894016,22.7042216 46.8978004,22.7042216 C49.7061992,22.7042216 51.982859,24.9808814 51.982859,27.7892802 L51.982859,27.7892802 Z" id="Fill-5" fill="#664E27"></path>
            </g>
        </g>
    </g>
</svg>