<?xml version="1.0" encoding="UTF-8" standalone="no"?>
<svg width="78px" height="103px" viewBox="0 0 78 103" version="1.1" xmlns="http://www.w3.org/2000/svg" xmlns:xlink="http://www.w3.org/1999/xlink">
    <!-- Generator: Sketch 40 (33762) - http://www.bohemiancoding.com/sketch -->
    <title>plan-marker-sad</title>
    <desc>Created with Sketch.</desc>
    <defs></defs>
    <g id="Page-1" stroke="none" stroke-width="1" fill="none" fill-rule="evenodd">
        <g id="plan-marker-sad" transform="translate(-0.410156, -0.027344)">
            <polygon id="Rectangle-2" fill="#FFFFFF" points="8 48.4408247 70.0938857 48.4408247 39.0469429 99.4294267"></polygon>
            <path d="M77.5146484,39 C77.5146484,60.2707845 60.2707845,77.5146484 39,77.5146484 C17.7292155,77.5146484 0.485351562,60.2707845 0.485351562,39 C0.485351562,17.7292155 17.7292155,0.485351562 39,0.485351562 C60.2707845,0.485351562 77.5146484,17.7292155 77.5146484,39" id="Fill-1" fill="#FFFFFF"></path>
            <polygon id="Rectangle-2" fill="#4A4A4A" points="52.2092443 68 39.1046222 102.963613 26 68"></polygon>
            <g id="Page-1" transform="translate(5.000000, 5.000000)">
                <path d="M67.9277344,33.9638672 C67.9277344,52.7215903 52.7215903,67.9277344 33.9638672,67.9277344 C15.2061441,67.9277344 0,52.7215903 0,33.9638672 C0,15.2061441 15.2061441,0 33.9638672,0 C52.7215903,0 67.9277344,15.2061441 67.9277344,33.9638672 L67.9277344,33.9638672 Z" id="Fill-1" fill="#4A4A4A"></path>
                <path d="M46.0595324,50.9458008 C44.0205683,49.744612 42.050664,49.0200495 40.0343424,48.5377626 C38.0248136,48.0532114 35.9971707,47.8482961 33.9649993,47.8437676 C31.9282994,47.8528246 29.9029208,48.0577399 27.8956563,48.5400269 C25.8793347,49.0245893 23.9105625,49.7491405 21.8704662,50.9458008 C22.7433376,48.7053177 24.6826744,46.9459894 26.8473049,45.8206532 C29.0345779,44.6885243 31.5105438,44.1383097 33.9649993,44.1405739 C36.4171905,44.1451024 38.8942886,44.6907886 41.0781652,45.8251817 C43.2393993,46.9527821 45.1810004,48.7098462 46.0595324,50.9458008" id="Fill-3" fill="#FFFFFF"></path>
                <path d="M20.9443848,32.9358941 C18.1307274,32.9358941 15.8498047,30.6549714 15.8498047,27.8413141 C15.8498047,25.0276567 18.1307274,22.746734 20.9443848,22.746734 C23.7580421,22.746734 26.0389648,25.0276567 26.0389648,27.8413141 C26.0389648,30.6549714 23.7580421,32.9358941 20.9443848,32.9358941 Z" id="Fill-4" fill="#FFFFFF"></path>
                <path d="M52.0779297,27.8413141 C52.0779297,30.6549714 49.7970069,32.9358941 46.9833496,32.9358941 C44.1696923,32.9358941 41.8887695,30.6549714 41.8887695,27.8413141 C41.8887695,25.0276567 44.1696923,22.746734 46.9833496,22.746734 C49.7970069,22.746734 52.0779297,25.0276567 52.0779297,27.8413141 L52.0779297,27.8413141 Z" id="Fill-5" fill="#FFFFFF"></path>
            </g>
        </g>
    </g>
</svg>