<?xml version="1.0" encoding="UTF-8" standalone="no"?><!DOCTYPE svg PUBLIC "-//W3C//DTD SVG 1.1//EN" "http://www.w3.org/Graphics/SVG/1.1/DTD/svg11.dtd"><svg width="224" height="2105" viewBox="0 0 224 2105" xmlns="http://www.w3.org/2000/svg" xmlns:xlink="http://www.w3.org/1999/xlink"><svg width="224" height="224" viewBox="0 0 224 224" id="circle_green"><title>Oval 5</title><circle fill="#4EAF46" cx="112" cy="112" r="112" fill-rule="evenodd"/></svg><svg width="224" height="224" viewBox="0 0 224 224" id="circle_grey" y="224"><title>Oval 5 Copy 2</title><circle fill="#4A4F4C" cx="112" cy="112" r="112" fill-rule="evenodd"/></svg><svg width="224" height="224" viewBox="0 0 224 224" id="circle_red" y="448"><title>Oval 5 Copy</title><circle fill="#D8262C" cx="112" cy="112" r="112" fill-rule="evenodd"/></svg><svg width="33" height="33" viewBox="0 0 33 33" id="close-button" y="672"><title>close-button</title><defs><circle id="ada" cx="16.5" cy="16.5" r="16.5"/><mask id="adb" x="0" y="0" width="33" height="33" fill="#fff"><use xlink:href="#ada"/></mask></defs><g stroke="#4A4F4C" fill="none" fill-rule="evenodd"><g transform="translate(11.234 11.234)" stroke-width="2.8" stroke-linecap="round"><path d="M0 0l10.532 10.532M0 10.532L10.532 0"/></g><use mask="url(#adb)" stroke-width="5.6" xlink:href="#ada"/></g></svg><svg width="178" height="28" viewBox="0 0 178 28" id="crowdspot-logo" y="705"><title>crowdspot-logo</title><g fill="none" fill-rule="evenodd"><path d="M121.411 9.431h-4.431V6.248h-3.767V9.43h-1.782v3.026h1.777v4.963c0 1.858.266 2.76 1.089 3.635.901.982 2.175 1.513 3.635 1.513a8.87 8.87 0 0 0 2.918-.504c.102-.052.288-.132.558-.238v-3.373c-.954.557-1.725.77-2.653.77-.664 0-1.216-.213-1.459-.584-.243-.371-.318-.716-.318-1.726v-4.456h4.432V9.431h.001zm-13.45 6.448c0 1.825-1.354 3.212-3.105 3.212-1.777 0-3.13-1.381-3.13-3.212 0-1.83 1.327-3.183 3.104-3.183a3.131 3.131 0 0 1 3.132 3.183h-.002zm3.742 0c0-3.714-3.05-6.712-6.84-6.712-3.848 0-6.842 2.945-6.842 6.712 0 3.742 3.026 6.714 6.872 6.714 3.82 0 6.818-2.944 6.818-6.714h-.008zm-23.738-2.52c1.008-.531 1.592-.716 2.361-.716 1.824 0 3.13 1.327 3.13 3.21 0 1.963-1.246 3.345-3.05 3.345-.856 0-1.696-.22-2.442-.637V13.36h.001zm-.264-3.928h-3.556V27.21h3.82v-5.353c.468.322 1.004.53 1.566.608.436.095.881.14 1.327.133 3.556 0 6.315-2.866 6.315-6.608 0-3.848-2.786-6.819-6.368-6.819-1.035 0-1.91.239-2.574.716-.152.107-.317.265-.53.424v-.879zm-5.625-2.307c-.956-1.937-2.6-2.89-5.017-2.89-3.264 0-5.571 1.991-5.571 4.804 0 1.566.716 2.919 2.15 4.033.481.374.996.703 1.538.982.079.026.558.265 1.432.663 1.645.797 2.256 1.407 2.256 2.255a1.943 1.943 0 0 1-1.99 1.937c-1.194 0-2.15-.742-2.889-2.229l-3.236 2.129c1.538 2.68 3.396 3.848 6.049 3.848 3.714 0 6.447-2.415 6.447-5.705 0-1.824-.902-3.45-2.493-4.51-.461-.303-.95-.56-1.46-.77a29.766 29.766 0 0 0-1.3-.53c-1.883-.77-2.573-1.354-2.573-2.202 0-.77.663-1.353 1.566-1.353.982 0 1.512.424 1.883 1.485l3.208-1.947zM65.962 13.28v4.962a4.065 4.065 0 0 1-2.28.716 3.12 3.12 0 0 1-3.184-3.158c0-1.804 1.327-3.104 3.264-3.104.743 0 1.274.152 2.203.584h-.003zm3.815-8.705h-3.815v5.17a7.194 7.194 0 0 0-2.787-.584c-3.556 0-6.368 2.919-6.368 6.58 0 3.635 2.888 6.69 6.315 6.69a4.746 4.746 0 0 0 3.078-1.036v.876h3.577V4.575zM57.573 9.431h-4.191l-1.91 7.987-2.017-7.987h-4.033l-1.99 7.987-1.93-7.987h-4.14l3.953 12.843h4.112l1.99-7.564 2.043 7.563h4.165L57.573 9.43zM34.357 15.88c0 1.825-1.353 3.212-3.105 3.212-1.777 0-3.13-1.381-3.13-3.212 0-1.83 1.327-3.183 3.105-3.183a3.131 3.131 0 0 1 3.13 3.183zm3.74 0c0-3.714-3.05-6.712-6.84-6.712-3.848 0-6.841 2.945-6.841 6.712 0 3.742 3.024 6.714 6.871 6.714 3.82 0 6.818-2.944 6.818-6.714h-.007zM24.56 9.431a7.237 7.237 0 0 0-1.168-.106 5.624 5.624 0 0 0-1.38.152c-.716.213-1.064.424-1.724 1.087v-1.14h-3.556v12.843h3.82v-8.59c.4-.428.917-.732 1.486-.875.47-.156.963-.237 1.46-.239.36-.003.719.048 1.063.153V9.43h-.001zm-8.887-3.8c-1.485-.69-2.097-.902-3.369-1.168a12.888 12.888 0 0 0-2.441-.239c-5.493 0-9.711 3.98-9.711 9.18.001 5.26 4.106 9.243 9.578 9.243a13.501 13.501 0 0 0 5.251-1.095c.152-.053.398-.152.69-.292v-4.08c-1.566.901-2.228 1.193-3.368 1.485a8.433 8.433 0 0 1-1.965.24c-3.422 0-6.023-2.361-6.023-5.493 0-3.026 2.574-5.44 5.777-5.44 1.46 0 3.077.456 4.56 1.274.24.132.585.345 1.009.637V5.637l.012-.006z" fill="#595B5A"/><g transform="translate(158.579)" fill="#FF1609"><path d="M6.175 15.205l3.244 12.25h.146l3.46-12.25z"/><path d="M7.742 7.018a2.452 2.452 0 1 1 0-.004m11.36 2.554c0-5.248-4.253-9.502-9.5-9.503C4.355.065.101 4.32.1 9.567c0 5.248 4.253 9.502 9.5 9.503 5.248 0 9.502-4.254 9.503-9.502"/></g><g transform="translate(131.924 4.724)" fill="#FF1609"><path d="M14.177 14.228l12.673.036.036-.141L15.952 7.61z"/><path d="M15.625 6.027a2.452 2.452 0 1 1-4.905 0 2.452 2.452 0 0 1 4.905 0m3.434 3.516c-.001-5.247-4.255-9.501-9.502-9.5-5.248 0-9.501 4.255-9.5 9.503 0 5.247 4.253 9.501 9.5 9.501 5.248 0 9.502-4.255 9.502-9.504"/></g></g></svg><svg width="27" height="26" viewBox="0 0 27 26" id="facebook_logo_big" y="733"><title>facebook logo@3x</title><path d="M24.878 0H1.748C.954 0 .312.642.312 1.435v23.13C.313 25.357.955 26 1.746 26H14.2V15.931h-3.388v-3.924H14.2V9.114c0-3.358 2.051-5.187 5.047-5.187 1.435 0 2.668.107 3.027.154v3.51l-2.077.001c-1.63 0-1.945.774-1.945 1.91v2.505h3.886l-.506 3.924h-3.38V26h6.626c.792 0 1.434-.643 1.434-1.435V1.435C26.313.642 25.67 0 24.878 0" fill="#252626" fill-rule="evenodd"/></svg><svg width="16" height="16" viewBox="0 0 16 16" id="facebook_logo_footer" y="759"><title>facebook_logo_footer</title><path d="M15.117 0H.883A.883.883 0 0 0 0 .883v14.234c0 .488.395.883.883.883h7.663V9.804H6.461V7.389h2.085V5.61c0-2.067 1.262-3.192 3.106-3.192.883 0 1.642.065 1.863.095v2.16h-1.279c-1.002 0-1.196.476-1.196 1.176v1.541h2.39l-.31 2.415h-2.08V16h4.077a.883.883 0 0 0 .883-.883V.883A.883.883 0 0 0 15.117 0" fill="#252626" fill-rule="evenodd"/></svg><svg id="facebook_logo_footer_white" width="16" height="16" viewBox="-471 273 16 16" y="775"><style>.ahst0{fill:#fff}</style><title>facebook_logo_footer</title><g id="ahPage-1"><g id="ah_x31_.0-Home_x5F_Page_x5F_V1.0_x5F_REVISED" transform="translate(-211 -966)"><g id="ahfooter" transform="translate(0 924)"><path id="ahfacebook_logo_footer" class="ahst0" d="M-244.9 315h-14.2c-.5 0-.9.4-.9.9v14.2c0 .5.4.9.9.9h7.7v-6.2h-2.1v-2.4h2.1v-1.8c0-2.1 1.3-3.2 3.1-3.2.9 0 1.6.1 1.9.1v2.2h-1.3c-1 0-1.2.5-1.2 1.2v1.5h2.4l-.3 2.4h-2.1v6.2h4.1c.5 0 .9-.4.9-.9v-14.2c-.1-.5-.5-.9-1-.9"/></g></g></g></svg><svg width="52" height="78" viewBox="0 0 52 78" id="green_arrow" y="791"><title>Green Arrow</title><g fill="#4EAF46" fill-rule="evenodd"><path d="M18 49l7.414 28.52h.316l7.413-28.515L18 49"/><path d="M51.194 26.676C51.194 11.943 39.734 0 25.597 0S0 11.943 0 26.676C0 41.41 11.46 53.353 25.597 53.353S51.194 41.41 51.194 26.676m-30.601-7.169c0 3.803-2.958 6.886-6.606 6.886-3.649 0-6.606-3.083-6.606-6.886 0-3.802 2.957-6.884 6.606-6.884 3.648 0 6.606 3.082 6.606 6.884"/></g></svg><svg width="52" height="78" viewBox="0 0 52 78" id="grey_arrow" y="869"><title>Grey Arrow</title><g fill="#4A4F4C" fill-rule="evenodd"><path d="M18 49l7.414 28.52h.316l7.413-28.515L18 49"/><path d="M51.194 26.676C51.194 11.943 39.734 0 25.597 0S0 11.943 0 26.676C0 41.41 11.46 53.353 25.597 53.353S51.194 41.41 51.194 26.676m-30.601-7.169c0 3.803-2.958 6.886-6.606 6.886-3.649 0-6.606-3.083-6.606-6.886 0-3.802 2.957-6.884 6.606-6.884 3.648 0 6.606 3.082 6.606 6.884"/></g></svg><svg width="28" height="26" viewBox="0 0 28 26" id="instagram_logo_big" y="947"><title>instagram logo@3x</title><path d="M24.5 26H3.25C1.49 26 .061 24.656.061 22.999v-20C.063 1.343 1.49 0 3.25 0h21.252c1.76 0 3.186 1.343 3.186 3v19.999c0 1.657-1.426 3.001-3.186 3.001zM13.876 8c-2.935 0-5.313 2.238-5.313 5 0 2.76 2.378 5 5.313 5 2.934 0 5.313-2.24 5.313-5 0-2.762-2.38-5-5.313-5zM24.5 4c0-.553-.476-1-1.064-1H20.25c-.587 0-1.062.447-1.062 1v3c0 .552.475 1 1.062 1h3.187c.588 0 1.064-.448 1.064-1V4zm0 6.999h-2.405c.175.64.278 1.309.278 2 0 4.42-3.805 8-8.5 8-4.693 0-8.499-3.58-8.499-8 0-.691.104-1.36.28-2H3.248v11c0 .552.476 1 1.064 1h19.124c.588 0 1.064-.448 1.064-1V11z" fill="#252626" fill-rule="evenodd"/></svg><svg width="17" height="16" viewBox="0 0 17 16" id="instagram_logo_footer" y="973"><title>instagram_logo_footer</title><path d="M15.039 16H1.96C.878 16 0 15.173 0 14.153V1.846C0 .826.878 0 1.961 0h13.078C16.122 0 17 .826 17 1.846v12.307c0 1.02-.878 1.847-1.961 1.847zM8.499 4.923C6.695 4.923 5.232 6.3 5.232 8c0 1.699 1.463 3.077 3.269 3.077 1.805 0 3.27-1.378 3.27-3.077 0-1.7-1.465-3.077-3.27-3.077zm6.54-2.462c0-.34-.293-.615-.655-.615h-1.96c-.362 0-.655.275-.655.615v1.847c0 .34.293.615.654.615h1.961c.362 0 .655-.276.655-.615V2.46zm0 4.308h-1.48c.108.393.171.805.171 1.23 0 2.72-2.341 4.924-5.23 4.924-2.889 0-5.23-2.204-5.23-4.923 0-.426.063-.838.171-1.231h-1.48v6.77c0 .339.293.614.655.614h11.768c.362 0 .655-.275.655-.615v-6.77z" fill="#252626" fill-rule="evenodd"/></svg><svg id="instagram_logo_footer_white" width="17" height="16" viewBox="-471 273 17 16" y="989"><style>.amst0{fill:#fff}</style><title>instagram_logo_footer</title><g id="amPage-1"><g id="am_x33_.0-Our_x5F_Distillery" transform="translate(-253 -2233)"><g id="amfooter" transform="translate(2 2191)"><path id="aminstagram_logo_footer" class="amst0" d="M-205 331h-13c-1.1 0-2-.8-2-1.8v-12.3c0-1 .9-1.8 2-1.8h13.1c1.1 0 2 .8 2 1.8v12.3c-.1 1-1 1.8-2.1 1.8zm-6.5-11.1c-1.8 0-3.3 1.4-3.3 3.1 0 1.7 1.5 3.1 3.3 3.1 1.8 0 3.3-1.4 3.3-3.1 0-1.7-1.5-3.1-3.3-3.1zm6.5-2.4c0-.3-.3-.6-.7-.6h-2c-.4 0-.7.3-.7.6v1.8c0 .3.3.6.7.6h2c.4 0 .7-.3.7-.6v-1.8zm0 4.3h-1.5c.1.4.2.8.2 1.2 0 2.7-2.3 4.9-5.2 4.9-2.9 0-5.2-2.2-5.2-4.9 0-.4.1-.8.2-1.2h-1.5v6.8c0 .3.3.6.7.6h11.8c.4 0 .7-.3.7-.6v-6.8z"/></g></g></g></svg><svg width="38" height="36" viewBox="0 0 38 36" id="instagram_logo_posts" y="1005"><title>instagram_logo_footer</title><path d="M33.616 35.765H4.383C1.963 35.765 0 33.917 0 31.637V4.126C0 1.847 1.963 0 4.383 0h29.233C36.037 0 38 1.847 38 4.126v27.51c0 2.28-1.963 4.129-4.384 4.129zM19 11.005c-4.037 0-7.308 3.078-7.308 6.877 0 3.798 3.271 6.878 7.308 6.878 4.036 0 7.308-3.08 7.308-6.878 0-3.8-3.272-6.878-7.308-6.878zM33.616 5.5c0-.759-.654-1.375-1.463-1.375H27.77c-.808 0-1.462.616-1.462 1.375V9.63c0 .759.654 1.375 1.462 1.375h4.383c.809 0 1.463-.616 1.463-1.375V5.5zm0 9.629h-3.308c.24.88.383 1.8.383 2.752 0 6.078-5.234 11.004-11.691 11.004-6.457 0-11.692-4.926-11.692-11.004 0-.952.143-1.872.384-2.752H4.383v15.132c0 .759.655 1.375 1.464 1.375h26.306c.809 0 1.463-.616 1.463-1.375V15.13z" fill="#FFF" fill-rule="evenodd"/></svg><svg width="15.27" height="15.651" viewBox="0 0 15.27 15.651" id="linkedin" y="1041"><path fill="#FFF" d="M4.109 1.933c0 1.049-.93 1.904-2.07 1.904C.9 3.837 0 2.981 0 1.933 0 .883.9 0 2.04 0c1.14 0 2.069.883 2.069 1.933zM.36 15.651V4.969h3.36v10.683H.36zM8.699 4.969v.497c1.29-.607 3.061-.497 4.32.11 1.35.69 2.25 2.181 2.25 3.561v6.515h-3.3V9.137c0-.304-.301-.8-.57-.883-1.32-.69-2.7.552-2.7.552v6.846h-3.36V4.969h3.36z"/></svg><svg width="33" height="31" viewBox="0 0 33 31" id="logo-cityofmelbourne" y="1057"><title>logo-cityofmelbourne</title><defs><path id="apa" d="M32.967 1.811v1.611H.012V.2h32.955v1.611z"/></defs><g fill="none" fill-rule="evenodd" opacity=".51"><g transform="translate(0 27.578)"><mask id="apb" fill="#fff"><use xlink:href="#apa"/></mask><path d="M27.797 1.73c0 .147-.121.274-.266.274h-.337V.742h.332c.15 0 .27.112.27.258v.73zm.266.576l.04-.034c.166-.108.261-.332.261-.536v-.731c0-.448-.371-.804-.833-.804h-.845c-.025 0-.05.024-.05.048v3.124c0 .024.025.049.05.049h.463c.025 0 .05-.025.05-.049v-.828h.327l.356.847c.01.01.035.03.05.03h.528c.04 0 .06-.03.045-.068l-.442-1.048zm-4.81.43c0 .106-.096.145-.197.145H22.9c-.102 0-.198-.039-.198-.146V.89c0-.113.042-.147.158-.147h.236c.116 0 .157.034.157.147v1.846zM23.258.2h-.56a.557.557 0 0 0-.555.537v2.148c0 .297.248.536.555.536h.56a.544.544 0 0 0 .555-.536V.738A.557.557 0 0 0 23.258.2zm-3.902 2.68h-.923V.251c0-.025-.025-.05-.05-.05h-.46c-.025 0-.05.025-.05.05v3.123c0 .024.025.048.05.048h1.433c.025 0 .051-.024.051-.048V2.93c0-.026-.026-.05-.05-.05zm6.645-2.68h-.459c-.025 0-.05.025-.05.05v2.484c0 .107-.096.146-.197.146h-.156c-.102 0-.197-.039-.197-.146V.25c0-.024-.026-.049-.05-.049h-.46c-.025 0-.05.025-.05.05v2.635c0 .297.247.536.555.536h.56a.544.544 0 0 0 .555-.536V.25c0-.024-.025-.049-.05-.049zm6.916.541c.025 0 .05-.024.05-.048V.25c0-.024-.025-.049-.05-.049h-1.569c-.025 0-.05.025-.05.05v3.123c0 .024.025.048.05.048h1.569c.025 0 .05-.024.05-.048V2.93c0-.026-.025-.05-.05-.05h-1.06V1.96h.808c.025 0 .05-.024.05-.049v-.443c0-.024-.025-.048-.05-.048h-.807V.742h1.059zM30.663.21h-.462c-.01 0-.026.01-.037.02v.002a.037.037 0 0 0-.008.011l-.001.004v1.242L29.72.703l-.074-.45c0-.025-.026-.044-.05-.044H29c-.025 0-.05.024-.05.048v3.116c0 .025.025.049.05.049h.459c.024 0 .05-.024.05-.049V1.376c.23.479.6 1.052.646 1.165v.832c0 .025.025.049.05.049h.458c.026 0 .05-.024.05-.049V.257c0-.024-.024-.048-.05-.048zM17.387.2h-1.569c-.025 0-.05.025-.05.05v3.123c0 .024.025.048.05.048h1.57c.024 0 .05-.024.05-.048V2.93c0-.026-.026-.05-.05-.05h-1.06V1.96h.807c.026 0 .05-.024.05-.049v-.443c0-.024-.024-.048-.05-.048h-.808V.742h1.06c.025 0 .05-.024.05-.048V.25c0-.024-.025-.049-.05-.049zm3.6.97c0 .137-.126.25-.272.25h-.333V.741h.333c.151 0 .272.127.272.273v.156zm0 1.452c0 .146-.121.258-.272.258h-.333V1.96h.338c.146 0 .267.127.267.273v.39zM20.72.2h-.847c-.026 0-.051.025-.051.05v3.123c0 .024.025.048.05.048h.848c.464 0 .837-.356.837-.804v-.39c0-.19-.08-.39-.272-.536.212-.136.272-.37.272-.565V.961c0-.448-.373-.76-.837-.76zm-16.324 0H2.962c-.025 0-.05.024-.05.048v.444c0 .024.025.049.05.049h.44v2.631c0 .025.026.05.052.05h.458c.026 0 .05-.025.05-.05V.742h.434c.025 0 .05-.025.05-.05V.25c0-.024-.025-.049-.05-.049zM1.62.2H.555C.263.2 0 .438 0 .736v2.15c0 .34.293.535.555.535H1.62c.025 0 .05-.024.05-.048V2.93c0-.025-.025-.049-.05-.049H.757c-.121 0-.197-.049-.197-.146V.888C.56.78.59.742.716.742h.904c.025 0 .05-.025.05-.05V.25C1.67.225 1.645.2 1.62.2zm.939 0h-.46c-.025 0-.05.024-.05.048v3.124c0 .025.025.049.05.049h.46c.025 0 .05-.024.05-.049V.25c0-.024-.025-.049-.05-.049zm3.964 0h-.51c-.026 0-.05.019-.05.044l-.056.458L5.65 1.72 5.387.703 5.322.245C5.322.22 5.296.2 5.27.2h-.51c-.03 0-.05.025-.05.054.035.263.056.472.146.79.142.492.459 1.422.505 1.549v.78c0 .025.025.049.051.049h.459c.025 0 .05-.024.05-.048v-.781c.045-.127.373-1.033.5-1.54.09-.365.1-.467.146-.799A.044.044 0 0 0 6.523.2zm2.424 2.533c0 .107-.095.146-.195.146h-.156c-.101 0-.197-.039-.197-.146V.894c0-.111.04-.145.157-.145h.235c.117 0 .156.034.156.145v1.84zM8.953.21h-.558c-.297 0-.553.247-.553.534v2.141c0 .297.246.535.553.535h.558a.543.543 0 0 0 .553-.535V.744c0-.287-.257-.534-.553-.534zM15.13.209h-.595c-.026 0-.052.019-.052.043l-.073.45-.381 1.02-.381-1.02-.074-.45c0-.024-.026-.043-.05-.043h-.596c-.025 0-.051.024-.051.048v3.116c0 .025.026.049.05.049h.459c.025 0 .05-.024.05-.049V1.646c.146.41.306.818.336.901.009.032.036.048.05.048h.413c.015 0 .042-.016.05-.048.03-.083.19-.492.337-.901v1.727c0 .025.025.049.05.049h.458c.025 0 .051-.024.051-.049V.257c0-.024-.026-.048-.051-.048zM11.58.21h-1.562c-.025 0-.05.024-.05.048v3.113c0 .024.025.049.05.049h.456c.025 0 .05-.025.05-.05l.001-1.408h.804c.026 0 .051-.023.051-.048v-.442c0-.024-.025-.049-.05-.049h-.805V.75h1.056c.025 0 .05-.025.05-.05V.26c0-.025-.025-.049-.05-.049z" fill="#1A1918" mask="url(#apb)"/></g><path fill="#1A1918" d="M16.485 18.46l5.446-3.049v6.103l5.445 3.046 5.446-3.051V3.214L27.379.164 16.482 6.26 5.59.166.145 3.21V21.51L5.59 24.56l5.449-3.051V15.41l5.446 3.049"/></g></svg><svg width="39" height="39" viewBox="0 0 39 39" id="logo-cityofportphillip" y="1088"><title>logo-cityofportphillip</title><g fill="#000" fill-rule="evenodd" opacity=".51"><path d="M33.026 5.631l-1.95 1.845.218.24.913-.864.68.75.21-.2-.679-.749.615-.582.753.83.21-.2zM27.821 4.555a1.073 1.073 0 0 1-.535-.64.978.978 0 0 1 .112-.786c.307-.506.974-.673 1.52-.379.54.291.723.916.416 1.422a1.09 1.09 0 0 1-.664.492 1.172 1.172 0 0 1-.849-.11m1.248-2.069c-.711-.383-1.579-.173-1.975.48-.396.652-.15 1.464.562 1.847.715.386 1.586.177 1.982-.476.396-.652.145-1.465-.569-1.85M20.028.008l-.818.995-.862-.963-.411.008 1.112 1.25.028 1.413.33-.006-.028-1.413L20.439 0zM14.715.626l-2.2.69.092.272.942-.295.766 2.252.318-.099-.767-2.252.942-.296zM9.1 3.25l.353-.228 1.47 2.277-.351.228zM7.664 6.9L7.638 7c-.096.378-.217.628-.406.838-.43.48-1.062.52-1.534.096-.46-.413-.5-1.067-.092-1.52.197-.22.445-.38.779-.503l.098-.036-.272-.245-.037.016a2.26 2.26 0 0 0-.794.55 1.457 1.457 0 0 0-.372 1.043c.02.364.183.7.46.95.28.251.63.379.99.359.378-.02.736-.2 1.01-.504.21-.232.364-.534.448-.873l.01-.037-.262-.236zM1.6 15.412a.726.726 0 0 1-.536-.882.727.727 0 0 1 .882-.535.726.726 0 0 1 .535.882.726.726 0 0 1-.882.535M2.153 23.751l.108.388c.106.382.279.48.524.41.28-.082.335-.272.21-.724l-.082-.294-.76.22zm1.545.264c.213.765-.217 1.26-.664 1.389-.462.133-1.085-.047-1.3-.817l-.183-.662-1.32.38L0 23.473l3.283-.948.415 1.49zM4.728 27.84c-.325-.548-.886-.702-1.407-.386-.522.315-.654.888-.33 1.437.323.544.884.698 1.405.383.522-.316.654-.889.332-1.433m-2.329 1.408c-.623-1.056-.241-2.096.485-2.534.689-.417 1.796-.318 2.437.767.64 1.085.197 2.116-.488 2.53-.73.442-1.822.272-2.434-.763M6.75 31.862l.32.313c.166.164.396.25.59.038.173-.187.143-.398-.084-.62l-.304-.3-.521.569zm1.42-.558c.496.488.474 1.122.13 1.497-.251.275-.578.345-.975.205.13.372-.077.754-.41 1.823l-.662-.652c.232-.79.577-1.365.251-1.686l-.174-.17-.93 1.016-.603-.593 2.293-2.503 1.08 1.063zM12.832 34.873l-1.106-.59-1.37 2.423-.762-.406 1.37-2.422-1.106-.59.308-.545 2.974 1.587zM17.726 36.969l.404.033c.399.033.554-.098.576-.357.025-.295-.135-.416-.606-.455l-.307-.026-.067.805zm.807-1.385c.797.067 1.109.652 1.069 1.126-.041.488-.436 1.02-1.239.952l-.69-.057L17.554 39l-.87-.073.293-3.472 1.555.13zM25.028 38.342l-.825.164-.268-1.337-1.65.33.268 1.336-.826.165-.662-3.304.826-.165.265 1.327 1.651-.329-.265-1.327.825-.165zM26.227 34.128l.753-.359 1.437 3.012-.753.36zM32.954 33.88l-2.049 1.575-2.123-2.614.67-.515 1.734 2.135 1.378-1.06zM36.082 30.352l-1.656 1.974-2.724-2.066.542-.645 2.224 1.687 1.115-1.328zM37.334 28.05l-.391.73-2.946-1.563.391-.73zM36.647 24.338l.11-.367c.106-.362.009-.53-.239-.596-.281-.077-.429.05-.555.476l-.083.28.767.207zm-1.19-.994c.215-.725.84-.907 1.292-.785.466.127.907.587.691 1.316l-.186.627 1.331.36-.233.79-3.313-.896.418-1.412zM37.056 13.995a.726.726 0 0 1 .882.535.726.726 0 0 1-.535.882.726.726 0 0 1-.882-.535.726.726 0 0 1 .535-.882M17.29 23.358c-2.793-.619-4.675-5.575-11.165-2.804a12.9 12.9 0 0 1-.077-1.508c0-6.224 4.2-11.458 9.9-12.998.509.396 1.053 1.02.93 2.223-3.125-.082-4.222 1.334-4.222 1.334s1.927.24 2.462.78c-3.476.167-3.683 3.416-3.683 3.416s2.525-1.953 4.2-1.25c-2.68.669-2.834 3.249-2.834 3.249s1.922-1.98 3.412-1.486c-2.253 1.86-1.38 4.298-1.38 4.298 1.032-2.373 2.197-2.813 2.387-2.222-.855 2.157.258 3.593.07 6.968zm-7.137-8.668c-1.716 1.728-2.047 3.928-2.047 3.928s1.332-.491 2.55.054c0 0-.807-.75-.503-3.982z"/><path d="M6.883 24.072c1.955 5.071 6.87 8.671 12.628 8.671 6.502 0 11.932-4.59 13.234-10.707l-1.869-1.5-2.85 2.287-2.85-2.286-2.864 2.297-2.801-2.395v7.646c-6.452 0-7.592-6.638-12.628-4.013zM21.8 27.876a.612.612 0 1 0-.001-1.225.612.612 0 0 0 0 1.225zm2.86 0a.612.612 0 1 0-.002-1.223.612.612 0 0 0 .001 1.223zm2.86 0a.612.612 0 1 0 0-1.223.612.612 0 0 0 0 1.223z"/><path d="M18.563 25.146c-4.722.029-5.811-6.332-12.306-3.228.12.63.246 1.023.246 1.023 5.652-2.65 7.015 3.32 12.06 3.963v-1.758zM31.01 17.495V14.93l-2.451.003v-2.55h-2.493v-1.127h4.567a13.558 13.558 0 0 0-11.019-5.625c-1.08 0-2.13.13-3.137.367 1 .307 2.09.536 2.713 2.113 2.689-1.265 4.481.141 4.481.141s-2.484.469-2.568 1.718c2.81-.917 3.669 1.186 3.669 1.186s-2.415-.595-3.145.688c2.516.25 2.893 2.685 2.893 2.685s-2.217-1.53-3.774-.25c3.02.937 2.642 3.603 2.642 3.603s-2.718-2.964-3.654-1.382c.267 1.146.153 2.383.153 2.383l2.558 2.171 2.84-2.262 2.854 2.272 2.854-2.272 2.1 1.672a13.586 13.586 0 0 0-.026-2.97H31.01zm-4.938-3.622h.99v1.054h-.99v-1.054zm2.508 2.566h.99v1.053h-.99V16.44z"/></g></svg><svg width="41" height="26" viewBox="0 0 41 26" id="logo-parksvictoria" y="1127"><title>logo-parksvictoria</title><g fill="#000" fill-rule="evenodd" opacity=".51"><path d="M32.38 6.261V8.08l-3.615-2.272L25.1 8.079l-3.614-2.272-3.614 2.272V6.26l3.614-2.222L25.1 6.261l3.665-2.222z"/><path d="M25.02 2.25v1.79l-3.652-2.25-3.601 2.25-3.602-2.25-3.652 2.25.05-1.79L14.166 0l3.602 2.25L21.368 0zM10.723 22.323l1.164 2.764h.405l1.164-2.764h-.405l-.961 2.392-.962-2.392zM14.087 22.323v2.764h.418v-2.764zM16.79 24.874h.248l.249-.051.199-.102.198-.154.15-.154.099-.204.1-.205.05-.205h-.399v.154l-.099.153-.05.103-.149.102-.1.102-.148.051-.199.052h-.398l-.199-.052-.198-.102-.15-.102-.099-.154-.099-.153-.05-.205v-.512l.05-.204.1-.154.099-.153.149-.103.198-.102.2-.051h.398l.148.05.15.052.148.051.1.103.05.102.099.153.05.154h.347l-.05-.205-.049-.204-.149-.205-.15-.154-.148-.102-.249-.102-.199-.052h-.248l-.348.052-.249.05-.248.103-.199.154-.198.204-.1.256-.05.256-.05.307.05.307.05.256.1.256.198.205.2.153.247.102.249.103zM19.831 25.087v-2.392h.984v-.372h-2.312v.372h.984v2.392zM28.385 22.323v2.764h.417v-2.764zM17.451 11.315v9.094h1.652V15.63l.051-.365.052-.311.103-.312.155-.26.103-.312.207-.208.206-.26.206-.208.207-.155.206-.156.258-.104.258-.104.259-.052.309-.052.258-.052h.155l.103.052h.31l.155.052h.154l.155.052.155.052v-1.767h-.103l-.052-.052h-.103l-.103-.052h-.878l-.206.052-.206.052-.258.052-.207.104-.258.052-.206.156-.207.104-.206.104-.155.155-.206.208-.207.156-.155.208-.154.208-.155.208v-1.56zM23.759 11.055v9.354h1.634v-3.274l1.635-1.351 3.73 4.625H32.8l-4.546-5.612 4.24-3.482h-2.4l-4.7 4.002v-4.262z"/><path d="M33.946 17.348h-1.777l.05.41.102.357.102.358.152.307.152.307.203.307.203.205.305.204.254.205.304.154.356.153.355.102.457.103.406.05.507.052H37.092l.508-.051.456-.051.406-.103.406-.102.356-.153.355-.154.304-.153.254-.205.254-.204.203-.256.152-.256.102-.256.101-.307.051-.358V17.4l-.05-.256-.052-.256-.05-.204-.102-.205-.101-.205-.153-.153-.152-.154-.203-.153-.203-.103-.254-.102-.253-.102-.254-.102-.355-.102-.305-.052-.355-.051-1.929-.358-.456-.052-.406-.102-.356-.102-.304-.102-.203-.154-.152-.204-.102-.205-.05-.307.05-.256.102-.256.203-.204.253-.154.305-.153.406-.103.457-.05.558-.052h.304l.254.051h.254l.254.051.203.103.203.05.203.052.152.102.152.103.152.102.102.154.101.153.102.154.05.153.051.205.051.204h1.523v-.409l-.051-.307-.05-.307-.153-.256-.152-.307-.153-.204-.203-.256-.253-.205-.254-.153-.305-.154-.355-.153-.355-.102-.406-.052-.406-.05-.457-.052h-.964l-.457.051-.406.051-.406.052-.355.102-.305.153-.304.154-.254.153-.254.205-.203.205-.203.255-.152.256-.102.256-.05.307-.051.307-.05.358.05.256v.255l.101.256.051.256.152.154.102.205.152.153.203.153.203.102.254.103.254.153.254.052.304.102.355.102.356.051.355.052 2.03.358.355.102.355.051.254.103.203.153.203.102.102.154.101.204V17.962l-.05.153-.051.102-.051.154-.102.102-.152.102-.152.154-.152.051-.153.103-.253.05-.203.103-.254.051-.254.051h-.304l-.305.052h-.609l-.254-.052-.253-.051-.254-.05-.254-.052-.203-.102-.152-.103-.203-.102-.152-.103-.153-.153-.101-.102-.102-.205-.101-.153-.051-.205-.05-.205zM22.944 22.11l-.362.052-.258.05-.258.103-.207.153-.155.205-.155.256-.051.256-.052.307.052.307.051.256.155.256.155.205.207.153.258.102.258.103H23.254l.258-.103.258-.102.207-.153.206-.205.104-.256.051-.256.052-.307-.052-.307-.051-.256-.104-.256-.206-.205-.207-.153-.258-.102-.259-.051-.31-.052zm0 2.406h-.259l-.206-.052-.207-.102-.155-.103-.103-.153-.103-.153-.052-.205v-.512l.052-.205.103-.153.103-.154.155-.102.207-.102.206-.052H23.15l.259.052.154.102.155.102.104.154.103.153.052.205v.512l-.052.205-.103.153-.104.153-.155.103-.154.102-.259.052h-.206zM10.212 12.659h.051c.58-.112 1.058-.185 1.548-.179 1.115.015 2.091.219 2.09 1.36-.002.75-.58 1.08-1.435 1.08-.653.13-1.34.143-2.007.222-1.1.13-2.34.23-3.119 1.067-.456.49-.612 1.04-.612 1.691 0 .914.266 1.401.855 1.928.718.642 1.753.776 2.698.793 1.325.024 2.889-.596 3.67-1.642.263.922.567 1.388 1.589 1.388.433 0 .853-.052 1.28-.052V18.98c-.318.06-.538.078-.718.005-.517-.21-.562-.888-.562-1.29v-3.597c0-.701-.084-1.328-.513-1.901-.624-.783-1.597-.98-2.561-1.08-.7-.07-1.4-.092-2.1 0 0 .516.08 1.073-.154 1.543zm1.486 3.648c.468 0 1.87-.231 2.203-.565v1.388c0 .86-.73 1.393-1.435 1.747-.625.25-1.326.36-1.998.36-1.042-.117-1.998-.196-1.998-1.388 0-.731.476-1.113 1.332-1.285.576-.077 1.328-.143 1.896-.257z"/><path d="M0 7.654v12.968h1.924v-5.844h3.057c2.46 0 4.69-.63 4.69-3.536 0-2.953-2.192-3.588-4.709-3.588H0zm4.37 5.69H1.924V9.14h2.942c1.57 0 3.084.286 3.084 2.153 0 2.1-1.99 2.05-3.58 2.05zM25.02 22.323v2.764h.345v-1.17h1.23l.05.053.098.054.05.053v.106l.048.053v.16l.05.425v.212l.049.054h.393l-.049-.106v-.16l-.05-.106v-.426l-.048-.106v-.106l-.05-.107v-.053l-.049-.053-.098-.053-.05-.053h-.098l.099-.053.098-.053.05-.054.048-.106.05-.053.049-.107.05-.106v-.16l-.05-.158-.05-.16-.049-.106-.098-.106-.148-.107-.147-.053-.148-.053h-1.574zm.345.319h.984l.148.053h.148l.098.053.098.053.05.107v.424l-.05.107h-.098l-.098.053-.099.053H25.365v-.903zM30.629 22.323l-1.193 2.764h.348l.348-.798h1.342l.298.798h.397l-1.143-2.764h-.397zm.695 1.594h-1.043l.546-1.169.497 1.17z"/></g></svg><svg width="53" height="25" viewBox="0 0 53 25" id="logo-tac" y="1153"><title>logo-tac</title><g fill="#231F1F" fill-rule="evenodd" opacity=".51"><path d="M38.87 15.098c0 2.461 2.007 4.456 4.484 4.456a4.486 4.486 0 0 0 4.131-2.722l5.05 2.12A9.967 9.967 0 0 1 43.354 25c-5.504 0-9.965-4.433-9.965-9.902v.128c0-5.47 4.46-9.902 9.965-9.902a9.969 9.969 0 0 1 9.181 6.047l-5.05 2.12a4.486 4.486 0 0 0-4.131-2.721c-2.477 0-4.484 1.995-4.484 4.456v-.128M5.93 24.306V12.142H0V6.25h17.979v5.892h-5.93v12.164zM24.101 10.915l3.9 7.843h-7.76l3.86-7.843zm0-10.915l-11.96 24.306h24.05L24.1 0zm-3.936 18.75l3.797-7.802 2.656-5.458-1.334-2.712-7.772 15.972h2.653z"/></g></svg><svg width="39" height="37" viewBox="0 0 39 37" id="logo-theuniversityofmelbourne" y="1178"><title>logo-theuniversityofmelbourne</title><g fill="none" fill-rule="evenodd" opacity=".51"><path d="M27.92 18.973c1.123-1.252 1.779-3.338 1.779-5.378l-.094-1.206-.14-1.345-.188-1.252-.187-1.206c-.047-.37-.093-.788-.047-1.159-.046-1.066.234-2.087 1.17-2.782l-.468-.603c.421-.37.609-.742.375-.834.14-.093 1.778-1.948.234-1.113.327-.186.561-.742.655-1.113-.608.092-.843.185-1.45.37l-1.452.557L26.704.054c-.094.14-.188.232-.281.325-.562.51-1.404.51-2.153.417L22.866.564 21.743.425A13.215 13.215 0 0 0 18.42.286l-1.31.14-1.591.277c-.983.14-2.34.325-2.949-.695l-1.544 1.948c-.187-.047-.468-.14-.795-.186-.047.186.14.51.374.788l-.234.325-1.31 1.716c1.216.88 1.216 2.41 1.076 3.756l-.374 2.272-.14 1.205c-.094.696-.141 1.438-.094 2.18.093 3.802 2.386 6.677 5.943 7.883l.749.278c1.17.51 2.34.974 3.322 1.948.047-.047.094-.047.094-.093 1.17-1.067 2.574-1.577 3.978-2.087 2.667-.927 3.603-2.087 4.305-2.968z" fill="#000"/><path d="M14.536.982l.468-.093L17.11.564l1.404-.139c1.357-.139 2.76.047 4.024.232l1.872.325c.796.046 1.638 0 2.2-.557l.094-.139 1.263 1.67c-.187.046-.468.139-.655.231h-.047l-.655-.88c-.655.37-1.404.417-2.2.37l-1.076-.185-1.357-.232-1.45-.14c-.843-.092-1.732-.046-2.575.047l-1.17.186-2.012.278c-.749.046-1.498-.046-2.106-.371l-.749.974a4.129 4.129 0 0 1-.702-.232L12.57.24c.468.649 1.217.695 1.966.742z" fill="#FFF"/><path d="M14.536.982l.468-.093L17.11.564l1.404-.139c1.14-.117 2.206-.035 4.024.232l1.872.325c1.03.06 1.714-.076 2.2-.557l.094-.139 1.263 1.67c-.21.051-.483.146-.655.231h-.047l-.655-.88c-.585.33-1.256.425-2.2.37l-1.076-.185-1.357-.232-1.45-.14c-.76-.083-1.597-.06-2.575.047l-1.17.185-2.012.279c-.813.05-1.537-.067-2.106-.371l-.749.974c-.195-.04-.354-.094-.702-.232L12.57.24c.39.54.843.672 1.966.742zm0 0C13.413.911 12.961.78 12.57.24l-1.357 1.762c.348.138.507.193.702.232l.75-.974c.568.304 1.292.421 2.105.371l2.012-.278 1.17-.186c.978-.107 1.814-.13 2.574-.046l1.45.139 1.358.232 1.076.185c.944.056 1.615-.04 2.2-.37l.655.88h.047c.172-.085.445-.18.655-.231L26.704.286l-.094.14c-.486.48-1.17.616-2.2.555L22.54.657C20.72.39 19.655.308 18.514.425l-1.404.14-2.106.324-.468.092z"/><path d="M30.868 1.12c-.327.743-.608.975-1.076 1.114l-2.059.649c-.328.093-.655.325-1.03.463-1.403-.51-2.48-.092-2.948.047-.655.232-1.17.556-1.731.974a.258.258 0 0 0-.234-.14c.093.093.187.325.234.418.046 0 .28-.14.468 0 .187.186-.047.371-.14.556.233-.185.42-.278.654-.185.235.185-.093.464-.187.603.187 0 .375-.186.609-.047.093.186-.14.279-.328.371.187 0 .421.093.562.232-.234.14-.515 0-.796-.046-.515-.14-.655-.325-1.17-.464-.14-.046-.374-.093-.515-.046-.093-.047-.234-.047-.327-.047.749-.232.561-1.113.889-1.669.374-.65 1.123-.788 1.778-.88.89-.14 1.825-.094 2.62-.326l.703-.185 1.123-.417 1.591-.557c.421-.139.843-.324 1.31-.417z" fill="#FFF"/><path d="M30.915 2.002c-.14.278-.561.88-.889 1.066-.561.325-1.263.464-1.965.557-.468.092-.562 0-1.03-.047l-.28-.046c1.076-.556 2.012-.788 3.228-1.113.609-.232.702-.324.936-.417zM30.026 3.486c-.047.139-.234.417-.374.556-.234.186-.328.278-.983.417-.515.047-1.45.14-1.544-.046.702-.278.702-.51.842-.603.561-.046 1.123-.139 2.012-.464.094-.046.14.047.047.14zM26.189 3.393c.327.093.561.185.42.232-1.169.232-1.824.37-3.837 1.159.047-.046-.093-.232-.14-.278-.047-.047-.327-.093-.421-.093 1.404-.742 2.012-1.16 3.556-1.113.094 0 .281.046.422.093zM20.152 3.115c-.281-.093-.562 0-.749.046-.187.047-.421.185-.515.325.328.092.702.046 1.03.092.187.047.327.232.514.14.14-.14.14-.186.14-.279-.046-.046-.14-.231-.42-.324zM27.593 3.903c0 .14-.375.232-.422.325-.467.231-.514.37-1.03.463l-1.403.371c-.374.093-.89.232-1.497.325.14-.232.187-.418-.047-.556l2.48-.789c.795-.232 1.45-.417 1.919-.139zM20.011 3.717c.14.047.421.325.515.51.047.093 0 .232-.094.279-.093.046-.14.14-.187.185.047-.092 0-.139-.046-.185-.047-.047-.14-.14-.188-.232-.28 0-.795 0-.795-.232.047-.046.421 0 .514 0 .14 0 .281 0 .422.093h-.094c.047.093.14.14.234.093.047 0 .047-.093.047-.14-.047-.092-.187-.092-.328-.139h-.889c-.093-.046-.28-.278-.374-.324 0-.047.047-.047.093-.047.328.093.796.093 1.17.14M13.46 3.903c.748.232.795.464.982.974l-1.31-.093c-1.591-.185-2.153-1.438-2.433-2.04 1.076.788 2.34 1.113 2.76 1.16z" fill="#FFF"/><path d="M29.558 4.367c-.374.51-.749.788-1.263.927-.281.046-.515.186-.843 0-.608-.37-.889-.603-.561-.695 1.076.232 2.199-.047 2.667-.232zM14.676 5.387l.188.185H13.46c-.422 0-1.124-.51-1.357-.788a5.923 5.923 0 0 0 1.404.232c.467.046.842-.047 1.17.37zM16.314 5.572c-.046.093.14.279-.093.186-.609 0-1.357-.186-1.685-.742.234 0 .421 0 .562.046.468.186.795.278 1.216.51z" fill="#FFF"/><path d="M27.452 5.572c-.093.232-.327.232-.515.279 0-.047-.046-.14-.233-.14-.14 0-.235.047-.328.047.047-.047.093-.186.047-.278 0 0-.047-.047-.094-.047s-.094.093-.187.093c-.187.093-.468.14-.655.37l-1.077.14c-.234 0-.702 0-.889-.14 0 0 .281-.138.14-.37l1.92-.464c1.17-.37.982-.278 1.403.186l.468.324" fill="#FFF"/><path d="M26.33 5.619c0 .185-.235.232-.328.37l-.094.093c.094 0 .187-.046.28-.139.141-.046.656-.139.656-.046 0 .093-.094.232-.187.278-.281.14-.655.325-1.03.232-.234 0-.421.093-.608.14l-1.03.277c-.374.093-.795.186-1.17.047-.561-.093-1.123-.232-1.731-.232-.094.046-.187.093-.234.139.093 0 .187-.046.234 0-.047.185-.047.417-.187.556-.047 0-.047-.046-.047-.092-.094-.464-.328-1.113.187-1.484.234-.047.515.046.749.139.42.278.982.324 1.497.51.187-.046.421-.093.609-.14l1.497-.185c.234.047.28-.278.515-.324.14 0 .234-.093.374-.186 0 0 .047 0 .047.047M28.716 5.248c-.328 1.02-1.076.834-1.404.649.374-.14.374-.325.374-.325.515 0 .749-.139 1.03-.324zM16.033 5.99c-.14.046-.14.092-.093.185 0 .046.093.093.093.093-.093.046-.093.324-.233.232-.422-.232-.75-.371-1.264-.371-.28-.047-.89-.232-1.123-.371.515 0 .702.046.936.046.327 0 .561-.093.561-.093.421.047.702.14 1.123.279z" fill="#FFF"/><path d="M14.162 6.268c.046-.047.234-.093.42-.047.328.047.516.093.796.279.468.139.89.51 1.404.649.047-.046-.047-.093-.093-.093.327-.232.655-.464 1.03-.603.233-.278.56-.556.935-.51l.047.093c.047.232-.187.417-.187.696l-.468.185-1.217.696c-.327.278-.468 0-.796-.232-.374-.186-.748-.371-1.076-.696 0 0 .094 0 .047-.046-.14 0-.28.093-.468.139-.047 0-.187.046-.234 0l.047-.046c.094-.047.094-.186.28-.232-.14-.14-.374-.186-.514-.186l.047-.046zM27.733 6.36c-.187.372-.936.14-1.03.279-.046.093.328.046.468.278-.374.278-1.31-.14-1.45 0-.14.093.28.093.374.278-.562.279-.842.047-1.404-.139-.093-.046-.093 0-.187-.046.047.232.234.139.327.324-.374.093-.655-.139-.935-.324.561-.14 1.076-.418 1.637-.51.515.092 1.124-.093 1.358-.371.093-.14.187-.093.234-.093 0 0 .561.14.608.325zM23.1 7.149c.28 0 .468-.093.702-.14.14.094.047.372-.094.372.047.139.188.324.14.51-.093-.047-.514-.232-.514-.232.094.185.234.464.187.65-.14-.14-.468-.14-.608-.233.047.232.234.557 0 .789-.187-.14-.281-.325-.468-.51.047.231.093.602-.047.788-.093-.14-.562-.278-.515-.417-.047-.047-.187.463-.327.51-.14-.186-.281-.464-.515-.603.047-.047.14-.047.14-.14-.14-.185-.327-.185-.514-.324-.235-.093.046-.232.046-.232.328-.139.375-.51.421-.834.14-.279.515-.186.796-.186.375.046.796.14 1.17.232zM18.233 7.103c0 .092-.094.139-.14.231-.094.232 0 .464.234.603.093.093.187.14.28.232-.327.232-.514.65-.561.742-.094-.14-.14-.37-.14-.556-.094.092-.281.185-.375.185-.047-.093.094-.325.094-.417 0 0-.328 0-.422.046-.046-.185.094-.278.188-.37-.047-.094-.375-.047-.421-.094.327-.185.842-.463 1.17-.602h.093z" fill="#FFF"/><path d="M20.292 8.262c-.14-.093-.515-.14-.655-.093-.328 0-.702-.046-.983.093h.047l-.094.046c-.093.093-.046.093-.14.186 0 .046-.234.324-.187.37-.047.093-.094.186-.094.233.094.139.187.092.28.139-.093-.093-.093-.14-.093-.186-.046-.139.188-.464.281-.603.047-.046.094-.092.14-.092h.047c-.14.185-.234.37-.327.556 0 .093 0 .14.047.232.046.046.28.046.374.046-.047-.185.094-.278 0-.51.047 0 .094 0 .14.047.047.231-.093.37.094.556.234.093.328-.093.515-.185.046-.279 0-.557-.047-.789.14.047.187.464.28.557.094.046.141 0 .188-.047.187-.185 0-.417-.14-.603.046 0 .187 0 .28.232.14.279 0 .232.094.371.047-.046.28-.046.328-.046.234-.186.14-.232.28-.278a3.675 3.675 0 0 0-.655-.232M18.327 12.899l.655.927c.28.557.655 1.113.983 1.623.187.371.42.65.655 1.067.28.278.374.324.514.556-.42.278-.327.742-.748.974 0 0-1.17.37-1.591-.186-.328-.51-.515-1.437-.375-2.133.234.418.609.928.843 1.067l.046-.046a9.784 9.784 0 0 0-.982-1.438c-.328-.463-.188-1.16-.281-1.715 0 0 .047 0 .047-.047.093.047.093.185.14.232a.625.625 0 0 0 .374.325l-.187-.372-.374-.927c-.047-.139-.234-.464-.094-.51l.375.603zM24.738 18.973c.093.14.14.232.14.418-.047.092-.047.139-.14.185-.328-.139-.795-.139-.749-.603 0 0 .375-.602.749 0z" fill="#FFF"/><path d="M22.913 11.693c.28.371.561.696.561.696-.093-.093-.468-.186-1.03-.835-.14-.185-.374-.464-.42-.417-.047.093.14.232.187.278 0 0 .702.927.561.927-.093 0-.467-.37-.702-.741-.28-.418-.748-1.113-.842-1.623 0 0 .796 1.02.983 1.112 0 0-.562-.88-.655-1.159-.094-.278-.422-1.02-.655-1.252 0 0 .046.093-.234.232-.235.093-.281-.046-.562.046-.234.093-.187.14-.328.279-.187.139-.561.417-.795.046 0 0-.328.232-.609.093 0 0-.514 1.623-.42 1.994 0 0 .186-.186.374-.093.14.093.28-.186.514-.093.188.093-.093.603 0 .65.094.092.188-.14.375-.047.187.093.047.371.234.371.14 0-.047-.835.187-.835 0 0 0 .557.234.696 0 0-.28-1.252.14-2.272 0 0-.093 1.484.047 2.086 0 0 .234-.556.562-.324.28.185 0 .603.14.649.187.046.468-.232.562-.325.14-.092.28-.139.374 0 .14.325-.187.232-.14.418.093.185.234.092.42.185.282.14-.467.278-.14.464.234.185.75.232 1.17.185 0 0 .796.325 1.077.51-.047-.139-.187-.232-.187-.417a.801.801 0 0 1 .514.65c.047 0 .14 0 .188-.14.046-.232-.094-.417.093-.556.14-.093.328-.093.468-.093-.421-.278-2.012-1.252-2.246-1.345zM20.526 5.572c-.42-.139-.28-.603-.327-.927 0-.046-.094-.093-.14-.046-.141 0-.282.185-.375.046.046 0 .14 0 .187-.046.047-.047.094-.093.094-.186-.047-.046-.094-.046-.14-.046 0 .046-.048.046-.048.092-.14 0-.234-.139-.42-.092-.094 0-.141-.093-.188-.14-.047-.185-.28-.324-.421-.463-.094.14-.14.232-.14.37 0 .094.187.047.233.094.14.046-.093.139-.093.185-.047 0-.047-.046 0-.093.047-.046-.047-.046-.094-.092 0 .185-.093.324-.093.463l.14.047c.047.046 0 .093 0 .139a.145.145 0 0 0 .094.046h.046c0 .046-.046.046-.046.046h-.047c0 .047 0 .093.093.093.047.047-.046.186.047.232.328 0 .515-.232.749-.417-.047.139-.234.232-.28.37-.048.14 0 .325-.094.464-.047.186-.328.093-.375.279 0 .185-.093.417.094.556.28 0 .515-.046.748-.185.375-.14.656-.51.983-.742-.093 0-.14 0-.187-.047" fill="#FFF"/><path d="M22.632 21.431c-1.076.371-2.153.881-3.089 1.577-.936-.696-1.965-1.206-3.041-1.623-4.072-1.206-6.318-4.915-6.131-7.79v-1.206l.187-1.252.374-2.272.094-.789c.047-1.252 0-2.643-.889-3.57l.795-1.02s-.233-.232-.374-.65c-.421.51-.936 1.206-1.31 1.716.374.325.655.696.795 1.113.328.881.328 1.994.188 2.968l-.281 1.716-.187 1.298c-.094.835-.14 1.762-.094 2.597.094 2.55 1.591 6.167 5.99 7.558 1.357.51 2.714 1.067 3.884 2.087.843-.742 1.779-1.206 2.762-1.623l1.17-.418c4.726-1.576 6.13-5.425 6.083-8.3l-.047-1.252-.14-1.066-.374-2.412a7.22 7.22 0 0 1 0-2.457c.046-.279.28-1.16 1.03-1.716-.375-.603-.048-.232-1.03.51 0 0-.094.556-.655.974-.188.788-.235 1.855-.047 2.69l.233 1.483.188 1.206c.093.834.14 1.716.093 2.597-.046 2.365-1.497 5.981-6.177 7.326z" fill="#FFF"/><path d="M1.339 28.99v.788c.047.093.047.185.14.185h.188v.047h-.89s0-.047.047-.047h.094c.047 0 .093-.092.093-.185.047-.14.047-.417.047-.788v-1.484H.497c-.234 0-.281.046-.375.092 0 .093-.047.093-.047.14 0 0 0 .046-.046.046v-.046c0-.047.093-.325.093-.371v-.093c.047 0 .094.046.187.046.094.047.234.047.281.047h1.357c.187 0 .281-.047.328-.047V27.784c-.047 0-.047 0-.047-.046v-.047c0-.093-.094-.185-.42-.185h-.469v1.484M4.99 28.99c0 .37 0 .649.046.788 0 .093 0 .185.14.185h.14l.048.047h-.936s0-.047.046-.047h.094c.094 0 .094-.092.094-.185.046-.14.046-.417.046-.788v-.371H3.117v.37c0 .372 0 .65.047.789 0 .093 0 .185.14.185h.14c.048 0 .048.047.048.047H2.556l.047-.047h.093c.094 0 .094-.092.14-.185v-2.18c0-.092-.046-.185-.14-.185h-.14l-.047-.046h.889s0 .046-.047.046h-.093c-.094 0-.094.093-.094.185-.047.14-.047.232-.047.789v.046c0 .046.047.046.047.046h1.498c.046 0 .046 0 .046-.046V27.598c-.046-.092-.046-.185-.187-.185h-.093c-.047 0-.047-.046-.047-.046H5.27l-.047.046H5.13c-.094 0-.14.093-.14.185v1.392M6.066 28.387v-.789c0-.092-.047-.185-.188-.185h-.093c-.047 0-.047-.046-.047-.046h1.31c.047 0 .094-.047.14-.047h.047v.186c0 .046-.046.185-.046.232v.046c-.047 0-.047 0-.047-.046v-.14c-.047-.046-.094-.092-.28-.092h-.515v.973c0 .047 0 .047.046.047h.562c.093 0 .14 0 .14-.047.047-.046.047-.046.094-.046v.046s0 .047-.047.186v.278h-.047v-.139c-.047-.046-.047-.093-.187-.139h-.561v.927c0 .279.093.325.42.325.094 0 .235 0 .328-.046.094-.047.14-.14.187-.279 0-.046 0-.046.047-.046v.046c0 .047-.047.279-.047.371 0 .093-.047.093-.187.093-.562 0-.795-.046-.89-.046H5.786s0-.047.047-.047h.093c.094 0 .094-.092.094-.185.047-.14.047-.417.047-.788v-.603M9.201 28.387v-.789c0-.092-.047-.185-.187-.185H8.92l-.047-.046h.89s0 .046-.047.046h-.047c-.14 0-.14.093-.14.185v1.252c0 .51.093.742.234.882a.745.745 0 0 0 .561.231c.234 0 .421-.139.562-.278.14-.185.187-.51.187-.88v-1.207c0-.092-.047-.185-.14-.185h-.14v-.046h.795l-.047.046h-.094c-.093 0-.14.093-.14.185v1.159c0 .372-.047.79-.328 1.067-.234.232-.514.232-.748.232-.094 0-.468 0-.702-.232-.188-.185-.328-.417-.328-.927v-.51M12.477 29.546c0 .278.047.371.14.417h.187v.047h-.842c0-.047.047-.047.047-.047h.14c.094-.046.094-.139.094-.463v-2.04c0-.14.047-.186.047-.186.046 0 .093.093.14.139.047.046.562.65 1.123 1.206.375.37.749.834.89.927l-.047-1.808c0-.232-.047-.279-.14-.325h-.188l-.047-.046h.843l-.047.046h-.094c-.093 0-.14.093-.14.325v2.086c0 .232 0 .232-.047.232l-.234-.232a26.957 26.957 0 0 1-.936-.974c-.421-.417-.842-.88-.936-1.02l.047 1.716M15.987 28.99c0 .37 0 .649.046.788 0 .093 0 .185.14.185h.141l.047.047h-.936s0-.047.047-.047h.094c.093 0 .093-.092.093-.185.047-.14.047-.417.047-.788v-1.392c-.047-.092-.047-.185-.14-.185h-.094c-.047 0-.047-.046-.047-.046h.843l-.047.046h-.094c-.094 0-.094.093-.14.185v1.392M18.046 29.592c.187-.463.702-1.715.749-1.947.046-.093.046-.14.046-.14 0-.046 0-.092-.046-.092h-.14s-.048 0-.048-.046H19.403l-.047.046c-.047 0-.093 0-.187.046-.047 0-.094.093-.187.325-.047.093-.234.51-.421.927-.188.557-.375.928-.422 1.113-.14.186-.14.232-.187.232-.047 0-.047-.046-.093-.185l-.89-2.18c-.093-.185-.14-.232-.28-.278h-.14v-.046h.935s0 .046-.047.046h-.14c-.047 0-.047.046-.047.093 0 .046.047.139.094.278l.702 1.808M19.918 28.387v-.789c0-.092-.047-.185-.14-.185h-.141v-.046h1.264c.046 0 .14-.047.14-.047h.047c.046 0 .046 0 .046.047 0 0-.046.046-.046.139v.232c0 .046-.047.046-.047.046s-.047 0-.047-.046v-.14c-.047-.046-.047-.092-.234-.092h-.515v1.02h.562c.094 0 .14 0 .187-.047 0-.046.047-.046.047-.046V28.665c0 .046-.047.185-.047.232v.046h-.047v-.139c0-.046-.046-.093-.187-.139h-.515v.927c0 .279.047.325.375.325.093 0 .28 0 .374-.046.094-.047.14-.14.14-.279 0-.046.047-.046.047-.046v.046c0 .047 0 .279-.047.371 0 .093-.046.093-.187.093-.515 0-.748-.046-.889-.046h-.374v-.047h.14c.047 0 .094-.092.094-.185v-1.391M22.305 27.506s.046 0 .046-.047h.234c.375 0 .609.279.609.696 0 .278-.094.464-.188.556-.093.047-.187.093-.28.093-.14 0-.328-.046-.375-.093 0 0-.046 0-.046-.046v-1.16zm-.281 1.484v.788c0 .093-.047.185-.094.185h-.14v.047H22.679s0-.047-.047-.047h-.14c-.094 0-.14-.092-.14-.185-.047-.14-.047-.417-.047-.788v-.093h.514c.094.093.281.324.422.556.187.232.327.418.467.51.094.047.188.047.375.047h.374l-.047-.047h-.14c-.094 0-.234-.046-.421-.231-.234-.232-.468-.557-.749-.928.28-.278.421-.557.421-.835 0-.231-.187-.417-.234-.463-.187-.14-.468-.14-.655-.14h-.889v.047h.14c.094 0 .14.093.14.185v1.392zM24.598 29.963c-.047 0-.047 0-.047-.092 0-.186.047-.325.047-.418v-.046c.046 0 .046 0 .046.046v.14c.047.278.281.37.515.37.374 0 .515-.278.515-.51 0-.232-.094-.37-.421-.603l-.14-.139c-.375-.324-.469-.556-.469-.788 0-.37.281-.65.75-.65.14 0 .233.047.327.047.093.047.093.047.14.047V27.83c-.047 0-.047 0-.047-.046s0-.14-.047-.186c0-.046-.093-.185-.467-.185-.234 0-.422.14-.422.417 0 .186.094.325.422.603l.14.093c.421.324.515.51.515.835a.716.716 0 0 1-.328.556c-.14.14-.327.14-.515.14-.187 0-.327 0-.514-.094M27.125 28.99v.788c0 .093.046.185.14.185h.187v.047h-.889v-.047h.14c.047 0 .094-.092.094-.185v-2.18c0-.092-.047-.185-.093-.185h-.14v-.046h.795v.046h-.094c-.094 0-.14.093-.14.185v1.392M29.09 28.99v.788c0 .093.047.185.14.185h.188v.047h-.89v-.047h.14c.048 0 .095-.092.095-.185V27.506h-.515c-.234 0-.328.046-.375.092-.046.093-.046.093-.046.14 0 0 0 .046-.047.046v-.046c0-.047.047-.325.093-.371v-.093c.047 0 .094.046.188.046.093.047.234.047.28.047h1.31c.235 0 .328-.047.375-.047V27.784c-.047 0-.047 0-.047-.046v-.047c0-.093-.093-.185-.468-.185h-.421v1.484M31.336 29.129c0-.232-.046-.279-.093-.371 0-.093-.468-.881-.609-1.02a1.777 1.777 0 0 0-.233-.279c-.047-.046-.14-.046-.188-.046v-.046h.749s-.047 0-.094.046l-.046.046c0 .047.046.093.046.14.094.092.609 1.02.702 1.112.047-.139.515-.927.562-1.02.047-.093.094-.139.094-.185 0-.047-.047-.093-.094-.093l-.047-.046H32.787l-.047.046c-.046 0-.093 0-.187.046l-.187.186c-.094.139-.608.974-.655 1.113-.047.139-.047.232-.047.37v.649c0 .094.047.186.14.186h.14c.048 0 .048.047.048.047h-.889v-.047h.093c.094 0 .14-.092.14-.185v-.649M34.378 28.572c0-.742.468-1.16 1.03-1.16.561 0 1.123.465 1.123 1.3 0 1.066-.702 1.251-.983 1.251-.655 0-1.17-.556-1.17-1.39zm-.327.093c0 .649.42 1.391 1.357 1.391.889 0 1.45-.65 1.45-1.437 0-.835-.608-1.345-1.403-1.345-.983 0-1.404.835-1.404 1.391zM37.56 28.387v-.789c-.046-.092-.046-.185-.187-.185h-.093c-.047 0-.047-.046-.047-.046h1.357c.047 0 .094 0 .14-.047h.047s.047 0 .047.047c0 0-.047.046-.047.139v.232c0 .046-.047.046-.047.046s-.046 0-.046-.046v-.14c-.047-.046-.094-.092-.234-.092H37.84v1.02H38.497c.093 0 .14 0 .14-.047l.047-.046c.046 0 .046 0 .046.046 0 0-.046.047-.046.186v.232c0 .046 0 .046-.047.046 0-.046-.047-.093-.047-.139 0-.046-.047-.093-.187-.139h-.515c-.047 0-.047 0-.047.046V29.778c.047.093.047.185.14.185h.188l.047.047h-.936s0-.047.047-.047h.093c.094 0 .094-.092.094-.185.047-.14.047-.417.047-.788v-.603M5.036 35.991c0 .186.047.51.28.603.188.047.329.047.375.047h.047c0 .046-.047.092-.14.092-.094 0-.702-.046-.936-.046a.207.207 0 0 1-.14-.046c0-.047 0-.047.046-.047v-.232l-.28-2.828-1.358 2.875c-.14.232-.14.278-.187.278-.047 0-.094-.046-.187-.232-.14-.278-.609-1.252-.655-1.298-.047-.093-.702-1.438-.75-1.577l-.233 2.55v.325c0 .047.047.14.14.14a.468.468 0 0 0 .188.046h.046c0 .046 0 .092-.093.092-.188 0-.468-.046-.515-.046-.047 0-.328.046-.468.046-.047 0-.094-.046-.094-.092H.356c.187-.047.187-.279.234-.464l.375-3.663c0-.047.046-.093.093-.093 0 0 .047.046.047.093l1.731 3.477 1.638-3.477c.047-.047.047-.093.094-.093s.047.046.094.139l.374 3.431M6.627 34.137V32.93c-.047-.186-.094-.278-.234-.325H6.16l-.047-.046c0-.046.047-.046.094-.046h1.919c.14 0 .234 0 .28-.047h.047c.047 0 .047 0 .047.047 0 .046-.047.092-.047.278 0 .046-.046.278-.046.371 0 0 0 .046-.047.046 0 0-.047-.046-.047-.093v-.185c-.047-.093-.094-.139-.421-.186h-.749c-.047 0-.047 0-.047.047v1.53c0 .046 0 .046.047.046h.89c.14 0 .186-.046.233-.092.047-.047.094-.047.094-.047.047 0 .047 0 .047.047 0 0-.047.092-.047.278 0 .14-.047.325-.047.37v.094c-.047 0-.047 0-.047-.047 0-.046 0-.092-.047-.185 0-.093-.047-.186-.28-.186-.141 0-.703-.046-.796-.046-.047 0-.047.046-.047.046V36.038c0 .417.094.464.655.464.14 0 .375 0 .515-.047.187-.093.234-.185.28-.417 0-.047 0-.093.048-.093.046 0 .046.046.046.093 0 .046-.046.417-.093.556-.047.14-.094.14-.28.14-.89 0-1.264-.047-1.405-.047-.047 0-.374.046-.561.046-.047 0-.094-.046-.094-.046 0-.046.047-.046.047-.046.047 0 .14 0 .187-.047.093 0 .14-.139.14-.278.047-.232.047-.696.047-1.206v-.973M10.511 35.11c0 .835.047 1.16.14 1.252.094.093.235.14.656.14.327 0 .561 0 .702-.14.047-.092.14-.231.14-.37 0-.047 0-.047.047-.047s.047 0 .047.093c0 .046-.047.371-.094.556-.046.093-.046.14-.374.14-.796 0-1.17-.047-1.498-.047-.046 0-.374.046-.561.046-.047 0-.094-.046-.094-.046 0-.046.047-.046.047-.046.094 0 .14 0 .187-.047.094 0 .14-.139.187-.278v-3.385c0-.186-.046-.278-.234-.325h-.187c-.047 0-.047-.046-.047-.046 0-.046 0-.046.094-.046h1.217c.046 0 .093 0 .093.046 0 0 0 .046-.047.046h-.187c-.14 0-.187.14-.234.325v2.179M13.834 32.745c0-.046 0-.046.047-.046.093-.046.234-.046.28-.046.562 0 .75.51.75.974a.987.987 0 0 1-.188.556c-.14.14-.187.14-.515.14h-.327c-.047-.047-.047-.047-.047-.094v-1.484zm-.468 2.365v1.206c-.047.14-.094.278-.187.278-.047.047-.094.047-.187.047v.046s0 .046.046.046c.188 0 .562-.046.562-.046.047 0 .608.046.749.046.982 0 1.45-.602 1.45-1.205 0-.65-.561-1.067-.982-1.206.28-.232.514-.51.514-.974 0-.278-.187-.834-1.123-.834h-1.216c-.094 0-.094 0-.094.046 0 0 0 .046.047.046h.187c.187.047.234.14.234.325v2.179zm.468-.602v-.047c.094 0 .374 0 .468.047.14 0 .28 0 .468.139.421.278.515.788.515 1.113 0 .649-.468.788-.749.788-.14 0-.374 0-.515-.093-.187-.093-.187-.139-.187-.417v-1.53zM17.25 34.461c0-1.252.702-1.855 1.638-1.855.89 0 1.685.742 1.685 2.087 0 1.577-1.03 1.901-1.544 1.901-1.03 0-1.779-.834-1.779-2.133zm-.561.14c0 1.02.655 2.179 2.2 2.179 1.356 0 2.245-1.02 2.245-2.272 0-1.299-.935-2.087-2.199-2.087-1.591 0-2.246 1.298-2.246 2.18zM22.258 34.137V32.93c0-.186-.047-.278-.234-.325h-.188c-.046 0-.046-.046-.046-.046 0-.046 0-.046.093-.046h1.17c.094 0 .094 0 .094.046 0 0 0 .046-.047.046h-.14c-.14 0-.188.14-.188.325v1.948c0 .834.14 1.159.422 1.39.28.279.514.325.842.325.328 0 .655-.185.89-.417.233-.325.327-.788.327-1.345v-.695c0-.881 0-1.02-.047-1.206 0-.186-.047-.278-.234-.325h-.187l-.047-.046c0-.046.047-.046.093-.046h1.077c.047 0 .094 0 .094.046l-.047.046h-.14c-.141 0-.188.14-.235.325v1.762c0 .603-.047 1.298-.514 1.67-.422.37-.843.417-1.17.417-.188 0-.75 0-1.124-.371-.28-.278-.514-.65-.514-1.484v-.788M27.593 32.792c0-.047 0-.047.047-.093h.374c.608 0 .983.417.983 1.113 0 .417-.14.696-.375.835-.094.092-.28.092-.42.092-.235 0-.469 0-.563-.046-.046-.046-.046-.046-.046-.093v-1.808zm-.468 2.318v1.206c-.047.14-.047.278-.188.278-.046.047-.093.047-.14.047-.047 0-.047 0-.047.046 0 0 0 .046.094.046.14 0 .515-.046.515-.046.046 0 .374.046.702.046.046 0 .093-.046.093-.046 0-.046-.047-.046-.047-.046-.046 0-.187 0-.28-.047-.14 0-.188-.139-.188-.278-.046-.232-.046-.696-.046-1.206v-.139c0-.046 0-.046.047-.046h.702s.046 0 .046.046c.14.14.375.51.609.835.327.417.514.696.748.788.187.093.328.14.609.14h.42c.094 0 .141-.047.141-.047 0-.046-.047-.046-.047-.046h-.234c-.14-.047-.374-.093-.702-.418a30.015 30.015 0 0 1-1.17-1.437c.515-.464.703-.881.703-1.299a.942.942 0 0 0-.375-.742c-.327-.185-.702-.231-1.03-.231h-1.31c-.046 0-.093 0-.093.046 0 0 0 .046.047.046h.187c.187.047.234.14.234.325v2.179zM31.851 35.945c.047.464.094.603.234.65.094.046.234.046.281.046.047 0 .047 0 .047.046 0 0-.047.046-.094.046-.327 0-.561-.046-.608-.046-.047 0-.281.046-.515.046-.093 0-.093-.046-.093-.046 0-.046 0-.046.046-.046.047 0 .14 0 .187-.047.14-.046.188-.185.188-.695v-3.2c0-.232.046-.278.046-.278.047 0 .14.139.234.185.094.093.89.974 1.779 1.902.561.602 1.17 1.298 1.357 1.437l-.094-2.782c0-.371-.046-.51-.187-.557h-.28c-.048 0-.048-.046-.048-.046 0-.046.047-.046.094-.046h1.077c.046 0 .093 0 .093.046 0 0 0 .046-.047.046h-.14c-.187.047-.234.14-.234.51v3.246c0 .371 0 .371-.047.371s-.094-.046-.421-.324c-.047-.047-.842-.881-1.45-1.53-.656-.696-1.264-1.392-1.452-1.577l.047 2.643M36.671 34.137V32.93c0-.186-.046-.278-.233-.325h-.188c-.047 0-.047-.046-.047-.046 0-.046.047-.046.094-.046H38.215c.094 0 .188 0 .235-.047h.093v.047c0 .046 0 .092-.046.278v.371l-.047.046c-.047 0-.047-.046-.047-.093 0-.046 0-.138-.047-.185-.047-.093-.093-.139-.374-.186h-.796v1.623h.89c.14 0 .233-.046.28-.092.047-.047.047-.047.094-.047v.047s0 .092-.047.278v.37c0 .047 0 .094-.047.094s-.047 0-.047-.047v-.185c-.046-.093-.093-.186-.28-.186-.188 0-.75-.046-.843-.046v.556c0 .186-.047.835 0 .928 0 .417.094.464.609.464.187 0 .42 0 .561-.047.14-.093.234-.185.234-.417.047-.047.047-.093.047-.093.047 0 .047.046.047.093 0 .046-.047.417-.047.556-.047.14-.094.14-.328.14-.842 0-1.216-.047-1.404-.047 0 0-.374.046-.514.046-.094 0-.094-.046-.094-.046 0-.046 0-.046.047-.046s.093 0 .14-.047c.14 0 .14-.139.187-.278v-2.179M23.38 22.034c-1.45-.974-3.462-1.391-5.334-1.067-.983.186-1.825.557-2.668 1.067-.28.139-.608.37-.889.556l-.936.603c-1.59 1.02-3.603 1.53-5.616 1.067-.42-.093-.889-.232-1.216-.603-.094-.093-.14-.232-.14-.417l.514-2.458c-.562-.37-1.217-.51-1.919-.557-.327 0-.655 0-.936.047.843-.742 1.077-1.809.796-2.875 1.357 0 2.62.185 3.79.742.328.185.796.51.796.927v2.643c1.17 0 2.106-.51 3.042-1.113l1.076-.742c2.013-1.298 4.353-1.994 6.927-1.669 1.45.186 2.807.742 4.071 1.53l1.404.928c.936.603 1.872 1.16 3.042 1.16v-.882l.046-1.901c.188-.603.843-.835 1.358-1.067 1.03-.324 2.106-.463 3.229-.463-.281 1.066 0 2.179.842 2.921-.983-.186-2.012-.046-2.808.417-.047 0-.093.047-.093.047l.468 2.55c-.047.464-.562.696-.983.788-1.919.603-4.072.186-5.663-.788l-.749-.464-1.263-.834-.187-.093" fill="#000"/><path d="M23.615 21.988a8.193 8.193 0 0 0-5.756-1.113c-1.124.231-2.106.695-3.042 1.298l-1.545.974a6.935 6.935 0 0 1-4.913 1.066c-.562-.092-1.077-.232-1.498-.602-.093-.093-.14-.14-.14-.279l.468-2.272c.515.603 1.357.742 2.152.788 1.17.047 2.153-.37 3.09-.927l1.684-1.067c1.872-1.205 4.071-1.808 6.458-1.483 1.404.139 2.62.649 3.837 1.344l1.077.65 1.076.695c1.03.696 2.246 1.02 3.603.788.515-.092 1.124-.231 1.498-.742l.421 2.32c-.047.37-.42.51-.702.648-2.106.696-4.446.14-6.13-1.02l-1.638-1.066z" fill="#FFF"/><path d="M23.633 21.96a8.224 8.224 0 0 0-5.78-1.118c-1.056.218-2.034.646-3.055 1.303l-1.544.974a6.9 6.9 0 0 1-4.89 1.061c-.68-.112-1.114-.272-1.48-.594a.94.94 0 0 1-.075-.079c-.04-.05-.054-.095-.054-.175l.467-2.265-.059.015c.452.529 1.13.739 2.177.8 1.052.042 1.99-.268 3.108-.932l1.685-1.067c1.956-1.26 4.153-1.79 6.435-1.48 1.281.128 2.457.56 3.826 1.341l1.075.65 1.076.694c1.085.733 2.316 1.018 3.627.793.765-.137 1.2-.319 1.52-.755l-.061-.014.421 2.319c-.03.222-.18.364-.488.518l-.196.095c-1.974.652-4.3.219-6.096-1.017l-1.639-1.067zm-.037.055l1.638 1.067c1.813 1.247 4.16 1.684 6.16 1.024l.2-.097c.327-.163.492-.32.525-.58l-.422-2.328-.014-.078-.046.064c-.307.418-.728.594-1.477.728-1.293.222-2.506-.058-3.578-.782l-1.077-.696-1.077-.65c-1.377-.787-2.561-1.222-3.852-1.35-2.297-.312-4.51.221-6.48 1.49l-1.684 1.066c-1.106.657-2.032.963-3.07.922-1.028-.06-1.69-.265-2.128-.776l-.044-.053-.014.067-.468 2.273c0 .101.02.161.069.223.018.023.035.04.08.085.38.334.825.498 1.516.612a6.968 6.968 0 0 0 4.938-1.071l1.544-.974c1.014-.653 1.984-1.078 3.03-1.294a8.156 8.156 0 0 1 5.732 1.109z" fill="#000"/><path d="M9.482 21.71c-.796 0-1.545-.14-2.106-.65-.094-.139-.187-.278-.094-.417.187-.418.702-.464 1.077-.603.42-.093.795-.186 1.123-.51v2.18z" fill="#FFF"/><path d="M9.482 21.676c-.91 0-1.583-.186-2.083-.64a.073.073 0 0 0 .005.005c-.133-.197-.16-.28-.094-.38.11-.242.306-.359.696-.476l.124-.037c.111-.032.175-.053.24-.077.581-.127.852-.236 1.136-.517l-.058-.024v2.18l.034-.034zm0 .067l.034-.034V19.45l-.058.056c-.273.27-.533.375-1.107.501-.067.025-.13.045-.24.077l-.124.037c-.408.122-.619.248-.735.508-.086.127-.052.23.095.45.521.474 1.21.664 2.135.664z" fill="#000"/><path d="M31.477 20.55c.093.093.14.278.093.417-.187.325-.608.51-.936.65-.42.092-.842.185-1.31.185v-2.18c.608.557 1.498.464 2.153.928z" fill="#FFF"/><path d="M31.453 20.574c.087.086.127.259.085.383-.146.253-.403.41-.917.629-.62.136-.91.183-1.297.183l.034.033v-2.18l-.057.025c.279.255.542.362 1.16.53l.017.005c.507.137.734.222.98.395l-.005-.003zm.043-.051c-.253-.18-.486-.266-1-.406l-.016-.004c-.609-.165-.865-.27-1.133-.515l-.057-.052v2.257l.034.032c.394 0 .686-.046 1.318-.186.533-.226.798-.389.958-.665a.475.475 0 0 0-.1-.458l-.004-.003z" fill="#000"/><path d="M8.873 18.324c.281.186.656.418.609.789-.047.51-.609.649-1.03.741-.468.186-1.123.232-1.357.789-.702-.464-1.59-.603-2.527-.557.655-.695.842-1.67.655-2.55 1.31.046 2.574.185 3.65.788z" fill="#FFF"/><path d="M8.855 18.352l.078.052.08.054c.321.221.466.408.435.65-.036.4-.339.568-1.003.714a3.93 3.93 0 0 1-.323.107l-.147.044c-.508.156-.768.318-.911.657l.05-.015c-.663-.438-1.522-.613-2.548-.562l.027.056c.632-.671.863-1.638.663-2.58l-.034.04c1.63.058 2.698.26 3.635.784h-.002zm.035-.057c-.948-.531-2.026-.734-3.666-.792l-.034.04c.196.921-.03 1.866-.647 2.52l-.056.061.083-.004c1.012-.05 1.857.122 2.506.55l.05-.014c.133-.316.378-.468.869-.619l.147-.044c.151-.046.236-.073.323-.108.687-.15 1.01-.33 1.05-.77.035-.274-.123-.478-.463-.712a5.32 5.32 0 0 0-.081-.055l-.079-.052H8.89z" fill="#000"/><path d="M33.676 17.629c-.187.927-.047 1.854.562 2.596-.89-.046-1.778.093-2.527.51-.094-.37-.468-.51-.749-.602-.515-.186-1.123-.232-1.544-.65-.094-.138-.094-.37-.047-.556.421-.603 1.123-.788 1.778-.974.796-.232 1.638-.324 2.527-.324z" fill="#FFF"/><path d="M33.643 17.622c-.2.992-.017 1.91.569 2.624l.028-.054c-.957-.05-1.832.116-2.546.514l.05.021c-.082-.32-.317-.476-.771-.626a5.273 5.273 0 0 0-.438-.131l-.1-.027c-.499-.137-.76-.252-.994-.483-.075-.114-.088-.326-.037-.525.298-.423.719-.648 1.473-.869a17.67 17.67 0 0 1 .282-.08c.757-.221 1.584-.324 2.517-.324l-.033-.04zm.067.013l-.034-.04c-.94 0-1.772.103-2.536.326a110.623 110.623 0 0 0-.283.08c-.767.226-1.2.457-1.514.907-.06.227-.046.457.047.594.247.246.518.365 1.028.505l.099.027c.214.058.317.088.434.13.434.144.654.288.727.58l.05.02c.701-.39 1.563-.554 2.508-.505l.076.004-.048-.059c-.572-.698-.751-1.595-.554-2.569zM7.376 23.471c.047 0 .047-.046.093-.092l.14-1.067c0-.046 0-.046-.046-.093l.608.047c.281.046.422.278.375.463-.047.186-.187.371-.515.325l-.28-.046-.047.417c0 .046 0 .093.046.093v.046l-.374-.093zm.421-.695l.234.046c.187.047.234 0 .28-.139 0-.139-.046-.185-.233-.185l-.234-.047-.047.325zM9.295 22.405c.374.046.608.324.561.695 0 .371-.234.65-.608.65-.375 0-.609-.325-.562-.696 0-.37.234-.65.609-.65zm-.047 1.16c.234 0 .374-.186.374-.465 0-.278-.093-.463-.327-.463s-.375.139-.375.417c0 .325.094.464.328.51zM10.324 23.332h.047c0 .093.234.14.328.093.233-.046.327-.14.28-.278-.047-.232-.795.093-.889-.371-.047-.186.047-.371.375-.464h.327c.047 0 .094.047.14 0h.047l-.093.325h-.047v-.047c0-.046-.14-.139-.328-.092-.14.046-.187.139-.187.185.047.278.796-.093.89.417.046.186-.094.464-.469.51-.093.047-.234.047-.28 0h-.188v.047h-.046l.093-.325M11.962 23.24v-.047c.047 0 .047-.046 0-.093l-.374-.88-.281.139c-.047 0-.094 0-.047.046l-.047.046-.14-.278.047-.046c0 .046.047.046.093 0l.75-.325c.093-.046.093-.046.093-.093l.14.279h-.047c0-.047-.046-.047-.093 0l-.281.139.421.88c.047.047.047.047.094.047v.046l-.328.14M13.085 22.405l.468-.325c.047-.046.094-.046.047-.092h.047l.14.231v.047c-.047-.047-.047-.047-.093 0l-.749.463h-.047c.047-.046.047-.092.047-.092l-.609-.928c-.046-.046-.046-.046-.093-.046h-.047l.749-.464c.047-.046.047-.046.047-.093v-.046l.187.278H13.038l-.42.325.14.232.28-.14c.047-.046.047-.046.047-.092h.047l.14.232c-.046 0-.046 0-.093.046l-.281.14.187.324M13.974 22.08v-.139l-.608-.927c-.047 0-.047-.047-.094 0v-.047l.515-.324c.234-.14.421-.14.562.046.094.186.094.325-.047.464l.374.232c.094.046.14.092.188.046l.046.046-.327.186v-.046c0-.047 0-.047-.047-.047l-.421-.232-.187.093.234.371c.046.046.046.046.093.046l.047.047-.328.185zm-.14-.788l.234-.186c.14-.046.14-.139.094-.231-.094-.093-.14-.14-.281-.047l-.234.14.187.324zM14.957 21.431l-.047-.046c.047 0 .047-.047.047-.047l-.187-1.113v-.092h-.094v-.047l.375-.185v.046c-.047 0-.047.047 0 .047 0 0 0 .046.047.092l.795.742c.047.047.047.047.094.047l-.28.185v-.093l-.048-.046-.14-.14-.421.186.046.232v.047s.047.046.094 0v.046l-.28.14zm.421-.788l-.42-.371.14.51.28-.14zM17.157 19.205l-.094.371v-.046c-.047-.093-.187-.14-.328-.093-.187.093-.327.232-.187.557.047.278.234.417.468.324.14-.046.234-.139.187-.232v-.046l.281.185h-.047c-.046.047-.093.232-.374.325-.374.093-.655-.139-.795-.464-.14-.463.093-.741.42-.834a.301.301 0 0 1 .282 0h.093c.047 0 .047 0 .047-.047h.047M17.625 20.365v-.047l.046-.046-.187-1.113c0-.046 0-.046-.047-.046v-.047l.609-.093c.28-.046.468.093.468.325.047.185-.047.325-.234.371l.28.37c.047.094.094.14.141.14v.046l-.374.047v-.047s.046 0 .046-.046l-.046-.046-.281-.371h-.187l.046.463c0 .047 0 .047.047.047v.046l-.327.047zm.187-.789l.28-.046c.141 0 .188-.093.188-.185 0-.14-.094-.186-.234-.14l-.28.047.046.324zM19.169 19.994h.561c.047 0 .094 0 .094-.047h.047v.278h-.047s-.047-.046-.094-.046h-.889c.047 0 .047-.046.047-.093v-1.113c0-.046 0-.046-.047-.046v-.046h.843c.093 0 .093 0 .093-.047h.047v.325h-.047c0-.046 0-.046-.093-.046h-.515v.324h.328c.046 0 .046 0 .046-.046h.047v.278h-.047c0-.046 0-.046-.046-.046h-.328v.37M20.105 19.854h.047v.047c0 .093.187.139.327.185.234.047.328-.046.328-.139.047-.278-.796-.232-.702-.695 0-.186.187-.325.515-.279.14 0 .234.047.28.093.094.047.094.047.141.047h.093l-.233.278h-.047v-.046c0-.047-.094-.186-.281-.186-.14-.046-.234.046-.234.093-.047.278.795.185.702.695 0 .186-.234.371-.609.325-.14 0-.233-.047-.28-.093-.094-.046-.094-.046-.14-.046h-.094l.187-.279M22.398 19.483l-.234.232v-.046c0-.093-.094-.186-.187-.232-.234-.046-.421.046-.515.371-.093.232.047.464.234.51.14.047.28 0 .328-.093v-.046l.14.325c-.047 0-.047 0-.047-.047-.047 0-.187.14-.514.047-.328-.093-.469-.418-.375-.789.094-.417.468-.556.796-.463.093.046.187.093.234.139l.093.092.047-.046v.046M22.07 20.643l.047-.047s.047 0 .047-.046l.749-.835c.047 0 .047-.046.047-.046.046 0 0-.046 0-.046v-.047l.374.186c-.047 0-.047 0-.093.046v.093l-.094 1.066c0 .047.047.093.047.093v.046l-.328-.139v-.046h.047c.047 0 .047-.046.047-.046v-.232l-.422-.186-.14.186h-.047c0 .046 0 .046.047.093v.046l-.328-.14zm.89-.186l.046-.556-.327.417.28.14zM23.194 21.106l.047-.046c0 .046.046 0 .046 0l.609-.974c.047-.046.047-.046 0-.046v-.046l.374.231v.047h-.047c-.047.046-.14.649-.14.788.28-.232.608-.464.655-.464 0-.046 0-.046-.047-.046l.047-.046.374.232h-.046s-.047 0-.047.046l-.609.974c-.046 0 0 .046 0 .046v.046l-.28-.185v-.046c.046.046.046.046.093 0l.468-.789c-.28.232-.608.418-.889.65v-.047c.047-.325.094-.695.187-1.02l-.468.742c-.047.046-.047.093 0 .093v.046l-.327-.186M25.767 21.292c0-.046 0-.046-.046-.093v-.046l.374.232-.047.046c-.046-.046-.046-.046-.093 0l-.562.835.468.278c.047.046.094.046.094 0l.047.046-.188.232c0-.046 0-.046-.047-.093l-.748-.463.047-.047c.046.047.046.047.093 0l.608-.927M26.002 22.915v-.046h.093l.796-.835c0-.046.046-.046.046-.046 0-.047 0-.047-.046-.047v-.046l.374.185c-.047 0-.047 0-.047.047 0 0 0 .046-.047.092l-.093 1.067v.139l-.328-.14.047-.045h.047v-.047l.047-.232-.422-.185-.14.139c-.047 0-.047.046-.047.046s0 .047.047.047l-.047.046-.28-.14zm.889-.139l.093-.557-.374.418.28.139zM27.967 22.312v.047c-.047 0-.094 0-.094.046l-.187.695c-.046.186.047.279.234.325.14.046.281-.046.328-.185l.187-.696c0-.046 0-.093-.047-.093v-.046l.328.093v.046c-.047 0-.047 0-.047.046l-.187.696c-.094.278-.28.417-.655.37-.328-.092-.422-.324-.375-.602l.188-.742c0-.046 0-.046-.047-.046v-.047l.374.093M28.903 22.59c0-.046-.047-.046-.094-.046v-.046h.562c.421 0 .608.324.608.649 0 .464-.234.649-.655.649h-.515c.047-.046.047-.046.047-.093l.047-1.113zm.234 1.02h.14c.328 0 .422-.092.468-.463 0-.325-.14-.418-.468-.418h-.14v.882zM30.634 23.471l.562-.139c.047 0 .047 0 .047-.046h.047l.093.278h-.047c0-.046-.046-.046-.093-.046l-.89.232c.048-.047.048-.047.048-.093l-.281-1.067c0-.046 0-.046-.094-.046v-.046l.842-.232c.047 0 .094 0 .094-.047l.094.279h-.047c0-.047-.047-.047-.094 0l-.514.139.093.278.28-.046c.094-.047.094-.047.094-.093h.047l.047.278h-.094l-.327.093.093.324" fill="#000"/><path d="M17.859 4.506l-.094-.093c-.047-.417-.14-.881-.515-1.16-1.03-.37-2.2-.138-3.229-.463 0 0-.702-.185-1.17-.278-.468-.093-.748-.14-1.123-.232a9.717 9.717 0 0 0-1.357-.324c.328 1.02 2.433 1.622 2.995 1.715.14.046.421.093.842.186.796.231 1.685.185 2.34.742l-1.544-.371c-.187-.047-.374-.093-.702-.14.047.371.28.65.515.743.795.231 1.076.278 1.544.556.094-.14.328-.047.468-.186 0-.232.047-.417.468-.37.047-.14.328-.279.374-.279-.093.14-.187.279-.187.417 0 0-.327-.046-.468.047-.093.093.047.278.047.417-.14 0-.468-.093-.515.093-.046.185.094.278.187.325-.233.139-.561-.047-.608.185-.047.232.094.185.187.278l-.28.278s.42.232.701.325c.328-.37.562-.51.936-.603.234-.417.562-.556.936-.556-.514-.371-.748-.65-.748-1.252zm-3.23-1.113l-.561-.185c.796.138 1.778.138 2.527.417.328.139.468.463.562.788-.655-.788-1.45-.788-2.527-1.02z" fill="#FFF"/><path d="M17.86 4.505l-.094-.093c-.064-.57-.196-.922-.515-1.159-.434-.156-.827-.208-1.615-.25L15.57 3c-.79-.041-1.137-.081-1.549-.21a24.842 24.842 0 0 0-1.17-.279l-.596-.116a15.151 15.151 0 0 1-.527-.116 9.604 9.604 0 0 0-1.357-.324c.26.814 1.821 1.524 2.995 1.717.094.031.851.188.842.186.194.056.378.094.696.15l.075.014c.839.146 1.195.26 1.569.577l-1.544-.372a6.166 6.166 0 0 0-.702-.14c.043.348.26.643.515.744.079.024.683.194.817.236a3.185 3.185 0 0 1 .727.32c.04-.058.09-.075.217-.092l.053-.007c.09-.014.15-.037.199-.086 0-.3.103-.41.467-.37.04-.115.297-.279.374-.279h-.001c-.14.208-.187.3-.187.416a1.31 1.31 0 0 0-.264-.01.437.437 0 0 0-.203.056c-.05.049-.043.104.007.25l.006.02c.023.067.033.109.033.148a1.564 1.564 0 0 1-.132-.012 2.103 2.103 0 0 0-.095-.01c-.167-.011-.263.018-.288.115-.038.153.039.252.188.325a.455.455 0 0 1-.187.054c-.04.003-.073.004-.142.003-.196-.002-.257.017-.28.128-.026.132-.002.175.087.217l.041.02a.239.239 0 0 1 .06.042l-.137.134-.144.143c.02.013.057.032.106.058a7.071 7.071 0 0 0 .368.178c.085.038.162.068.228.09.32-.36.55-.507.937-.603.217-.387.524-.556.935-.556-.565-.41-.747-.694-.747-1.253zm-.002 0c0 .56.182.845.749 1.254-.412-.002-.72.167-.936.555-.386.095-.618.242-.936.602a2.861 2.861 0 0 1-.345-.143 7.07 7.07 0 0 1-.356-.181l.145-.142.136-.135a.214.214 0 0 0-.06-.044.908.908 0 0 0-.04-.02c-.09-.041-.113-.083-.087-.215.022-.109.083-.128.278-.126.07 0 .102 0 .142-.003a.433.433 0 0 0 .188-.056c-.148-.075-.225-.172-.187-.325.024-.096.12-.124.286-.113l.095.01c.09.01.105.011.133.011a.439.439 0 0 0-.032-.15l-.006-.02c-.05-.145-.056-.2-.008-.247a.436.436 0 0 1 .202-.055 1.308 1.308 0 0 1 .265.008c.001-.116.048-.208.187-.416l.001-.001c-.079-.002-.337.163-.376.277-.364-.04-.468.072-.468.371-.048.048-.107.07-.198.085a2.061 2.061 0 0 1-.053.007c-.127.017-.177.035-.217.093a3.019 3.019 0 0 0-.726-.32c-.133-.042-.738-.213-.817-.236-.255-.101-.47-.396-.514-.742a7.032 7.032 0 0 1 .7.14l1.545.371c-.373-.32-.73-.432-1.568-.58l-.076-.012a6.218 6.218 0 0 1-.695-.151c.008.002-.749-.155-.843-.186-1.173-.193-2.733-.903-2.994-1.715.568.104.966.197 1.356.326a9.929 9.929 0 0 0 .526.116l.597.116a12.521 12.521 0 0 1 .512.113 29.656 29.656 0 0 1 .658.165c.412.13.758.17 1.549.211l.066.004c.788.041 1.18.093 1.614.249.318.236.45.588.514 1.158l.094.094v-.001zM14.63 3.393l-.562-.185c.223.04.424.065.841.11l.293.031c.634.07 1.033.144 1.393.278.283.12.44.37.56.787-.433-.525-.859-.704-1.833-.887l-.336-.062a14.43 14.43 0 0 1-.356-.072zm0 .002c.11.024.223.046.356.071l.335.063c.975.183 1.4.362 1.835.886-.119-.42-.277-.67-.56-.79-.36-.134-.76-.207-1.394-.278a48.154 48.154 0 0 0-.293-.031c-.417-.045-.618-.07-.84-.108l.56.187z" fill="#005D90"/><path d="M25.346 15.218l-.936-1.113c-.14-.047-.187-.232-.187-.232-.655-.093-1.03-.603-1.731-.464-.609-.047-1.217-.37-.843-.742-.14-.046-.234-.093-.28-.232-.047-.139.093-.232.093-.324-.093.046-.328.185-.374.37-.094.232.468.789.608.974l1.03.928c.093.232.468.51.468.649a.36.36 0 0 1-.234-.093c-.796-.649-1.591-1.39-2.06-2.272-.046.046-.093 0-.14-.046-.234-.14-.14-.464-.28-.696-.048 0-.094-.046-.141-.046-.094 0-.094.139-.14.232 0 0 0 .185.046.463.094.279-.468-.232-.608-.37 0 .138.093.37.14.51-.047.046-.093 0-.187 0-.28-.047-.468-.557-.608-.603-.14-.047-.14.139-.328.046-.093-.14-.093-.185-.047-.325.14-.092.14-.278 0-.231-.093.046-.14.092-.42-.047-.188.047-.328.14-.141.696.187.278.374.51.561.788l.75 1.113.982 1.576.421.603c.14.325.936.696.609.928-.656.88.187 1.066.187 1.066.702.14.702-.278.936-.556.093-.14.42-.093.327.185 0 0-.093.186-.187.232-.702.464.328.186.562.14 0 0 .234 0 0 .324-.14.324.514.232.702.14.608-.326.468-.558.842-.743.562-.278.983-.371.936-1.067-.468-.278-1.638-1.437-1.638-1.437h.047l.936.65.608.463c.094.046.28.185.328.278 0 .371-.14.788-.515.974-.234.139-.796.186-.89.603.094.185.516.185.89.092.655-.231.655-.51.936-1.159.093-.278.328-.278.608-.232-.515-.51-1.123-1.484-1.638-1.993zm-2.386 1.715c-.14-.278-.515-.695-.75-.974l-1.778-2.457c.515.37 2.48 2.968 2.48 2.968.094.278.094.37.048.463z" fill="#FFF"/><path d="M25.347 15.217l-.936-1.113a.258.258 0 0 1-.132-.11.425.425 0 0 1-.055-.122c-.216-.03-.379-.092-.677-.237l-.111-.053c-.38-.182-.621-.238-.945-.174-.308-.024-.61-.118-.789-.249-.197-.145-.226-.319-.052-.491-.169-.058-.239-.11-.28-.233-.023-.066-.008-.117.041-.201.044-.073.052-.09.052-.123-.178.087-.338.22-.376.37-.04.097.03.255.188.467.037.05.079.104.127.162.05.06.262.305.293.346l1.03.927a.756.756 0 0 0 .113.18c.03.039.064.078.11.13.217.24.245.275.245.339a.363.363 0 0 1-.233-.094c-1-.815-1.65-1.502-2.059-2.271-.04.038-.07.022-.14-.047-.115-.068-.15-.156-.186-.377a4.575 4.575 0 0 0-.012-.066.702.702 0 0 0-.083-.252c-.02 0-.036-.007-.07-.024-.036-.017-.051-.023-.071-.023-.053 0-.076.034-.105.131l-.008.026a.472.472 0 0 1-.028.075 3.598 3.598 0 0 0 .047.464c.021.066.008.09-.035.078a.646.646 0 0 1-.18-.107 4.493 4.493 0 0 1-.392-.342.848.848 0 0 0 .05.256l.031.092.058.163h-.001c-.026.024-.04.024-.106.009a.336.336 0 0 0-.08-.01c-.12-.02-.224-.117-.356-.301-.01-.015-.11-.16-.137-.195-.047-.062-.083-.097-.115-.107-.051-.017-.08-.008-.13.028l-.006.004c-.065.048-.106.056-.191.014-.09-.133-.096-.178-.047-.323.065-.043.106-.111.106-.169 0-.058-.041-.086-.107-.064l-.044.022c-.09.043-.172.033-.376-.069-.248.061-.303.218-.142.697.078.116.14.203.28.393.14.192.203.28.282.396l.748 1.112.983 1.577.421.603a.825.825 0 0 0 .2.249c.037.034.073.067.134.12.194.17.252.225.305.303.07.104.066.186-.03.254-.353.474-.312.787-.031.972a.73.73 0 0 0 .218.096c.444.088.602-.005.791-.333l.026-.045c.047-.08.08-.13.12-.179.045-.066.149-.093.233-.063.094.033.135.123.093.248a.95.95 0 0 1-.074.12.349.349 0 0 1-.112.111.998.998 0 0 0-.222.178c-.03.04-.026.066.008.079.057.02.193.007.397-.033l.11-.023.269-.06c.012 0 .032.003.051.012.078.036.078.131-.052.311-.064.147.03.221.229.228.158.005.371-.036.474-.087.292-.156.381-.245.556-.49a.684.684 0 0 1 .286-.252c.075-.037.323-.153.369-.176.447-.22.6-.422.568-.892-.16-.095-.409-.296-.724-.577l-.125-.112a26.676 26.676 0 0 1-.79-.749l.047.002.935.649.609.464c.113.056.285.196.327.278 0 .43-.177.805-.514.972a1.02 1.02 0 0 1-.173.076s-.175.061-.227.081c-.285.11-.443.235-.49.447.086.17.469.198.89.093.418-.148.578-.303.735-.666.022-.052.153-.38.202-.493.081-.243.254-.29.607-.232-.213-.214-.397-.442-.818-.998-.421-.556-.604-.785-.819-.997zm-.001.001c.214.213.398.44.818.997.422.557.605.785.82.997-.354-.06-.527-.012-.609.23-.049.114-.18.442-.202.494-.157.362-.316.518-.733.666-.42.104-.803.077-.888-.093.047-.21.204-.335.488-.444.052-.02.227-.081.227-.081.079-.029.132-.051.173-.076.339-.168.516-.544.516-.975-.042-.082-.215-.223-.328-.279l-.609-.464-.936-.649h-.047a28.87 28.87 0 0 0 .913.862c.316.281.565.483.724.577.031.468-.12.67-.567.89-.045.022-.293.138-.368.175a.686.686 0 0 0-.288.253c-.174.245-.263.333-.555.49-.102.05-.315.091-.473.086-.198-.007-.29-.08-.228-.225.13-.18.13-.277.052-.314a.13.13 0 0 0-.052-.012l-.27.06-.11.023c-.203.04-.339.054-.395.033-.033-.013-.037-.037-.007-.075a.996.996 0 0 1 .22-.178.35.35 0 0 0 .114-.111.95.95 0 0 0 .074-.121c.043-.127.001-.217-.094-.25-.085-.031-.19-.004-.235.063-.04.048-.074.099-.12.179l-.026.045c-.19.328-.347.42-.79.332a.729.729 0 0 1-.218-.096c-.279-.184-.32-.495.032-.969.097-.068.102-.151.03-.256-.053-.078-.11-.134-.305-.304a4.582 4.582 0 0 1-.133-.12.823.823 0 0 1-.2-.248l-.421-.603-.983-1.577-.749-1.112c-.078-.117-.14-.204-.281-.396-.14-.19-.203-.277-.28-.393-.161-.478-.106-.633.14-.694.204.102.287.112.377.069l.044-.023c.064-.02.104.007.104.063 0 .057-.04.125-.105.168-.05.146-.044.191.047.326.085.042.128.034.193-.014l.007-.005c.048-.035.077-.044.127-.027.032.01.068.044.115.106.026.035.126.18.137.195.131.184.236.281.357.301.027 0 .049.004.08.01.067.016.081.016.107-.01h.001l-.057-.163a3.474 3.474 0 0 1-.03-.093.916.916 0 0 1-.053-.255c.1.101.267.25.39.343.08.06.142.098.181.108.046.012.06-.014.037-.08a3.6 3.6 0 0 1-.046-.463.461.461 0 0 0 .028-.075l.008-.026c.029-.097.05-.13.103-.13.02 0 .035.005.07.023.035.017.05.023.07.023.04.067.063.14.083.252l.01.065c.037.222.073.31.188.378.07.07.102.086.141.047.408.77 1.058 1.456 2.058 2.272a.36.36 0 0 0 .235.093c0-.066-.026-.1-.244-.342a2.688 2.688 0 0 1-.11-.129.759.759 0 0 1-.113-.18l-1.03-.927c-.031-.041-.244-.286-.294-.347a3.817 3.817 0 0 1-.127-.161c-.156-.212-.226-.369-.187-.465.037-.149.197-.283.374-.37-.002.03-.01.049-.053.121-.05.084-.065.136-.042.203.041.123.112.176.281.232-.175.172-.146.347.052.493.179.13.481.225.79.249.324-.064.564-.008.944.173l.111.054c.299.145.461.206.677.237.007.03.024.075.054.12.035.054.08.094.133.112l.936 1.112zm-2.386 1.715a3.025 3.025 0 0 0-.339-.487 10.326 10.326 0 0 0-.107-.13c-.066-.08-.279-.33-.302-.357L20.433 13.5c.194.142.609.609 1.178 1.309l.125.154a66.922 66.922 0 0 1 1.176 1.506c.088.262.097.364.047.463h.001zm0 0c.05-.099.042-.2-.046-.464a31.006 31.006 0 0 0-.361-.47 66.924 66.924 0 0 0-.94-1.19c-.57-.7-.984-1.167-1.18-1.308l1.777 2.459.303.357.107.13c.162.202.275.361.339.487h.001z" fill="#005D90"/><path d="M20.526 5.99s-.468.602-.796.788c-.327.14-.608.185-.748.14.374-.094.468-.094.748-.372-.327.14-.467.14-.701.14-.234 0-.281-.279-.281-.186-.047.185-.187.37-.187.37-.094.279-.468.51-.234.835.093.186.28.232.468.232 0 .047-.094.093-.047.14.14.046.374-.186 1.591 0 .702-.325-.094-1.716.468-2.226.047-.047-.187.046-.28.139zm-.561 1.947c-.281.047-.328 0-.515-.046-.187-.047-.281-.186-.281-.325 0 0 .187.278.608.278.328 0 .422-.092.515-.185 0 0-.047.278-.327.278z" fill="#FFF"/><path d="M20.525 5.99l-.106.13c-.083.1-.17.198-.258.29-.066.068-.129.13-.19.185-.089.08-.17.142-.241.182-.318.135-.604.187-.748.14a6.9 6.9 0 0 0 .235-.057.958.958 0 0 0 .237-.089c.082-.046.165-.113.277-.224a1.515 1.515 0 0 1-.702.137.26.26 0 0 1-.208-.102.46.46 0 0 1-.058-.086c-.006-.012-.01-.016-.012-.016-.003 0-.004.006-.004.02a.932.932 0 0 1-.086.21c-.038.07-.076.127-.101.16a.982.982 0 0 1-.145.254l-.01.014c-.176.255-.21.386-.08.568.084.165.243.232.47.232-.001.014-.009.027-.031.054l-.011.014c-.023.03-.027.05-.006.07a.207.207 0 0 0 .104.001l.167-.033c.32-.058.712-.06 1.32.033.31-.142.348-.4.282-1.11l-.005-.064c-.053-.583-.021-.857.192-1.052.007-.006.009-.01.006-.012-.003-.002-.008-.002-.017 0a.711.711 0 0 0-.27.15zm.002 0a.71.71 0 0 1 .27-.15h.014c.002.001 0 .005-.005.01-.214.195-.246.47-.193 1.053l.005.063c.066.71.027.968-.28 1.11-.608-.094-1-.092-1.32-.034l-.168.033a.207.207 0 0 1-.102 0c-.02-.02-.016-.038.006-.068l.011-.013c.023-.028.03-.04.03-.057-.226 0-.385-.068-.467-.232-.131-.181-.097-.311.08-.566l.009-.014a.982.982 0 0 0 .145-.254c.025-.033.063-.09.1-.16a.932.932 0 0 0 .087-.21c0-.014 0-.02.002-.02s.005.005.01.015c.032.055.036.061.058.088a.262.262 0 0 0 .21.102c.111 0 .156 0 .213-.005.148-.011.285-.048.489-.134-.114.11-.196.177-.278.222a.957.957 0 0 1-.236.09l-.236.057c.145.05.431-.002.75-.137.071-.04.153-.103.242-.183.06-.054.124-.116.19-.185a5.883 5.883 0 0 0 .364-.42zm-.563 1.946a.78.78 0 0 1-.343.001l-.171-.047c-.175-.043-.28-.174-.28-.324.022.036.07.088.145.14a.79.79 0 0 0 .462.14c.274 0 .375-.047.516-.186a.415.415 0 0 1-.06.138.305.305 0 0 1-.268.138zm0 .002a.307.307 0 0 0 .27-.14.374.374 0 0 0 .06-.139h-.003c-.14.138-.241.185-.514.185a.789.789 0 0 1-.461-.14.582.582 0 0 1-.146-.138c-.002.151.104.282.28.326.04.01.15.042.17.047a.782.782 0 0 0 .345 0z" fill="#005D90"/><path d="M12.945 9.328l.562-.139-.281.464.468.325-.562.046c0 .185.047.37.047.556l-.421-.37c-.14.139-.281.231-.422.37l.047-.51c-.187-.092-.374-.092-.561-.139l.468-.324-.234-.464.468.185c.14-.185.187-.37.234-.51.046.14.093.325.187.51z" fill="#FFF"/><path d="M12.945 9.328l.562-.139-.281.464.468.325-.562.046c0 .077.006.139.023.278.018.14.024.201.024.278l-.421-.37a2.813 2.813 0 0 1-.211.185 2.794 2.794 0 0 0-.21.185l.046-.51c-.104-.051-.187-.072-.374-.103a2.212 2.212 0 0 1-.187-.036l.468-.324-.234-.464.468.185c.063-.084.111-.172.152-.272a2.01 2.01 0 0 0 .045-.125l.037-.113.076.238c.034.103.069.19.11.272h.001zm0 0a2.027 2.027 0 0 1-.111-.272c-.017-.049-.066-.208-.076-.238l-.037.112a2.01 2.01 0 0 1-.045.126c-.04.1-.089.188-.152.272l-.468-.185.234.464-.468.324c.052.013.093.021.187.036.187.031.27.052.374.103l-.047.51c.059-.058.106-.098.211-.185s.152-.128.21-.186l.422.371c0-.077-.006-.139-.023-.278-.018-.139-.024-.2-.024-.278l.562-.046-.468-.325.28-.464-.561.14zM16.08 10.117c.188 0 .375-.093.562-.14l-.28.464c.186.093.327.232.467.371l-.561.047c0 .139.046.324.046.556l-.421-.37a3.02 3.02 0 0 0-.421.37c0-.185 0-.37.047-.556-.14-.047-.375-.047-.515-.093l.468-.325-.28-.463.514.139c.094-.14.094-.325.187-.51l.187.51z" fill="#FFF"/><path d="M16.08 10.117a.935.935 0 0 0 .281-.052l.094-.03c.093-.032.135-.044.187-.057l-.281.463c.156.078.258.163.468.371l-.561.047c0 .056.001.07.023.243.016.128.023.215.023.313l-.42-.37c-.118.076-.211.161-.422.37 0-.278.008-.402.047-.556a1.304 1.304 0 0 0-.257-.047 1.31 1.31 0 0 1-.258-.046l.468-.325-.28-.463.514.139a.73.73 0 0 0 .094-.238c.04-.148.055-.197.093-.272l.187.51zm0 0l-.187-.51a1.223 1.223 0 0 0-.094.272.733.733 0 0 1-.093.238l-.515-.14.28.464-.467.325c.058.02.117.03.257.046h.001c.14.018.198.028.257.047-.04.154-.047.278-.047.556.21-.209.304-.294.421-.37l.421.37c0-.098-.007-.185-.023-.313a1.64 1.64 0 0 1-.023-.243l.561-.047c-.21-.208-.312-.294-.468-.37l.281-.464a2.26 2.26 0 0 0-.188.056 4.853 4.853 0 0 1-.093.03.935.935 0 0 1-.28.053zM12.336 13.316l.562-.139-.28.464c.14.092.327.185.467.324l-.561.047c0 .185.046.37.046.556-.14-.139-.28-.232-.42-.37-.141.138-.282.231-.422.37l.047-.51c-.14-.093-.374-.093-.515-.139.14-.093.328-.186.468-.324l-.28-.464c.186.046.327.139.514.185.047-.185.14-.324.187-.51l.187.51z" fill="#FFF"/><path d="M12.337 13.316l.561-.139-.28.464c.04.027.202.125.233.145.098.062.172.118.234.18l-.561.046c0 .077.005.139.023.278.017.14.023.2.023.278a2.726 2.726 0 0 0-.21-.185 2.81 2.81 0 0 1-.21-.186 2.854 2.854 0 0 1-.212.186 2.8 2.8 0 0 0-.21.185l.047-.51a.684.684 0 0 0-.257-.087 5.368 5.368 0 0 0-.093-.016 1.11 1.11 0 0 1-.165-.036c.041-.027.204-.125.234-.145.098-.062.172-.118.234-.18l-.28-.463c.077.02.134.04.256.092.123.053.18.074.258.093.02-.077.041-.133.094-.255.052-.122.074-.178.093-.255l.187.51zm0 0l-.188-.51c-.02.077-.04.133-.093.255a1.522 1.522 0 0 0-.094.255 1.573 1.573 0 0 1-.257-.093 1.567 1.567 0 0 0-.258-.092l.281.464a1.378 1.378 0 0 1-.234.179c-.03.02-.193.118-.234.145.04.013.083.022.165.036l.092.016a.685.685 0 0 1 .258.087l-.047.51c.059-.057.105-.098.21-.185a2.81 2.81 0 0 0 .211-.186c.059.058.106.099.211.186a2.8 2.8 0 0 1 .21.185c0-.077-.005-.139-.023-.278-.017-.14-.023-.2-.023-.278l.561-.046a1.347 1.347 0 0 0-.234-.18c-.03-.02-.193-.118-.234-.145l.281-.464-.562.14zM16.033 13.502h.515l-.42.278.14.51-.375-.325-.421.325.14-.51a2.58 2.58 0 0 0-.374-.278h.468c.094-.14.094-.325.187-.464.047.14.094.324.14.464z" fill="#FFF"/><path d="M16.033 13.502h.515l-.42.278.14.51-.375-.325-.421.325.14-.51c-.078-.078-.165-.14-.374-.278h.468a.741.741 0 0 0 .093-.231v-.001a.742.742 0 0 1 .094-.232c.02.058.036.112.07.233.036.122.051.173.07.23v.001zm0 0a5.385 5.385 0 0 1-.07-.231 5.207 5.207 0 0 0-.07-.233.736.736 0 0 0-.094.232.743.743 0 0 1-.093.232h-.468c.21.138.296.2.374.278l-.14.51.421-.324.375.324-.14-.51.42-.278h-.515zM16.08 16.794c.188-.046.328-.139.515-.186l-.234.464.421.371c-.14 0-.374 0-.514.047v.556l-.375-.371-.421.371v-.556c-.14-.047-.328-.047-.515-.093.14-.14.328-.232.468-.325l-.234-.464.468.186.234-.51.187.51" fill="#FFF"/><path fill="#000" d="M.075 31.506h38.75v-.3H.074z"/></g></svg><svg width="55" height="31" viewBox="0 0 55 31" id="logo-victoria" y="1215"><title>logo-victoria</title><g fill="#000" fill-rule="evenodd" opacity=".51"><path d="M50.896 10.245l-3.234 6.842h2.069l.354-.785h2.423l.354.785h2.068l-3.233-6.842h-.801zm.354 3.074h.093l.56 1.478H50.69l.559-1.478zM13.262 17.084h1.9v-6.837h-1.9v6.837zM29.726 0H0l4.95 10.25h2.108l1.77 3.73 1.77-3.73h2.125l-3.186 6.84H8.255l6.608 13.681 6.724-13.922a4.22 4.22 0 0 1-1.797.39c-1.974 0-3.744-1.54-3.744-3.573s1.77-3.574 3.744-3.574c1.332 0 2.533.574 3.26 1.614l-1.584.948c-.354-.474-.856-.794-1.583-.794-.968 0-1.807.867-1.807 1.806 0 .939.839 1.805 1.807 1.805.727 0 1.23-.32 1.583-.793l.908.543 1.592-3.297h1.365v5.16h1.9v-5.16h1.909v-1.677h-4.364L29.726 0zM33.33 15.47c-1.014 0-1.843-.81-1.843-1.804s.829-1.805 1.844-1.805c1.014 0 1.843.81 1.843 1.805 0 .993-.828 1.805-1.843 1.805m0-5.38c-2.077 0-3.875 1.542-3.875 3.575 0 2.033 1.798 3.573 3.875 3.573 2.076 0 3.874-1.54 3.874-3.573s-1.798-3.574-3.874-3.574M41.2 13.547h-1.211v-1.623h1.21c.429 0 .708.474.708.812 0 .337-.279.811-.707.811m2.7-.811c0-1.432-1.164-2.49-2.635-2.49h-3.176v6.838h1.9v-1.86h.894l.866 1.86h2.133l-1.183-2.297c.67-.456 1.201-1.13 1.201-2.051M44.831 17.084h1.9v-6.837h-1.9z"/></g></svg><svg width="53" height="31" viewBox="0 0 53 31" id="logo-vta" y="1246"><title>logo-vta</title><g fill="#000" fill-rule="evenodd" opacity=".51"><path d="M0 26.92c4.964-5.757 12.352-11.704 21.32-16.73C32.82 3.746 44.374.23 52.994 0L53 .004l-3.197 4.068h-.015c-7.886.765-17.475 3.591-27.131 8.367C13.156 17.14 5.273 22.897 0 28.553V26.92"/><path d="M0 30.728c6.62-5.918 17.698-11.487 30.886-14.925a103.093 103.093 0 0 1 11.43-2.306l4.826-6.154c-6.694.86-14.266 2.879-21.962 6.057C14.51 17.806 5.65 23.593.001 29.357H0v1.37"/><path d="M25.478 30.995L20.921 31l6.326-8.12h-3.36l2.574-3.301H37.1l-2.577 3.302-2.719-.002-6.326 8.116M38.303 19.579L29.29 31h3.858l5.327-6.57v2.666c1.22-.407 2.798-.704 3.864-.76l-2.162 2.713c-.85.128-.973.137-1.702.35v1.6l4.205.001V19.579h-4.376M16.2 26.15l5.327-6.571h3.857L16.371 31h-4.376V19.579H16.2v6.57M45.05 29.69c.183 0 .348-.014.348-.231 0-.175-.161-.207-.312-.207h-.295v.437h.26zm-.259.792h-.216V29.07h.544c.337 0 .505.124.505.402 0 .253-.16.362-.37.389l.406.621h-.243l-.377-.612h-.249v.612zm.263.314c.56 0 1.002-.434 1.002-1.023a.994.994 0 0 0-1.002-1.016.996.996 0 0 0-1.01 1.016.996.996 0 0 0 1.01 1.023zm-1.26-1.023c0-.703.578-1.22 1.26-1.22.675 0 1.251.517 1.251 1.22 0 .71-.576 1.227-1.251 1.227-.682 0-1.26-.518-1.26-1.227z"/></g></svg><svg width="10" height="15" viewBox="0 0 10 15" id="post-arrow-left" y="1277"><title>arrow 3</title><path d="M4.718 7.596l4.95-4.95L7.545.526.475 7.595l1.07 1.07 6.019 6.019 2.121-2.121-4.967-4.968z" fill="#FFF" fill-rule="evenodd"/></svg><svg width="16" height="16" viewBox="0 0 16 16" id="post-facebook-share" y="1292"><title>facebook logo 2</title><path d="M15.117 0H.883A.883.883 0 0 0 0 .883v14.234c0 .488.395.883.883.883h7.663V9.804H6.461V7.389h2.085V5.61c0-2.067 1.262-3.192 3.106-3.192.883 0 1.642.065 1.863.095v2.16h-1.279c-1.002 0-1.196.476-1.196 1.176v1.541h2.39l-.31 2.415h-2.08V16h4.077a.883.883 0 0 0 .883-.883V.883A.883.883 0 0 0 15.117 0" fill="#FFF" fill-rule="evenodd"/></svg><svg width="69" height="64" viewBox="0 0 69 64" id="projects-comments-icon" y="1308"><title>projects-comments-icon@3x</title><g fill="#DB3833" fill-rule="evenodd"><path d="M52.865 44.26C52.772 33.605 44.106 24.998 33.43 25 22.699 25.001 13.999 33.702 14 44.434c0 10.732 8.7 19.432 19.433 19.432 7.24-.002 13.556-3.962 16.9-9.835l18.468.053.074-.29-16.01-9.535zm-7.023-7.022a5.015 5.015 0 1 1-10.03 0 5.015 5.015 0 0 1 10.03 0zM0 9.127c0 2.515 1.08 4.786 2.823 6.45a9.856 9.856 0 0 0 6.79 2.677h3.401l5.615 6.707c.063.076.191.033.191-.063v-6.746C23.429 17.483 27 13.68 27 9.127c0-2.515-1.08-4.786-2.823-6.45A9.883 9.883 0 0 0 17.376 0H9.613C4.33 0 0 4.108 0 9.127zm18.679.485c0-1.152.984-2.085 2.199-2.085 1.215 0 2.2.933 2.2 2.085s-.985 2.086-2.2 2.086c-1.214 0-2.2-.934-2.2-2.086zm-7.09 0c0-1.152.985-2.085 2.2-2.085 1.214 0 2.199.933 2.199 2.085s-.985 2.086-2.2 2.086c-1.213 0-2.198-.934-2.198-2.086zm-7.088 0c0-1.152.985-2.085 2.2-2.085 1.214 0 2.199.933 2.199 2.085s-.985 2.086-2.2 2.086c-1.214 0-2.199-.934-2.199-2.086z"/></g></svg><svg width="39" height="58" viewBox="0 0 39 58" id="projects-spots-icon" y="1372"><title>projects-spots-icon@3x</title><path d="M14.389 39.546L19.126 58h.3l5.04-18.415C32.83 37.318 39 29.464 39 20.122 39 9.01 30.27.001 19.501 0 8.731 0 .001 9.007 0 20.12c-.001 9.289 6.098 17.108 14.389 19.426zm1.295-24.823c-.005 2.867-2.26 5.187-5.039 5.183-2.778-.003-5.028-2.33-5.026-5.196.002-2.867 2.254-5.19 5.033-5.19 2.78 0 5.032 2.325 5.032 5.193v.01z" fill="#DB3833" fill-rule="evenodd"/></svg><svg width="55" height="85" viewBox="0 0 55 85" id="projects-supports-icon" y="1430"><title>projects-supports-icon@3x</title><g fill="#DB3833" fill-rule="evenodd"><path d="M16.01 65.26c.093-10.654 8.76-19.261 19.434-19.26 10.732.001 19.432 8.702 19.431 19.434 0 10.732-8.7 19.432-19.433 19.432-7.24-.002-13.556-3.962-16.9-9.835l-18.467.053-.075-.29 16.01-9.535zm7.023-7.022a5.015 5.015 0 1 0 10.03 0 5.015 5.015 0 0 0-10.03 0zM22.633 34.248c3.153-3.034 3.085-7.455.22-10.198-2.867-2.744-7.502-2.732-10.353.026-2.851-2.758-7.486-2.77-10.352-.026-2.866 2.743-2.933 7.164.219 10.198A63827.4 63827.4 0 0 1 12.5 44c.986-.948 6.614-6.367 10.133-9.752zM8.551 28.304c-.002 1.328-1.102 2.403-2.457 2.401-1.355-.002-2.453-1.08-2.452-2.407.001-1.328 1.1-2.404 2.455-2.404S8.55 26.97 8.55 28.299v.005zM27.367 12.248c-3.153-3.034-3.085-7.455-.22-10.198C30.015-.694 34.65-.682 37.5 2.076c2.851-2.758 7.486-2.77 10.352-.026 2.866 2.743 2.933 7.164-.219 10.198L37.5 22c-.986-.948-6.614-6.367-10.133-9.752zm14.082-5.944c.002 1.328 1.102 2.403 2.457 2.401 1.355-.002 2.453-1.08 2.452-2.407-.001-1.328-1.1-2.404-2.455-2.404S41.45 4.97 41.45 6.299v.005z"/></g></svg><svg width="52" height="78" viewBox="0 0 52 78" id="red_arrow" y="1515"><title>Red Arrow</title><g fill="#DB3833" fill-rule="evenodd"><path d="M18.063 49.178l7.414 28.52h.316l7.413-28.516-15.143-.004"/><path d="M51.232 26.784c0-14.733-11.46-26.676-25.597-26.676S.038 12.051.038 26.784c0 14.734 11.46 26.677 25.597 26.677s25.597-11.943 25.597-26.677M20.63 19.615c0 3.803-2.957 6.886-6.605 6.886-3.649 0-6.606-3.083-6.606-6.886 0-3.802 2.957-6.884 6.606-6.884 3.648 0 6.605 3.082 6.605 6.884"/></g></svg><svg width="69" height="101" viewBox="0 0 69 101" id="slider-arrow-left" y="1593"><title>slider-arrow-left</title><defs><filter x="-50%" y="-50%" width="200%" height="200%" filterUnits="objectBoundingBox" id="bca"><feOffset dy="1" in="SourceAlpha" result="shadowOffsetOuter1"/><feGaussianBlur stdDeviation="10" in="shadowOffsetOuter1" result="shadowBlurOuter1"/><feColorMatrix values="0 0 0 0 0 0 0 0 0 0 0 0 0 0 0 0 0 0 0.35 0" in="shadowBlurOuter1" result="shadowMatrixOuter1"/><feMerge><feMergeNode in="shadowMatrixOuter1"/><feMergeNode in="SourceGraphic"/></feMerge></filter></defs><path d="M38.01 35.272L4.182.855.788 4.308l30.434 30.964L.76 66.265l3.394 3.454L38.01 35.272z" transform="rotate(-180 27 43.5)" filter="url(#bca)" fill="#FFF" fill-rule="evenodd"/></svg><svg width="51" height="50" viewBox="0 0 51 50" id="slider-arrow-left-dark" y="1694"><title>slider-arrow-left-dark</title><defs><ellipse id="bda" cx="25.5" cy="25" rx="25.5" ry="25"/><mask id="bdb" x="0" y="0" width="51" height="50" fill="#fff"><use xlink:href="#bda"/></mask></defs><g transform="rotate(-180 25.5 25)" stroke="#979797" fill="none" fill-rule="evenodd"><path stroke-width="2" stroke-linecap="round" d="M22 14l11 10.5L22 35"/><use mask="url(#bdb)" stroke-width="4" xlink:href="#bda"/></g></svg><svg width="50" height="65" viewBox="0 0 50 65" id="slider-arrow-left-mobile" y="1744"><title>slider-arrow-left-mobile</title><defs><filter x="-50%" y="-50%" width="200%" height="200%" filterUnits="objectBoundingBox" id="bea"><feOffset dy="1" in="SourceAlpha" result="shadowOffsetOuter1"/><feGaussianBlur stdDeviation="10" in="shadowOffsetOuter1" result="shadowBlurOuter1"/><feColorMatrix values="0 0 0 0 0 0 0 0 0 0 0 0 0 0 0 0 0 0 0.35 0" in="shadowBlurOuter1" result="shadowMatrixOuter1"/><feMerge><feMergeNode in="shadowMatrixOuter1"/><feMergeNode in="SourceGraphic"/></feMerge></filter></defs><path d="M19.022 17.652L2.093.428.394 2.156l15.231 15.496L.38 33.163l1.699 1.728 16.943-17.239z" transform="rotate(-180 17.759 25.516)" stroke="#FFF" filter="url(#bea)" fill="#FFF" fill-rule="evenodd"/></svg><svg width="69" height="101" viewBox="0 0 69 101" id="slider-arrow-right" y="1809"><title>slider-arrow-right</title><defs><filter x="-50%" y="-50%" width="200%" height="200%" filterUnits="objectBoundingBox" id="bfa"><feOffset dy="1" in="SourceAlpha" result="shadowOffsetOuter1"/><feGaussianBlur stdDeviation="10" in="shadowOffsetOuter1" result="shadowBlurOuter1"/><feColorMatrix values="0 0 0 0 0 0 0 0 0 0 0 0 0 0 0 0 0 0 0.35 0" in="shadowBlurOuter1" result="shadowMatrixOuter1"/><feMerge><feMergeNode in="shadowMatrixOuter1"/><feMergeNode in="SourceGraphic"/></feMerge></filter></defs><path d="M38.01 35.272L4.182.855.788 4.308l30.434 30.964L.76 66.265l3.394 3.454L38.01 35.272z" transform="translate(15 14)" filter="url(#bfa)" fill="#FFF" fill-rule="evenodd"/></svg><svg width="51" height="50" viewBox="0 0 51 50" id="slider-arrow-right-dark" y="1910"><title>slider-arrow-right-dark</title><defs><ellipse id="bga" cx="25.5" cy="25" rx="25.5" ry="25"/><mask id="bgb" x="0" y="0" width="51" height="50" fill="#fff"><use xlink:href="#bga"/></mask></defs><g stroke="#979797" fill="none" fill-rule="evenodd"><path stroke-width="2" stroke-linecap="round" d="M22 14l11 10.5L22 35"/><use mask="url(#bgb)" stroke-width="4" xlink:href="#bga"/></g></svg><svg width="50" height="64" viewBox="0 0 50 64" id="slider-arrow-right-mobile" y="1960"><title>slider-arrow-right-mobile</title><defs><filter x="-50%" y="-50%" width="200%" height="200%" filterUnits="objectBoundingBox" id="bha"><feOffset dy="1" in="SourceAlpha" result="shadowOffsetOuter1"/><feGaussianBlur stdDeviation="10" in="shadowOffsetOuter1" result="shadowBlurOuter1"/><feColorMatrix values="0 0 0 0 0 0 0 0 0 0 0 0 0 0 0 0 0 0 0.35 0" in="shadowBlurOuter1" result="shadowMatrixOuter1"/><feMerge><feMergeNode in="shadowMatrixOuter1"/><feMergeNode in="SourceGraphic"/></feMerge></filter></defs><path d="M19.022 17.652L2.093.428.394 2.156l15.231 15.496L.38 33.163l1.699 1.728 16.943-17.239z" transform="translate(14.465 13.25)" stroke="#FFF" filter="url(#bha)" fill="#FFF" fill-rule="evenodd"/></svg><svg preserveAspectRatio="xMidYMid" width="10" height="10" viewBox="0 0 10 10" id="slider-dot" y="2024"><defs><style>.bicls-2{stroke:#959595;stroke-width:1px;fill:none}</style></defs><circle id="bicircle-1" class="bicls-2" cx="5" cy="5" r="5"/></svg><svg preserveAspectRatio="xMidYMid" width="10" height="10" viewBox="0 0 10 10" id="slider-dot-current" y="2034"><defs><style>.bjcls-2{fill:#000;stroke:#000;stroke-width:1px;opacity:.65}</style></defs><circle id="bjcircle-1" class="bjcls-2" cx="5" cy="5" r="5"/></svg><svg width="40" height="40" viewBox="0 0 40 40" id="x_close_desktop" y="2044"><title>x_close_desktop</title><g stroke-linecap="square" stroke="#979797" fill="none" fill-rule="evenodd"><path d="M39.5.5L.61 39.438M.5.5l38.89 38.937"/></g></svg><svg width="21" height="21" viewBox="0 0 21 21" id="x_close_mobile" y="2084"><title>x_close_mobile</title><g transform="translate(.5 .5)" stroke-linecap="square" stroke="#979797" fill="none" fill-rule="evenodd"><path d="M19.75.25L.305 19.695M.25.25l19.445 19.445"/></g></svg></svg>