<?xml version="1.0" encoding="UTF-8" standalone="no"?>
<svg width="17px" height="16px" viewBox="0 0 17 16" version="1.1" xmlns="http://www.w3.org/2000/svg" xmlns:xlink="http://www.w3.org/1999/xlink">
    <!-- Generator: Sketch 39.1 (31720) - http://www.bohemiancoding.com/sketch -->
    <title>thumbs-up-filled</title>
    <desc>Created with Sketch.</desc>
    <defs>
        <linearGradient x1="50%" y1="0%" x2="50%" y2="100%" id="linearGradient-1">
            <stop stop-color="#B4ED50" offset="0%"></stop>
            <stop stop-color="#429321" offset="100%"></stop>
        </linearGradient>
    </defs>
    <g id="Page-1" stroke="none" stroke-width="1" fill="none" fill-rule="evenodd">
        <path d="M17,7.43877551 C17,6.66734694 16.4,6.06122449 15.6363636,6.06122449 L11.5454545,6.06122449 C11.3272727,6.06122449 10.5636364,5.73061224 11.1636364,4.79387755 C11.5454545,4.07755102 11.5454545,1.37755102 11.5454545,1.37755102 C11.5454545,0.606122449 10.9454545,0 10.1818182,0 C9.41818182,0 8.81818182,0.606122449 8.81818182,1.37755102 C8.81818182,5.4 5,6.6122449 5,6.6122449 L5,13.7755102 C6.74545455,14.3816327 7.18181818,15.4285714 9.36363636,15.4285714 L13.4545455,15.4285714 C14.2181818,15.4285714 14.8181818,14.822449 14.8181818,14.0510204 C14.8181818,13.7204082 14.7090909,13.444898 14.5454545,13.2244898 C15.3090909,13.2244898 15.9090909,12.6183673 15.9090909,11.8469388 C15.9090909,11.5163265 15.8,11.1857143 15.5818182,10.9102041 C16.1272727,10.6897959 16.4545455,10.1938776 16.4545455,9.64285714 C16.4545455,9.3122449 16.3454545,8.98163265 16.1272727,8.70612245 C16.6181818,8.54081633 17,8.04489796 17,7.43877551 Z M2.67857143,5.14285714 L2.14285714,5.14285714 L0,5.14285714 L0,14.5714286 L2.67857143,14.5714286 C3.58928571,14.5714286 4.28571429,13.794958 4.28571429,12.907563 L4.28571429,6.80672269 C4.28571429,5.86386555 3.58928571,5.14285714 2.67857143,5.14285714 Z" id="thumbs-up-filled" fill="url(#linearGradient-1)"></path>
    </g>
</svg>