<?xml version="1.0" encoding="UTF-8" standalone="no"?>
<svg width="23px" height="19px" viewBox="0 0 23 19" version="1.1" xmlns="http://www.w3.org/2000/svg" xmlns:xlink="http://www.w3.org/1999/xlink">
    <!-- Generator: Sketch 39.1 (31720) - http://www.bohemiancoding.com/sketch -->
    <title>twitter-share</title>
    <desc>Created with Sketch.</desc>
    <defs></defs>
    <g id="Page-1" stroke="none" stroke-width="1" fill="none" fill-rule="evenodd">
        <path d="M7.08641505,18.3099995 C15.5897526,18.3099995 20.2407194,11.2650465 20.2407194,5.15569507 C20.2407194,4.95559533 20.2407194,4.75639694 20.2271992,4.5580999 C21.1320028,3.90363933 21.9130444,3.09329717 22.5337543,2.1650152 C21.6899815,2.53889685 20.7948959,2.78408832 19.8783767,2.89240479 C20.843492,2.31462315 21.5658155,1.40587283 21.9109213,0.33527435 C21.0034037,0.873790801 20.0105562,1.25331033 18.9752238,1.45745531 C17.5421516,-0.066372443 15.2650135,-0.439334644 13.4206978,0.547704493 C11.576382,1.53474363 10.623561,3.63631227 11.096522,5.67397141 C7.37925988,5.48761685 3.91589399,3.73185318 1.5683493,0.843635847 C0.341271686,2.95608042 0.968039163,5.6585218 2.99969337,7.01518047 C2.26395836,6.9933746 1.54426466,6.79490237 0.901350171,6.43651366 L0.901350171,6.49510142 C0.901952393,8.69583166 2.45325117,10.591319 4.61040613,11.0270901 C3.92976921,11.2127142 3.21563937,11.2398486 2.52287913,11.1064089 C3.12853951,12.9897105 4.86420341,14.279868 6.84214915,14.3170182 C5.20505842,15.6036342 3.1827211,16.3020867 1.10054856,16.2999886 C0.732710771,16.2992824 0.365230754,16.2770109 0,16.2332887 C2.11423936,17.59007 4.57427406,18.3097443 7.08641505,18.3063941" id="twitter-share" fill="#FFFFFF"></path>
    </g>
</svg>