<?xml version="1.0" encoding="UTF-8" standalone="no"?>
<svg width="61px" height="60px" viewBox="0 0 61 60" version="1.1" xmlns="http://www.w3.org/2000/svg" xmlns:xlink="http://www.w3.org/1999/xlink">
    <!-- Generator: Sketch 40 (33762) - http://www.bohemiancoding.com/sketch -->
    <title>emoji-angry</title>
    <desc>Created with Sketch.</desc>
    <defs></defs>
    <g id="Page-1" stroke="none" stroke-width="1" fill="none" fill-rule="evenodd">
        <g id="emoji-angry" transform="translate(0.500000, 0.000000)">
            <path d="M60,30 C60,46.56854 46.56854,60 30,60 C13.43146,60 0,46.56854 0,30 C0,13.43146 13.43146,0 30,0 C46.56854,0 60,13.43146 60,30 L60,30 Z" id="Fill-1" fill="#F46767"></path>
            <path d="M40.684,46.839 C38.884,45.78 37.144,45.138 35.362,44.712 C33.588,44.286 31.797,44.103 30.001,44.101 C28.203,44.109 26.414,44.29 24.641,44.716 C22.859,45.144 21.12,45.78201 19.318,46.839 C20.089,44.862 21.803,43.30801 23.714,42.314 C25.646,41.314 27.833,40.828 30.001,40.828 C32.168,40.832 34.355,41.314 36.285,42.318 C38.194,43.312 39.909,44.86401 40.684,46.839" id="Fill-3" fill="#493B30"></path>
            <path d="M50.29,22.597 C52.3,26.91 50.436,32.036 46.122,34.046 C41.809,36.056 36.683,34.191 34.673,29.88 C33.159,26.632 48.773,19.349 50.29,22.597" id="Fill-4" fill="#FFFFFF"></path>
            <path d="M47.762,23.776 C49.121,26.692 47.86,30.157 44.946,31.518 C42.03,32.877 38.565,31.616 37.204,28.7 C36.34,26.849 46.898,21.925 47.762,23.776" id="Fill-5" fill="#493B30"></path>
            <path d="M51.895,22.925 C50.025,23.107 48.356,23.384 46.742,23.816 C45.133,24.238 43.597,24.798 42.12,25.484 C40.636,26.173 39.23,26.972 37.87,27.931 C36.506,28.888 35.225,29.988 33.895,31.318 C34.098,29.433 35.023,27.662 36.265,26.203 C37.513,24.742 39.116,23.562 40.86,22.762 C42.61,21.951 44.53001,21.5 46.451,21.483 C48.362,21.474 50.30901,21.89 51.895,22.925" id="Fill-6" fill="#493B30"></path>
            <path d="M9.709,22.597 C7.698999,26.91 9.563,32.036 13.877,34.046 C18.188,36.056 23.315,34.191 25.324,29.88 C26.84,26.632 11.224,19.349 9.709,22.597" id="Fill-7" fill="#FFFFFF"></path>
            <path d="M12.238,23.776 C10.877,26.692 12.138,30.157 15.052,31.518 C17.97,32.877 21.435,31.616 22.796,28.7 C23.658,26.849 13.102,21.925 12.238,23.776" id="Fill-8" fill="#493B30"></path>
            <path d="M8.11,22.925 C9.696,21.89 11.641,21.474 13.554,21.482 C15.475,21.5 17.395,21.951 19.145,22.761 C20.889,23.562 22.491,24.741 23.74,26.202 C24.981,27.663 25.907,29.432 26.11,31.317 C24.78,29.987 23.5,28.887 22.135,27.93 C20.775,26.971 19.368,26.172 17.885,25.481 C16.407,24.797 14.875,24.237 13.263,23.815 C11.65,23.384 9.981,23.106 8.11,22.925" id="Fill-9" fill="#493B30"></path>
        </g>
    </g>
</svg>