<?xml version="1.0" encoding="UTF-8" standalone="no"?>
<svg width="60px" height="60px" viewBox="0 0 60 60" version="1.1" xmlns="http://www.w3.org/2000/svg" xmlns:xlink="http://www.w3.org/1999/xlink">
    <!-- Generator: Sketch 40 (33762) - http://www.bohemiancoding.com/sketch -->
    <title>emoji-relaxed</title>
    <desc>Created with Sketch.</desc>
    <defs></defs>
    <g id="Page-1" stroke="none" stroke-width="1" fill="none" fill-rule="evenodd">
        <g id="emoji-relaxed" transform="translate(-1.000000, 0.000000)">
            <path d="M31,0 C47.568,0 61,13.432 61,30 C61,46.568 47.567,60 31,60 C14.431,60 1,46.568 1,30 C1,13.432 14.431,0 31,0" id="Fill-1" fill="#FFDD67"></path>
            <path d="M35.12,19.983 C32.765,21.16 29.23,21.16 26.873,19.983 C24.356,18.691 21.28,17.864 17.599,17.541 C14.004,17.227 6.383999,17.237 2.568999,18.58 C2.131999,18.733 1.699999,18.932 1.285999,19.144 C1.051999,19.263 1.004999,19.351 1.004999,19.79 L1.004999,20.355 C1.004999,21.418 0.871999,21.004 1.630999,21.449 C3.11,22.314 3.950999,24.565 4.401999,27.663 C5.042999,32.178 7.259,35.006 10.855,36.357 C14.193,37.611 17.925,37.567 21.238,36.245 C23.049,35.521 24.64,34.378 25.904,32.521 C28.119,29.264 27.455,27.232 28.599,24.431 C29.595,21.99 32.393,21.99 33.391,24.431 C34.534,27.229 33.87,29.261 36.086,32.521 C37.348,34.377 38.94,35.521 40.751,36.245 C44.062,37.567 47.801,37.611 51.135,36.357 C54.731,35.005 56.947,32.177 57.588,27.663 C58.037,24.565 58.879,22.314 60.358,21.449 C61.118,21.005 60.985,21.419 60.985,20.355 L60.985,19.79 C60.985,19.352 60.938,19.264 60.704,19.144 C60.29,18.931 59.858,18.733 59.421,18.58 C55.608,17.237 47.987,17.226 44.391,17.541 C40.708,17.864 37.632,18.691 35.115,19.983" id="Fill-3" fill="#262626"></path>
            <path d="M20.462,41.09 C21.595,42.869 23.174,44.161 25.01,45.046 C26.841,45.932 28.918,46.372 31.001,46.374 C33.082,46.367 35.157,45.929 36.987,45.043 C38.821,44.157 40.401,42.867 41.536,41.09 C41.782,43.168 40.71,45.431 38.716,47.034 C36.742,48.66 33.872,49.614 31,49.601 C28.129,49.609 25.262,48.657 23.287,47.031 C21.296,45.429 20.221,43.168 20.462,41.09" id="Fill-4" fill="#664E27"></path>
        </g>
    </g>
</svg>