<?xml version="1.0" encoding="UTF-8" standalone="no"?>
<svg width="60px" height="60px" viewBox="0 0 60 60" version="1.1" xmlns="http://www.w3.org/2000/svg" xmlns:xlink="http://www.w3.org/1999/xlink">
    <!-- Generator: Sketch 40 (33762) - http://www.bohemiancoding.com/sketch -->
    <title>emoji-satisfied</title>
    <desc>Created with Sketch.</desc>
    <defs></defs>
    <g id="Page-1" stroke="none" stroke-width="1" fill="none" fill-rule="evenodd">
        <g id="emoji-satisfied">
            <path d="M60,30 C60,46.56854 46.56854,60 30,60 C13.43146,60 0,46.56854 0,30 C0,13.43146 13.43146,0 30,0 C46.56854,0 60,13.43146 60,30 L60,30 Z" id="Fill-1" fill="#FFDD67"></path>
            <path d="M15.316,38.949 C17.791,40.404 20.181,41.287 22.63,41.873 C25.068,42.459 27.528,42.709 30.001,42.713 C32.47,42.703 34.929,42.453 37.368,41.869 C39.815,41.281 42.206,40.4 44.682,38.949 C43.621,41.666 41.266,43.803 38.642,45.17 C35.99,46.549 32.98,47.213 30.001,47.211 C27.022,47.207 24.015,46.543 21.362,45.164 C18.741,43.795 16.386,41.662 15.322,38.949" id="Fill-3" fill="#664E27"></path>
            <path d="M51.2,18.727 C47.966,15.995 43.677,14.846 39.509,15.594 C38.929,15.707 38.419,13.574 39.122,13.438 C43.933,12.575 48.88,13.899 52.614,17.053 C53.155,17.521 51.645,19.113 51.2,18.727" id="Fill-4" fill="#917524"></path>
            <path d="M20.488,15.443 C16.32,14.695 12.033,15.843 8.795,18.576 C8.352,18.965 6.842001,17.371 7.383001,16.902 C11.117,13.75 16.065,12.423 20.875,13.287 C21.578,13.422 21.066,15.557 20.488,15.443" id="Fill-5" fill="#917524"></path>
            <path d="M34.41,25.351 C37.674,31.548 47.063,31.548 50.327,25.351 C50.522,24.973 50.008,24.43 49.377,23.999 C45.242,27.269 39.497,27.27 35.357,23.999 C34.726,24.431 34.212,24.973 34.405,25.351" id="Fill-6" fill="#664E27"></path>
            <path d="M9.673,25.351 C12.937,31.548 22.326,31.548 25.59,25.352 C25.785,24.973 25.27,24.43 24.639,23.999 C20.504,27.27 14.76,27.27 10.629,24 C9.998,24.431 9.483,24.973 9.677,25.351" id="Fill-7" fill="#664E27"></path>
        </g>
    </g>
</svg>