<?xml version="1.0" encoding="UTF-8" standalone="no"?>
<svg width="60px" height="60px" viewBox="0 0 60 60" version="1.1" xmlns="http://www.w3.org/2000/svg" xmlns:xlink="http://www.w3.org/1999/xlink">
    <!-- Generator: Sketch 40 (33762) - http://www.bohemiancoding.com/sketch -->
    <title>emoji-creepy</title>
    <desc>Created with Sketch.</desc>
    <defs></defs>
    <g id="Page-1" stroke="none" stroke-width="1" fill="none" fill-rule="evenodd">
        <g id="emoji-creepy" transform="translate(-1.000000, -1.000000)">
            <path d="M1.452,36.21 C4.329,52.53 19.891,63.4199982 36.206,60.543999 C52.521,57.667 63.416,42.112 60.539,25.793 C57.662,9.472 42.104,-1.417 25.786,1.457 C9.472,4.334 -1.423996,19.89 1.452003,36.21" id="Fill-1" fill="#FFDD67"></path>
            <path d="M48.38,23.677 C48.38,27.54299 45.24599,30.677 41.38,30.677 C37.51401,30.677 34.38,27.54299 34.38,23.677 C34.38,19.81101 37.51401,16.677 41.38,16.677 C45.24599,16.677 48.38,19.81101 48.38,23.677 L48.38,23.677 Z" id="Fill-3" fill="#FFFFFF"></path>
            <path d="M44.88,23.677 C44.88,25.61 43.313,27.177 41.38,27.177 C39.447,27.177 37.88,25.61 37.88,23.677 C37.88,21.744 39.447,20.177 41.38,20.177 C43.313,20.177 44.88,21.744 44.88,23.677 L44.88,23.677 Z" id="Fill-4" fill="#664E27"></path>
            <path d="M17.17,18.807 C12.277,19.67 9.008,24.342 9.869,29.235 C10.732,34.131 15.402,37.397 20.295,36.533 C25.193,35.67 28.459,31.006 27.596,26.108 C26.734,21.215 22.066,17.944 17.17,18.807" id="Fill-5" fill="#FFFFFF"></path>
            <path d="M23.231,27.67 C23.231,30.15528 21.21628,32.17 18.731,32.17 C16.24572,32.17 14.231,30.15528 14.231,27.67 C14.231,25.18472 16.24572,23.17 18.731,23.17 C21.21628,23.17 23.231,25.18472 23.231,27.67 L23.231,27.67 Z" id="Fill-6" fill="#664E27"></path>
            <path d="M43.518,43.777 C41.56,43.045 39.736,42.716 37.908,42.606 C36.085,42.493 34.29,42.626 32.521,42.933 C30.751,43.253 29.021,43.743 27.348,44.47 C25.668,45.2 24.067,46.133 22.475,47.49 C22.892,45.408 24.308,43.579 26.018,42.268 C27.747,40.946 29.817,40.088 31.952,39.714 C34.085,39.342 36.324,39.437 38.39799,40.088 C40.453,40.738 42.408,41.97 43.51799,43.78" id="Fill-7" fill="#664E27"></path>
        </g>
    </g>
</svg>