<?xml version="1.0" encoding="UTF-8" standalone="no"?>
<svg width="60px" height="60px" viewBox="0 0 60 60" version="1.1" xmlns="http://www.w3.org/2000/svg" xmlns:xlink="http://www.w3.org/1999/xlink">
    <!-- Generator: Sketch 40 (33762) - http://www.bohemiancoding.com/sketch -->
    <title>emoji-trust</title>
    <desc>Created with Sketch.</desc>
    <defs></defs>
    <g id="Page-1" stroke="none" stroke-width="1" fill="none" fill-rule="evenodd">
        <g id="emoji-trust">
            <path d="M60,30 C60,46.57 46.57,60 30,60 C13.442,60 0,46.57 0,30 C0,13.43 13.442,0 30,0 C46.57,0 60,13.43 60,30 L60,30 Z" id="Fill-1" fill="#FFDD67"></path>
            <path d="M15.317,37.949 C17.792,39.406 20.182,40.289 22.631,40.875 C25.07,41.461 27.531,41.709 30.002,41.715 C32.47,41.703 34.929,41.455 37.369,40.869 C39.816,40.281 42.207,39.402 44.685,37.949 C43.624,40.666 41.267,42.804 38.635,44.172 C35.983,45.551 32.975,46.215 29.995,46.213 C27.018,46.207 24.011,45.545 21.358,44.166 C18.734,42.797 16.378,40.66199 15.308,37.949" id="Fill-3" fill="#664E27"></path>
            <path d="M58.42,5.619 C58.09,2.842 53.104,0.935 45.686,0.265 C42.104,-0.059 37.954,-0.092 33.491,0.202 C38.434,0.774 43.012,2.548 46.925,5.222 C48.724,5.449 50.32299,5.763 51.611,6.146 C51.761,6.191 51.902,6.234 52.03699,6.279 C51.473,6.664 50.76899,7.099 49.918,7.56 C49.70499,7.677 49.48199,7.794 49.25,7.912 C48.492,8.246 47.625,8.594 46.637,8.951 C41.953,10.631 35.922,11.971 29.651,12.709 C28.088,12.895 26.542,13.041 25.022,13.148 C16.897,13.466 10.752,12.738 7.101997,12.093 C6.734998,12.029 6.392998,11.964 6.076998,11.902 C9.22,7.754 13.415,4.447 18.267,2.382 C7.206998,4.886 -0.410002,8.921 0.019999,12.546 C0.179999,13.888 1.425999,15.026 3.505999,15.921 C5.734999,16.878 8.92,17.554 12.754,17.901 C17.712,18.348 23.754,18.243 30.215,17.477 C39.91,16.327 48.345,13.95 53.405,11.227 C56.763,9.423 58.642,7.468 58.425,5.618" id="Fill-4" fill="#65B1EF"></path>
            <path d="M53.945,4.746 C52.463,6.385 50.535,7.555 48.605,8.621 C46.642,9.648 44.575,10.482 42.466,11.148 C38.241,12.502 33.847,13.238 29.446,13.625 C25.048,13.996 20.624,14.043 16.223,13.703 C11.832,13.361 7.434,12.668 3.266999,11.254 C5.422999,11.664 7.587999,11.951 9.764,12.125 C11.935,12.324 14.109,12.441 16.285,12.502 C20.635,12.617 24.988,12.49 29.325,12.145 C33.651,11.793 37.953,11.153 42.147,10.059 C44.239,9.5 46.305,8.836 48.301,7.987 C50.301,7.146 52.252,6.139 53.945,4.746" id="Fill-5" fill="#AEFBFF"></path>
            <path d="M25.7,24.789 C20.944,19.647 11.874,22.078 10.325,28.908 C10.234,29.324 10.871,29.715 11.593,29.969 C14.741,25.74 20.29,24.252 25.13,26.341 C25.627,25.762 25.985,25.104 25.7,24.789" id="Fill-6" fill="#664E27"></path>
            <path d="M49.674,28.908 C48.125,22.078 39.057,19.647 34.301,24.787 C34.014,25.103 34.371,25.762 34.869,26.34 C39.709,24.252 45.258,25.738 48.404,29.967 C49.127,29.714 49.764,29.324 49.674,28.908" id="Fill-7" fill="#664E27"></path>
        </g>
    </g>
</svg>