<?xml version="1.0" encoding="UTF-8" standalone="no"?>
<svg width="60px" height="60px" viewBox="0 0 60 60" version="1.1" xmlns="http://www.w3.org/2000/svg" xmlns:xlink="http://www.w3.org/1999/xlink">
    <!-- Generator: Sketch 40 (33762) - http://www.bohemiancoding.com/sketch -->
    <title>emoji-excited</title>
    <desc>Created with Sketch.</desc>
    <defs></defs>
    <g id="Page-1" stroke="none" stroke-width="1" fill="none" fill-rule="evenodd">
        <g id="emoji-excited" transform="translate(-1.000000, 0.000000)">
            <path d="M60.999,30 C60.999,46.56854 47.56754,60 30.999,60 C14.43046,60 0.999001,46.56854 0.999001,30 C0.999001,13.43146 14.43046,0 30.999,0 C47.56754,0 60.999,13.43146 60.999,30 L60.999,30 Z" id="Fill-1" fill="#FFDD67"></path>
            <path d="M26.699,21.683 C21.942,16.542 12.872,18.972 11.324,25.803 C11.233,26.219 11.87,26.61 12.592,26.864 C15.739,22.635 21.289,21.147 26.129,23.236 C26.627,22.655 26.983,21.998 26.699,21.683" id="Fill-3" fill="#664E27"></path>
            <path d="M50.674,25.802 C49.125,18.971 40.056,16.541 35.3,21.681 C35.013,21.996 35.37,22.655 35.868,23.234 C40.709,21.145 46.257,22.631 49.404,26.86 C50.126,26.608 50.764,26.218 50.674,25.802" id="Fill-4" fill="#664E27"></path>
            <path d="M42.795,47.861 L19.203,47.861 C8.263999,47.861 8.263999,31.861 19.203,31.861 L42.795,31.861 C53.734,31.861 53.734,47.861 42.795,47.861" id="Fill-5" fill="#FFFFFF"></path>
            <polygon id="Fill-6" fill="#98A0A6" points="30.5 33.26 31.5 33.26 31.5 46.47 30.5 46.47"></polygon>
            <polygon id="Fill-7" fill="#98A0A6" points="36.719 33.26 37.719 33.26 37.719 46.47 36.719 46.47"></polygon>
            <polygon id="Fill-8" fill="#98A0A6" points="24.279 33.26 25.279 33.26 25.279 46.47 24.279 46.47"></polygon>
            <polygon id="Fill-9" fill="#98A0A6" points="18.06 33.26 19.06 33.26 19.06 46.47 18.06 46.47"></polygon>
            <polygon id="Fill-10" fill="#98A0A6" points="42.939 33.26 43.939 33.26 43.939 46.47 42.939 46.47"></polygon>
            <polygon id="Fill-11" fill="#98A0A6" points="12.249 39.36 49.749 39.36 49.749 40.36 12.249 40.36"></polygon>
            <path d="M42.795,33.861 C47.081,33.861 49,36.871 49,39.861 C49,42.851 47.081,45.861 42.795,45.861 L19.203,45.861 C14.917,45.861 12.998,42.851 12.998,39.861 C12.998,36.871 14.917,33.861 19.203,33.861 L42.795,33.861 L42.795,33.861 Z M42.795,31.861 L19.203,31.861 C8.263999,31.861 8.263999,47.861 19.203,47.861 L42.795,47.861 C53.734,47.861 53.734,31.861 42.795,31.861 L42.795,31.861 Z" id="Fill-12" fill="#664E27"></path>
        </g>
    </g>
</svg>