<?xml version="1.0" encoding="UTF-8"?>
<svg width="64px" height="64px" viewBox="0 0 64 64" version="1.1" xmlns="http://www.w3.org/2000/svg" xmlns:xlink="http://www.w3.org/1999/xlink">
    <!-- Generator: Sketch 40.1 (33804) - http://www.bohemiancoding.com/sketch -->
    <title>emoji-anytime</title>
    <desc>Created with Sketch.</desc>
    <defs>
        <circle id="path-1" cx="32" cy="32" r="32"></circle>
        <rect id="path-3" x="0" y="0" width="31" height="64"></rect>
        <polygon id="path-5" points="8.935 11.96 17 11.96 17 0.369 0.87 0.369 0.87 6.1645 0.87 11.96"></polygon>
    </defs>
    <g id="Page-1" stroke="none" stroke-width="1" fill="none" fill-rule="evenodd">
        <g id="emoji-anytime">
            <mask id="mask-2" fill="white">
                <use xlink:href="#path-1"></use>
            </mask>
            <use id="Mask" fill="#FFFFFF" xlink:href="#path-1"></use>
            <g id="Group-4" mask="url(#mask-2)">
                <g id="Page-1-Copy-2">
                    <polygon id="Fill-1" fill="#42ADE2" points="0 64 64 64 64 0 0 0"></polygon>
                    <path d="M48,45.738 L64,45.738 L64,64 L44,64 L44,49.738 C44,47.537 45.8,45.738 48,45.738" id="Fill-3" fill="#3E4347"></path>
                    <path d="M60.8,49 L61.2,49 C61.639,49 62,49.436 62,49.967 L62,63.9969978 L60,63.9969978 L60,49.967 C60,49.436 60.36,49 60.8,49" id="Fill-4" fill="#D0D0D0"></path>
                    <path d="M55.8,49 L56.2,49 C56.639,49 57,49.436 57,49.967 L57,63.9969978 L55,63.9969978 L55,49.967 C55,49.436 55.36,49 55.8,49" id="Fill-5" fill="#D0D0D0"></path>
                    <polygon id="Fill-6" fill="#3E4347" points="51.31 45.858 62.33 45.858 62.33 42.994002 51.31 42.994002"></polygon>
                    <polygon id="Fill-7" fill="#3E4347" points="0 43.11 13.14 43.11 13.14 37.888 0 40.888"></polygon>
                    <path d="M57.716,1.623 C57.716,1.623 58.239,8.566 54.386,12.703 C50.529,16.839 43.75,16.598 43.75,16.598 C47.933,20.202 54.448,19.772 58.304,15.638 C62.164,11.502 61.897,5.23 57.716,1.628" id="Fill-8" fill="#FFDD7D"></path>
                    <polygon id="Fill-9" fill="#6ADBC6" points="10.556 14.334 8.89 11 7.222 14.334 3.89 16 7.222 17.666 8.89 21 10.556 17.666 13.89 16"></polygon>
                    <polygon id="Fill-10" fill="#FFFFFF" points="11.38959 16.00252 8.88928 18.50282 6.388975 16.00252 8.889281 13.50221"></polygon>
                    <polygon id="Fill-11" fill="#6ADBC6" points="34.25 8.666 32.583 5.332 30.915 8.666 27.583 10.332 30.915 11.998 32.583 15.332 34.25 11.998 37.583 10.332"></polygon>
                    <polygon id="Fill-12" fill="#FFFFFF" points="35.08411 10.33168 32.5838 12.83199 30.0835 10.33168 32.5838 7.83138"></polygon>
                    <polygon id="Fill-13" fill="#6ADBC6" points="56.666 25.751 55 22.417 53.33 25.751 50 27.417 53.33 29.08 55 32.417 56.666 29.08 60 27.417"></polygon>
                    <polygon id="Fill-14" fill="#FFFFFF" points="57.50466 27.41553 55.00435 29.91583 52.50404 27.41553 55.00435 24.91522"></polygon>
                    <polygon id="Fill-15" fill="#3E4347" points="0 64 13 64 13 43 0 43"></polygon>
                    <path d="M9.5,51 C9.5,51.549 9.05,52 8.5,52 L5.5,52 C4.95,52 4.5,51.549 4.5,51 L4.5,49 C4.5,48.449 4.95,48 5.5,48 L8.5,48 C9.05,48 9.5,48.449 9.5,49 L9.5,51" id="Fill-16" fill="#ED4C5C"></path>
                    <path d="M9.5,59 C9.5,59.549 9.05,60 8.5,60 L5.5,60 C4.95,60 4.5,59.549 4.5,59 L4.5,57 C4.5,56.449001 4.95,56 5.5,56 L8.5,56 C9.05,56 9.5,56.449001 9.5,57 L9.5,59" id="Fill-17" fill="#ED4C5C"></path>
                    <polygon id="Fill-18" fill="#121314" points="23 19 13 30.32 13 64 33 64 33 30.32"></polygon>
                    <path d="M30,43 C30,43.549 29.55,44 29,44 L17,44 C16.45,44 16,43.549 16,43 L16,41 C16,40.449 16.45,40 17,40 L29,40 C29.55,40 30,40.449 30,41 L30,43" id="Fill-19" fill="#FFDD7D"></path>
                    <path d="M30,59 C30,59.549 29.55,60 29,60 L17,60 C16.45,60 16,59.549 16,59 L16,57 C16,56.449001 16.45,56 17,56 L29,56 C29.55,56 30,56.449001 30,57 L30,59" id="Fill-20" fill="#FFDD7D"></path>
                    <path d="M30,35 C30,35.549 29.55,36 29,36 L17,36 C16.45,36 16,35.549 16,35 L16,33 C16,32.449 16.45,32 17,32 L29,32 C29.55,32 30,32.449 30,33 L30,35" id="Fill-21" fill="#FFDD7D"></path>
                    <polygon id="Fill-22" fill="#121314" points="50 38 50 34 44 32 44 21 42 21 42 32 36 34 36 38 33 38 33 64 53 64 53 38"></polygon>
                    <path d="M41.5,45 C41.5,45.549 41.05,46 40.5,46 L37.5,46 C36.95,46 36.5,45.549 36.5,45 L36.5,43 C36.5,42.449 36.95,42 37.5,42 L40.5,42 C41.05,42 41.5,42.449 41.5,43 L41.5,45" id="Fill-23" fill="#6ADBC6"></path>
                    <path d="M49.5,53 C49.5,53.549 49.05,54 48.5,54 L45.5,54 C44.95,54 44.5,53.549 44.5,53 L44.5,51 C44.5,50.449 44.95,50 45.5,50 L48.5,50 C49.05,50 49.5,50.449 49.5,51 L49.5,53" id="Fill-24" fill="#6ADBC6"></path>
                    <path d="M41.5,61 C41.5,61.549 41.05,62 40.5,62 L37.5,62 C36.95,62 36.5,61.549 36.5,61 L36.5,59 C36.5,58.449001 36.95,58 37.5,58 L40.5,58 C41.05,58 41.5,58.449001 41.5,59 L41.5,61" id="Fill-25" fill="#6ADBC6"></path>
                    <path d="M49.5,61 C49.5,61.549 49.05,62 48.5,62 L45.5,62 C44.95,62 44.5,61.549 44.5,61 L44.5,59 C44.5,58.449001 44.95,58 45.5,58 L48.5,58 C49.05,58 49.5,58.449001 49.5,59 L49.5,61" id="Fill-26" fill="#6ADBC6"></path>
                    <path d="M30,51 C30,51.549 29.55,52 29,52 L17,52 C16.45,52 16,51.549 16,51 L16,49 C16,48.449 16.45,48 17,48 L29,48 C29.55,48 30,48.449 30,49 L30,51" id="Fill-27" fill="#FFDD7D"></path>
                </g>
                <g id="Page-1-Copy" transform="translate(33.000000, 0.000000)">
                    <mask id="mask-4" fill="white">
                        <use xlink:href="#path-3"></use>
                    </mask>
                    <use id="Mask" fill="#FFFFFF" xlink:href="#path-3"></use>
                    <g mask="url(#mask-4)">
                        <g transform="translate(-33.000000, 0.000000)">
                            <polygon id="Fill-1" fill="#EF8A45" points="0 64 64 64 64 0 0 0"></polygon>
                            <polygon id="Fill-3" fill-opacity="0.5" fill="#F9B04E" points="28.25 0 30 28 34 28 35.75 0"></polygon>
                            <polygon id="Fill-5" fill-opacity="0.5" fill="#F9B04E" points="46.848 0 37.04 28.604 40.736 30.14 56.48 0"></polygon>
                            <polygon id="Fill-7" fill-opacity="0.5" fill="#F9B04E" points="64 8.415 43.31 31.857 46.14 34.687 64 18.93"></polygon>
                            <g id="Group-11" stroke-width="1" fill="none" transform="translate(47.000000, 29.000000)">
                                <mask id="mask-6" fill="white">
                                    <use xlink:href="#path-5"></use>
                                </mask>
                                <g id="Clip-10"></g>
                                <polygon id="Fill-9" fill-opacity="0.5" fill="#F9B04E" mask="url(#mask-6)" points="17 0.369 0.87 8.27 2.405 11.96 17.005 6.95"></polygon>
                            </g>
                            <polygon id="Fill-12" fill-opacity="0.5" fill="#F9B04E" points="23.264 30.14 26.959 28.604 17.15 0 7.518 0"></polygon>
                            <polygon id="Fill-14" fill-opacity="0.5" fill="#F9B04E" points="0 18.93 17.857 34.686 20.686 31.857 0 8.414"></polygon>
                            <polygon id="Fill-16" fill-opacity="0.5" fill="#F9B04E" points="0 35.952 14.604 40.959 16.14 37.26 0 29.367"></polygon>
                            <g id="Group-38" stroke-width="1" fill="none" transform="translate(0.000000, 13.000000)">
                                <polygon id="Fill-18" fill="#F9B04E" points="0 35.875 14 35 14 31 0 30.13"></polygon>
                                <path d="M57.348,25.652 C57.348,39.65131 45.99931,51 32,51 C18.00069,51 6.652,39.65131 6.652,25.652 C6.652,11.65269 18.00069,0.304 32,0.304 C45.99931,0.304 57.348,11.65269 57.348,25.652 L57.348,25.652 Z" id="Fill-20" fill="#FFC466"></path>
                                <path d="M48,32.738 L64,32.738 L64,51 L44,51 L44,36.738 C44,34.537 45.8,32.738 48,32.738" id="Fill-21" fill="#62727A"></path>
                                <path d="M60.8,36 L61.2,36 C61.639,36 62,36.436 62,36.967 L62,50.9969978 L60,50.9969978 L60,36.967 C60,36.436 60.36,36 60.8,36" id="Fill-22" fill="#D0D0D0"></path>
                                <path d="M55.8,36 L56.2,36 C56.639,36 57,36.436 57,36.967 L57,50.9969978 L55,50.9969978 L55,36.967 C55,36.436 55.36,36 55.8,36" id="Fill-23" fill="#D0D0D0"></path>
                                <polygon id="Fill-24" fill="#62727A" points="51.31 32.858 62.33 32.858 62.33 29.994002 51.31 29.994002"></polygon>
                                <polygon id="Fill-25" fill="#62727A" points="0 30.11 13.14 30.11 13.14 24.888 0 27.888"></polygon>
                                <polygon id="Fill-26" fill="#62727A" points="0 51 13 51 13 30 0 30"></polygon>
                                <path d="M9.5,38 C9.5,38.549 9.05,39 8.5,39 L5.5,39 C4.95,39 4.5,38.549 4.5,38 L4.5,36 C4.5,35.449 4.95,35 5.5,35 L8.5,35 C9.05,35 9.5,35.449 9.5,36 L9.5,38" id="Fill-27" fill="#ED4C5C"></path>
                                <path d="M9.5,46 C9.5,46.549 9.05,47 8.5,47 L5.5,47 C4.95,47 4.5,46.549 4.5,46 L4.5,44 C4.5,43.449001 4.95,43 5.5,43 L8.5,43 C9.05,43 9.5,43.449001 9.5,44 L9.5,46" id="Fill-28" fill="#ED4C5C"></path>
                                <polygon id="Fill-29" fill="#3E4347" points="50 25 50 21 44 19 44 8 42 8 42 19 36 21 36 25 33 25 33 17.32 23 6 13 17.32 13 51 33 51 53 51 53 25"></polygon>
                                <path d="M41.5,32 C41.5,32.549 41.05,33 40.5,33 L37.5,33 C36.95,33 36.5,32.549 36.5,32 L36.5,30 C36.5,29.449 36.95,29 37.5,29 L40.5,29 C41.05,29 41.5,29.449 41.5,30 L41.5,32" id="Fill-30" fill="#6ADBC6"></path>
                                <path d="M49.5,40 C49.5,40.549 49.05,41 48.5,41 L45.5,41 C44.95,41 44.5,40.549 44.5,40 L44.5,38 C44.5,37.449 44.95,37 45.5,37 L48.5,37 C49.05,37 49.5,37.449 49.5,38 L49.5,40" id="Fill-31" fill="#6ADBC6"></path>
                                <path d="M41.5,48 C41.5,48.549 41.05,49 40.5,49 L37.5,49 C36.95,49 36.5,48.549 36.5,48 L36.5,46 C36.5,45.449001 36.95,45 37.5,45 L40.5,45 C41.05,45 41.5,45.449001 41.5,46 L41.5,48" id="Fill-32" fill="#6ADBC6"></path>
                                <path d="M49.5,48 C49.5,48.549 49.05,49 48.5,49 L45.5,49 C44.95,49 44.5,48.549 44.5,48 L44.5,46 C44.5,45.449001 44.95,45 45.5,45 L48.5,45 C49.05,45 49.5,45.449001 49.5,46 L49.5,48" id="Fill-33" fill="#6ADBC6"></path>
                                <path d="M30,30 C30,30.549 29.55,31 29,31 L17,31 C16.45,31 16,30.549 16,30 L16,28 C16,27.449 16.45,27 17,27 L29,27 C29.55,27 30,27.449 30,28 L30,30" id="Fill-34" fill="#FFDD7D"></path>
                                <path d="M30,46 C30,46.549 29.55,47 29,47 L17,47 C16.45,47 16,46.549 16,46 L16,44 C16,43.449001 16.45,43 17,43 L29,43 C29.55,43 30,43.449001 30,44 L30,46" id="Fill-35" fill="#FFDD7D"></path>
                                <path d="M30,22 C30,22.549 29.55,23 29,23 L17,23 C16.45,23 16,22.549 16,22 L16,20 C16,19.449 16.45,19 17,19 L29,19 C29.55,19 30,19.449 30,20 L30,22" id="Fill-36" fill="#FFDD7D"></path>
                                <path d="M30,38 C30,38.549 29.55,39 29,39 L17,39 C16.45,39 16,38.549 16,38 L16,36 C16,35.449 16.45,35 17,35 L29,35 C29.55,35 30,35.449 30,36 L30,38" id="Fill-37" fill="#FFDD7D"></path>
                            </g>
                        </g>
                    </g>
                </g>
            </g>
        </g>
    </g>
</svg>