<?xml version="1.0" encoding="UTF-8" standalone="no"?>
<svg width="61px" height="61px" viewBox="0 0 61 61" version="1.1" xmlns="http://www.w3.org/2000/svg" xmlns:xlink="http://www.w3.org/1999/xlink">
    <!-- Generator: Sketch 40 (33762) - http://www.bohemiancoding.com/sketch -->
    <title>emoji-frustrated</title>
    <desc>Created with Sketch.</desc>
    <defs></defs>
    <g id="Page-1" stroke="none" stroke-width="1" fill="none" fill-rule="evenodd">
        <g id="emoji-frustrated" transform="translate(0.500000, 0.000000)">
            <path d="M60,30.969 C60,47.53754 46.56854,60.969 30,60.969 C13.43146,60.969 0,47.53754 0,30.969 C0,14.40046 13.43146,0.969 30,0.969 C46.56854,0.969 60,14.40046 60,30.969 L60,30.969 Z" id="Fill-1" fill="#FFDD67"></path>
            <path d="M46.24,30.11 C44.793,29.645 43.24,29.452 41.681,29.581 C41.355,29.606 41.033,29.657 40.71,29.714 C40.819,29.653 40.927,29.585 41.04,29.528 C42.228,28.917 43.462,28.38 44.776,27.895 C46.09,27.395 47.475,26.969 48.977,26.389 C47.51,25.721 45.913,25.496 44.313,25.582 C42.713,25.674 41.11,26.109 39.659,26.863 C38.208,27.615 36.917,28.681 35.932,29.967 C34.963,31.252 34.229,32.752 34.133,34.379 C35.6,33.883 36.873,33.449 38.153,33.16 C39.421,32.861 40.663,32.68 41.936,32.568 C43.207,32.461 44.506,32.427 45.858,32.427 C47.213,32.423 48.598,32.452 50.137,32.423 C49.059,31.298 47.684,30.589 46.244,30.11" id="Fill-3" fill="#664E27"></path>
            <path d="M20.339,26.861 C18.89,26.107 17.284,25.672 15.687,25.58 C14.087,25.494 12.49,25.719 11.023,26.387 C12.525,26.967 13.91,27.397 15.224,27.893 C16.538,28.377 17.771,28.914 18.96,29.526 C19.071,29.583 19.179,29.651 19.29,29.712 C18.968,29.655 18.644,29.605 18.319,29.579 C16.762,29.45 15.208,29.643 13.758,30.108 C12.32,30.587 10.944,31.296 9.865,32.422 C11.402,32.451 12.787,32.422 14.144,32.426 C15.494,32.426 16.792,32.459 18.066,32.567 C19.337,32.678 20.582,32.86 21.847,33.159 C23.122,33.448 24.396,33.882 25.867,34.378 C25.771,32.751 25.037,31.251 24.068,29.966 C23.084,28.68 21.793,27.613 20.341,26.861" id="Fill-4" fill="#664E27"></path>
            <path d="M20.577,16.16 C17.341,18.892 13.054,20.041 8.884,19.293 C8.306,19.18 7.796,21.313 8.499,21.449 C13.308,22.312 18.255,20.988 21.991,17.834 C22.532,17.365 21.02,15.773 20.577,16.16" id="Fill-5" fill="#917524"></path>
            <path d="M51.11,19.14 C46.942,19.888 42.655,18.74 39.419,16.007 C38.976,15.618 37.464,17.212 38.007,17.681 C41.739,20.833 46.687,22.16 51.499,21.296 C52.202,21.161 51.69,19.026 51.11,19.14" id="Fill-6" fill="#917524"></path>
            <polygon id="Fill-7" fill="#664E27" points="42.915 40.38 36.509 44.733 29.997 39.03 23.505 44.727 17.09 40.37 11 47.643 17.09 44.25 23.517 50.614 30.02 45.555 36.506 50.595 42.914 44.237 49 47.64"></polygon>
        </g>
    </g>
</svg>