<?xml version="1.0" encoding="UTF-8"?>
<svg width="68px" height="68px" viewBox="0 0 68 68" version="1.1" xmlns="http://www.w3.org/2000/svg" xmlns:xlink="http://www.w3.org/1999/xlink">
    <!-- Generator: Sketch 40 (33762) - http://www.bohemiancoding.com/sketch -->
    <title>emoji-happy</title>
    <desc>Created with Sketch.</desc>
    <defs></defs>
    <g id="Page-1" stroke="none" stroke-width="1" fill="none" fill-rule="evenodd">
        <g id="emoji-happy">
            <path d="M68,34 C68,52.7774444 52.7774444,68 34,68 C15.2225556,68 0,52.7774444 0,34 C0,15.2225556 15.2225556,0 34,0 C52.7774444,0 68,15.2225556 68,34" id="Fill-1" fill="#FFCC4D"></path>
            <path d="M34,39.6666667 C27.1565556,39.6666667 22.6156667,38.8695556 17,37.7777778 C15.7174444,37.5303333 13.2222222,37.7777778 13.2222222,41.5555556 C13.2222222,49.1111111 21.9016667,58.5555556 34,58.5555556 C46.0964444,58.5555556 54.7777778,49.1111111 54.7777778,41.5555556 C54.7777778,37.7777778 52.2825556,37.5284444 51,37.7777778 C45.3843333,38.8695556 40.8434444,39.6666667 34,39.6666667" id="Fill-3" fill="#664500"></path>
            <path d="M17,41.5555556 C17,41.5555556 22.6666667,43.4444444 34,43.4444444 C45.3333333,43.4444444 51,41.5555556 51,41.5555556 C51,41.5555556 47.2222222,49.1111111 34,49.1111111 C20.7777778,49.1111111 17,41.5555556 17,41.5555556" id="Fill-4" fill="#FFFFFF"></path>
            <path d="M27.3888889,25.5 C27.3888889,29.1531111 25.2752222,32.1111111 22.6666667,32.1111111 C20.0581111,32.1111111 17.9444444,29.1531111 17.9444444,25.5 C17.9444444,21.8487778 20.0581111,18.8888889 22.6666667,18.8888889 C25.2752222,18.8888889 27.3888889,21.8487778 27.3888889,25.5" id="Fill-5" fill="#664500"></path>
            <path d="M50.0555556,25.5 C50.0555556,29.1531111 47.9418889,32.1111111 45.3333333,32.1111111 C42.7247778,32.1111111 40.6111111,29.1531111 40.6111111,25.5 C40.6111111,21.8487778 42.7247778,18.8888889 45.3333333,18.8888889 C47.9418889,18.8888889 50.0555556,21.8487778 50.0555556,25.5" id="Fill-6" fill="#664500"></path>
        </g>
    </g>
</svg>