<?xml version="1.0" encoding="UTF-8" standalone="no"?>
<svg width="30px" height="44px" viewBox="0 0 30 44" version="1.1" xmlns="http://www.w3.org/2000/svg" xmlns:xlink="http://www.w3.org/1999/xlink">
    <!-- Generator: Sketch 39.1 (31720) - http://www.bohemiancoding.com/sketch -->
    <title>bad-spot</title>
    <desc>Created with Sketch.</desc>
    <defs>
        <linearGradient x1="50%" y1="98.6823038%" x2="50%" y2="0.827088648%" id="linearGradient-1">
            <stop stop-color="#C31C00" offset="0%"></stop>
            <stop stop-color="#FF0000" offset="100%"></stop>
        </linearGradient>
    </defs>
    <g id="Page-1" stroke="none" stroke-width="1" fill="none" fill-rule="evenodd">
        <g id="bad-spot" transform="translate(0.000000, 0.966797)">
            <g id="Group-2" fill="#FFFFFF">
                <ellipse id="Oval-8" cx="15" cy="15" rx="15" ry="15"></ellipse>
                <path d="M28.5,14 C28.5,6.54415588 22.4558441,0.5 15,0.5 C7.54415588,0.5 1.5,6.54415588 1.5,14 C1.5,20.236207 3.72846808,25.4848023 9.47469152,27.0350733 L15.4629657,41.5 L21.5386353,26.7181022 C26.7618095,24.8539738 28.5,19.8635375 28.5,14 Z" id="Path"></path>
            </g>
            <path d="M12.7782919,15.1930195 L9.63914593,18.3321654 L12.0538736,20.746893 L15.1930195,17.6077471 L18.3321654,20.746893 L20.746893,18.3321654 L17.6077471,15.1930195 L20.746893,12.0538736 L18.3321654,9.63914593 L15.1930195,12.7782919 L12.0538736,9.63914593 L9.63914593,12.0538736 L12.7782919,15.1930195 Z M19.5386353,27.7181022 C24.7618095,25.8539738 28.5,20.8635375 28.5,15 C28.5,7.54415588 22.4558441,1.5 15,1.5 C7.54415588,1.5 1.5,7.54415588 1.5,15 C1.5,21.236207 5.72846808,26.4848023 11.4746915,28.0350733 L15.4629657,42.5 L19.5386353,27.7181022 Z M15,25.5 C20.7989899,25.5 25.5,20.7989899 25.5,15 C25.5,9.20101013 20.7989899,4.5 15,4.5 C9.20101013,4.5 4.5,9.20101013 4.5,15 C4.5,20.7989899 9.20101013,25.5 15,25.5 Z" id="radspot" fill="url(#linearGradient-1)"></path>
        </g>
    </g>
</svg>