<?xml version="1.0" encoding="UTF-8" standalone="no"?>
<svg width="31px" height="43px" viewBox="0 0 31 43" version="1.1" xmlns="http://www.w3.org/2000/svg" xmlns:xlink="http://www.w3.org/1999/xlink">
    <!-- Generator: Sketch 39.1 (31720) - http://www.bohemiancoding.com/sketch -->
    <title>idea-spot</title>
    <desc>Created with Sketch.</desc>
    <defs></defs>
    <g id="Page-1" stroke="none" stroke-width="1" fill="none" fill-rule="evenodd">
        <g id="idea-spot">
            <ellipse id="Oval-8" fill="#FFFFFF" cx="15.5" cy="15.5" rx="15" ry="15"></ellipse>
            <path d="M29,14.5 C29,7.04415588 22.9558441,1 15.5,1 C8.04415588,1 2,7.04415588 2,14.5 C2,20.736207 4.22846808,25.9848023 9.97469152,27.5350733 L15.9629657,42 L22.0386353,27.2181022 C27.2618095,25.3539738 29,20.3635375 29,14.5 Z" id="Path" fill="#FFFFFF"></path>
            <path d="M20.0386353,28.2181022 C25.2618095,26.3539738 29,21.3635375 29,15.5 C29,8.04415588 22.9558441,2 15.5,2 C8.04415588,2 2,8.04415588 2,15.5 C2,21.736207 6.22846808,26.9848023 11.9746915,28.5350733 L15.9629657,43 L20.0386353,28.2181022 Z M15.5,26 C21.2989899,26 26,21.2989899 26,15.5 C26,9.70101013 21.2989899,5 15.5,5 C9.70101013,5 5,9.70101013 5,15.5 C5,21.2989899 9.70101013,26 15.5,26 Z M11.2135346,9.62867619 L12.9547631,11.3699047 L12.3743536,11.9503142 L10.6331251,10.2090857 L11.2135346,9.62867619 Z M15.1562315,8 L15.9770624,8 L15.9770624,10.4624926 L15.1562315,10.4624926 L15.1562315,8 Z M19.9241261,9.63304301 L20.5045356,10.2134525 L18.7633071,11.954681 L18.1828976,11.3742715 L19.9241261,9.63304301 Z M19.6708012,14.1562315 L22.1332938,14.1562315 L22.1332938,14.9770624 L19.6708012,14.9770624 L19.6708012,14.1562315 Z M9,14.1562315 L11.4624926,14.1562315 L11.4624926,14.9770624 L9,14.9770624 L9,14.1562315 Z M14.3354006,20.312463 L16.7978932,20.312463 L16.7978932,21.9541247 L14.3354006,21.9541247 L14.3354006,20.312463 Z M15.5666469,11.2833235 C13.760819,11.2833235 12.2833235,12.760819 12.2833235,14.5666469 C12.2833235,15.3053947 12.5295727,15.9620594 12.9399882,16.4955995 C12.9399882,16.4955995 13.0631128,16.6597656 13.1041543,16.7008072 C13.4735282,17.1522641 14.3764422,18.4245528 14.3764422,19.4916321 L15.6076885,19.4916321 L16.8389348,19.4916321 C16.8389348,18.424552 17.7418487,17.1522641 18.1112226,16.7008072 C18.1522641,16.6597656 18.2753888,16.4955995 18.2753888,16.4955995 C18.6858042,15.9620594 18.9320535,15.2643532 18.9320535,14.5666469 C18.8499704,12.760819 17.3724748,11.2833235 15.5666469,11.2833235 Z" id="Shape" fill="#FAA71B"></path>
        </g>
    </g>
</svg>