<?xml version="1.0" encoding="UTF-8" standalone="no"?>
<svg width="284px" height="63px" viewBox="0 0 284 63" version="1.1" xmlns="http://www.w3.org/2000/svg" xmlns:xlink="http://www.w3.org/1999/xlink">
    <!-- Generator: Sketch 3.8.3 (29802) - http://www.bohemiancoding.com/sketch -->
    <title>logo</title>
    <desc>Created with Sketch.</desc>
    <defs></defs>
    <g id="Page-1" stroke="none" stroke-width="1" fill="none" fill-rule="evenodd">
        <g id="crowdspot-logo-copy" transform="translate(1.000000, 10.000000)">
            <g id="logotype" transform="translate(0.000000, 6.023529)" fill="#595B5A">
                <path d="M181.831994,7.96224237 L175.195291,7.96224237 L175.195291,3.09849222 L169.553525,3.09849222 L169.553525,7.96224237 L166.885183,7.96224237 L166.885183,12.5844309 L169.546695,12.5844309 L169.546695,20.1657492 C169.546695,23.0040982 169.945124,24.3814639 171.176842,25.7193436 C172.52695,27.2198128 174.434859,28.0304379 176.620532,28.0304379 C178.109584,28.0259095 179.587293,27.7660152 180.991876,27.2616216 C181.143659,27.181101 181.42218,27.059546 181.82744,26.8969564 L181.82744,21.7451905 C180.397647,22.5953016 179.243338,22.9204807 177.854526,22.9204807 C176.85959,22.9204807 176.033132,22.5953016 175.668854,22.0285609 C175.304575,21.4618202 175.193014,20.9345655 175.193014,19.3922875 L175.193014,12.5844309 L181.829717,12.5844309 L181.829717,7.96224237 L181.831994,7.96224237 Z M161.687381,17.8128462 C161.687381,20.6000956 159.661081,22.7184051 157.038274,22.7184051 C154.376763,22.7184051 152.350463,20.6093864 152.350463,17.8128462 C152.350463,15.016306 154.338058,12.949096 156.99957,12.949096 C158.256987,12.9489213 159.461813,13.4638566 160.343634,14.3783298 C161.225456,15.292803 161.710412,16.5302168 161.689658,17.8128462 L161.687381,17.8128462 Z M167.29272,17.8128462 C167.29272,12.138471 162.723299,7.55809121 157.047381,7.55809121 C151.284948,7.55809121 146.802043,12.0571762 146.802043,17.8128462 C146.802043,23.5290301 151.332759,28.0699239 157.092916,28.0699239 C162.814369,28.0699239 167.304104,23.5708389 167.304104,17.8128462 L167.29272,17.8128462 Z M131.741395,13.9617966 C133.250875,13.1511716 134.125144,12.8678013 135.277175,12.8678013 C138.009265,12.8678013 139.964987,14.8955252 139.964987,17.7733602 C139.964987,20.7719759 138.098058,22.8833173 135.395566,22.8833173 C134.115265,22.8829391 132.856415,22.5478786 131.739118,21.9101028 L131.739118,13.9617966 L131.741395,13.9617966 Z M131.345242,7.96224237 L126.019942,7.96224237 L126.019942,35.1216648 L131.741395,35.1216648 L131.741395,26.9434106 C132.441606,27.4349616 133.244566,27.7530863 134.086439,27.8724937 C134.739102,28.0179131 135.406077,28.0857234 136.074035,28.0745693 C141.399334,28.0745693 145.531621,23.6962651 145.531621,17.9800812 C145.531621,12.1013077 141.358353,7.56273663 135.994349,7.56273663 C134.443887,7.56273663 133.134761,7.92740176 132.139825,8.65673201 C131.91215,8.81932156 131.663986,9.06088317 131.345242,9.30476749 L131.345242,7.96688779 L131.345242,7.96224237 Z M122.921297,4.43637192 C121.489226,1.47724217 119.028068,0.0232270781 115.408048,0.0232270781 C110.519883,0.0232270781 107.063789,3.0636516 107.063789,7.36066105 C107.063789,9.7530501 108.136135,11.82026 110.283102,13.5228049 C111.004617,14.0936649 111.775858,14.5959185 112.587165,15.0232741 C112.705556,15.0627602 113.422729,15.4274253 114.731856,16.0359747 C117.195291,17.2530736 118.110541,18.1844794 118.110541,19.4805504 C118.108322,20.2788476 117.791022,21.0425862 117.230263,21.5993699 C116.669505,22.1561536 115.912558,22.4590475 115.130286,22.4396802 C113.343043,22.4396802 111.910973,21.3061987 110.804476,19.0345905 L105.957293,22.2863814 C108.261355,26.3813153 111.043534,28.1651549 115.016449,28.1651549 C120.578529,28.1651549 124.672111,24.4766949 124.672111,19.4503552 C124.672111,16.6631058 123.322003,14.1801312 120.938254,12.5588811 C120.248056,12.0969854 119.516172,11.7034333 118.752582,11.383591 C118.59321,11.3022962 117.917018,11.0189259 116.805968,10.572966 C113.985085,9.3976758 112.951444,8.505756 112.951444,7.20968504 C112.951444,6.03439489 113.944103,5.14247509 115.296488,5.14247509 C116.767263,5.14247509 117.561846,5.79051057 118.117371,7.41176062 L122.921297,4.43637192 Z M98.7878322,13.8410158 L98.7878322,21.4223341 C97.7826382,22.1278896 96.5928276,22.5090329 95.3727193,22.5163295 C94.107429,22.542205 92.8859316,22.0435486 91.9874166,21.1343351 C91.0889017,20.2251216 90.590173,18.9830691 90.6052217,17.6920654 C90.6052217,14.9350112 92.5928174,12.949096 95.4933866,12.949096 C96.6067134,12.949096 97.4012963,13.1813668 98.7923857,13.8410158 L98.7878322,13.8410158 Z M104.502454,0.543513628 L98.7878322,0.543513628 L98.7878322,8.44072018 C97.4688603,7.86280354 96.0499996,7.55956157 94.6145642,7.54880038 C89.2892649,7.54880038 85.0772923,12.0083994 85.0772923,17.6014798 C85.0772923,23.1550742 89.403102,27.8213942 94.5348783,27.8213942 C96.2061944,27.8636867 97.8386399,27.3036176 99.1452807,26.2396301 L99.1452807,27.5775098 L104.502454,27.5775098 L104.502454,0.543513628 L104.502454,0.543513628 Z M86.2247702,7.96224237 L79.9477927,7.96224237 L77.0859281,20.1634265 L74.0669683,7.96224237 L68.026772,7.96224237 L65.0465168,20.1634265 L62.1550546,7.96224237 L55.9554863,7.96224237 L61.8750153,27.5821552 L68.0336022,27.5821552 L71.0138574,16.0266839 L74.0737986,27.5798325 L80.3120714,27.5798325 L86.2247702,7.96224237 Z M51.4543675,17.8128462 C51.4543675,20.6000956 49.4280672,22.7184051 46.8052605,22.7184051 C44.1437492,22.7184051 42.1174489,20.6093864 42.1174489,17.8128462 C42.1174489,15.016306 44.1050446,12.949096 46.7665559,12.949096 C48.0235788,12.9495439 49.2278147,13.4647532 50.1091419,14.3791576 C50.9904692,15.293562 51.4751146,16.5306195 51.4543675,17.8128462 L51.4543675,17.8128462 Z M57.0574294,17.8128462 C57.0574294,12.138471 52.4880084,7.55809121 46.8120907,7.55809121 C41.0496569,7.55809121 36.5667521,12.0571762 36.5667521,17.8128462 C36.5667521,23.5290301 41.0951918,28.0699239 46.8576256,28.0699239 C52.579078,28.0699239 57.0688131,23.5708389 57.0688131,17.8128462 L57.0574294,17.8128462 Z M36.7807658,7.96224237 C36.2031884,7.85989828 35.6184246,7.80552343 35.032228,7.79965283 C34.3363752,7.78966372 33.6419905,7.86768177 32.9649463,8.03192361 C31.8926009,8.3571027 31.371227,8.67995909 30.383121,9.69265969 L30.383121,7.95062883 L25.0578216,7.95062883 L25.0578216,27.5705417 L30.7792741,27.5705417 L30.7792741,14.4495653 C31.3786589,13.7939783 32.1511842,13.3293331 33.003651,13.1116856 C33.7086097,12.8725155 34.4464087,12.7494185 35.1893232,12.7470205 C35.7290686,12.7410217 36.2665334,12.8193526 36.7830426,12.9792912 L36.7830426,7.96224237 L36.7807658,7.96224237 Z M23.4709325,2.15547285 C21.2465557,1.1009635 20.3313054,0.778107116 18.4256724,0.37163325 C17.2209917,0.13176639 15.9966327,0.00965852209 14.7692249,0.00696812343 C6.5433563,0.00696812343 0.225397451,6.08781717 0.225397451,14.0314779 C0.227674193,22.0657242 6.37487739,28.1512187 14.5711483,28.1512187 C17.2756828,28.1358676 19.949721,27.5672 22.4350149,26.478869 C22.6626891,26.3975743 23.0315213,26.2465983 23.4686558,26.0329091 L23.4686558,19.7987614 C21.1236116,21.1761271 20.1309521,21.622087 18.4233957,22.0680469 C17.46039,22.3077014 16.4730801,22.4308782 15.4818451,22.4350347 C10.356899,22.4350347 6.46139359,18.8278695 6.46139359,14.0430914 C6.46139359,9.42090288 10.3159177,5.73244288 15.1130129,5.73244288 C17.2986852,5.73244288 19.7211386,6.42925522 21.9432387,7.67887202 C22.3006872,7.8809476 22.8175076,8.20612669 23.4527186,8.65208659 L23.4527186,2.16476368 L23.4709325,2.15547285 Z" id="Shape"></path>
            </g>
            <g id="bird2" transform="translate(227.890196, 0.000000)" fill="#FF1609">
                <polygon id="Shape" points="8.98897493 22.8975522 13.7113955 41.3442654 13.9238381 41.3442654 18.9604966 22.8975522"></polygon>
                <path d="M11.2705193,10.5684533 C11.2668544,12.6071457 9.66712576,14.2571144 7.69662438,14.2545877 C5.726123,14.2520611 4.13035228,12.597995 4.13157165,10.5592994 C4.13279102,8.52060387 5.73053915,6.86858234 7.70104204,6.86857881 C9.67240988,6.86857881 11.2705193,8.52199386 11.2705193,10.5615847 M27.8078432,14.4079888 C27.8078431,6.50534661 21.6159902,0.0988712399 13.9776862,0.0984498331 C6.33938225,0.0980284263 0.146869044,6.50382055 0.146054324,14.4064627 C0.145239604,22.3091049 6.33643187,28.7162636 13.9747358,28.717528 C21.6136859,28.7175281 27.8066211,22.3112994 27.8078432,14.4079888" id="Shape"></path>
            </g>
            <g id="bird1" transform="translate(187.733333, 7.027451)" fill="#FF1609">
                <polygon id="Shape" points="21.0859847 20.7112073 39.9335901 20.7643243 39.9878538 20.5584959 23.724559 11.0771097"></polygon>
                <path d="M23.2384463,8.7731594 C23.2384463,10.7447639 21.6056398,12.3430651 19.5914708,12.3430651 C17.5773019,12.3430651 15.9444954,10.7447639 15.9444954,8.7731594 C15.9444954,6.80155493 17.5773019,5.20325372 19.5914708,5.20325372 C21.6056398,5.20325372 23.2384463,6.80155493 23.2384463,8.7731594 M28.3460208,13.8923112 C28.3447721,6.25309048 22.0174736,0.0611551054 14.2133316,0.0619699231 C6.40918962,0.0627847407 0.0832406446,6.25604122 0.0836567989,13.895262 C0.0840729532,21.5344828 6.41069666,27.7270788 14.2148387,27.7270789 C22.0196408,27.7258568 28.3460209,21.5321782 28.3460208,13.8923112" id="Shape"></path>
            </g>
        </g>
    </g>
</svg>