<?xml version="1.0" encoding="UTF-8" standalone="no"?>
<svg width="2895px" height="175px" viewBox="0 0 2895 175" version="1.1" xmlns="http://www.w3.org/2000/svg" xmlns:xlink="http://www.w3.org/1999/xlink">
    <!-- Generator: Sketch 39.1 (31720) - http://www.bohemiancoding.com/sketch -->
    <title>logo-bendigo-header-background</title>
    <desc>Created with Sketch.</desc>
    <defs>
        <rect id="path-1" x="0" y="0" width="2895" height="175"></rect>
        <polygon id="path-3" points="0.06 174.94 1150 174.94 1150 0 0.06 0"></polygon>
        <polygon id="path-5" points="0.686 54.94 206.007 54.94 206.007 0.636 0.686 0.636"></polygon>
        <polygon id="path-7" points="0 174.94 1754 174.94 1754 0 0 0"></polygon>
    </defs>
    <g id="Page-1" stroke="none" stroke-width="1" fill="none" fill-rule="evenodd">
        <g id="logo-bendigo-header-background">
            <mask id="mask-2" fill="white">
                <use xlink:href="#path-1"></use>
            </mask>
            <use id="Mask" fill="#D8D8D8" xlink:href="#path-1"></use>
            <g id="Group-3" mask="url(#mask-2)">
                <g id="Freight-Study-Crowdspot-web-banner-1150x175-Copy">
                    <g id="Group-5">
                        <mask id="mask-4" fill="white">
                            <use xlink:href="#path-3"></use>
                        </mask>
                        <g id="Clip-2"></g>
                        <polygon id="Fill-1" fill="#B7D141" mask="url(#mask-4)" points="0.06 174.94 1150 174.94 1150 0 0.06 0"></polygon>
                        <polygon id="Fill-3" fill="#DCE699" mask="url(#mask-4)" points="-9.94 53.344 65 53.344 65 33.344 -9.94 33.344"></polygon>
                        <path d="M-10,44.844 L-0.334,44.844 L-0.334,41.844 L-10,41.844 L-10,44.844 Z M6.333,44.844 L15.999,44.844 L15.999,41.844 L6.333,41.844 L6.333,44.844 Z M22.666,44.844 L32.333,44.844 L32.333,41.844 L22.666,41.844 L22.666,44.844 Z M38.999,44.844 L48.666,44.844 L48.666,41.844 L38.999,41.844 L38.999,44.844 Z M55.333,44.844 L64.999,44.844 L64.999,41.844 L55.333,41.844 L55.333,44.844 Z" id="Fill-4" fill="#D2DB34" mask="url(#mask-4)"></path>
                    </g>
                    <g id="Group-7" transform="translate(710.000000, 33.000000)">
                        <polygon id="Fill-6" fill="#DCE699" points="0 20.5 440 20.5 440 0.5 0 0.5"></polygon>
                        <path d="M431.07,12 L440,12 L440,9 L431.07,9 L431.07,12 Z M416.2,12 L425.14,12 L425.14,9 L416.2,9 L416.2,12 Z M401.34,12 L410.27,12 L410.27,9 L401.34,9 L401.34,12 Z M386.47,12 L395.41,12 L395.41,9 L386.47,9 L386.47,12 Z M371.61,12 L380.54,12 L380.54,9 L371.61,9 L371.61,12 Z M356.75,12 L365.68,12 L365.68,9 L356.75,9 L356.75,12 Z M341.88,12 L350.81,12 L350.81,9 L341.88,9 L341.88,12 Z M327.02,12 L335.95,12 L335.95,9 L327.02,9 L327.02,12 Z M312.15,12 L321.08,12 L321.08,9 L312.15,9 L312.15,12 Z M297.29,12 L306.22,12 L306.22,9 L297.29,9 L297.29,12 Z M282.424,12 L291.36,12 L291.36,9 L282.424,9 L282.424,12 Z M267.56,12 L276.492,12 L276.492,9 L267.56,9 L267.56,12 Z M252.695,12 L261.628,12 L261.628,9 L252.695,9 L252.695,12 Z M237.831,12 L246.764,12 L246.764,9 L237.831,9 L237.831,12 Z M222.967,12 L231.898,12 L231.898,9 L222.967,9 L222.967,12 Z M208.103,12 L217.034,12 L217.034,9 L208.103,9 L208.103,12 Z M193.238,12 L202.17,12 L202.17,9 L193.238,9 L193.238,12 Z M178.373,12 L187.306,12 L187.306,9 L178.373,9 L178.373,12 Z M163.509,12 L172.441,12 L172.441,9 L163.509,9 L163.509,12 Z M148.645,12 L157.577,12 L157.577,9 L148.645,9 L148.645,12 Z M133.78,12 L142.713,12 L142.713,9 L133.78,9 L133.78,12 Z M118.916,12 L127.848,12 L127.848,9 L118.916,9 L118.916,12 Z M104.052,12 L112.983,12 L112.983,9 L104.052,9 L104.052,12 Z M89.188,12 L98.119,12 L98.119,9 L89.188,9 L89.188,12 Z M74.322,12 L83.255,12 L83.255,9 L74.322,9 L74.322,12 Z M59.458,12 L68.391,12 L68.391,9 L59.458,9 L59.458,12 Z M44.594,12 L53.526,12 L53.526,9 L44.594,9 L44.594,12 Z M29.729,12 L38.662,12 L38.662,9 L29.729,9 L29.729,12 Z M14.865,12 L23.797,12 L23.797,9 L14.865,9 L14.865,12 Z M0.001,12 L8.933,12 L8.933,9 L0.001,9 L0.001,12 Z" id="Fill-7" fill="#D2DB34"></path>
                    </g>
                    <g id="Group-7-Copy" transform="translate(280.000000, 33.000000)">
                        <polygon id="Fill-6" fill="#DCE699" points="0 20.5 440 20.5 440 0.5 0 0.5"></polygon>
                        <path d="M431.07,12 L440,12 L440,9 L431.07,9 L431.07,12 Z M416.2,12 L425.14,12 L425.14,9 L416.2,9 L416.2,12 Z M401.34,12 L410.27,12 L410.27,9 L401.34,9 L401.34,12 Z M386.47,12 L395.41,12 L395.41,9 L386.47,9 L386.47,12 Z M371.61,12 L380.54,12 L380.54,9 L371.61,9 L371.61,12 Z M356.75,12 L365.68,12 L365.68,9 L356.75,9 L356.75,12 Z M341.88,12 L350.81,12 L350.81,9 L341.88,9 L341.88,12 Z M327.02,12 L335.95,12 L335.95,9 L327.02,9 L327.02,12 Z M312.15,12 L321.08,12 L321.08,9 L312.15,9 L312.15,12 Z M297.29,12 L306.22,12 L306.22,9 L297.29,9 L297.29,12 Z M282.424,12 L291.36,12 L291.36,9 L282.424,9 L282.424,12 Z M267.56,12 L276.492,12 L276.492,9 L267.56,9 L267.56,12 Z M252.695,12 L261.628,12 L261.628,9 L252.695,9 L252.695,12 Z M237.831,12 L246.764,12 L246.764,9 L237.831,9 L237.831,12 Z M222.967,12 L231.898,12 L231.898,9 L222.967,9 L222.967,12 Z M208.103,12 L217.034,12 L217.034,9 L208.103,9 L208.103,12 Z M193.238,12 L202.17,12 L202.17,9 L193.238,9 L193.238,12 Z M178.373,12 L187.306,12 L187.306,9 L178.373,9 L178.373,12 Z M163.509,12 L172.441,12 L172.441,9 L163.509,9 L163.509,12 Z M148.645,12 L157.577,12 L157.577,9 L148.645,9 L148.645,12 Z M133.78,12 L142.713,12 L142.713,9 L133.78,9 L133.78,12 Z M118.916,12 L127.848,12 L127.848,9 L118.916,9 L118.916,12 Z M104.052,12 L112.983,12 L112.983,9 L104.052,9 L104.052,12 Z M89.188,12 L98.119,12 L98.119,9 L89.188,9 L89.188,12 Z M74.322,12 L83.255,12 L83.255,9 L74.322,9 L74.322,12 Z M59.458,12 L68.391,12 L68.391,9 L59.458,9 L59.458,12 Z M44.594,12 L53.526,12 L53.526,9 L44.594,9 L44.594,12 Z M29.729,12 L38.662,12 L38.662,9 L29.729,9 L29.729,12 Z M14.865,12 L23.797,12 L23.797,9 L14.865,9 L14.865,12 Z M0.001,12 L8.933,12 L8.933,9 L0.001,9 L0.001,12 Z" id="Fill-7" fill="#D2DB34"></path>
                    </g>
                    <g id="Group-7-Copy-2" transform="translate(57.000000, 33.000000)">
                        <polygon id="Fill-6" fill="#DCE699" points="0 20.5 440 20.5 440 0.5 0 0.5"></polygon>
                        <path d="M431.07,12 L440,12 L440,9 L431.07,9 L431.07,12 Z M416.2,12 L425.14,12 L425.14,9 L416.2,9 L416.2,12 Z M401.34,12 L410.27,12 L410.27,9 L401.34,9 L401.34,12 Z M386.47,12 L395.41,12 L395.41,9 L386.47,9 L386.47,12 Z M371.61,12 L380.54,12 L380.54,9 L371.61,9 L371.61,12 Z M356.75,12 L365.68,12 L365.68,9 L356.75,9 L356.75,12 Z M341.88,12 L350.81,12 L350.81,9 L341.88,9 L341.88,12 Z M327.02,12 L335.95,12 L335.95,9 L327.02,9 L327.02,12 Z M312.15,12 L321.08,12 L321.08,9 L312.15,9 L312.15,12 Z M297.29,12 L306.22,12 L306.22,9 L297.29,9 L297.29,12 Z M282.424,12 L291.36,12 L291.36,9 L282.424,9 L282.424,12 Z M267.56,12 L276.492,12 L276.492,9 L267.56,9 L267.56,12 Z M252.695,12 L261.628,12 L261.628,9 L252.695,9 L252.695,12 Z M237.831,12 L246.764,12 L246.764,9 L237.831,9 L237.831,12 Z M222.967,12 L231.898,12 L231.898,9 L222.967,9 L222.967,12 Z M208.103,12 L217.034,12 L217.034,9 L208.103,9 L208.103,12 Z M193.238,12 L202.17,12 L202.17,9 L193.238,9 L193.238,12 Z M178.373,12 L187.306,12 L187.306,9 L178.373,9 L178.373,12 Z M163.509,12 L172.441,12 L172.441,9 L163.509,9 L163.509,12 Z M148.645,12 L157.577,12 L157.577,9 L148.645,9 L148.645,12 Z M133.78,12 L142.713,12 L142.713,9 L133.78,9 L133.78,12 Z M118.916,12 L127.848,12 L127.848,9 L118.916,9 L118.916,12 Z M104.052,12 L112.983,12 L112.983,9 L104.052,9 L104.052,12 Z M89.188,12 L98.119,12 L98.119,9 L89.188,9 L89.188,12 Z M74.322,12 L83.255,12 L83.255,9 L74.322,9 L74.322,12 Z M59.458,12 L68.391,12 L68.391,9 L59.458,9 L59.458,12 Z M44.594,12 L53.526,12 L53.526,9 L44.594,9 L44.594,12 Z M29.729,12 L38.662,12 L38.662,9 L29.729,9 L29.729,12 Z M14.865,12 L23.797,12 L23.797,9 L14.865,9 L14.865,12 Z M0.001,12 L8.933,12 L8.933,9 L0.001,9 L0.001,12 Z" id="Fill-7" fill="#D2DB34"></path>
                    </g>
                    <g id="Group-11" transform="translate(835.000000, 51.000000)">
                        <polygon id="Fill-9" fill="#DCE699" points="0 123.94 20 123.94 20 0.5 0 0.5"></polygon>
                        <path d="M8.5,124 L11.5,124 L11.5,115.324 L8.5,115.324 L8.5,124 Z M8.5,109.647 L11.5,109.647 L11.5,100.971 L8.5,100.971 L8.5,109.647 Z M8.5,95.295 L11.5,95.295 L11.5,86.618 L8.5,86.618 L8.5,95.295 Z M8.5,80.941 L11.5,80.941 L11.5,72.266 L8.5,72.266 L8.5,80.941 Z M8.5,66.589 L11.5,66.589 L11.5,57.912 L8.5,57.912 L8.5,66.589 Z M8.5,52.235 L11.5,52.235 L11.5,43.56 L8.5,43.56 L8.5,52.235 Z M8.5,37.883 L11.5,37.883 L11.5,29.206 L8.5,29.206 L8.5,37.883 Z M8.5,23.53 L11.5,23.53 L11.5,14.853 L8.5,14.853 L8.5,23.53 Z M8.5,9.177 L11.5,9.177 L11.5,0.501 L8.5,0.501 L8.5,9.177 Z" id="Fill-10" fill="#D2DB34"></path>
                    </g>
                    <polygon id="Fill-12" fill="#DCE699" points="1003.89 35.5 1023.89 35.5 1023.89 0 1003.89 0"></polygon>
                    <path d="M1012.39,8.3 L1015.39,8.3 L1015.39,0 L1012.39,0 L1012.39,8.3 Z M1012.39,21.899 L1015.39,21.899 L1015.39,13.599 L1012.39,13.599 L1012.39,21.899 Z M1012.39,35.499 L1015.39,35.499 L1015.39,27.199 L1012.39,27.199 L1012.39,35.499 Z" id="Fill-13" fill="#D2DB34"></path>
                    <path d="M816,138.605 L816,160.685 L831.484,160.685 L831.484,162.136 L836.112,162.136 L836.112,160.685 L836.144,160.685 L836.144,158.897 C837.203,158.654 838.15,158.123 838.893,157.393 C839.936,156.371 840.577,154.959 840.577,153.4 C840.577,151.842 839.936,150.43 838.893,149.409 C838.15,148.677 837.203,148.146 836.144,147.903 L836.144,138.605 L816,138.605 L816,138.605 Z M832.843,155.351 C832.335,154.852 832.021,154.162 832.021,153.4 C832.021,152.638 832.335,151.949 832.843,151.45 C833.351,150.95 834.055,150.642 834.829,150.642 C835.604,150.642 836.307,150.95 836.815,151.45 C837.324,151.949 837.638,152.638 837.638,153.4 C837.638,154.162 837.324,154.852 836.815,155.351 C836.307,155.85 835.604,156.158 834.829,156.158 C834.052,156.158 833.351,155.85 832.843,155.351 L832.843,155.351 Z M836.144,121.35 L836.144,118.636 L830.801,118.636 L830.801,120.174 L825.486,120.174 L817.643,125.776 L817.643,136.967 L836.144,136.967 L836.144,133.075 C837.203,132.831 838.15,132.3 838.893,131.569 C839.936,130.547 840.577,129.135 840.577,127.576 C840.577,126.017 839.936,124.606 838.893,123.585 C838.15,122.854 837.203,122.322 836.144,122.079 L836.144,121.35 L836.144,121.35 Z M832.843,129.528 C832.335,129.027 832.021,128.339 832.021,127.576 C832.021,126.815 832.335,126.125 832.843,125.626 C833.351,125.126 834.055,124.818 834.829,124.818 C835.604,124.818 836.307,125.126 836.815,125.626 C837.324,126.125 837.638,126.815 837.638,127.576 C837.638,128.339 837.324,129.027 836.815,129.528 C836.307,130.026 835.604,130.334 834.829,130.334 C834.052,130.334 833.351,130.026 832.843,129.528 L832.843,129.528 Z M825.959,123.4 L825.959,134.079 L820.584,134.079 L820.584,127.24 L825.959,123.4 L825.959,123.4 Z" id="Fill-16" fill="#2AAB6E"></path>
                    <path d="M836.652,30.08 C836.652,30.08 834.772,25.358 833.714,22.747 C833.029,21.183 831.841,19.441 828.867,19.441 L822.984,19.441 C821.773,19.441 821.115,19.967 821.115,21.167 L821.115,33.589 L836.652,33.616 L836.652,30.08 L836.652,30.08 Z M831.74,28.49 L829.633,26.533 C829.18,26.134 828.802,25.784 827.41,25.784 L823.269,25.784 L823.269,21.595 L828.867,21.595 C830.523,21.595 831.174,22.323 831.731,23.583 C832.295,24.975 833.083,26.944 833.699,28.485 L831.74,28.49 L831.74,28.49 Z M789.049,39.469 L789.054,39.473 L789.041,39.473 L789.049,39.469 L789.049,39.469 Z M773.352,33.616 L817.618,33.616 L817.618,16.022 L773.352,16.022 L773.352,33.616 Z M828.472,35.876 C826.512,35.876 824.922,37.465 824.922,39.429 C824.922,41.386 826.512,42.978 828.472,42.978 C830.431,42.978 832.025,41.386 832.025,39.429 C832.025,37.465 830.431,35.876 828.472,35.876 L828.472,35.876 Z M828.472,41.202 C827.491,41.202 826.694,40.406 826.694,39.429 C826.694,38.443 827.491,37.651 828.472,37.651 C829.454,37.651 830.25,38.443 830.25,39.429 C830.25,40.406 829.454,41.202 828.472,41.202 L828.472,41.202 Z M792.691,35.876 C790.731,35.876 789.141,37.465 789.141,39.429 C789.141,41.386 790.731,42.978 792.691,42.978 C794.651,42.978 796.243,41.386 796.243,39.429 C796.243,37.465 794.651,35.876 792.691,35.876 L792.691,35.876 Z M792.691,41.202 C791.71,41.202 790.913,40.406 790.913,39.429 C790.913,38.443 791.71,37.651 792.691,37.651 C793.672,37.651 794.469,38.443 794.469,39.429 C794.469,40.406 793.672,41.202 792.691,41.202 L792.691,41.202 Z M803.853,35.876 C801.892,35.876 800.303,37.465 800.303,39.429 C800.303,41.386 801.892,42.978 803.853,42.978 C805.812,42.978 807.405,41.386 807.405,39.429 C807.405,37.465 805.812,35.876 803.853,35.876 L803.853,35.876 Z M803.853,41.202 C802.871,41.202 802.075,40.406 802.075,39.429 C802.075,38.443 802.871,37.651 803.853,37.651 C804.833,37.651 805.631,38.443 805.631,39.429 C805.631,40.406 804.833,41.202 803.853,41.202 L803.853,41.202 Z M798.639,39.429 C798.639,39.556 798.648,39.68 798.657,39.805 L797.878,39.805 C797.888,39.681 797.898,39.553 797.898,39.429 C797.898,37.745 797.091,36.247 795.848,35.298 L800.678,35.298 C799.44,36.253 798.639,37.748 798.639,39.429 L798.639,39.429 Z M789.535,35.298 C788.292,36.247 787.487,37.745 787.487,39.429 C787.487,39.553 787.504,39.805 787.504,39.805 L786.716,39.805 C786.726,39.681 786.736,39.553 786.736,39.429 C786.736,37.745 785.929,36.247 784.686,35.298 L789.535,35.298 L789.535,35.298 Z M823.266,39.429 C823.266,39.553 823.275,39.681 823.285,39.805 L809.051,39.805 C809.06,39.68 809.07,39.556 809.07,39.429 C809.07,37.748 808.267,36.253 807.029,35.298 L825.316,35.298 C824.072,36.247 823.266,37.745 823.266,39.429 L823.266,39.429 Z M834.375,39.805 L833.661,39.805 C833.67,39.681 833.681,39.553 833.681,39.429 C833.681,37.745 832.874,36.247 831.63,35.298 L836.775,35.298 C836.775,37.94 837,39.805 834.375,39.805 L834.375,39.805 Z M781.536,35.876 L781.529,35.876 C779.569,35.876 777.977,37.465 777.977,39.429 C777.977,41.386 779.569,42.978 781.529,42.978 L781.536,42.978 C783.496,42.978 785.086,41.386 785.086,39.429 C785.086,37.465 783.496,35.876 781.536,35.876 L781.536,35.876 Z M779.758,39.429 C779.758,38.444 780.552,37.653 781.532,37.652 C782.511,37.653 783.307,38.444 783.307,39.429 C783.307,40.405 782.511,41.2 781.532,41.202 C780.552,41.2 779.758,40.405 779.758,39.429 L779.758,39.429 Z M776.327,39.429 C776.327,39.553 776.34,39.681 776.346,39.805 L775.631,39.805 C772.9,39.805 773.233,37.94 773.233,35.298 L778.378,35.298 C777.134,36.247 776.327,37.745 776.327,39.429 L776.327,39.429 Z" id="Fill-17" fill="#2AAB6E"></path>
                    <path d="M1103.13,30.722 L1102.9,30.743 C1102.29,30.798 1101.67,30.937 1101.1,31.147 C1097.42,32.508 1094.84,34.49 1091.12,37.656 C1090.99,37.77 1090.85,37.886 1090.72,38.003 C1086.99,38.828 1082.57,39.951 1080.55,42.416 C1080.03,43.054 1079.87,43.918 1080.12,44.702 C1080.29,45.219 1080.49,45.875 1080.72,46.521 L1080.22,46.521 C1079.8,46.521 1079.46,46.862 1079.46,47.284 L1079.46,48.461 C1079.46,48.883 1079.8,49.224 1080.22,49.224 L1084.81,49.224 C1085.58,50.583 1087.03,51.5 1088.71,51.5 C1090.38,51.5 1091.83,50.583 1092.6,49.224 L1109.86,49.224 C1110.62,50.583 1112.08,51.5 1113.75,51.5 C1115.42,51.5 1116.88,50.583 1117.65,49.224 L1118.24,49.224 L1122.64,46.83 C1122.84,46.725 1122.96,46.521 1122.96,46.299 L1122.96,43.221 C1122.96,42.943 1122.73,42.717 1122.45,42.717 L1122.04,42.717 L1122.04,34.252 C1122.04,32.283 1120.34,30.737 1118.38,30.629 C1111.4,30.246 1108.33,30.256 1103.13,30.722 L1103.13,30.722 Z M1086.82,47.025 C1086.82,46.85 1086.85,46.682 1086.89,46.521 C1087.11,45.726 1087.84,45.141 1088.71,45.141 C1089.75,45.141 1090.59,45.984 1090.59,47.025 C1090.59,48.065 1089.75,48.909 1088.71,48.909 L1088.47,48.892 C1087.54,48.775 1086.82,47.984 1086.82,47.025 L1086.82,47.025 Z M1103.13,39.711 C1103.13,40.133 1102.79,40.475 1102.37,40.475 L1095.31,40.475 C1094.88,40.475 1094.51,40.143 1094.5,39.709 C1094.5,39.544 1094.5,39.382 1094.51,39.225 C1094.53,38.738 1094.79,38.295 1095.16,37.982 C1097.51,36.009 1099.26,34.734 1101.69,33.838 C1101.9,33.758 1102.13,33.693 1102.36,33.643 C1102.76,33.555 1103.13,33.883 1103.13,34.298 L1103.13,39.711 L1103.13,39.711 Z M1113.75,45.141 C1114.79,45.141 1115.64,45.984 1115.64,47.025 C1115.64,48.065 1114.79,48.909 1113.75,48.909 C1112.71,48.909 1111.87,48.065 1111.87,47.025 C1111.87,45.984 1112.71,45.141 1113.75,45.141 L1113.75,45.141 Z M1119.59,40.471 C1119.59,40.233 1119.71,40.009 1119.91,39.876 L1120.9,39.211 L1120.9,42.385 L1119.97,42.385 C1119.76,42.385 1119.59,42.214 1119.59,42.003 L1119.59,40.471 L1119.59,40.471 Z" id="Fill-51" fill="#2AAB6E"></path>
                    <g id="Group-55" transform="translate(533.000000, 120.000000)">
                        <mask id="mask-6" fill="white">
                            <use xlink:href="#path-5"></use>
                        </mask>
                        <g id="Clip-53"></g>
                        <polyline id="Fill-52" fill="#CFDE7A" mask="url(#mask-6)" points="205.008 51.972 205.007 51.971 205.008 51.972"></polyline>
                        <path d="M203.656,55 L202.281,55 C202.118,54.775 201.955,54.55 201.791,54.325 L200.869,55 L197.148,55 L200.427,52.5 C199.045,50.688 197.608,48.917 196.121,47.188 L193.592,49.363 L193.592,49.364 L187.039,55 L183.973,55 L194.617,45.471 C193.095,43.771 191.521,42.115 189.899,40.506 L187.549,42.878 L187.55,42.879 L176.793,53.738 L175.542,55 L171.672,55 L171.632,54.961 C170.52,53.9 169.38,52.868 168.215,51.863 L166.342,54.036 C165.894,53.649 165.442,53.267 164.986,52.889 L166.815,50.684 C165.404,49.514 163.962,48.382 162.485,47.294 L160.784,49.605 C160.306,49.253 159.825,48.905 159.339,48.562 L160.996,46.222 C159.497,45.162 157.966,44.144 156.408,43.168 L154.887,45.595 C154.382,45.279 153.875,44.968 153.365,44.66 L154.841,42.205 C153.263,41.258 151.656,40.357 150.027,39.497 L148.691,42.025 C148.163,41.746 147.634,41.472 147.1,41.203 L148.391,38.648 C146.745,37.817 145.074,37.036 143.384,36.295 L142.237,38.911 C141.69,38.67 141.141,38.435 140.589,38.205 L141.689,35.567 C139.986,34.857 138.262,34.196 136.522,33.577 L135.567,36.269 C135.003,36.068 134.438,35.873 133.87,35.683 L134.778,32.973 C133.027,32.387 131.26,31.849 129.48,31.357 L128.72,34.112 C128.144,33.952 127.566,33.798 126.986,33.65 L127.697,30.881 C125.909,30.421 124.109,30.009 122.3,29.647 L121.74,32.453 C121.153,32.336 120.565,32.224 119.977,32.118 L120.487,29.302 C118.672,28.973 116.849,28.691 115.02,28.462 L114.664,31.305 C114.072,31.231 113.479,31.163 112.887,31.1 L113.19,28.252 C111.358,28.056 109.522,27.908 107.684,27.815 L107.539,30.679 C106.945,30.648 106.35,30.623 105.755,30.604 L105.847,27.743 C104.817,27.711 103.787,27.688 102.758,27.688 L102.68,27.688 C102.523,27.688 102.396,27.688 102.298,27.69 L102.154,27.69 C102.008,27.689 101.871,27.688 101.744,27.688 L101.702,27.688 C101.212,27.688 100.722,27.698 100.233,27.705 L100.277,30.566 C99.682,30.575 99.088,30.59 98.493,30.61 L98.395,27.75 C96.557,27.811 94.72,27.923 92.886,28.088 L93.143,30.942 C92.548,30.995 91.955,31.054 91.362,31.118 L91.053,28.271 C89.221,28.47 87.394,28.716 85.574,29.016 L86.038,31.843 C85.449,31.94 84.86,32.041 84.273,32.15 L83.758,29.334 C81.943,29.667 80.136,30.044 78.341,30.474 L79.008,33.261 C78.425,33.399 77.845,33.544 77.266,33.693 L76.551,30.925 C74.763,31.388 72.987,31.895 71.227,32.454 L72.091,35.181 C71.521,35.362 70.952,35.548 70.386,35.739 L69.473,33.03 C67.724,33.62 65.99,34.256 64.275,34.939 L65.332,37.594 C64.776,37.816 64.223,38.042 63.671,38.273 L62.566,35.636 C60.863,36.349 59.183,37.111 57.524,37.915 L58.77,40.486 C58.233,40.747 57.698,41.012 57.165,41.282 L55.87,38.729 C54.225,39.563 52.608,40.445 51.014,41.367 L52.446,43.841 C51.93,44.14 51.418,44.443 50.908,44.751 L49.428,42.299 C47.852,43.249 46.307,44.245 44.789,45.281 L46.403,47.645 C45.912,47.98 45.424,48.319 44.941,48.664 L43.281,46.328 C41.785,47.39 40.321,48.496 38.89,49.641 L40.679,51.877 C40.217,52.247 39.758,52.621 39.303,53 L37.471,50.799 C36.065,51.97 34.694,53.181 33.361,54.431 L33.893,55 L31.126,55 C31.142,54.985 31.158,54.969 31.174,54.954 L16.001,39.066 C14.349,40.647 12.747,42.276 11.194,43.95 L13.639,46.22 L13.64,46.219 L23.101,55 L20.157,55 L9.657,45.637 C8.138,47.341 6.672,49.088 5.258,50.876 L7.875,52.946 L7.876,52.946 L10.474,55 L6.92,55 L3.861,52.677 C3.278,53.444 2.704,54.219 2.14,55 L0.765,55 C1.484,53.989 2.22,52.989 2.97,52 L0.686,50.266 C1.162,49.641 1.643,49.019 2.13,48.403 L4.38,50.182 C5.807,48.376 7.288,46.612 8.821,44.892 L6.682,42.984 C7.205,42.397 7.735,41.814 8.271,41.237 L10.373,43.189 C11.942,41.499 13.56,39.855 15.23,38.259 L13.25,36.186 C13.549,35.9 13.85,35.615 14.153,35.333 C14.388,35.109 14.624,34.887 14.86,34.665 L14.861,34.665 L16.822,36.76 C18.505,35.188 20.229,33.667 21.994,32.199 L20.156,29.991 C20.759,29.489 21.366,28.994 21.978,28.505 L23.772,30.748 C25.566,29.313 27.398,27.932 29.266,26.604 L27.602,24.262 C28.24,23.809 28.881,23.363 29.526,22.922 L31.144,25.293 C33.036,24 34.964,22.763 36.922,21.58 L35.439,19.124 C36.108,18.721 36.78,18.324 37.454,17.932 L38.891,20.415 C40.87,19.269 42.879,18.177 44.917,17.143 L43.621,14.588 C44.315,14.236 45.013,13.89 45.714,13.55 L46.964,16.128 C49.019,15.131 51.1,14.19 53.205,13.307 L52.099,10.668 C52.817,10.367 53.536,10.072 54.259,9.784 L54.26,9.784 L55.319,12.445 C57.439,11.6 59.582,10.814 61.745,10.086 L60.831,7.372 C61.567,7.124 62.307,6.882 63.048,6.647 L63.913,9.377 C66.088,8.688 68.282,8.059 70.491,7.489 L69.773,4.713 C70.527,4.518 71.282,4.33 72.038,4.149 L72.039,4.149 L72.706,6.937 C74.925,6.406 77.16,5.937 79.406,5.527 L78.89,2.704 C79.655,2.564 80.423,2.431 81.191,2.305 L81.656,5.138 C83.91,4.769 86.174,4.459 88.446,4.213 L88.137,1.359 C88.912,1.275 89.688,1.198 90.465,1.128 L90.722,3.99 C92.999,3.785 95.283,3.641 97.571,3.562 L97.473,0.694 C98.254,0.668 99.034,0.648 99.816,0.636 L99.86,3.505 C100.488,3.495 101.116,3.487 101.744,3.487 C101.915,3.487 102.078,3.487 102.232,3.488 C102.333,3.488 102.428,3.487 102.515,3.487 L102.68,3.487 C103.997,3.489 105.312,3.513 106.627,3.556 L106.72,0.686 C107.5,0.712 108.281,0.744 109.06,0.784 L108.914,3.652 C111.2,3.769 113.481,3.948 115.753,4.19 L116.058,1.335 C116.833,1.417 117.607,1.506 118.38,1.603 L118.023,4.454 C120.291,4.737 122.55,5.081 124.797,5.486 L125.308,2.663 C126.073,2.801 126.838,2.947 127.602,3.1 L127.04,5.914 C129.279,6.36 131.505,6.866 133.715,7.433 L134.428,4.656 C135.181,4.849 135.932,5.049 136.682,5.256 L135.92,8.018 C138.12,8.625 140.303,9.291 142.466,10.015 L143.376,7.299 C144.113,7.546 144.849,7.799 145.581,8.06 L144.624,10.758 C146.774,11.521 148.904,12.343 151.01,13.222 L152.113,10.579 C152.831,10.879 153.547,11.185 154.259,11.497 L153.109,14.12 C155.2,15.037 157.267,16.01 159.305,17.041 L160.597,14.485 C161.293,14.836 161.985,15.194 162.674,15.558 L161.335,18.092 C163.355,19.16 165.347,20.284 167.308,21.464 L168.786,19.005 C169.454,19.407 170.12,19.816 170.781,20.23 L169.257,22.662 C171.196,23.878 173.102,25.149 174.973,26.474 L176.633,24.129 C177.271,24.581 177.906,25.039 178.535,25.503 L176.833,27.815 C178.678,29.175 180.486,30.59 182.256,32.056 L184.089,29.845 C184.693,30.344 185.292,30.851 185.886,31.364 L184.012,33.538 C185.448,34.775 186.858,36.047 188.237,37.355 L188.229,37.348 L188.247,37.365 L188.252,37.37 L188.317,37.43 L188.275,37.391 C188.528,37.627 188.778,37.866 189.029,38.105 L191.006,36.027 C191.578,36.57 192.143,37.12 192.703,37.675 L190.685,39.712 C192.325,41.337 193.915,43.008 195.451,44.724 L197.587,42.812 C198.113,43.399 198.632,43.99 199.144,44.587 L199.145,44.587 L196.97,46.457 C198.472,48.203 199.922,49.992 201.317,51.822 L203.597,50.083 C204.073,50.709 204.544,51.337 205.007,51.971 L202.693,53.665 C203.017,54.108 203.338,54.553 203.656,55 M171.124,48.489 L168.943,51.019 C170.121,52.036 171.275,53.08 172.4,54.154 L172.449,54.2 L172.48,54.228 C172.694,54.427 172.906,54.629 173.118,54.83 L188.26,38.913 C188.019,38.683 187.778,38.453 187.535,38.225 L187.507,38.198 L187.486,38.179 L187.485,38.179 L187.473,38.166 C186.106,36.87 184.708,35.609 183.284,34.382 L181.105,36.911 L181.105,36.912 L171.124,48.489 M19.867,40.012 L32.599,53.618 C33.948,52.352 35.336,51.127 36.759,49.942 L22.707,33.056 C20.958,34.509 19.25,36.016 17.583,37.573 L19.866,40.012 L19.867,40.012 M165.127,43.708 L163.146,46.397 C164.64,47.497 166.099,48.643 167.526,49.826 L181.545,32.914 C179.792,31.461 178,30.06 176.172,28.712 L174.192,31.4 L174.192,31.401 L165.128,43.708 L165.127,43.708 M26.555,34.223 L36.104,46.158 L36.104,46.159 L38.194,48.771 C39.641,47.612 41.122,46.494 42.635,45.419 L29.911,27.512 C28.061,28.828 26.245,30.196 24.469,31.618 L26.554,34.224 L26.555,34.223 M158.776,39.389 L157,42.224 C158.576,43.211 160.123,44.241 161.639,45.313 L174.329,27.384 C172.476,26.071 170.587,24.811 168.665,23.606 L166.892,26.436 L166.893,26.437 L158.777,39.389 L158.776,39.389 M33.657,28.972 L42.274,41.595 L42.273,41.596 L44.161,44.36 C45.696,43.313 47.259,42.306 48.852,41.345 L37.498,22.535 C35.557,23.707 33.647,24.932 31.773,26.213 L33.656,28.972 L33.657,28.972 M152.112,35.549 L150.547,38.511 C152.195,39.381 153.82,40.292 155.415,41.249 L166.734,22.419 C164.791,21.25 162.816,20.137 160.814,19.078 L159.252,22.034 L159.253,22.034 L152.113,35.55 L152.112,35.549 M41.124,24.272 L48.779,37.502 L48.778,37.503 L50.456,40.402 C52.068,39.47 53.703,38.578 55.365,37.735 L45.422,18.137 C43.402,19.163 41.411,20.244 39.449,21.38 L41.123,24.273 L41.124,24.273 L41.124,24.272 M145.179,32.203 L143.832,35.274 C145.54,36.023 147.23,36.813 148.894,37.653 L158.803,18.036 C156.782,17.015 154.734,16.05 152.661,15.141 L151.318,18.205 L151.319,18.205 L145.18,32.204 L145.179,32.203 M55.576,33.896 L57.037,36.912 C58.715,36.099 60.414,35.329 62.135,34.608 L53.636,14.336 C51.549,15.211 49.487,16.144 47.45,17.132 L48.909,20.141 L48.91,20.141 L55.576,33.896 M14.239,35.252 L14.18,35.307 L14.161,35.326 L14.239,35.252 M138.017,29.367 L136.895,32.527 C138.654,33.152 140.397,33.82 142.118,34.538 L150.581,14.251 C148.493,13.38 146.382,12.565 144.251,11.808 L143.131,14.962 L143.132,14.963 L138.017,29.367 M56.969,16.589 L62.624,30.79 L62.623,30.791 L63.863,33.903 C65.596,33.213 67.349,32.571 69.117,31.975 L62.1,11.143 C59.957,11.864 57.833,12.644 55.731,13.481 L56.969,16.589 M130.668,27.051 L129.777,30.283 C131.576,30.779 133.362,31.324 135.132,31.917 L142.112,11.073 C139.968,10.355 137.804,9.694 135.623,9.093 L134.734,12.317 L134.735,12.317 L130.669,27.052 L130.668,27.051 M70.77,8.568 C68.58,9.134 66.406,9.757 64.25,10.44 L70.89,31.391 C72.669,30.826 74.465,30.315 76.272,29.847 L70.77,8.568 M123.174,25.272 L122.518,28.555 C124.347,28.921 126.166,29.337 127.974,29.801 L132.406,12.535 L132.607,11.75 L133.438,8.513 C131.247,7.951 129.04,7.449 126.821,7.006 L126.167,10.282 L126.168,10.282 L126.167,10.282 L123.175,25.272 L123.174,25.272 M77.302,26.138 L78.082,29.392 C79.896,28.957 81.723,28.575 83.557,28.239 L79.606,6.623 C77.38,7.029 75.165,7.495 72.965,8.021 L77.303,26.138 L77.302,26.138 M115.573,24.038 L115.158,27.356 C117.007,27.588 118.85,27.873 120.685,28.206 L124.598,6.583 C122.371,6.18 120.132,5.84 117.885,5.559 L117.471,8.871 L117.472,8.871 L115.574,24.038 L115.573,24.038 M82.377,9.533 L84.853,24.616 L84.852,24.616 L85.394,27.917 C87.234,27.614 89.081,27.365 90.933,27.164 L88.566,5.321 C86.314,5.565 84.07,5.871 81.836,6.237 L82.377,9.533 M107.911,23.364 L107.741,26.702 C109.6,26.796 111.456,26.947 113.308,27.144 L115.636,5.297 C113.383,5.058 111.122,4.88 108.857,4.764 L107.912,23.364 L107.911,23.364 M92.487,23.647 L92.787,26.979 C94.641,26.812 96.499,26.698 98.358,26.636 L97.609,4.676 C95.342,4.754 93.078,4.896 90.821,5.099 L92.488,23.647 L92.487,23.647 M102.757,26.574 C103.799,26.574 104.841,26.597 105.883,26.63 L106.591,4.669 C105.289,4.627 103.985,4.603 102.681,4.602 C102.537,4.602 102.372,4.602 102.183,4.603 C102.048,4.602 101.901,4.602 101.744,4.602 C101.121,4.602 100.499,4.609 99.877,4.619 L100.215,26.591 C100.692,26.584 101.168,26.573 101.644,26.573 L101.744,26.573 C101.868,26.573 102.008,26.575 102.164,26.575 L102.235,26.576 L102.294,26.575 C102.394,26.574 102.524,26.574 102.681,26.574 L102.757,26.574 M187.548,38.238 L187.516,38.207 C187.522,38.213 187.528,38.219 187.535,38.225 L187.548,38.238 M108.689,8.099 L108.688,8.099 L108.689,8.099" id="Fill-54" fill="#CFDE7A" mask="url(#mask-6)"></path>
                    </g>
                    <polyline id="Fill-56" fill="#CFDE7A" points="642.06 120.784 642.06 120.783 642.06 120.784"></polyline>
                    <polyline id="Fill-57" fill="#CFDE7A" points="721.275 157.391 721.253 157.37 721.27 157.385 721.275 157.391"></polyline>
                    <polyline id="Fill-58" fill="#CFDE7A" points="721.251 157.368 721.247 157.365 721.229 157.348 721.237 157.355 721.251 157.368"></polyline>
                    <polyline id="Fill-59" fill="#CFDE7A" points="721.253 157.37 721.252 157.37 721.251 157.368 721.253 157.37"></polyline>
                    <polyline id="Fill-60" fill="#CFDE7A" points="720.516 158.207 720.486 158.179 720.48 158.174 720.485 158.179 720.486 158.179 720.516 158.207"></polyline>
                    <polyline id="Fill-61" fill="#CFDE7A" points="615.377 129.533 615.378 129.533 615.377 129.533"></polyline>
                    <g id="Group-64" transform="translate(4.000000, 20.000000)" fill="#2AAB6E">
                        <path d="M20.33,0.566 L20.561,0.587 C21.172,0.643 21.784,0.781 22.357,0.991 C26.043,2.353 28.618,4.335 32.337,7.501 C32.471,7.614 32.606,7.73 32.743,7.847 C36.471,8.673 40.885,9.795 42.906,12.26 C43.429,12.898 43.594,13.763 43.339,14.547 C43.171,15.064 42.973,15.72 42.742,16.365 L43.237,16.365 C43.658,16.365 44,16.707 44,17.129 L44,18.305 C44,18.727 43.658,19.069 43.237,19.069 L38.65,19.069 C37.882,20.427 36.425,21.344 34.753,21.344 C33.081,21.344 31.624,20.427 30.856,19.069 L13.604,19.069 C12.835,20.427 11.378,21.344 9.707,21.344 C8.034,21.344 6.577,20.427 5.809,19.069 L5.215,19.069 L0.816,16.675 C0.622,16.569 0.5,16.365 0.5,16.144 L0.5,13.065 C0.5,12.787 0.726,12.562 1.004,12.562 L1.417,12.562 L1.417,4.097 C1.417,2.127 3.117,0.582 5.083,0.473 C12.059,0.09 15.126,0.1 20.33,0.566 L20.33,0.566 Z M36.637,16.87 C36.637,16.694 36.611,16.526 36.567,16.365 C36.346,15.57 35.618,14.986 34.753,14.986 C33.713,14.986 32.869,15.829 32.869,16.87 C32.869,17.91 33.713,18.753 34.753,18.753 L34.991,18.737 C35.919,18.62 36.637,17.829 36.637,16.87 L36.637,16.87 Z M20.33,9.556 C20.33,9.978 20.672,10.319 21.093,10.319 L28.147,10.319 C28.581,10.319 28.95,9.987 28.958,9.553 C28.96,9.388 28.958,9.227 28.951,9.07 C28.928,8.582 28.671,8.14 28.297,7.826 C25.951,5.854 24.2,4.579 21.773,3.682 C21.556,3.602 21.331,3.537 21.104,3.488 C20.698,3.4 20.33,3.727 20.33,4.143 L20.33,9.556 L20.33,9.556 Z M9.707,14.986 C8.666,14.986 7.822,15.829 7.822,16.87 C7.822,17.91 8.666,18.753 9.707,18.753 C10.747,18.753 11.59,17.91 11.59,16.87 C11.59,15.829 10.747,14.986 9.707,14.986 L9.707,14.986 Z M3.869,10.315 C3.869,10.077 3.75,9.853 3.552,9.721 L2.562,9.055 L2.562,12.23 L3.487,12.23 C3.698,12.23 3.869,12.058 3.869,11.848 L3.869,10.315 L3.869,10.315 Z" id="Fill-62"></path>
                    </g>
                </g>
                <g id="Freight-Study-Crowdspot-web-banner-1150x175-Copy-2" transform="translate(2152.500000, 87.500000) scale(-1, 1) translate(-2152.500000, -87.500000) translate(1141.000000, 0.000000)">
                    <g id="Group-5" transform="translate(269.000000, 0.000000)">
                        <mask id="mask-8" fill="white">
                            <use xlink:href="#path-7"></use>
                        </mask>
                        <g id="Clip-2"></g>
                        <polygon id="Fill-1" fill="#B7D141" mask="url(#mask-8)" points="0 174.94 1754 174.94 1754 0 0 0"></polygon>
                        <polygon id="Fill-3" fill="#DCE699" mask="url(#mask-8)" points="594.06 53.344 669 53.344 669 33.344 594.06 33.344"></polygon>
                        <path d="M594,44.844 L603.666,44.844 L603.666,41.844 L594,41.844 L594,44.844 Z M610.333,44.844 L619.999,44.844 L619.999,41.844 L610.333,41.844 L610.333,44.844 Z M626.666,44.844 L636.333,44.844 L636.333,41.844 L626.666,41.844 L626.666,44.844 Z M642.999,44.844 L652.666,44.844 L652.666,41.844 L642.999,41.844 L642.999,44.844 Z M659.333,44.844 L668.999,44.844 L668.999,41.844 L659.333,41.844 L659.333,44.844 Z" id="Fill-4" fill="#D2DB34" mask="url(#mask-8)"></path>
                    </g>
                    <g id="Group-7" transform="translate(1583.000000, 33.000000)">
                        <polygon id="Fill-6" fill="#DCE699" points="0 20.5 440 20.5 440 0.5 0 0.5"></polygon>
                        <path d="M431.07,12 L440,12 L440,9 L431.07,9 L431.07,12 Z M416.2,12 L425.14,12 L425.14,9 L416.2,9 L416.2,12 Z M401.34,12 L410.27,12 L410.27,9 L401.34,9 L401.34,12 Z M386.47,12 L395.41,12 L395.41,9 L386.47,9 L386.47,12 Z M371.61,12 L380.54,12 L380.54,9 L371.61,9 L371.61,12 Z M356.75,12 L365.68,12 L365.68,9 L356.75,9 L356.75,12 Z M341.88,12 L350.81,12 L350.81,9 L341.88,9 L341.88,12 Z M327.02,12 L335.95,12 L335.95,9 L327.02,9 L327.02,12 Z M312.15,12 L321.08,12 L321.08,9 L312.15,9 L312.15,12 Z M297.29,12 L306.22,12 L306.22,9 L297.29,9 L297.29,12 Z M282.424,12 L291.36,12 L291.36,9 L282.424,9 L282.424,12 Z M267.56,12 L276.492,12 L276.492,9 L267.56,9 L267.56,12 Z M252.695,12 L261.628,12 L261.628,9 L252.695,9 L252.695,12 Z M237.831,12 L246.764,12 L246.764,9 L237.831,9 L237.831,12 Z M222.967,12 L231.898,12 L231.898,9 L222.967,9 L222.967,12 Z M208.103,12 L217.034,12 L217.034,9 L208.103,9 L208.103,12 Z M193.238,12 L202.17,12 L202.17,9 L193.238,9 L193.238,12 Z M178.373,12 L187.306,12 L187.306,9 L178.373,9 L178.373,12 Z M163.509,12 L172.441,12 L172.441,9 L163.509,9 L163.509,12 Z M148.645,12 L157.577,12 L157.577,9 L148.645,9 L148.645,12 Z M133.78,12 L142.713,12 L142.713,9 L133.78,9 L133.78,12 Z M118.916,12 L127.848,12 L127.848,9 L118.916,9 L118.916,12 Z M104.052,12 L112.983,12 L112.983,9 L104.052,9 L104.052,12 Z M89.188,12 L98.119,12 L98.119,9 L89.188,9 L89.188,12 Z M74.322,12 L83.255,12 L83.255,9 L74.322,9 L74.322,12 Z M59.458,12 L68.391,12 L68.391,9 L59.458,9 L59.458,12 Z M44.594,12 L53.526,12 L53.526,9 L44.594,9 L44.594,12 Z M29.729,12 L38.662,12 L38.662,9 L29.729,9 L29.729,12 Z M14.865,12 L23.797,12 L23.797,9 L14.865,9 L14.865,12 Z M0.001,12 L8.933,12 L8.933,9 L0.001,9 L0.001,12 Z" id="Fill-7" fill="#D2DB34"></path>
                    </g>
                    <g id="Group-7-Copy" transform="translate(1153.000000, 33.000000)">
                        <polygon id="Fill-6" fill="#DCE699" points="0 20.5 440 20.5 440 0.5 0 0.5"></polygon>
                        <path d="M431.07,12 L440,12 L440,9 L431.07,9 L431.07,12 Z M416.2,12 L425.14,12 L425.14,9 L416.2,9 L416.2,12 Z M401.34,12 L410.27,12 L410.27,9 L401.34,9 L401.34,12 Z M386.47,12 L395.41,12 L395.41,9 L386.47,9 L386.47,12 Z M371.61,12 L380.54,12 L380.54,9 L371.61,9 L371.61,12 Z M356.75,12 L365.68,12 L365.68,9 L356.75,9 L356.75,12 Z M341.88,12 L350.81,12 L350.81,9 L341.88,9 L341.88,12 Z M327.02,12 L335.95,12 L335.95,9 L327.02,9 L327.02,12 Z M312.15,12 L321.08,12 L321.08,9 L312.15,9 L312.15,12 Z M297.29,12 L306.22,12 L306.22,9 L297.29,9 L297.29,12 Z M282.424,12 L291.36,12 L291.36,9 L282.424,9 L282.424,12 Z M267.56,12 L276.492,12 L276.492,9 L267.56,9 L267.56,12 Z M252.695,12 L261.628,12 L261.628,9 L252.695,9 L252.695,12 Z M237.831,12 L246.764,12 L246.764,9 L237.831,9 L237.831,12 Z M222.967,12 L231.898,12 L231.898,9 L222.967,9 L222.967,12 Z M208.103,12 L217.034,12 L217.034,9 L208.103,9 L208.103,12 Z M193.238,12 L202.17,12 L202.17,9 L193.238,9 L193.238,12 Z M178.373,12 L187.306,12 L187.306,9 L178.373,9 L178.373,12 Z M163.509,12 L172.441,12 L172.441,9 L163.509,9 L163.509,12 Z M148.645,12 L157.577,12 L157.577,9 L148.645,9 L148.645,12 Z M133.78,12 L142.713,12 L142.713,9 L133.78,9 L133.78,12 Z M118.916,12 L127.848,12 L127.848,9 L118.916,9 L118.916,12 Z M104.052,12 L112.983,12 L112.983,9 L104.052,9 L104.052,12 Z M89.188,12 L98.119,12 L98.119,9 L89.188,9 L89.188,12 Z M74.322,12 L83.255,12 L83.255,9 L74.322,9 L74.322,12 Z M59.458,12 L68.391,12 L68.391,9 L59.458,9 L59.458,12 Z M44.594,12 L53.526,12 L53.526,9 L44.594,9 L44.594,12 Z M29.729,12 L38.662,12 L38.662,9 L29.729,9 L29.729,12 Z M14.865,12 L23.797,12 L23.797,9 L14.865,9 L14.865,12 Z M0.001,12 L8.933,12 L8.933,9 L0.001,9 L0.001,12 Z" id="Fill-7" fill="#D2DB34"></path>
                    </g>
                    <g id="Group-7-Copy-2" transform="translate(930.000000, 33.000000)">
                        <polygon id="Fill-6" fill="#DCE699" points="0 20.5 440 20.5 440 0.5 0 0.5"></polygon>
                        <path d="M431.07,12 L440,12 L440,9 L431.07,9 L431.07,12 Z M416.2,12 L425.14,12 L425.14,9 L416.2,9 L416.2,12 Z M401.34,12 L410.27,12 L410.27,9 L401.34,9 L401.34,12 Z M386.47,12 L395.41,12 L395.41,9 L386.47,9 L386.47,12 Z M371.61,12 L380.54,12 L380.54,9 L371.61,9 L371.61,12 Z M356.75,12 L365.68,12 L365.68,9 L356.75,9 L356.75,12 Z M341.88,12 L350.81,12 L350.81,9 L341.88,9 L341.88,12 Z M327.02,12 L335.95,12 L335.95,9 L327.02,9 L327.02,12 Z M312.15,12 L321.08,12 L321.08,9 L312.15,9 L312.15,12 Z M297.29,12 L306.22,12 L306.22,9 L297.29,9 L297.29,12 Z M282.424,12 L291.36,12 L291.36,9 L282.424,9 L282.424,12 Z M267.56,12 L276.492,12 L276.492,9 L267.56,9 L267.56,12 Z M252.695,12 L261.628,12 L261.628,9 L252.695,9 L252.695,12 Z M237.831,12 L246.764,12 L246.764,9 L237.831,9 L237.831,12 Z M222.967,12 L231.898,12 L231.898,9 L222.967,9 L222.967,12 Z M208.103,12 L217.034,12 L217.034,9 L208.103,9 L208.103,12 Z M193.238,12 L202.17,12 L202.17,9 L193.238,9 L193.238,12 Z M178.373,12 L187.306,12 L187.306,9 L178.373,9 L178.373,12 Z M163.509,12 L172.441,12 L172.441,9 L163.509,9 L163.509,12 Z M148.645,12 L157.577,12 L157.577,9 L148.645,9 L148.645,12 Z M133.78,12 L142.713,12 L142.713,9 L133.78,9 L133.78,12 Z M118.916,12 L127.848,12 L127.848,9 L118.916,9 L118.916,12 Z M104.052,12 L112.983,12 L112.983,9 L104.052,9 L104.052,12 Z M89.188,12 L98.119,12 L98.119,9 L89.188,9 L89.188,12 Z M74.322,12 L83.255,12 L83.255,9 L74.322,9 L74.322,12 Z M59.458,12 L68.391,12 L68.391,9 L59.458,9 L59.458,12 Z M44.594,12 L53.526,12 L53.526,9 L44.594,9 L44.594,12 Z M29.729,12 L38.662,12 L38.662,9 L29.729,9 L29.729,12 Z M14.865,12 L23.797,12 L23.797,9 L14.865,9 L14.865,12 Z M0.001,12 L8.933,12 L8.933,9 L0.001,9 L0.001,12 Z" id="Fill-7" fill="#D2DB34"></path>
                    </g>
                    <g id="Group-7-Copy-3" transform="translate(432.000000, 33.000000)">
                        <polygon id="Fill-6" fill="#DCE699" points="0 20.5 440 20.5 440 0.5 0 0.5"></polygon>
                        <path d="M431.07,12 L440,12 L440,9 L431.07,9 L431.07,12 Z M416.2,12 L425.14,12 L425.14,9 L416.2,9 L416.2,12 Z M401.34,12 L410.27,12 L410.27,9 L401.34,9 L401.34,12 Z M386.47,12 L395.41,12 L395.41,9 L386.47,9 L386.47,12 Z M371.61,12 L380.54,12 L380.54,9 L371.61,9 L371.61,12 Z M356.75,12 L365.68,12 L365.68,9 L356.75,9 L356.75,12 Z M341.88,12 L350.81,12 L350.81,9 L341.88,9 L341.88,12 Z M327.02,12 L335.95,12 L335.95,9 L327.02,9 L327.02,12 Z M312.15,12 L321.08,12 L321.08,9 L312.15,9 L312.15,12 Z M297.29,12 L306.22,12 L306.22,9 L297.29,9 L297.29,12 Z M282.424,12 L291.36,12 L291.36,9 L282.424,9 L282.424,12 Z M267.56,12 L276.492,12 L276.492,9 L267.56,9 L267.56,12 Z M252.695,12 L261.628,12 L261.628,9 L252.695,9 L252.695,12 Z M237.831,12 L246.764,12 L246.764,9 L237.831,9 L237.831,12 Z M222.967,12 L231.898,12 L231.898,9 L222.967,9 L222.967,12 Z M208.103,12 L217.034,12 L217.034,9 L208.103,9 L208.103,12 Z M193.238,12 L202.17,12 L202.17,9 L193.238,9 L193.238,12 Z M178.373,12 L187.306,12 L187.306,9 L178.373,9 L178.373,12 Z M163.509,12 L172.441,12 L172.441,9 L163.509,9 L163.509,12 Z M148.645,12 L157.577,12 L157.577,9 L148.645,9 L148.645,12 Z M133.78,12 L142.713,12 L142.713,9 L133.78,9 L133.78,12 Z M118.916,12 L127.848,12 L127.848,9 L118.916,9 L118.916,12 Z M104.052,12 L112.983,12 L112.983,9 L104.052,9 L104.052,12 Z M89.188,12 L98.119,12 L98.119,9 L89.188,9 L89.188,12 Z M74.322,12 L83.255,12 L83.255,9 L74.322,9 L74.322,12 Z M59.458,12 L68.391,12 L68.391,9 L59.458,9 L59.458,12 Z M44.594,12 L53.526,12 L53.526,9 L44.594,9 L44.594,12 Z M29.729,12 L38.662,12 L38.662,9 L29.729,9 L29.729,12 Z M14.865,12 L23.797,12 L23.797,9 L14.865,9 L14.865,12 Z M0.001,12 L8.933,12 L8.933,9 L0.001,9 L0.001,12 Z" id="Fill-7" fill="#D2DB34"></path>
                    </g>
                    <g id="Group-7-Copy-4" transform="translate(0.000000, 33.000000)">
                        <polygon id="Fill-6" fill="#DCE699" points="0 20.5 440 20.5 440 0.5 0 0.5"></polygon>
                        <path d="M431.07,12 L440,12 L440,9 L431.07,9 L431.07,12 Z M416.2,12 L425.14,12 L425.14,9 L416.2,9 L416.2,12 Z M401.34,12 L410.27,12 L410.27,9 L401.34,9 L401.34,12 Z M386.47,12 L395.41,12 L395.41,9 L386.47,9 L386.47,12 Z M371.61,12 L380.54,12 L380.54,9 L371.61,9 L371.61,12 Z M356.75,12 L365.68,12 L365.68,9 L356.75,9 L356.75,12 Z M341.88,12 L350.81,12 L350.81,9 L341.88,9 L341.88,12 Z M327.02,12 L335.95,12 L335.95,9 L327.02,9 L327.02,12 Z M312.15,12 L321.08,12 L321.08,9 L312.15,9 L312.15,12 Z M297.29,12 L306.22,12 L306.22,9 L297.29,9 L297.29,12 Z M282.424,12 L291.36,12 L291.36,9 L282.424,9 L282.424,12 Z M267.56,12 L276.492,12 L276.492,9 L267.56,9 L267.56,12 Z M252.695,12 L261.628,12 L261.628,9 L252.695,9 L252.695,12 Z M237.831,12 L246.764,12 L246.764,9 L237.831,9 L237.831,12 Z M222.967,12 L231.898,12 L231.898,9 L222.967,9 L222.967,12 Z M208.103,12 L217.034,12 L217.034,9 L208.103,9 L208.103,12 Z M193.238,12 L202.17,12 L202.17,9 L193.238,9 L193.238,12 Z M178.373,12 L187.306,12 L187.306,9 L178.373,9 L178.373,12 Z M163.509,12 L172.441,12 L172.441,9 L163.509,9 L163.509,12 Z M148.645,12 L157.577,12 L157.577,9 L148.645,9 L148.645,12 Z M133.78,12 L142.713,12 L142.713,9 L133.78,9 L133.78,12 Z M118.916,12 L127.848,12 L127.848,9 L118.916,9 L118.916,12 Z M104.052,12 L112.983,12 L112.983,9 L104.052,9 L104.052,12 Z M89.188,12 L98.119,12 L98.119,9 L89.188,9 L89.188,12 Z M74.322,12 L83.255,12 L83.255,9 L74.322,9 L74.322,12 Z M59.458,12 L68.391,12 L68.391,9 L59.458,9 L59.458,12 Z M44.594,12 L53.526,12 L53.526,9 L44.594,9 L44.594,12 Z M29.729,12 L38.662,12 L38.662,9 L29.729,9 L29.729,12 Z M14.865,12 L23.797,12 L23.797,9 L14.865,9 L14.865,12 Z M0.001,12 L8.933,12 L8.933,9 L0.001,9 L0.001,12 Z" id="Fill-7" fill="#D2DB34"></path>
                    </g>
                    <polygon id="Fill-12" fill="#DCE699" points="1876.89 35.5 1896.89 35.5 1896.89 0 1876.89 0"></polygon>
                    <path d="M1885.39,8.3 L1888.39,8.3 L1888.39,0 L1885.39,0 L1885.39,8.3 Z M1885.39,21.899 L1888.39,21.899 L1888.39,13.599 L1885.39,13.599 L1885.39,21.899 Z M1885.39,35.499 L1888.39,35.499 L1888.39,27.199 L1885.39,27.199 L1885.39,35.499 Z" id="Fill-13" fill="#D2DB34"></path>
                    <path d="M1709.652,30.08 C1709.652,30.08 1707.772,25.358 1706.714,22.747 C1706.029,21.183 1704.841,19.441 1701.867,19.441 L1695.984,19.441 C1694.773,19.441 1694.115,19.967 1694.115,21.167 L1694.115,33.589 L1709.652,33.616 L1709.652,30.08 L1709.652,30.08 Z M1704.74,28.49 L1702.633,26.533 C1702.18,26.134 1701.802,25.784 1700.41,25.784 L1696.269,25.784 L1696.269,21.595 L1701.867,21.595 C1703.523,21.595 1704.174,22.323 1704.731,23.583 C1705.295,24.975 1706.083,26.944 1706.699,28.485 L1704.74,28.49 L1704.74,28.49 Z M1662.049,39.469 L1662.054,39.473 L1662.041,39.473 L1662.049,39.469 L1662.049,39.469 Z M1646.352,33.616 L1690.618,33.616 L1690.618,16.022 L1646.352,16.022 L1646.352,33.616 Z M1701.472,35.876 C1699.512,35.876 1697.922,37.465 1697.922,39.429 C1697.922,41.386 1699.512,42.978 1701.472,42.978 C1703.431,42.978 1705.025,41.386 1705.025,39.429 C1705.025,37.465 1703.431,35.876 1701.472,35.876 L1701.472,35.876 Z M1701.472,41.202 C1700.491,41.202 1699.694,40.406 1699.694,39.429 C1699.694,38.443 1700.491,37.651 1701.472,37.651 C1702.454,37.651 1703.25,38.443 1703.25,39.429 C1703.25,40.406 1702.454,41.202 1701.472,41.202 L1701.472,41.202 Z M1665.691,35.876 C1663.731,35.876 1662.141,37.465 1662.141,39.429 C1662.141,41.386 1663.731,42.978 1665.691,42.978 C1667.651,42.978 1669.243,41.386 1669.243,39.429 C1669.243,37.465 1667.651,35.876 1665.691,35.876 L1665.691,35.876 Z M1665.691,41.202 C1664.71,41.202 1663.913,40.406 1663.913,39.429 C1663.913,38.443 1664.71,37.651 1665.691,37.651 C1666.672,37.651 1667.469,38.443 1667.469,39.429 C1667.469,40.406 1666.672,41.202 1665.691,41.202 L1665.691,41.202 Z M1676.853,35.876 C1674.892,35.876 1673.303,37.465 1673.303,39.429 C1673.303,41.386 1674.892,42.978 1676.853,42.978 C1678.812,42.978 1680.405,41.386 1680.405,39.429 C1680.405,37.465 1678.812,35.876 1676.853,35.876 L1676.853,35.876 Z M1676.853,41.202 C1675.871,41.202 1675.075,40.406 1675.075,39.429 C1675.075,38.443 1675.871,37.651 1676.853,37.651 C1677.833,37.651 1678.631,38.443 1678.631,39.429 C1678.631,40.406 1677.833,41.202 1676.853,41.202 L1676.853,41.202 Z M1671.639,39.429 C1671.639,39.556 1671.648,39.68 1671.657,39.805 L1670.878,39.805 C1670.888,39.681 1670.898,39.553 1670.898,39.429 C1670.898,37.745 1670.091,36.247 1668.848,35.298 L1673.678,35.298 C1672.44,36.253 1671.639,37.748 1671.639,39.429 L1671.639,39.429 Z M1662.535,35.298 C1661.292,36.247 1660.487,37.745 1660.487,39.429 C1660.487,39.553 1660.504,39.805 1660.504,39.805 L1659.716,39.805 C1659.726,39.681 1659.736,39.553 1659.736,39.429 C1659.736,37.745 1658.929,36.247 1657.686,35.298 L1662.535,35.298 L1662.535,35.298 Z M1696.266,39.429 C1696.266,39.553 1696.275,39.681 1696.285,39.805 L1682.051,39.805 C1682.06,39.68 1682.07,39.556 1682.07,39.429 C1682.07,37.748 1681.267,36.253 1680.029,35.298 L1698.316,35.298 C1697.072,36.247 1696.266,37.745 1696.266,39.429 L1696.266,39.429 Z M1707.375,39.805 L1706.661,39.805 C1706.67,39.681 1706.681,39.553 1706.681,39.429 C1706.681,37.745 1705.874,36.247 1704.63,35.298 L1709.775,35.298 C1709.775,37.94 1710,39.805 1707.375,39.805 L1707.375,39.805 Z M1654.536,35.876 L1654.529,35.876 C1652.569,35.876 1650.977,37.465 1650.977,39.429 C1650.977,41.386 1652.569,42.978 1654.529,42.978 L1654.536,42.978 C1656.496,42.978 1658.086,41.386 1658.086,39.429 C1658.086,37.465 1656.496,35.876 1654.536,35.876 L1654.536,35.876 Z M1652.758,39.429 C1652.758,38.444 1653.552,37.653 1654.532,37.652 C1655.511,37.653 1656.307,38.444 1656.307,39.429 C1656.307,40.405 1655.511,41.2 1654.532,41.202 C1653.552,41.2 1652.758,40.405 1652.758,39.429 L1652.758,39.429 Z M1649.327,39.429 C1649.327,39.553 1649.34,39.681 1649.346,39.805 L1648.631,39.805 C1645.9,39.805 1646.233,37.94 1646.233,35.298 L1651.378,35.298 C1650.134,36.247 1649.327,37.745 1649.327,39.429 L1649.327,39.429 Z" id="Fill-17" fill="#2AAB6E"></path>
                    <polyline id="Fill-56" fill="#CFDE7A" points="1515.06 120.784 1515.06 120.783 1515.06 120.784"></polyline>
                    <polyline id="Fill-57" fill="#CFDE7A" points="1594.275 157.391 1594.253 157.37 1594.27 157.385 1594.275 157.391"></polyline>
                    <polyline id="Fill-58" fill="#CFDE7A" points="1594.251 157.368 1594.247 157.365 1594.229 157.348 1594.237 157.355 1594.251 157.368"></polyline>
                    <polyline id="Fill-59" fill="#CFDE7A" points="1594.253 157.37 1594.252 157.37 1594.251 157.368 1594.253 157.37"></polyline>
                    <polyline id="Fill-60" fill="#CFDE7A" points="1593.516 158.207 1593.486 158.179 1593.48 158.174 1593.485 158.179 1593.486 158.179 1593.516 158.207"></polyline>
                    <polyline id="Fill-61" fill="#CFDE7A" points="1488.377 129.533 1488.378 129.533 1488.377 129.533"></polyline>
                    <g id="Group-64" transform="translate(1107.000000, 20.000000)" fill="#2AAB6E">
                        <path d="M20.057931,0.363554472 L20.2915862,0.384411405 C20.9096092,0.440029893 21.5286437,0.577089739 22.1082299,0.78565907 C25.8365977,2.13838016 28.4411954,4.10687737 32.2029425,7.25130833 C32.3384828,7.3635385 32.4750345,7.47874822 32.6136092,7.59495114 C36.3844598,8.41532384 40.8491954,9.52967998 42.8934253,11.9778867 C43.4224368,12.6115401 43.5893333,13.4706471 43.3314023,14.249306 C43.1614713,14.7627838 42.9611954,15.4143147 42.7275402,16.0549205 L43.2282299,16.0549205 C43.654069,16.0549205 44,16.3945905 44,16.8137156 L44,17.9817038 C44,18.4008289 43.654069,18.7404989 43.2282299,18.7404989 L38.5885057,18.7404989 C37.8116782,20.0892473 36.337931,21 34.6467126,21 C32.9554943,21 31.4817471,20.0892473 30.7049195,18.7404989 L13.2546207,18.7404989 C12.4767816,20.0892473 11.0030345,21 9.31282759,21 C7.6205977,21 6.14685057,20.0892473 5.37002299,18.7404989 L4.7691954,18.7404989 L0.319632184,16.3628085 C0.123402299,16.2575307 0,16.0549205 0,15.8354261 L0,12.7774024 C0,12.5012964 0.228597701,12.2778292 0.509793103,12.2778292 L0.92754023,12.2778292 L0.92754023,3.8704988 C0.92754023,1.91391983 2.64708046,0.379445469 4.63567816,0.271188054 C11.6918621,-0.109202679 14.7941149,-0.0992708056 20.057931,0.363554472 L20.057931,0.363554472 Z M36.5523678,16.5564801 C36.5523678,16.3816791 36.526069,16.2148236 36.4815632,16.0549205 C36.258023,15.2653366 35.5216552,14.6853152 34.6467126,14.6853152 C33.5947586,14.6853152 32.7410575,15.5225721 32.7410575,16.5564801 C32.7410575,17.5893948 33.5947586,18.4266517 34.6467126,18.4266517 L34.8874483,18.4107607 C35.8261149,18.2945578 36.5523678,17.5089467 36.5523678,16.5564801 L36.5523678,16.5564801 Z M20.057931,9.29230822 C20.057931,9.71143325 20.4038621,10.0501101 20.8297011,10.0501101 L27.9647816,10.0501101 C28.4037701,10.0501101 28.7770115,9.72037194 28.7851034,9.28932865 C28.7871264,9.12545275 28.7851034,8.9655496 28.778023,8.80961919 C28.7547586,8.32494379 28.4948046,7.88595501 28.1165057,7.5740942 C25.7435402,5.61552887 23.9724138,4.34921507 21.5175172,3.45832607 C21.298023,3.37887109 21.0704368,3.31431391 20.8408276,3.26564774 C20.4301609,3.17824725 20.057931,3.5030195 20.057931,3.91618541 L20.057931,9.29230822 L20.057931,9.29230822 Z M9.31282759,14.6853152 C8.25986207,14.6853152 7.40616092,15.5225721 7.40616092,16.5564801 C7.40616092,17.5893948 8.25986207,18.4266517 9.31282759,18.4266517 C10.3647816,18.4266517 11.2174713,17.5893948 11.2174713,16.5564801 C11.2174713,15.5225721 10.3647816,14.6853152 9.31282759,14.6853152 L9.31282759,14.6853152 Z M3.40772414,10.0461374 C3.40772414,9.80975879 3.28735632,9.58728484 3.08708046,9.45618412 L2.08570115,8.79472138 L2.08570115,11.948091 L3.02133333,11.948091 C3.23475862,11.948091 3.40772414,11.7772628 3.40772414,11.5686935 L3.40772414,10.0461374 L3.40772414,10.0461374 Z" id="Fill-62"></path>
                    </g>
                </g>
            </g>
        </g>
    </g>
</svg>