<?xml version="1.0" encoding="UTF-8" standalone="no"?>
<svg width="167px" height="45px" viewBox="0 0 167 45" version="1.1" xmlns="http://www.w3.org/2000/svg" xmlns:xlink="http://www.w3.org/1999/xlink">
    <!-- Generator: Sketch 39.1 (31720) - http://www.bohemiancoding.com/sketch -->
    <title>logo-bendigo-small</title>
    <desc>Created with Sketch.</desc>
    <defs></defs>
    <g id="Page-1" stroke="none" stroke-width="1" fill="none" fill-rule="evenodd">
        <g id="logo-bendigo-small" fill="#21214A">
            <g id="Group-2" transform="translate(52.000000, 20.000000)">
                <path d="M3.75,3.219 L5.61,3.219 C6.9,3.219 7.43,3.994 7.43,4.726 C7.43,5.478 6.9,6.273 5.61,6.273 L3.75,6.273 L3.75,3.219 L3.75,3.219 Z M0.19,0.604 L0.19,14.873 L7.14,14.873 C11.3,14.873 12.18,12.321 12.18,10.688 C12.18,9.015 11.17,7.55 9.14,7.027 C10.34,6.442 11.09,5.374 11.09,4.182 C11.09,2.592 9.73,0.604 6.36,0.604 L0.19,0.604 L0.19,0.604 Z M3.75,8.889 L6.24,8.889 C7.49,8.889 8.41,9.454 8.41,10.5 C8.41,11.734 7.72,12.258 5.75,12.258 L3.75,12.258 L3.75,8.889 L3.75,8.889 Z" id="Fill-18"></path>
                <polyline id="Fill-19" points="27.45 14.873 16.93 14.873 16.93 0.604 27.3 0.604 27.3 3.219 20.48 3.219 20.48 6.211 26.99 6.211 26.99 8.827 20.48 8.827 20.48 12.258 27.45 12.258 27.45 14.873"></polyline>
                <polyline id="Fill-20" points="46.72 14.873 43.73 14.873 35.84 5.73 35.84 14.873 32.28 14.873 32.28 0.604 35.55 0.604 43.16 9.329 43.16 0.604 46.72 0.604 46.72 14.873"></polyline>
                <path d="M55.55,3.219 L57.83,3.219 C61.2,3.219 62.51,5.29 62.51,7.738 C62.51,9.83 61.45,12.258 57.87,12.258 L55.55,12.258 L55.55,3.219 L55.55,3.219 Z M51.99,0.604 L51.99,14.873 L57.89,14.873 C63.58,14.873 66.18,11.86 66.18,7.759 C66.18,3.847 63.5,0.604 58.29,0.604 L51.99,0.604 L51.99,0.604 Z" id="Fill-21"></path>
                <polygon id="Fill-22" points="71.01 14.873 74.56 14.873 74.56 0.604 71.01 0.604"></polygon>
                <path d="M93.56,4.705 C91.74,3.826 89.98,3.387 88.23,3.387 C84.36,3.387 83,5.772 83,7.885 C83,10.417 84.98,12.09 87.93,12.09 C88.81,12.09 89.25,12.007 90.3,11.588 L90.3,9.914 L88.23,9.914 L88.23,7.299 L93.85,7.299 L93.85,13.136 C92.79,14.245 90.15,15.061 87.85,15.061 C82.87,15.061 79.33,12.027 79.33,7.759 C79.33,3.407 82.85,0.416 87.93,0.416 C90.07,0.416 92.14,0.897 93.56,1.587 L93.56,4.705" id="Fill-23"></path>
                <path d="M111.11,7.738 C111.11,10.354 109.32,12.09 106.62,12.09 C103.9,12.09 102.1,10.354 102.1,7.738 C102.1,5.123 103.9,3.387 106.62,3.387 C109.32,3.387 111.11,5.123 111.11,7.738 L111.11,7.738 Z M114.78,7.738 C114.78,4.307 111.99,0.416 106.62,0.416 C101.24,0.416 98.44,4.286 98.44,7.738 C98.44,11.379 101.39,15.061 106.62,15.061 C111.74,15.061 114.78,11.4 114.78,7.738 L114.78,7.738 Z" id="Fill-24"></path>
            </g>
            <g id="Group" transform="translate(51.000000, 10.000000)">
                <path d="M6.91,2.239 C6.06,1.747 5.34,1.526 4.55,1.526 C2.98,1.526 1.82,2.64 1.82,4.146 C1.82,5.682 2.94,6.746 4.59,6.746 C5.36,6.746 6.2,6.475 6.98,5.973 L6.98,7.047 C6.3,7.398 5.57,7.649 4.5,7.649 C1.93,7.649 0.8,5.672 0.8,4.236 C0.8,2.148 2.38,0.622 4.56,0.622 C5.26,0.622 5.97,0.793 6.91,1.185 L6.91,2.239" id="Fill-25"></path>
                <polygon id="Fill-26" points="10.5 7.559 11.48 7.559 11.48 0.713 10.5 0.713"></polygon>
                <polyline id="Fill-27" points="20.45 1.596 18.08 1.596 18.08 7.559 17.1 7.559 17.1 1.596 14.73 1.596 14.73 0.713 20.45 0.713 20.45 1.596"></polyline>
                <polyline id="Fill-28" points="27.81 0.713 28.99 0.713 26.45 3.945 26.45 7.559 25.47 7.559 25.47 3.935 22.93 0.713 24.11 0.713 25.95 3.072 27.81 0.713"></polyline>
                <path d="M37.86,4.136 C37.86,2.63 39,1.526 40.52,1.526 C42.06,1.526 43.19,2.63 43.19,4.136 C43.19,5.632 42.06,6.746 40.52,6.746 C39,6.746 37.86,5.632 37.86,4.136 L37.86,4.136 Z M36.85,4.136 C36.85,5.993 38.27,7.649 40.5,7.649 C42.82,7.649 44.21,5.983 44.21,4.136 C44.21,2.229 42.78,0.622 40.52,0.622 C38.31,0.622 36.85,2.239 36.85,4.136 L36.85,4.136 Z" id="Fill-29"></path>
                <polyline id="Fill-30" points="51.39 1.596 48.71 1.596 48.71 3.493 51.39 3.493 51.39 4.377 48.71 4.377 48.71 7.559 47.73 7.559 47.73 0.713 51.39 0.713 51.39 1.596"></polyline>
                <path d="M65.84,7.087 C64.93,7.488 64.18,7.649 63.23,7.649 C61.13,7.649 59.59,6.184 59.59,4.176 C59.59,2.158 61.17,0.622 63.26,0.622 C64.06,0.622 64.63,0.753 65.7,1.205 L65.7,2.199 C64.9,1.757 64.06,1.526 63.24,1.526 C61.75,1.526 60.6,2.66 60.6,4.146 C60.6,5.672 61.74,6.746 63.37,6.746 C63.9,6.746 64.38,6.625 64.86,6.475 L64.86,5.069 L63.54,5.069 L63.54,4.186 L65.84,4.186 L65.84,7.087" id="Fill-31"></path>
                <path d="M70.58,1.556 L71.21,1.556 C72.16,1.556 72.55,1.948 72.56,2.59 C72.57,3.162 72.26,3.704 71.21,3.704 L70.58,3.704 L70.58,1.556 L70.58,1.556 Z M69.59,0.713 L69.59,7.559 L70.58,7.559 L70.58,4.588 L70.99,4.588 C71.49,4.588 71.9,4.748 72.81,6.154 L73.71,7.559 L74.88,7.559 C74.41,6.906 74.24,6.676 73.95,6.204 C73.43,5.35 73.05,4.718 72.43,4.306 C73.16,4.015 73.57,3.423 73.57,2.63 C73.57,1.446 72.71,0.713 71.32,0.713 L69.59,0.713 L69.59,0.713 Z" id="Fill-32"></path>
                <polyline id="Fill-33" points="81.83 1.596 78.93 1.596 78.93 3.664 81.73 3.664 81.73 4.547 78.93 4.547 78.93 6.676 81.92 6.676 81.92 7.559 77.95 7.559 77.95 0.713 81.83 0.713 81.83 1.596"></polyline>
                <path d="M87.79,2.178 L88.9,4.658 L86.77,4.658 L87.79,2.178 L87.79,2.178 Z M88.15,0.673 L87.46,0.673 L84.52,7.559 L85.52,7.559 L86.39,5.541 L89.3,5.541 L90.21,7.559 L91.22,7.559 L88.15,0.673 L88.15,0.673 Z" id="Fill-34"></path>
                <polyline id="Fill-35" points="98.41 1.596 96.05 1.596 96.05 7.559 95.06 7.559 95.06 1.596 92.69 1.596 92.69 0.713 98.41 0.713 98.41 1.596"></polyline>
                <polyline id="Fill-36" points="105.53 1.596 102.63 1.596 102.63 3.664 105.43 3.664 105.43 4.547 102.63 4.547 102.63 6.676 105.62 6.676 105.62 7.559 101.65 7.559 101.65 0.713 105.53 0.713 105.53 1.596"></polyline>
                <path d="M109.98,1.556 L110.61,1.556 C111.56,1.556 111.95,1.948 111.96,2.59 C111.97,3.162 111.66,3.704 110.61,3.704 L109.98,3.704 L109.98,1.556 L109.98,1.556 Z M108.99,0.713 L108.99,7.559 L109.98,7.559 L109.98,4.588 L110.39,4.588 C110.89,4.588 111.3,4.748 112.21,6.154 L113.11,7.559 L114.28,7.559 C113.81,6.906 113.64,6.676 113.35,6.204 C112.83,5.35 112.45,4.718 111.82,4.306 C112.56,4.015 112.97,3.423 112.97,2.63 C112.97,1.446 112.11,0.713 110.72,0.713 L108.99,0.713 L108.99,0.713 Z" id="Fill-37"></path>
            </g>
            <g id="Logo-Icon">
                <path d="M13.249,18.813 L15.951,8.054 L17.446,8.054 C17.539,5.608 19.563,3.647 22.046,3.647 C24.523,3.647 26.542,5.599 26.645,8.051 L28.139,8.051 L33.452,29.23 C38.342,30.276 42.11,29.455 43,29.228 C43.69,27.097 44.06,24.826 44.06,22.467 C44.06,10.299 34.197,0.435 22.032,0.435 C10.816,0.435 1.564,8.819 0.184,19.661 C5.03,17.559 9.563,17.789 13.249,18.813" id="Fill-38"></path>
                <polyline id="Fill-39" points="27.024 18.413 22.052 14.317 22.036 14.317 17.061 18.413 27.024 18.413"></polyline>
                <path d="M24.683,9.517 L19.391,9.517 C19.867,10.508 20.872,11.188 22.036,11.188 C23.202,11.188 24.209,10.513 24.683,9.517" id="Fill-40"></path>
                <polyline id="Fill-41" points="26.714 10.803 23.523 13.239 28.211 16.763 26.714 10.803"></polyline>
                <path d="M29.302,21.069 L24.082,24.987 C26.521,26.763 28.943,27.907 31.204,28.629 L29.302,21.069" id="Fill-42"></path>
                <path d="M22.419,23.673 L27.081,20.218 L17.009,20.218 C20.306,21.772 22.321,23.592 22.321,23.592 L22.419,23.673" id="Fill-43"></path>
                <path d="M42.74,29.989 C30.756,35.107 20.733,25.999 20.733,25.999 C11.528,18.102 1.966,19.895 0.104,20.345 C0.037,21.044 0,21.751 0,22.467 C0,34.635 9.865,44.5 22.032,44.5 C31.577,44.5 39.703,38.426 42.76,29.932 L42.74,29.989" id="Fill-44"></path>
                <polyline id="Fill-45" points="15.874 16.753 20.565 13.23 17.372 10.794 15.874 16.753"></polyline>
                <path d="M22.036,5.313 C20.478,5.313 19.204,6.524 19.1,8.047 L24.962,8.047 C24.865,6.524 23.593,5.313 22.036,5.313" id="Fill-46"></path>
            </g>
        </g>
    </g>
</svg>