<?xml version="1.0" encoding="UTF-8" standalone="no"?>
<svg width="27px" height="41px" viewBox="0 0 27 41" version="1.1" xmlns="http://www.w3.org/2000/svg" xmlns:xlink="http://www.w3.org/1999/xlink">
    <!-- Generator: Sketch 39.1 (31720) - http://www.bohemiancoding.com/sketch -->
    <title>master-pin-green-warehouse</title>
    <desc>Created with Sketch.</desc>
    <defs>
        <linearGradient x1="50%" y1="0%" x2="50%" y2="100%" id="linearGradient-1">
            <stop stop-color="#B4ED50" offset="0%"></stop>
            <stop stop-color="#429321" offset="100%"></stop>
        </linearGradient>
    </defs>
    <g id="Page-1" stroke="none" stroke-width="1" fill="none" fill-rule="evenodd">
        <g id="master-pin-green-warehouse">
            <circle id="Oval-8" fill="#FFFFFF" cx="13.5" cy="13.5" r="12.5"></circle>
            <path d="M18.0386353,26.2181022 C23.2618095,24.3539738 27,19.3635375 27,13.5 C27,6.04415588 20.9558441,0 13.5,0 C6.04415588,0 0,6.04415588 0,13.5 C0,19.736207 4.22846808,24.9848023 9.97469152,26.5350733 L13.9629657,41 L18.0386353,26.2181022 Z M13.5,24 C19.2989899,24 24,19.2989899 24,13.5 C24,7.70101013 19.2989899,3 13.5,3 C7.70101013,3 3,7.70101013 3,13.5 C3,19.2989899 7.70101013,24 13.5,24 Z M8.84615385,9.38461538 L8.84615385,20.3846154 L12.6538462,20.3846154 L12.6538462,17.8461538 L14.3461538,17.8461538 L14.3461538,20.3846154 L18.1538462,20.3846154 L18.1538462,9.38461538 L8.84615385,9.38461538 Z M18.5769231,7.69230769 L8.42307692,7.69230769 L8,6 L19,6 L18.5769231,7.69230769 Z M11.8076923,17 L10.1153846,17 L10.1153846,15.3076923 L11.8076923,15.3076923 L11.8076923,17 Z M11.8076923,14.4615385 L10.1153846,14.4615385 L10.1153846,12.7692308 L11.8076923,12.7692308 L11.8076923,14.4615385 Z M11.8076923,11.9230769 L10.1153846,11.9230769 L10.1153846,10.2307692 L11.8076923,10.2307692 L11.8076923,11.9230769 Z M14.3461538,17 L12.6538462,17 L12.6538462,15.3076923 L14.3461538,15.3076923 L14.3461538,17 Z M14.3461538,14.4615385 L12.6538462,14.4615385 L12.6538462,12.7692308 L14.3461538,12.7692308 L14.3461538,14.4615385 Z M14.3461538,11.9230769 L12.6538462,11.9230769 L12.6538462,10.2307692 L14.3461538,10.2307692 L14.3461538,11.9230769 Z M16.8846154,17 L15.1923077,17 L15.1923077,15.3076923 L16.8846154,15.3076923 L16.8846154,17 Z M16.8846154,14.4615385 L15.1923077,14.4615385 L15.1923077,12.7692308 L16.8846154,12.7692308 L16.8846154,14.4615385 Z M16.8846154,11.9230769 L15.1923077,11.9230769 L15.1923077,10.2307692 L16.8846154,10.2307692 L16.8846154,11.9230769 Z" id="radspot" fill="url(#linearGradient-1)"></path>
        </g>
    </g>
</svg>