<?xml version="1.0" encoding="UTF-8" standalone="no"?>
<svg width="37px" height="50px" viewBox="0 0 37 50" version="1.1" xmlns="http://www.w3.org/2000/svg" xmlns:xlink="http://www.w3.org/1999/xlink">
    <!-- Generator: Sketch 39.1 (31720) - http://www.bohemiancoding.com/sketch -->
    <title>newspot copy 9</title>
    <desc>Created with Sketch.</desc>
    <defs>
        <linearGradient x1="50%" y1="0%" x2="50%" y2="100%" id="linearGradient-1">
            <stop stop-color="#B4ED50" offset="0%"></stop>
            <stop stop-color="#429321" offset="100%"></stop>
        </linearGradient>
        <linearGradient x1="50%" y1="0%" x2="50%" y2="100%" id="linearGradient-2">
            <stop stop-color="#FBDA61" offset="0%"></stop>
            <stop stop-color="#F76B1C" offset="100%"></stop>
        </linearGradient>
        <path d="M18.0386353,26.2181022 C23.2618095,24.3539738 27,19.3635375 27,13.5 C27,6.04415588 20.9558441,0 13.5,0 C6.04415588,0 0,6.04415588 0,13.5 C0,19.736207 4.22846808,24.9848023 9.97469152,26.5350733 L13.9629657,41 L18.0386353,26.2181022 Z" id="path-3"></path>
        <filter x="-50%" y="-50%" width="200%" height="200%" filterUnits="objectBoundingBox" id="filter-4">
            <feMorphology radius="2" operator="dilate" in="SourceAlpha" result="shadowSpreadOuter1"></feMorphology>
            <feOffset dx="0" dy="0" in="shadowSpreadOuter1" result="shadowOffsetOuter1"></feOffset>
            <feGaussianBlur stdDeviation="2" in="shadowOffsetOuter1" result="shadowBlurOuter1"></feGaussianBlur>
            <feComposite in="shadowBlurOuter1" in2="SourceAlpha" operator="out" result="shadowBlurOuter1"></feComposite>
            <feColorMatrix values="0 0 0 0 0   0 0 0 0 0   0 0 0 0 0  0 0 0 0.5 0" type="matrix" in="shadowBlurOuter1"></feColorMatrix>
        </filter>
        <mask id="mask-5" maskContentUnits="userSpaceOnUse" maskUnits="objectBoundingBox" x="-2" y="-2" width="31" height="45">
            <rect x="-2" y="-2" width="31" height="45" fill="white"></rect>
            <use xlink:href="#path-3" fill="black"></use>
        </mask>
    </defs>
    <g id="Page-1" stroke="none" stroke-width="1" fill="none" fill-rule="evenodd">
        <g id="newspot-copy-9" transform="translate(5.000000, 5.000000)">
            <g id="radspot">
                <use fill="black" fill-opacity="1" filter="url(#filter-4)" xlink:href="#path-3"></use>
                <use fill="url(#linearGradient-1)" fill-rule="evenodd" xlink:href="#path-3"></use>
                <use stroke="url(#linearGradient-2)" mask="url(#mask-5)" stroke-width="4" stroke-linecap="round" stroke-linejoin="round" xlink:href="#path-3"></use>
            </g>
            <g id="Page-1" transform="translate(7.000000, 5.000000)" fill="#FFFFFF">
                <polygon id="Fill-1" points="12.5 2 0.5 2 0 0 13 0"></polygon>
                <path d="M1,4 L1,17 L5.5,17 L5.5,14 L7.5,14 L7.5,17 L12,17 L12,4 L1,4 L1,4 Z M4.5,13 L2.5,13 L2.5,11 L4.5,11 L4.5,13 L4.5,13 Z M4.5,10 L2.5,10 L2.5,8 L4.5,8 L4.5,10 L4.5,10 Z M4.5,7 L2.5,7 L2.5,5 L4.5,5 L4.5,7 L4.5,7 Z M7.5,13 L5.5,13 L5.5,11 L7.5,11 L7.5,13 L7.5,13 Z M7.5,10 L5.5,10 L5.5,8 L7.5,8 L7.5,10 L7.5,10 Z M7.5,7 L5.5,7 L5.5,5 L7.5,5 L7.5,7 L7.5,7 Z M10.5,13 L8.5,13 L8.5,11 L10.5,11 L10.5,13 L10.5,13 Z M10.5,10 L8.5,10 L8.5,8 L10.5,8 L10.5,10 L10.5,10 Z M10.5,7 L8.5,7 L8.5,5 L10.5,5 L10.5,7 L10.5,7 Z" id="Fill-3"></path>
            </g>
        </g>
    </g>
</svg>