<?xml version="1.0" encoding="UTF-8" standalone="no"?>
<svg width="27px" height="41px" viewBox="0 0 27 41" version="1.1" xmlns="http://www.w3.org/2000/svg" xmlns:xlink="http://www.w3.org/1999/xlink">
    <!-- Generator: Sketch 39.1 (31720) - http://www.bohemiancoding.com/sketch -->
    <title>master-pin-red-flag</title>
    <desc>Created with Sketch.</desc>
    <defs>
        <linearGradient x1="50%" y1="98.6823038%" x2="50%" y2="0.827088648%" id="linearGradient-1">
            <stop stop-color="#B02811" offset="0%"></stop>
            <stop stop-color="#EA1313" offset="100%"></stop>
        </linearGradient>
    </defs>
    <g id="Page-1" stroke="none" stroke-width="1" fill="none" fill-rule="evenodd">
        <g id="master-pin-red-flag">
            <circle id="Oval-8" fill="#FFFFFF" cx="13.5" cy="13.5" r="12.5"></circle>
            <path d="M18.0386353,26.2181022 C23.2618095,24.3539738 27,19.3635375 27,13.5 C27,6.04415588 20.9558441,0 13.5,0 C6.04415588,0 0,6.04415588 0,13.5 C0,19.736207 4.22846808,24.9848023 9.97469152,26.5350733 L13.9629657,41 L18.0386353,26.2181022 Z M13.5,24 C19.2989899,24 24,19.2989899 24,13.5 C24,7.70101013 19.2989899,3 13.5,3 C7.70101013,3 3,7.70101013 3,13.5 C3,19.2989899 7.70101013,24 13.5,24 Z M7,6 L9,6 L9,20 L7,20 L7,6 Z M10,8.02100945 L10,15.9789905 C13.3846154,12.4421101 17.6153846,19.515871 21,15.9789905 L21,8.02100945 C17.6153846,11.5578899 13.3846154,4.48412896 10,8.02100945 Z" id="radspot" fill="url(#linearGradient-1)"></path>
        </g>
    </g>
</svg>