<?xml version="1.0" encoding="UTF-8" standalone="no"?>
<svg width="37px" height="50px" viewBox="0 0 37 50" version="1.1" xmlns="http://www.w3.org/2000/svg" xmlns:xlink="http://www.w3.org/1999/xlink">
    <!-- Generator: Sketch 39.1 (31720) - http://www.bohemiancoding.com/sketch -->
    <title>newspot copy 10</title>
    <desc>Created with Sketch.</desc>
    <defs>
        <linearGradient x1="50%" y1="98.6823038%" x2="50%" y2="0.827088648%" id="linearGradient-1">
            <stop stop-color="#B02811" offset="0%"></stop>
            <stop stop-color="#EA1313" offset="100%"></stop>
        </linearGradient>
        <linearGradient x1="50%" y1="0%" x2="50%" y2="100%" id="linearGradient-2">
            <stop stop-color="#FBDA61" offset="0%"></stop>
            <stop stop-color="#F76B1C" offset="100%"></stop>
        </linearGradient>
        <path d="M18.0386353,26.2181022 C23.2618095,24.3539738 27,19.3635375 27,13.5 C27,6.04415588 20.9558441,0 13.5,0 C6.04415588,0 0,6.04415588 0,13.5 C0,19.736207 4.22846808,24.9848023 9.97469152,26.5350733 L13.9629657,41 L18.0386353,26.2181022 Z" id="path-3"></path>
        <filter x="-50%" y="-50%" width="200%" height="200%" filterUnits="objectBoundingBox" id="filter-4">
            <feMorphology radius="2" operator="dilate" in="SourceAlpha" result="shadowSpreadOuter1"></feMorphology>
            <feOffset dx="0" dy="0" in="shadowSpreadOuter1" result="shadowOffsetOuter1"></feOffset>
            <feGaussianBlur stdDeviation="2" in="shadowOffsetOuter1" result="shadowBlurOuter1"></feGaussianBlur>
            <feComposite in="shadowBlurOuter1" in2="SourceAlpha" operator="out" result="shadowBlurOuter1"></feComposite>
            <feColorMatrix values="0 0 0 0 0   0 0 0 0 0   0 0 0 0 0  0 0 0 0.5 0" type="matrix" in="shadowBlurOuter1"></feColorMatrix>
        </filter>
        <mask id="mask-5" maskContentUnits="userSpaceOnUse" maskUnits="objectBoundingBox" x="-2" y="-2" width="31" height="45">
            <rect x="-2" y="-2" width="31" height="45" fill="white"></rect>
            <use xlink:href="#path-3" fill="black"></use>
        </mask>
    </defs>
    <g id="Page-1" stroke="none" stroke-width="1" fill="none" fill-rule="evenodd">
        <g id="newspot-copy-10" transform="translate(5.000000, 5.000000)">
            <circle id="Oval-8" fill="#FFFFFF" cx="13.5" cy="13.5" r="12.5"></circle>
            <g id="radspot">
                <use fill="black" fill-opacity="1" filter="url(#filter-4)" xlink:href="#path-3"></use>
                <use fill="url(#linearGradient-1)" fill-rule="evenodd" xlink:href="#path-3"></use>
                <use stroke="url(#linearGradient-2)" mask="url(#mask-5)" stroke-width="4" stroke-linejoin="round" xlink:href="#path-3"></use>
            </g>
            <path d="M6,5 L8,5 L8,21 L6,21 L6,5 Z M9,7.1231104 L9,15.8768896 C13,11.9863211 18,19.7674581 22,15.8768896 L22,7.1231104 C18,11.0136789 13,3.23254186 9,7.1231104 Z" id="flag" fill="#FFFFFF"></path>
        </g>
    </g>
</svg>