<?xml version="1.0" encoding="UTF-8" standalone="no"?>
<svg width="27px" height="41px" viewBox="0 0 27 41" version="1.1" xmlns="http://www.w3.org/2000/svg" xmlns:xlink="http://www.w3.org/1999/xlink">
    <!-- Generator: Sketch 39.1 (31720) - http://www.bohemiancoding.com/sketch -->
    <title>master-pin-green-warehouse copy</title>
    <desc>Created with Sketch.</desc>
    <defs>
        <linearGradient x1="50%" y1="0%" x2="50%" y2="100%" id="linearGradient-1">
            <stop stop-color="#B4ED50" offset="0%"></stop>
            <stop stop-color="#429321" offset="100%"></stop>
        </linearGradient>
    </defs>
    <g id="Page-1" stroke="none" stroke-width="1" fill="none" fill-rule="evenodd">
        <g id="master-pin-green-warehouse-copy">
            <circle id="Oval-8" fill="#FFFFFF" cx="13.5" cy="13.5" r="12.5"></circle>
            <path d="M18.0386353,26.2181022 C23.2618095,24.3539738 27,19.3635375 27,13.5 C27,6.04415588 20.9558441,0 13.5,0 C6.04415588,0 0,6.04415588 0,13.5 C0,19.736207 4.22846808,24.9848023 9.97469152,26.5350733 L13.9629657,41 L18.0386353,26.2181022 Z M13.5,24 C19.2989899,24 24,19.2989899 24,13.5 C24,7.70101013 19.2989899,3 13.5,3 C7.70101013,3 3,7.70101013 3,13.5 C3,19.2989899 7.70101013,24 13.5,24 Z M8.47310315,11.7791986 C8.61466326,11.3545183 8.85059676,10.8354646 9.27527707,10.8354646 L10.9739983,10.8354646 L10.9739983,12.9588662 L8.09560955,12.9588662 L8.47310315,11.7791986 L8.47310315,11.7791986 Z M10.9739983,8.24019608 L10.9739983,10.1276641 L9.27527707,10.1276641 C8.33154305,10.1276641 7.95404897,11.1657715 7.81248934,11.5432651 L7.34062234,12.9588662 L7.19906223,12.9588662 C6.39688832,12.9588662 5.78346121,13.5722933 5.78346121,14.3744672 L5.78346121,15.3182012 L5.3115942,15.3182012 L5.3115942,17.2056692 L7.19906223,17.2056692 C7.19906223,18.2437771 8.04842285,19.0931373 9.08653026,19.0931373 C10.1246377,19.0931373 10.9739983,18.2437771 10.9739983,17.2056692 L15.6926684,17.2056692 C15.6926684,18.2437771 16.542029,19.0931373 17.5801364,19.0931373 C18.6182438,19.0931373 19.4676044,18.2437771 19.4676044,17.2056692 L21.3550725,17.2056692 L21.3550725,8.24019608 L10.9739983,8.24019608 L10.9739983,8.24019608 Z" id="radspot" fill="url(#linearGradient-1)"></path>
        </g>
    </g>
</svg>