<?xml version="1.0" encoding="UTF-8" standalone="no"?>
<svg width="28px" height="40px" viewBox="0 0 28 40" version="1.1" xmlns="http://www.w3.org/2000/svg" xmlns:xlink="http://www.w3.org/1999/xlink">
    <!-- Generator: Sketch 39.1 (31720) - http://www.bohemiancoding.com/sketch -->
    <title>spot-add</title>
    <desc>Created with Sketch.</desc>
    <defs>
        <linearGradient x1="50%" y1="0%" x2="50%" y2="100%" id="linearGradient-1">
            <stop stop-color="#FBDA61" offset="0%"></stop>
            <stop stop-color="#F76B1C" offset="100%"></stop>
        </linearGradient>
        <path d="M16.7024401,24.2760206 C21.5387125,22.5499757 25,17.9292014 25,12.5 C25,5.59644063 19.4035594,0 12.5,0 C5.59644063,0 0,5.59644063 0,12.5 C0,18.2742657 3.91524822,23.1340762 9.23582548,24.5695123 L12.9286719,37.962963 L16.7024401,24.2760206 L16.7024401,24.2760206 Z M12.5,22.2222222 C17.8694351,22.2222222 22.2222222,17.8694351 22.2222222,12.5 C22.2222222,7.13056494 17.8694351,2.77777778 12.5,2.77777778 C7.13056494,2.77777778 2.77777778,7.13056494 2.77777778,12.5 C2.77777778,17.8694351 7.13056494,22.2222222 12.5,22.2222222 L12.5,22.2222222 Z M10.9251544,14.3433642 L10.9251544,18.787037 L14.3433642,18.787037 L14.3433642,14.3433642 L18.787037,14.3433642 L18.787037,10.9251544 L14.3433642,10.9251544 L14.3433642,6.48148148 L10.9251544,6.48148148 L10.9251544,10.9251544 L6.48148148,10.9251544 L6.48148148,14.3433642 L10.9251544,14.3433642 L10.9251544,14.3433642 L10.9251544,14.3433642 Z" id="path-2"></path>
        <mask id="mask-3" maskContentUnits="userSpaceOnUse" maskUnits="objectBoundingBox" x="-1" y="-1" width="27" height="39.962963">
            <rect x="-1" y="-1" width="27" height="39.962963" fill="white"></rect>
            <use xlink:href="#path-2" fill="black"></use>
        </mask>
    </defs>
    <g id="Page-1" stroke="none" stroke-width="1" fill="none" fill-rule="evenodd">
        <g id="spot-add" transform="translate(1.500000, 1.000000)">
            <g id="Page-1">
                <g>
                    <g id="spot-add">
                        <circle id="Oval-8" fill="#FFFFFF" cx="12.5" cy="12.5" r="11.5740741"></circle>
                        <g id="radspot">
                            <use fill="url(#linearGradient-1)" fill-rule="evenodd" xlink:href="#path-2"></use>
                            <use stroke="#FFFFFF" mask="url(#mask-3)" stroke-width="2" stroke-linejoin="round" xlink:href="#path-2"></use>
                        </g>
                    </g>
                </g>
            </g>
        </g>
    </g>
</svg>