<?xml version="1.0" encoding="UTF-8" standalone="no"?>
<svg width="28px" height="41px" viewBox="0 0 28 41" version="1.1" xmlns="http://www.w3.org/2000/svg" xmlns:xlink="http://www.w3.org/1999/xlink">
    <!-- Generator: Sketch 39.1 (31720) - http://www.bohemiancoding.com/sketch -->
    <title>spot-add</title>
    <desc>Created with Sketch.</desc>
    <defs>
        <linearGradient x1="50%" y1="98.6823038%" x2="50%" y2="0.827088648%" id="linearGradient-1">
            <stop stop-color="#C31C00" offset="0%"></stop>
            <stop stop-color="#FF0000" offset="100%"></stop>
        </linearGradient>
    </defs>
    <g id="Page-1" stroke="none" stroke-width="1" fill="none" fill-rule="evenodd">
        <g id="spot-add" transform="translate(0.500000, 0.000000)">
            <g id="Page-1">
                <g>
                    <g id="spot-add">
                        <circle id="Oval-8" fill="#FFFFFF" cx="13.5" cy="13.5" r="12.5"></circle>
                        <path d="M18.0386353,26.2181022 C23.2618095,24.3539738 27,19.3635375 27,13.5 C27,6.04415588 20.9558441,0 13.5,0 C6.04415588,0 0,6.04415588 0,13.5 C0,19.736207 4.22846808,24.9848023 9.97469152,26.5350733 L13.9629657,41 L18.0386353,26.2181022 L18.0386353,26.2181022 Z M13.5,24 C19.2989899,24 24,19.2989899 24,13.5 C24,7.70101013 19.2989899,3 13.5,3 C7.70101013,3 3,7.70101013 3,13.5 C3,19.2989899 7.70101013,24 13.5,24 L13.5,24 Z M11.7991667,15.4908333 L11.7991667,20.29 L15.4908333,20.29 L15.4908333,15.4908333 L20.29,15.4908333 L20.29,11.7991667 L15.4908333,11.7991667 L15.4908333,7 L11.7991667,7 L11.7991667,11.7991667 L7,11.7991667 L7,15.4908333 L11.7991667,15.4908333 L11.7991667,15.4908333 L11.7991667,15.4908333 Z" id="radspot" fill="url(#linearGradient-1)"></path>
                    </g>
                </g>
            </g>
        </g>
    </g>
</svg>