<?xml version="1.0" encoding="UTF-8" standalone="no"?>
<svg width="27px" height="41px" viewBox="0 0 27 41" version="1.1" xmlns="http://www.w3.org/2000/svg" xmlns:xlink="http://www.w3.org/1999/xlink">
    <!-- Generator: Sketch 39.1 (31720) - http://www.bohemiancoding.com/sketch -->
    <title>bus-spot</title>
    <desc>Created with Sketch.</desc>
    <defs>
        <linearGradient x1="50%" y1="98.6823038%" x2="50%" y2="0.827088648%" id="linearGradient-1">
            <stop stop-color="#C31C00" offset="0%"></stop>
            <stop stop-color="#FF0000" offset="100%"></stop>
        </linearGradient>
    </defs>
    <g id="Page-1" stroke="none" stroke-width="1" fill="none" fill-rule="evenodd">
        <g id="bus-spot">
            <circle id="Oval-8" fill="#FFFFFF" cx="13.5" cy="13.5" r="12.5"></circle>
            <path d="M18.0386353,26.2181022 C23.2618095,24.3539738 27,19.3635375 27,13.5 C27,6.04415588 20.9558441,0 13.5,0 C6.04415588,0 0,6.04415588 0,13.5 C0,19.736207 4.22846808,24.9848023 9.97469152,26.5350733 L13.9629657,41 L18.0386353,26.2181022 Z M13.5,24 C19.2989899,24 24,19.2989899 24,13.5 C24,7.70101013 19.2989899,3 13.5,3 C7.70101013,3 3,7.70101013 3,13.5 C3,19.2989899 7.70101013,24 13.5,24 Z M18.786667,12.8000002 C18.786667,13.5253335 18.1973336,14.1600002 17.426667,14.1600002 L10.1733334,14.1600002 C9.40266673,14.1600002 8.81333338,13.5253335 8.81333338,12.8000002 L8.81333338,10.5333335 C8.81333338,9.76266677 9.40266673,9.17333342 10.1733334,9.17333342 L17.426667,9.17333342 C18.1973336,9.17333342 18.786667,9.76266677 18.786667,10.5333335 L18.786667,12.8000002 L18.786667,12.8000002 Z M17.8800003,17.3333337 C17.3813336,17.3333337 16.9733336,16.9253336 16.9733336,16.426667 C16.9733336,15.9280003 17.3813336,15.5200003 17.8800003,15.5200003 C18.378667,15.5200003 18.786667,15.9280003 18.786667,16.426667 C18.786667,16.9253336 18.378667,17.3333337 17.8800003,17.3333337 L17.8800003,17.3333337 Z M9.72000008,17.3333337 C9.2213334,17.3333337 8.81333338,16.9253336 8.81333338,16.426667 C8.81333338,15.9280003 9.2213334,15.5200003 9.72000008,15.5200003 C10.2186668,15.5200003 10.6266668,15.9280003 10.6266668,16.426667 C10.6266668,16.9253336 10.2186668,17.3333337 9.72000008,17.3333337 L9.72000008,17.3333337 Z M10.6266668,7.36000004 L16.9733336,7.36000004 C17.2453336,7.36000004 17.426667,7.54133338 17.426667,7.81333338 C17.426667,8.08533339 17.2453336,8.26666673 16.9733336,8.26666673 L10.6266668,8.26666673 C10.3546668,8.26666673 10.1733334,8.08533339 10.1733334,7.81333338 C10.1733334,7.54133338 10.3546668,7.36000004 10.6266668,7.36000004 L10.6266668,7.36000004 Z M19.6933337,9.17333342 L19.6933337,7.81333338 C19.6933337,6.90666669 18.7413337,6 13.8000002,6 C8.85866672,6 7.90666669,6.90666669 7.90666669,7.81333338 L7.90666669,9.17333342 C7.40800001,9.17333342 7,9.58133343 7,10.0800001 L7,10.9866668 C7,11.4853335 7.40800001,11.8933335 7.90666669,11.8933335 L7.90666669,16.8800003 C7.90666669,17.378667 8.1786667,17.8320003 8.58666671,18.058667 L8.58666671,18.9200004 C8.58666671,19.554668 9.08533339,20.0533337 9.72000008,20.0533337 C10.3546668,20.0533337 10.8533334,19.554668 10.8533334,18.9200004 L10.8533334,18.2400003 L16.7466669,18.2400003 L16.7466669,18.9200004 C16.7466669,19.554668 17.2453336,20.0533337 17.8800003,20.0533337 C18.514667,20.0533337 19.0133337,19.554668 19.0133337,18.9200004 L19.0133337,18.058667 C19.4213337,17.8320003 19.6933337,17.378667 19.6933337,16.8800003 L19.6933337,11.8933335 C20.1920004,11.8933335 20.6000004,11.4853335 20.6000004,10.9866668 L20.6000004,10.0800001 C20.6000004,9.58133343 20.1920004,9.17333342 19.6933337,9.17333342 L19.6933337,9.17333342 Z" id="radspot" fill="url(#linearGradient-1)"></path>
        </g>
    </g>
</svg>