<?xml version="1.0" encoding="UTF-8" standalone="no"?>
<svg width="27px" height="41px" viewBox="0 0 27 41" version="1.1" xmlns="http://www.w3.org/2000/svg" xmlns:xlink="http://www.w3.org/1999/xlink">
    <!-- Generator: Sketch 39.1 (31720) - http://www.bohemiancoding.com/sketch -->
    <title>car-spot</title>
    <desc>Created with Sketch.</desc>
    <defs>
        <linearGradient x1="50%" y1="98.6823038%" x2="50%" y2="0.827088648%" id="linearGradient-1">
            <stop stop-color="#C31C00" offset="0%"></stop>
            <stop stop-color="#FF0000" offset="100%"></stop>
        </linearGradient>
    </defs>
    <g id="Page-1" stroke="none" stroke-width="1" fill="none" fill-rule="evenodd">
        <g id="car-spot">
            <circle id="Oval-8" fill="#FFFFFF" cx="13.5" cy="13.5" r="12.5"></circle>
            <path d="M18.0386353,26.2181022 C23.2618095,24.3539738 27,19.3635375 27,13.5 C27,6.04415588 20.9558441,0 13.5,0 C6.04415588,0 0,6.04415588 0,13.5 C0,19.736207 4.22846808,24.9848023 9.97469152,26.5350733 L13.9629657,41 L18.0386353,26.2181022 Z M13.5,24 C19.2989899,24 24,19.2989899 24,13.5 C24,7.70101013 19.2989899,3 13.5,3 C7.70101013,3 3,7.70101013 3,13.5 C3,19.2989899 7.70101013,24 13.5,24 Z M17.25,14.5 C16.7916667,14.5 16.4166667,14.125 16.4166667,13.6666667 C16.4166667,13.2083333 16.7916667,12.8333333 17.25,12.8333333 C17.7083333,12.8333333 18.0833333,13.2083333 18.0833333,13.6666667 C18.0833333,14.125 17.7083333,14.5 17.25,14.5 L17.25,14.5 Z M9.75,14.5 C9.29166667,14.5 8.91666667,14.125 8.91666667,13.6666667 C8.91666667,13.2083333 9.29166667,12.8333333 9.75,12.8333333 C10.2083333,12.8333333 10.5833333,13.2083333 10.5833333,13.6666667 C10.5833333,14.125 10.2083333,14.5 9.75,14.5 L9.75,14.5 Z M16.5,8.66666667 L17.0833333,11.5833333 L9.91666667,11.5833333 L10.5,8.66666667 L16.5,8.66666667 L16.5,8.66666667 Z M20.1666667,10.3333333 L18.5,10.3333333 L18.0833333,8.08333333 C17.8333333,7 16.7083333,7 16.0833333,7 L13.5,7 L10.9166667,7 C10.2916667,7 9.16666667,7 8.91666667,8.08333333 L8.5,10.3333333 L6.83333333,10.3333333 C6.375,10.3333333 6,10.7083333 6,11.1666667 C6,11.625 6.375,12 6.83333333,12 L7.58333333,12 C7.375,12.2083333 7.25,12.5 7.25,12.8333333 L7.25,16.1666667 C7.25,16.8333333 7.79166667,17.4166667 8.5,17.4166667 L8.91666667,17.4166667 L8.91666667,18.4583333 C8.91666667,19.0416675 9.375,19.5 9.95833333,19.5 C10.5416667,19.5 11,19.0416675 11,18.4583333 L11,17.4166667 L16,17.4166667 L16,18.4583333 C16,19.0416675 16.4583333,19.5 17.0416667,19.5 C17.625,19.5 18.0833333,19.0416675 18.0833333,18.4583333 L18.0833333,17.4166667 L18.5,17.4166667 C19.2083333,17.4166667 19.75,16.8333333 19.75,16.1666667 L19.75,12.8333333 C19.75,12.5 19.625,12.2083333 19.4166667,12 L20.1666667,12 C20.625,12 21,11.625 21,11.1666667 C21,10.7083333 20.625,10.3333333 20.1666667,10.3333333 L20.1666667,10.3333333 Z" id="radspot" fill="url(#linearGradient-1)"></path>
        </g>
    </g>
</svg>