<?xml version="1.0" encoding="UTF-8" standalone="no"?>
<svg width="27px" height="41px" viewBox="0 0 27 41" version="1.1" xmlns="http://www.w3.org/2000/svg" xmlns:xlink="http://www.w3.org/1999/xlink">
    <!-- Generator: Sketch 39.1 (31720) - http://www.bohemiancoding.com/sketch -->
    <title>idea-spot</title>
    <desc>Created with Sketch.</desc>
    <defs>
        <linearGradient x1="50%" y1="0%" x2="50%" y2="100%" id="linearGradient-1">
            <stop stop-color="#FBDA61" offset="0%"></stop>
            <stop stop-color="#F76B1C" offset="100%"></stop>
        </linearGradient>
    </defs>
    <g id="Page-1" stroke="none" stroke-width="1" fill="none" fill-rule="evenodd">
        <g id="idea-spot">
            <circle id="Oval-8" fill="#FFFFFF" cx="13.5" cy="13.5" r="12.5"></circle>
            <path d="M18.0386353,26.2181022 C23.2618095,24.3539738 27,19.3635375 27,13.5 C27,6.04415588 20.9558441,0 13.5,0 C6.04415588,0 0,6.04415588 0,13.5 C0,19.736207 4.22846808,24.9848023 9.97469152,26.5350733 L13.9629657,41 L18.0386353,26.2181022 Z M13.5,24 C19.2989899,24 24,19.2989899 24,13.5 C24,7.70101013 19.2989899,3 13.5,3 C7.70101013,3 3,7.70101013 3,13.5 C3,19.2989899 7.70101013,24 13.5,24 Z M11.5,21.0285714 L15.5,21.0285714 L15.5,22 L11.5,22 L11.5,21.0285714 Z M11.5,19.0857143 L15.5,19.0857143 L15.5,20.0571429 L11.5,20.0571429 L11.5,19.0857143 Z M17.95,13.5 C18.6,12.6257143 19,11.5085714 19,10.3428571 C19,7.38 16.55,5 13.5,5 C10.45,5 8,7.38 8,10.3428571 C8,11.5085714 8.4,12.6257143 9.05,13.5 C9.05,13.5 9.05,13.5 9.1000005,13.5485714 C9.2000005,13.6942857 9.3500005,13.84 9.4500005,13.9857143 C10.15,14.8114286 11.5,16.6085714 11.5,18.1142857 L15.5,18.1142857 C15.5,16.6085714 16.85,14.8114286 17.55,13.9857143 C17.7,13.84 17.8,13.6942857 17.9,13.5485714 L17.95,13.5 Z" id="radspot" fill="url(#linearGradient-1)"></path>
        </g>
    </g>
</svg>