<?xml version="1.0" encoding="UTF-8" standalone="no"?>
<svg width="39px" height="39px" viewBox="0 0 39 39" version="1.1" xmlns="http://www.w3.org/2000/svg" xmlns:xlink="http://www.w3.org/1999/xlink">
    <!-- Generator: Sketch 3.8.2 (29753) - http://www.bohemiancoding.com/sketch -->
    <title>logo-cityofportphillip</title>
    <desc>Created with Sketch.</desc>
    <defs></defs>
    <g id="Page-1" stroke="none" stroke-width="1" fill="none" fill-rule="evenodd" opacity="0.510436101">
        <g id="Desktop-HD" transform="translate(-710.000000, -598.000000)" fill="#000000">
            <g id="Group-7" transform="translate(1.000000, 574.000000)">
                <g id="logos" transform="translate(249.000000, 24.000000)">
                    <g id="logo-cityofportphillip" transform="translate(460.000000, 0.000000)">
                        <polygon id="Shape" points="33.0257901 5.63101604 31.0766532 7.47646911 31.2941189 7.71657754 32.2072321 6.85229993 32.88644 7.60148331 33.0971754 7.40218205 32.4184088 6.65299867 33.0332927 6.0711021 33.7857615 6.90111071 33.9966072 6.70147126"></polygon>
                        <path d="M27.8212271,4.55472853 C27.5542969,4.41050314 27.364357,4.18330469 27.2864448,3.91440251 C27.2109529,3.65136493 27.2500243,3.37214542 27.3981267,3.12876506 C27.7050502,2.62267292 28.3723755,2.45629241 28.917185,2.74995618 C29.4574995,3.04133927 29.6405241,3.666135 29.3336006,4.17200993 C29.1841151,4.41745376 28.9487648,4.59219673 28.6696177,4.66365781 C28.3871281,4.73620492 28.0864284,4.69721628 27.8212271,4.55472853 M29.0689756,2.48518093 C28.3577382,2.10181071 27.4902153,2.31228422 27.0939693,2.96499104 C26.6978385,3.61704623 26.9444838,4.42896572 27.6556059,4.81244455 C28.3706467,5.19787825 29.2418578,4.98881658 29.637758,4.33610976 C30.033543,3.68362015 29.7834401,2.87083183 29.0689756,2.48518093" id="Shape"></path>
                        <polygon id="Shape" points="20.0284286 0.00802369831 19.2097913 1.00262797 18.3477689 0.0401184915 17.9368603 0.0484765106 19.0488577 1.29827896 19.0771375 2.71122995 19.4068412 2.70487785 19.3785614 1.29192687 20.439678 -6.66133815e-16"></polygon>
                        <polygon id="Shape" points="14.7153404 0.625668449 12.5140886 1.31515585 12.6070862 1.58819286 13.5487884 1.29287162 14.3147262 3.54545455 14.6325736 3.44616836 13.866406 1.19358543 14.8083381 0.898374507"></polygon>
                        <rect id="Rectangle-path" transform="translate(10.012169, 4.274821) rotate(-32.868457) translate(-10.012169, -4.274821) " x="9.80253148" y="2.91920562" width="0.419275446" height="2.71122995"></rect>
                        <path d="M7.66361526,6.89910935 L7.63785842,7.00105809 C7.54239996,7.37859584 7.42118466,7.62900814 7.23241415,7.83888933 C6.80110007,8.31927902 6.16983159,8.35834244 5.69796179,7.93462857 C5.23772775,7.5216402 5.19830171,6.86840054 5.60577942,6.41442946 C5.80347445,6.19438727 6.0511016,6.0345208 6.38481082,5.91225006 L6.48331943,5.87567044 L6.21106512,5.63101604 L6.17355955,5.64716075 C5.84832298,5.78851161 5.58115226,5.97310318 5.38029411,6.19709687 C5.1231776,6.48295978 4.98738935,6.86343294 5.00761073,7.24040619 C5.0271543,7.60371853 5.19073282,7.94061227 5.46874852,8.19023427 C5.74744203,8.44121107 6.09888731,8.56856232 6.4582404,8.54880481 C6.83555549,8.52882151 7.19423077,8.34964913 7.46772772,8.04549641 C7.67705852,7.81292232 7.83216439,7.5109147 7.91632599,7.17176296 L7.92558942,7.13473175 L7.66361526,6.89910935 L7.66361526,6.89910935 Z" id="Shape"></path>
                        <path d="M1.59928015,15.411734 C1.2055003,15.3153601 0.967810313,14.9233195 1.06430838,14.5295861 C1.16069359,14.1360784 1.55278049,13.8983036 1.94644748,13.9946774 C2.34022732,14.0911641 2.57791731,14.4832048 2.48130637,14.8765996 C2.38503403,15.2704458 1.99294713,15.5081078 1.59928015,15.411734" id="Shape"></path>
                        <path d="M2.15284387,23.7509707 L2.26050278,24.1385224 C2.36704721,24.5208522 2.54001473,24.6190456 2.7853121,24.5482101 C3.06460116,24.4673851 3.12032523,24.2766742 2.99505752,23.8254387 L2.91314313,23.5314261 L2.15284387,23.7509707 L2.15284387,23.7509707 Z M3.69807243,24.0145603 C3.91093839,24.7795606 3.48141723,25.2746142 3.03395292,25.403571 C2.571666,25.5371821 1.949451,25.3565744 1.73491331,24.5866929 L1.55102387,23.9248808 L0.231812147,24.3056214 L0,23.471602 L3.28326243,22.5240642 L3.69807243,24.0145603 L3.69807243,24.0145603 Z" id="Shape"></path>
                        <path d="M4.72785325,27.8405239 C4.40343637,27.2916737 3.84244971,27.1379124 3.32067471,27.4535451 C2.79933298,27.7689586 2.66707488,28.3417004 2.9917084,28.8908794 C3.31363394,29.4353457 3.87451228,29.5886687 4.39628728,29.2738032 C4.91806228,28.9580609 5.04977879,28.3852095 4.72785325,27.8405239 M2.39898413,29.2490348 C1.77560544,28.1931996 2.15797326,27.1534749 2.8844721,26.7145481 C3.57295081,26.29765 4.67965108,26.3969428 5.32068584,27.4819301 C5.96161229,28.5673559 5.51750236,29.5984226 4.83303148,30.0122522 C4.10219985,30.4539187 3.01055599,30.2837182 2.39898413,29.2490348" id="Shape"></path>
                        <path d="M6.75079834,31.8615709 L7.06958616,32.1746844 C7.23577784,32.3389647 7.46614038,32.4257841 7.66071951,32.2125692 C7.83256692,32.0256257 7.8028743,31.8148914 7.5763185,31.5922053 L7.27177878,31.2920583 L6.75079834,31.8615709 L6.75079834,31.8615709 Z M8.17006219,31.30401 C8.66602687,31.7920026 8.64362145,32.4263479 8.30079674,32.8005733 C8.04868136,33.0761402 7.7223888,33.1455957 7.32496447,33.0057827 C7.4551552,33.3779785 7.24752437,33.7596456 6.91503226,34.828877 L6.2525496,34.1772806 C6.48497867,33.386435 6.82997866,32.811623 6.50422993,32.4911805 L6.330316,32.3201351 L5.39940334,33.3372749 L4.79706728,32.7444225 L7.09003383,30.2406417 L8.17006219,31.30401 L8.17006219,31.30401 Z" id="Shape"></path>
                        <polygon id="Shape" points="12.8319153 34.8734687 11.7258319 34.2835155 10.3554632 36.7058824 9.59413456 36.2995021 10.9645033 33.8779089 9.85841996 33.2872926 10.1661838 32.7433155 13.139793 34.3303758"></polygon>
                        <path d="M17.7260178,36.9685627 L18.1296218,37.0019116 C18.5289953,37.0352605 18.6840341,36.9043689 18.7061008,36.6448621 C18.7307973,36.3496162 18.5707277,36.2289683 18.1003519,36.189587 L17.7934757,36.163864 L17.7260178,36.9685627 L17.7260178,36.9685627 Z M18.5325397,35.5842988 C19.3302577,35.6506552 19.641936,36.2356836 19.602033,36.709625 C19.5609866,37.1979075 19.1659578,37.7294411 18.363209,37.6620604 L17.6723945,37.6048096 L17.5548577,39 L16.6854514,38.927156 L16.977807,35.4545455 L18.5325397,35.5842988 L18.5325397,35.5842988 Z" id="Shape"></path>
                        <polygon id="Shape" points="25.0281771 38.3417546 24.2028108 38.5059308 23.9347073 37.1686429 22.2849667 37.4980957 22.5526293 38.8348334 21.7272629 39 21.0653824 35.6958986 21.8906385 35.5308421 22.1563167 36.8580065 23.8070494 36.529434 23.5417019 35.2018294 24.3665171 35.0374332"></polygon>
                        <rect id="Rectangle-path" transform="translate(27.322427, 35.454545) rotate(-25.499063) translate(-27.322427, -35.454545) " x="26.9052904" y="33.7860963" width="0.83427257" height="3.3368984"></rect>
                        <polygon id="Shape" points="32.9537665 33.8796545 30.9049959 35.4545455 28.7824037 32.8408642 29.4519424 32.3262032 31.1855176 34.4607023 32.5640784 33.4007988"></polygon>
                        <polygon id="Shape" points="36.0822887 30.3521569 34.4258602 32.3262032 31.7023577 30.2601847 32.244145 29.6149733 34.4683065 31.3021748 35.5834028 29.9737727"></polygon>
                        <polygon id="Shape" points="37.3336975 28.0497468 36.9425607 28.7807487 33.9966072 27.2174159 34.3880711 26.486631"></polygon>
                        <path d="M36.6474726,24.3382674 L36.7564055,23.9711258 C36.8629776,23.6088235 36.7657362,23.4418139 36.5179673,23.3750315 C36.2365855,23.2983555 36.0894305,23.4243924 35.9626232,23.8514338 L35.8803333,24.1305001 L36.6474726,24.3382674 L36.6474726,24.3382674 Z M35.4571926,23.3435223 C35.6716858,22.6190252 36.2974035,22.43696 36.7487611,22.5591254 C37.2149578,22.6855925 37.6558606,23.1462939 37.4403556,23.8753077 L37.2543041,24.5023735 L38.5851064,24.8623099 L38.3516145,25.6524064 L35.039448,24.7559529 L35.4571926,23.3435223 L35.4571926,23.3435223 Z" id="Shape"></path>
                        <path d="M37.056083,13.9946838 C37.4494115,13.8983104 37.8419499,14.1359713 37.9378837,14.5295901 C38.0344947,14.9233217 37.7969175,15.3153606 37.4031375,15.411734 C37.0093576,15.5081075 36.6170449,15.2704466 36.5208854,14.8766021 C36.4243873,14.483209 36.6621902,14.0912829 37.056083,13.9946838" id="Shape"></path>
                        <path d="M17.2890695,23.3582888 C14.4971966,22.7392681 12.6151826,17.7828861 6.12499601,20.5541631 C6.06677916,20.0442312 6.04847614,19.572253 6.04847614,19.0461188 C6.04847614,12.822398 10.247146,7.58780065 15.9482075,6.04812834 C16.4565024,6.44408847 17.0010725,7.06832493 16.8771412,8.27074309 C13.7525061,8.18917619 12.6558682,9.60477803 12.6558682,9.60477803 C12.6558682,9.60477803 14.5829783,9.84592751 15.1181764,10.3848239 C11.642035,10.5515089 11.4349682,13.8006459 11.4349682,13.8006459 C11.4349682,13.8006459 13.9595728,11.8478122 15.635292,12.5507302 C12.9557732,13.2198008 12.8005282,15.7998672 12.8005282,15.7998672 C12.8005282,15.7998672 14.7225664,13.8190678 16.2126091,14.3141289 C13.9595728,16.174631 14.8337077,18.6115392 14.8337077,18.6115392 C15.8650721,16.2393297 17.0304014,15.7985355 17.2204883,16.3904781 C16.3654283,18.5465076 17.4782743,19.9829728 17.2890695,23.3582888 Z M10.1533154,14.6901135 C8.43691065,16.4176671 8.10602283,18.6181977 8.10602283,18.6181977 C8.10602283,18.6181977 9.43751277,18.1269097 10.6556563,18.6721317 C10.655546,18.6721317 9.84900006,17.9221602 10.1533154,14.6901135 Z" id="Combined-Shape"></path>
                        <path d="M6.88274871,24.0715542 C8.83753297,29.1430887 13.7529484,32.7433155 19.5105122,32.7433155 C26.0134784,32.7433155 31.4428644,28.1529873 32.7451984,22.0355269 L30.8764478,20.5367536 L28.0261764,22.8230975 L25.1756819,20.5367536 L22.3119084,22.8335925 L19.5105122,20.4385027 L19.5105122,28.0851048 C13.0585413,28.0852165 11.9191246,21.4472495 6.88274871,24.0715542 Z M21.8008391,27.8763216 C22.1381672,27.8763216 22.4126716,27.6022238 22.4126716,27.263928 C22.4126716,26.9264137 22.1381672,26.6518693 21.8008391,26.6518693 C21.4628415,26.6518693 21.1886718,26.9264137 21.1886718,27.263928 C21.1885603,27.6022238 21.46273,27.8763216 21.8008391,27.8763216 Z M24.6603723,27.8763216 C24.9980351,27.8763216 25.2717584,27.6022238 25.2717584,27.263928 C25.2717584,26.9264137 24.9981467,26.6518693 24.6603723,26.6518693 C24.3222631,26.6518693 24.0487629,26.9264137 24.0487629,27.263928 C24.0486513,27.6022238 24.3221515,27.8763216 24.6603723,27.8763216 Z M27.521356,27.8763216 C27.8595768,27.8763216 28.1331886,27.6022238 28.1331886,27.263928 C28.1331886,26.9264137 27.8595768,26.6518693 27.521356,26.6518693 C27.1835816,26.6518693 26.9097467,26.9264137 26.9097467,27.263928 C26.9097467,27.6022238 27.1835816,27.8763216 27.521356,27.8763216 Z" id="Combined-Shape"></path>
                        <path d="M18.5625647,25.1458142 C13.8413423,25.1749231 12.7515135,18.8141778 6.25704428,21.9176601 C6.37679226,22.5477887 6.50286614,22.9405332 6.50286614,22.9405332 C12.1549932,20.2911722 13.517945,26.2601885 18.5625647,26.9037433 L18.5625647,25.1458142 L18.5625647,25.1458142 Z" id="Shape"></path>
                        <path d="M31.0101876,17.4948733 L31.0101876,14.929652 L28.5587774,14.9326476 L28.5587774,12.3820714 L26.0663708,12.3820714 L26.0663708,11.2562853 L30.6325062,11.2562853 C28.1740585,7.85019153 24.1557343,5.63101604 19.6142861,5.63101604 C18.5339677,5.63101604 17.4841453,5.76060293 16.4768833,5.99803097 C17.4762141,6.30524509 18.566251,6.53413016 19.1897995,8.11147332 C21.8786987,6.84644787 23.6710376,8.25204403 23.6710376,8.25204403 C23.6710376,8.25204403 21.1868973,8.72057608 21.1033404,9.96951411 C23.912213,9.05341912 24.771575,11.1563214 24.771575,11.1563214 C24.771575,11.1563214 22.3568047,10.5608652 21.6267995,11.8436423 C24.1427762,12.0934965 24.5198991,14.5294637 24.5198991,14.5294637 C24.5198991,14.5294637 22.3029619,12.9992733 20.7463249,14.2796096 C23.76543,15.2162299 23.3878603,17.8816369 23.3878603,17.8816369 C23.3878603,17.8816369 20.6698056,14.9176697 19.7337009,16.4995617 C20.0007923,17.6458731 19.8870746,18.8833835 19.8870746,18.8833835 L22.4449415,21.0542968 L25.2856506,18.7924064 L28.1388708,21.0641711 L30.9925379,18.7924064 L33.0927412,20.4640551 C33.1388762,20.0113886 33.1623347,19.5515105 33.1623347,19.0868616 C33.1623347,18.5483215 33.1296045,18.017104 33.0674954,17.4948733 L31.0101876,17.4948733 L31.0101876,17.4948733 Z M26.0722913,13.8727644 L27.0626856,13.8727644 L27.0626856,14.9268783 L26.0722913,14.9268783 L26.0722913,13.8727644 Z M28.5797784,16.4385405 L29.5702843,16.4385405 L29.5702843,17.4924325 L28.5797784,17.4924325 L28.5797784,16.4385405 Z" id="Combined-Shape"></path>
                    </g>
                </g>
            </g>
        </g>
    </g>
</svg>