<?xml version="1.0" encoding="UTF-8" standalone="no"?>
<svg width="55px" height="31px" viewBox="0 0 55 31" version="1.1" xmlns="http://www.w3.org/2000/svg" xmlns:xlink="http://www.w3.org/1999/xlink">
    <!-- Generator: Sketch 3.8.2 (29753) - http://www.bohemiancoding.com/sketch -->
    <title>logo-victoria</title>
    <desc>Created with Sketch.</desc>
    <defs></defs>
    <g id="Page-1" stroke="none" stroke-width="1" fill="none" fill-rule="evenodd" opacity="0.510436101">
        <g id="Desktop-HD" transform="translate(-585.000000, -603.000000)" fill="#000000">
            <g id="Group-7" transform="translate(1.000000, 574.000000)">
                <g id="logos" transform="translate(249.000000, 24.000000)">
                    <g id="logo-victoria" transform="translate(335.000000, 5.000000)">
                        <path d="M50.8956429,10.2447075 L47.6620714,17.0866173 L49.730881,17.0866173 L50.0846905,16.3020609 L52.5080238,16.3020609 L52.8618333,17.0866173 L54.9304048,17.0866173 L51.6970714,10.2447075 L50.8956429,10.2447075 Z M51.2499286,13.3188353 L51.3427857,13.3188353 L51.9020714,14.7965797 L50.690881,14.7965797 L51.2499286,13.3188353 Z" id="Fill-1"></path>
                        <path d="M13.2619048,17.0844962 L15.1616667,17.0844962 L15.1616667,10.247015 L13.2619048,10.247015 L13.2619048,17.0844962 Z M29.7257143,0 L0.000238095238,0 L4.95071429,10.2493459 L7.05833333,10.2493459 L8.82857143,13.9798346 L10.5988095,10.2493459 L12.7230952,10.2493459 L9.53666667,17.0900902 L8.2547619,17.0900902 L14.8630952,30.7711128 L21.587381,16.8493158 C21.0442857,17.1043083 20.432619,17.2392632 19.79,17.2392632 C17.8157143,17.2392632 16.0461905,15.6985865 16.0461905,13.6656391 C16.0461905,11.6326917 17.8157143,10.091782 19.79,10.091782 C21.1216667,10.091782 22.3233333,10.6660977 23.0495238,11.7056466 L21.4664286,12.6538271 C21.112381,12.1797368 20.6095238,11.8604135 19.8830952,11.8604135 C18.9145238,11.8604135 18.0764286,12.7265489 18.0764286,13.6656391 C18.0764286,14.6047293 18.9145238,15.4708647 19.8830952,15.4708647 C20.6095238,15.4708647 21.112381,15.1515414 21.4664286,14.6776842 L22.3738095,15.221 L23.9661905,11.9242782 L25.3309524,11.9242782 L25.3309524,17.0844962 L27.2307143,17.0844962 L27.2307143,11.9242782 L29.1397619,11.9242782 L29.1397619,10.246782 L24.7761905,10.246782 L29.7257143,0 Z" id="Fill-2"></path>
                        <path d="M33.3305,15.4707714 C32.3155,15.4707714 31.4866905,14.6594105 31.4866905,13.6655459 C31.4866905,12.6719143 32.3155,11.8605534 33.3305,11.8605534 C34.3455,11.8605534 35.1743095,12.6719143 35.1743095,13.6655459 C35.1743095,14.6594105 34.3455,15.4707714 33.3305,15.4707714 M33.3305,10.0916887 C31.2538333,10.0916887 29.4564524,11.6325985 29.4564524,13.6655459 C29.4564524,15.6987263 31.2538333,17.239403 33.3305,17.239403 C35.4071667,17.239403 37.2047857,15.6987263 37.2047857,13.6655459 C37.2047857,11.6325985 35.4071667,10.0916887 33.3305,10.0916887" id="Fill-4"></path>
                        <path d="M41.1996429,13.5470932 L39.9889286,13.5470932 L39.9889286,11.9243714 L41.1996429,11.9243714 C41.6279762,11.9243714 41.9072619,12.3984617 41.9072619,12.7357323 C41.9072619,13.073003 41.6279762,13.5470932 41.1996429,13.5470932 M43.900119,12.7357323 C43.900119,11.3043714 42.7360714,10.2468752 41.264881,10.2468752 L38.0889286,10.2468752 L38.0889286,17.0843564 L39.9889286,17.0843564 L39.9889286,15.2245895 L40.8829762,15.2245895 L41.7491667,17.0843564 L43.8815476,17.0843564 L42.6989286,14.7870932 C43.3694048,14.3311835 43.900119,13.656409 43.900119,12.7357323" id="Fill-5"></path>
                        <polygon id="Fill-6" points="44.8311905 17.0844962 46.7311905 17.0844962 46.7311905 10.247015 44.8311905 10.247015"></polygon>
                    </g>
                </g>
            </g>
        </g>
    </g>
</svg>