<?xml version="1.0" encoding="UTF-8" standalone="no"?>
<svg width="53px" height="25px" viewBox="0 0 53 25" version="1.1" xmlns="http://www.w3.org/2000/svg" xmlns:xlink="http://www.w3.org/1999/xlink">
    <!-- Generator: Sketch 3.8.2 (29753) - http://www.bohemiancoding.com/sketch -->
    <title>logo-tac</title>
    <desc>Created with Sketch.</desc>
    <defs></defs>
    <g id="Page-1" stroke="none" stroke-width="1" fill="none" fill-rule="evenodd" opacity="0.510436101">
        <g id="Desktop-HD" transform="translate(-463.000000, -605.000000)" fill="#231F1F">
            <g id="Group-7" transform="translate(1.000000, 574.000000)">
                <g id="logos" transform="translate(249.000000, 24.000000)">
                    <g id="logo-tac" transform="translate(213.000000, 7.000000)">
                        <path d="M38.8696094,15.0983173 C38.8696094,17.5591543 40.8774322,19.5542092 43.3540179,19.5542092 C45.2110055,19.5542092 46.8042576,18.431486 47.4852735,16.8322112 L52.5350877,18.9529106 C51.023124,22.5068545 47.4807575,25 43.3540179,25 C37.849892,25 33.3889669,20.5665447 33.3889669,15.0983173 L33.3889669,15.2257567 C33.3889669,9.75663192 37.849892,5.32407407 43.3540179,5.32407407 C47.4807575,5.32407407 51.023124,7.81811705 52.5350877,11.3711635 L47.4852735,13.4909654 C46.8042576,11.8916907 45.2110055,10.7698649 43.3540179,10.7698649 C40.8774322,10.7698649 38.8696094,12.7649198 38.8696094,15.2257567 L38.8696094,15.0983173" id="Fill-1"></path>
                        <polygon id="Fill-3" points="5.92907038 24.3055556 5.92907038 12.1419727 0 12.1419727 0 6.25 17.9786745 6.25 17.9786745 12.1419727 12.0496041 12.1419727 12.0496041 24.3055556"></polygon>
                        <path d="M24.1013135,10.9153097 L28.000897,18.7579762 L20.2407168,18.7579762 L24.1013135,10.9153097 Z M24.1013135,0 L12.1414425,24.3055556 L36.1908382,24.3055556 L24.1013135,0 Z M20.1651474,18.75 L23.9616515,10.9477079 L26.6177778,5.49010911 L25.2839191,2.77777778 L17.5116959,18.75 L20.1651474,18.75 Z" id="Combined-Shape"></path>
                    </g>
                </g>
            </g>
        </g>
    </g>
</svg>