<?xml version="1.0" encoding="UTF-8" standalone="no"?>
<svg width="33px" height="31px" viewBox="0 0 33 31" version="1.1" xmlns="http://www.w3.org/2000/svg" xmlns:xlink="http://www.w3.org/1999/xlink">
    <!-- Generator: Sketch 3.8.2 (29753) - http://www.bohemiancoding.com/sketch -->
    <title>logo-cityofmelbourne</title>
    <desc>Created with Sketch.</desc>
    <defs>
        <polygon id="path-1" points="32.9674151 1.81128571 32.9674151 3.42207792 0.0124528302 3.42207792 0.0124528302 0.200493506 32.9674151 0.200493506 32.9674151 1.81128571"></polygon>
    </defs>
    <g id="Page-1" stroke="none" stroke-width="1" fill="none" fill-rule="evenodd" opacity="0.510436101">
        <g id="Desktop-HD" transform="translate(-250.000000, -603.000000)">
            <g id="Group-7" transform="translate(1.000000, 574.000000)">
                <g id="logos" transform="translate(249.000000, 24.000000)">
                    <g id="logo-cityofmelbourne" transform="translate(0.000000, 5.000000)">
                        <g id="Group-3" transform="translate(0.000000, 27.577922)">
                            <mask id="mask-2" fill="white">
                                <use xlink:href="#path-1"></use>
                            </mask>
                            <g id="Clip-2"></g>
                            <path d="M27.7967925,1.73076623 C27.7967925,1.87690909 27.676,2.00372727 27.5305094,2.00372727 L27.1936604,2.00372727 L27.1936604,0.741785714 L27.5255283,0.741785714 C27.676,0.741785714 27.7967925,0.853506494 27.7967925,0.999850649 L27.7967925,1.73076623 L27.7967925,1.73076623 Z M28.0630755,2.30587662 L28.1029245,2.27205844 C28.2689623,2.16436364 28.364434,1.94031818 28.364434,1.7357987 L28.364434,1.00468182 C28.364434,0.556792208 27.992717,0.200694805 27.5305094,0.200694805 L26.6862075,0.200694805 C26.6610943,0.200694805 26.6361887,0.225253247 26.6361887,0.249409091 L26.6361887,3.37316234 C26.6361887,3.39731818 26.6610943,3.42167532 26.6862075,3.42167532 L27.1486226,3.42167532 C27.1737358,3.42167532 27.1988491,3.39731818 27.1988491,3.37316234 L27.1988491,2.54461688 L27.5255283,2.54461688 L27.8820943,3.39248701 C27.8922642,3.40214935 27.9173774,3.42167532 27.9323208,3.42167532 L28.4596981,3.42167532 C28.4999623,3.42167532 28.5200943,3.39248701 28.5053585,3.35363636 L28.0630755,2.30587662 L28.0630755,2.30587662 Z M23.2529623,2.73524675 C23.2529623,2.84213636 23.1568679,2.88098701 23.0555849,2.88098701 L22.8999245,2.88098701 C22.7982264,2.88098701 22.7021321,2.84213636 22.7021321,2.73524675 L22.7021321,0.888532468 C22.7021321,0.775805195 22.7436415,0.742188312 22.8600755,0.742188312 L23.0960566,0.742188312 C23.2124906,0.742188312 23.2529623,0.775805195 23.2529623,0.888532468 L23.2529623,2.73524675 L23.2529623,2.73524675 Z M23.2577358,0.201298701 L22.697566,0.201298701 C22.4003585,0.201298701 22.1425849,0.449298701 22.1425849,0.73775974 L22.1425849,2.88622078 C22.1425849,3.18293506 22.3906038,3.42167532 22.697566,3.42167532 L23.2577358,3.42167532 C23.5653208,3.42167532 23.8125094,3.18293506 23.8125094,2.88622078 L23.8125094,0.73775974 C23.8125094,0.449298701 23.5557736,0.201298701 23.2577358,0.201298701 L23.2577358,0.201298701 Z M19.3564717,2.88098701 L18.4333019,2.88098701 L18.4333019,0.250214286 C18.4333019,0.226058442 18.4077736,0.201298701 18.3824528,0.201298701 L17.9237736,0.201298701 C17.8984528,0.201298701 17.8737547,0.226058442 17.8737547,0.250214286 L17.8737547,3.37376623 C17.8737547,3.39751948 17.8984528,3.42167532 17.9237736,3.42167532 L19.3564717,3.42167532 C19.3811698,3.42167532 19.4071132,3.39751948 19.4071132,3.37376623 L19.4071132,2.93050649 C19.4071132,2.90534416 19.3811698,2.88098701 19.3564717,2.88098701 L19.3564717,2.88098701 Z M26.0013019,0.201298701 L25.5424151,0.201298701 C25.5168868,0.201298701 25.4921887,0.226058442 25.4921887,0.250214286 L25.4921887,2.73524675 C25.4921887,2.84213636 25.3958868,2.88098701 25.295434,2.88098701 L25.1385283,2.88098701 C25.0372453,2.88098701 24.9419811,2.84213636 24.9419811,2.73524675 L24.9419811,0.250214286 C24.9419811,0.226058442 24.9164528,0.201298701 24.8911321,0.201298701 L24.4320377,0.201298701 C24.4069245,0.201298701 24.3816038,0.226058442 24.3816038,0.250214286 L24.3816038,2.88622078 C24.3816038,3.18293506 24.6292075,3.42167532 24.9367925,3.42167532 L25.4967547,3.42167532 C25.8041321,3.42167532 26.0515283,3.18293506 26.0515283,2.88622078 L26.0515283,0.250214286 C26.0515283,0.226058442 26.0266226,0.201298701 26.0013019,0.201298701 L26.0013019,0.201298701 Z M32.9169811,0.742188312 C32.9420943,0.742188312 32.9674151,0.717831169 32.9674151,0.693675325 L32.9674151,0.250214286 C32.9674151,0.226058442 32.9420943,0.201298701 32.9169811,0.201298701 L31.3483396,0.201298701 C31.3232264,0.201298701 31.297283,0.226058442 31.297283,0.250214286 L31.297283,3.37376623 C31.297283,3.39751948 31.3232264,3.42167532 31.3483396,3.42167532 L32.9169811,3.42167532 C32.9420943,3.42167532 32.9674151,3.39751948 32.9674151,3.37376623 L32.9674151,2.93050649 C32.9674151,2.90534416 32.9420943,2.88098701 32.9169811,2.88098701 L31.8578679,2.88098701 L31.8578679,1.96004545 L32.6646038,1.96004545 C32.6899245,1.96004545 32.7152453,1.93588961 32.7152453,1.91112987 L32.7152453,1.46807143 C32.7152453,1.44411688 32.6899245,1.42016234 32.6646038,1.42016234 L31.8578679,1.42016234 L31.8578679,0.742188312 L32.9169811,0.742188312 L32.9169811,0.742188312 Z M30.6632264,0.208746753 L30.201434,0.208746753 C30.1908491,0.208746753 30.1750755,0.21861039 30.1644906,0.229681818 L30.1644906,0.229279221 L30.1636604,0.230688312 C30.1601321,0.234311688 30.1576415,0.238337662 30.1559811,0.242363636 L30.1549434,0.246188312 L30.1549434,1.4877987 L29.7205472,0.702532468 L29.6468679,0.252428571 C29.6468679,0.227668831 29.6211321,0.208746753 29.5962264,0.208746753 L29.0003585,0.208746753 C28.9750377,0.208746753 28.949717,0.232902597 28.949717,0.257058442 L28.949717,3.37336364 C28.949717,3.39751948 28.9750377,3.42167532 29.0003585,3.42167532 L29.4586226,3.42167532 C29.4833208,3.42167532 29.5088491,3.39751948 29.5088491,3.37336364 L29.5088491,1.37607792 C29.7383962,1.85496753 30.109283,2.42766234 30.1549434,2.54059091 L30.1549434,3.37336364 C30.1549434,3.39751948 30.1800566,3.42167532 30.2053774,3.42167532 L30.6632264,3.42167532 C30.6887547,3.42167532 30.7136604,3.39751948 30.7136604,3.37336364 L30.7136604,0.257058442 C30.7136604,0.232902597 30.6887547,0.208746753 30.6632264,0.208746753 L30.6632264,0.208746753 Z M17.3870566,0.201298701 L15.8182075,0.201298701 C15.7928868,0.201298701 15.7677736,0.226058442 15.7677736,0.250214286 L15.7677736,3.37376623 C15.7677736,3.39751948 15.7928868,3.42167532 15.8182075,3.42167532 L17.3870566,3.42167532 C17.4123774,3.42167532 17.4379057,3.39751948 17.4379057,3.37376623 L17.4379057,2.93050649 C17.4379057,2.90534416 17.4123774,2.88098701 17.3870566,2.88098701 L16.3273208,2.88098701 L16.3273208,1.96004545 L17.1346792,1.96004545 C17.1606226,1.96004545 17.1846981,1.93588961 17.1846981,1.91112987 L17.1846981,1.46807143 C17.1846981,1.44411688 17.1606226,1.42016234 17.1346792,1.42016234 L16.3273208,1.42016234 L16.3273208,0.742188312 L17.3870566,0.742188312 C17.4123774,0.742188312 17.4379057,0.717831169 17.4379057,0.693675325 L17.4379057,0.250214286 C17.4379057,0.226058442 17.4123774,0.201298701 17.3870566,0.201298701 L17.3870566,0.201298701 Z M20.9869623,1.17095455 C20.9869623,1.30763636 20.8611887,1.42016234 20.7148679,1.42016234 L20.3817547,1.42016234 L20.3817547,0.742188312 L20.7148679,0.742188312 C20.8659623,0.742188312 20.9869623,0.868805195 20.9869623,1.01514935 L20.9869623,1.17095455 L20.9869623,1.17095455 Z M20.9869623,2.62272078 C20.9869623,2.76906494 20.8659623,2.88098701 20.7148679,2.88098701 L20.3817547,2.88098701 L20.3817547,1.96004545 L20.7202642,1.96004545 C20.8659623,1.96004545 20.9869623,2.08666234 20.9869623,2.23320779 L20.9869623,2.62272078 L20.9869623,2.62272078 Z M20.7202642,0.201298701 L19.8728491,0.201298701 C19.8473208,0.201298701 19.8215849,0.226058442 19.8215849,0.250214286 L19.8215849,3.37376623 C19.8215849,3.39751948 19.8473208,3.42167532 19.8728491,3.42167532 L20.7202642,3.42167532 C21.183717,3.42167532 21.5573019,3.06618182 21.5573019,2.61809091 L21.5573019,2.22837662 C21.5573019,2.03794805 21.4763585,1.83846104 21.285,1.69211688 C21.4971132,1.55603896 21.5573019,1.32172727 21.5573019,1.12707143 L21.5573019,0.961201299 C21.5573019,0.51311039 21.183717,0.201298701 20.7202642,0.201298701 L20.7202642,0.201298701 Z M4.39564151,0.200493506 L2.96232075,0.200493506 C2.93658491,0.200493506 2.91167925,0.224850649 2.91167925,0.249207792 L2.91167925,0.692668831 C2.91167925,0.717025974 2.93658491,0.741785714 2.96232075,0.741785714 L3.40273585,0.741785714 L3.40273585,3.37336364 C3.40273585,3.39792208 3.4280566,3.42207792 3.45379245,3.42207792 L3.91226415,3.42207792 C3.93779245,3.42207792 3.96269811,3.39792208 3.96269811,3.37336364 L3.96269811,0.741785714 L4.39564151,0.741785714 C4.42075472,0.741785714 4.44607547,0.717025974 4.44607547,0.692668831 L4.44607547,0.249207792 C4.44607547,0.224850649 4.42075472,0.200493506 4.39564151,0.200493506 L4.39564151,0.200493506 Z M1.61990566,0.200493506 L0.555188679,0.200493506 C0.26254717,0.200493506 0,0.439233766 0,0.736753247 L0,2.88622078 C0,3.22742208 0.292849057,3.42167532 0.555188679,3.42167532 L1.61990566,3.42167532 C1.64501887,3.42167532 1.67033962,3.39751948 1.67033962,3.37376623 L1.67033962,2.9297013 C1.67033962,2.90534416 1.64501887,2.88098701 1.61990566,2.88098701 L0.756924528,2.88098701 C0.635509434,2.88098701 0.560377358,2.83227273 0.560377358,2.73484416 L0.560377358,0.887727273 C0.560377358,0.780837662 0.590264151,0.741584416 0.71645283,0.741584416 L1.61990566,0.741584416 C1.64501887,0.741584416 1.67033962,0.717025974 1.67033962,0.69287013 L1.67033962,0.249409091 C1.67033962,0.225253247 1.64501887,0.200493506 1.61990566,0.200493506 L1.61990566,0.200493506 Z M2.55864151,0.200493506 L2.09954717,0.200493506 C2.07401887,0.200493506 2.04869811,0.225253247 2.04869811,0.249207792 L2.04869811,2.88098701 L2.04828302,2.88098701 L2.04828302,3.37336364 C2.04828302,3.39792208 2.07360377,3.42167532 2.09954717,3.42167532 L2.55864151,3.42167532 C2.58354717,3.42167532 2.60866038,3.39792208 2.60866038,3.37336364 L2.60866038,0.249207792 C2.60866038,0.225253247 2.58354717,0.200493506 2.55864151,0.200493506 L2.55864151,0.200493506 Z M6.52258491,0.200493506 L6.01326415,0.200493506 C5.98732075,0.200493506 5.96262264,0.220019481 5.96262264,0.244577922 L5.90679245,0.702532468 L5.64964151,1.72130519 L5.38709434,0.702532468 L5.32192453,0.244577922 C5.32192453,0.220019481 5.29639623,0.200493506 5.27066038,0.200493506 L4.76175472,0.200493506 C4.73124528,0.200493506 4.71111321,0.225253247 4.71111321,0.254038961 C4.74618868,0.517337662 4.7665283,0.726487013 4.85681132,1.04373377 C4.99877358,1.53611039 5.31590566,2.46631169 5.36198113,2.59292857 L5.36198113,3.37376623 C5.36198113,3.39751948 5.38709434,3.42167532 5.41303774,3.42167532 L5.87171698,3.42167532 C5.89683019,3.42167532 5.92173585,3.39751948 5.92173585,3.37376623 L5.92173585,2.59292857 C5.96698113,2.46631169 6.29532075,1.56026623 6.42150943,1.0533961 C6.51241509,0.688038961 6.52258491,0.586181818 6.56783019,0.254038961 C6.57322642,0.225253247 6.55309434,0.200493506 6.52258491,0.200493506 L6.52258491,0.200493506 Z M8.9469434,2.73444156 C8.9469434,2.84133117 8.85188679,2.88038312 8.75164151,2.88038312 L8.59577358,2.88038312 C8.49490566,2.88038312 8.39943396,2.84133117 8.39943396,2.73444156 L8.39943396,0.89437013 C8.39943396,0.782850649 8.43990566,0.749032468 8.55550943,0.749032468 L8.79107547,0.749032468 C8.90750943,0.749032468 8.9469434,0.782850649 8.9469434,0.89437013 L8.9469434,2.73444156 L8.9469434,2.73444156 Z M8.95296226,0.209954545 L8.39507547,0.209954545 C8.09786792,0.209954545 7.84175472,0.456746753 7.84175472,0.743798701 L7.84175472,2.88501299 C7.84175472,3.18152597 8.08790566,3.41966234 8.39507547,3.41966234 L8.95296226,3.41966234 C9.25930189,3.41966234 9.50586792,3.18152597 9.50586792,2.88501299 L9.50586792,0.743798701 C9.50586792,0.456746753 9.24892453,0.209954545 8.95296226,0.209954545 L8.95296226,0.209954545 Z M15.1299811,0.208746753 L14.5347358,0.208746753 C14.5092075,0.208746753 14.4832642,0.227668831 14.4832642,0.252428571 L14.4097925,0.702532468 L14.0287358,1.72130519 L13.6476792,0.702532468 L13.5744151,0.252428571 C13.5744151,0.227668831 13.5484717,0.208746753 13.5231509,0.208746753 L12.9276981,0.208746753 C12.9025849,0.208746753 12.8766415,0.232902597 12.8766415,0.257058442 L12.8766415,3.37336364 C12.8766415,3.39751948 12.9025849,3.42167532 12.9276981,3.42167532 L13.3857547,3.42167532 C13.411283,3.42167532 13.435566,3.39751948 13.435566,3.37336364 L13.435566,1.64581818 C13.5823019,2.05546104 13.7423208,2.4638961 13.7722075,2.54723377 C13.780717,2.57903896 13.8081132,2.59534416 13.8228491,2.59534416 L14.2350377,2.59534416 C14.249566,2.59534416 14.2771698,2.57903896 14.2856792,2.54723377 C14.3153585,2.4638961 14.4755849,2.05546104 14.6221132,1.64581818 L14.6221132,3.37336364 C14.6221132,3.39751948 14.6468113,3.42167532 14.6721321,3.42167532 L15.1299811,3.42167532 C15.1548868,3.42167532 15.1810377,3.39751948 15.1810377,3.37336364 L15.1810377,0.257058442 C15.1810377,0.232902597 15.1548868,0.208746753 15.1299811,0.208746753 L15.1299811,0.208746753 Z M11.5805094,0.209954545 L10.0176792,0.209954545 C9.99256604,0.209954545 9.96745283,0.234311688 9.96745283,0.258266234 L9.96745283,3.37074675 C9.96745283,3.39530519 9.99256604,3.41966234 10.0176792,3.41966234 L10.4740755,3.41966234 C10.4991887,3.41966234 10.5238868,3.39530519 10.5238868,3.37074675 L10.5253396,1.96225974 L11.3293774,1.96225974 C11.3546981,1.96225974 11.3800189,1.93870779 11.3800189,1.91374675 L11.3800189,1.4718961 C11.3800189,1.44794156 11.3546981,1.42318182 11.3293774,1.42318182 L10.5253396,1.42318182 L10.5253396,0.749032468 L11.5805094,0.749032468 C11.6060377,0.749032468 11.6317736,0.724272727 11.6317736,0.699915584 L11.6317736,0.258266234 C11.6317736,0.234311688 11.6060377,0.209954545 11.5805094,0.209954545 L11.5805094,0.209954545 Z" id="Fill-1" fill="#1A1918" mask="url(#mask-2)"></path>
                        </g>
                        <polyline id="Fill-4" fill="#1A1918" points="16.4852642 18.4598961 21.9306792 15.4114286 21.9306792 21.5144026 27.3763019 24.5598506 32.8219245 21.5085649 32.8219245 3.21433766 27.3792075 0.163051948 16.4817358 6.26018831 5.59028302 0.166272727 0.145075472 3.2089026 0.145075472 21.5111818 5.59028302 24.5598506 11.0390189 21.5085649 11.0390189 15.4114286 16.4848491 18.4598961 16.4852642 18.4598961"></polyline>
                    </g>
                </g>
            </g>
        </g>
    </g>
</svg>