<?xml version="1.0" encoding="UTF-8" standalone="no"?>
<svg width="53px" height="31px" viewBox="0 0 53 31" version="1.1" xmlns="http://www.w3.org/2000/svg" xmlns:xlink="http://www.w3.org/1999/xlink">
    <!-- Generator: Sketch 3.8.2 (29753) - http://www.bohemiancoding.com/sketch -->
    <title>logo-vta</title>
    <desc>Created with Sketch.</desc>
    <defs></defs>
    <g id="Page-1" stroke="none" stroke-width="1" fill="none" fill-rule="evenodd" opacity="0.510436101">
        <g id="Desktop-HD" transform="translate(-818.000000, -603.000000)" fill="#000000">
            <g id="Group-7" transform="translate(1.000000, 574.000000)">
                <g id="logos" transform="translate(249.000000, 24.000000)">
                    <g id="logo-vta" transform="translate(568.000000, 5.000000)">
                        <path d="M0.00061193151,26.920204 C4.96398841,21.1627484 12.3518375,15.2163873 21.3203057,10.1901975 C32.8191107,3.74602923 44.3736015,0.228706193 52.9938807,0 L53,0.00415829441 L49.8032698,4.07215832 L49.7879715,4.07275236 C41.9020101,4.83669045 32.3130434,7.66314256 22.6567642,12.4392407 C13.1559155,17.1387075 5.27301382,22.8967571 0,28.5526316 L0.00061193151,26.920204" id="Fill-1"></path>
                        <path d="M0.000611258707,30.7280702 C6.61932054,24.8100645 17.6983846,19.2411564 30.8862912,15.8031109 C34.7757304,14.7891223 38.628494,14.0213457 42.3156065,13.4968074 L47.1421053,7.34269998 L47.1421053,7.34210526 C40.4482112,8.20206267 32.8759383,10.2217137 25.1801912,13.3998689 C14.5100592,17.8061099 5.64986423,23.5932783 0.00122251741,29.3566581 L0,29.3566581 L0,30.7274755" id="Fill-3"></path>
                        <polyline id="Fill-5" points="25.4782103 30.9952121 20.9210526 31 27.2471151 22.8808363 23.8869285 22.8808363 26.4609352 19.5789474 37.1 19.5789474 34.5229414 22.8808363 31.8042727 22.8790409 25.4782103 30.9952121"></polyline>
                        <path d="M38.3032096,19.5789474 L29.2894737,31 L33.1468615,31 L38.4735246,24.4295574 L38.4735246,27.0964053 C39.6941154,26.6893443 41.2719974,26.3918306 42.3377003,26.3361591 L40.1760575,29.0491006 C39.3257167,29.1766064 39.2029171,29.1855857 38.4735246,29.3986941 L38.4735246,30.9994014 L42.6789474,31 L42.6789474,19.5789474 L38.3032096,19.5789474" id="Fill-6"></path>
                        <polyline id="Fill-7" points="16.2007767 26.149554 21.5268227 19.5789474 25.3842105 19.5789474 16.3710917 31 11.9947368 31 11.9947368 19.5789474 16.2007767 19.5789474 16.2007767 26.149554"></polyline>
                        <path d="M45.0506006,29.6891216 C45.2331843,29.6891216 45.3977499,29.6760721 45.3977499,29.4589765 C45.3977499,29.2839949 45.236788,29.2519644 45.0860363,29.2519644 L44.7911395,29.2519644 L44.7911395,29.6891216 L45.0506006,29.6891216 L45.0506006,29.6891216 Z M44.7911395,30.4821734 L44.5749219,30.4821734 L44.5749219,29.0704582 L45.1190695,29.0704582 C45.4560086,29.0704582 45.6235772,29.193835 45.6235772,29.4720259 C45.6235772,29.7247111 45.4632158,29.8344452 45.2536049,29.8605442 L45.6596134,30.4821734 L45.4169693,30.4821734 L45.0403903,29.8700347 L44.7911395,29.8700347 L44.7911395,30.4821734 L44.7911395,30.4821734 Z M45.0536036,30.7959538 C45.6139675,30.7959538 46.0560123,30.3623555 46.0560123,29.77335 C46.0560123,29.193835 45.6139675,28.7566778 45.0536036,28.7566778 C44.4860325,28.7566778 44.0433871,29.193835 44.0433871,29.77335 C44.0433871,30.3623555 44.4860325,30.7959538 45.0536036,30.7959538 L45.0536036,30.7959538 Z M43.7947368,29.77335 C43.7947368,29.0704582 44.3719177,28.5526316 45.0536036,28.5526316 C45.728683,28.5526316 46.3052632,29.0704582 46.3052632,29.77335 C46.3052632,30.4821734 45.728683,31 45.0536036,31 C44.3719177,31 43.7947368,30.4821734 43.7947368,29.77335 L43.7947368,29.77335 Z" id="Fill-8"></path>
                    </g>
                </g>
            </g>
        </g>
    </g>
</svg>