<?xml version="1.0" encoding="UTF-8" standalone="no"?>
<svg width="41px" height="26px" viewBox="0 0 41 26" version="1.1" xmlns="http://www.w3.org/2000/svg" xmlns:xlink="http://www.w3.org/1999/xlink">
    <!-- Generator: Sketch 3.8.2 (29753) - http://www.bohemiancoding.com/sketch -->
    <title>logo-parksvictoria</title>
    <desc>Created with Sketch.</desc>
    <defs></defs>
    <g id="Page-1" stroke="none" stroke-width="1" fill="none" fill-rule="evenodd" opacity="0.510436101">
        <g id="Desktop-HD" transform="translate(-352.000000, -605.000000)" fill="#000000">
            <g id="Group-7" transform="translate(1.000000, 574.000000)">
                <g id="logos" transform="translate(249.000000, 24.000000)">
                    <g id="logo-parksvictoria" transform="translate(102.000000, 7.000000)">
                        <polygon id="Shape" points="32.3794872 6.2612053 32.3794872 8.07874016 28.7652437 5.80676103 25.1002818 8.07874016 21.4860383 5.80676103 17.8717949 8.07874016 17.8717949 6.2612053 21.4860383 4.03937008 25.1002818 6.2612053 28.7652437 4.03937008"></polygon>
                        <polygon id="Shape" points="25.0205128 2.24979127 25.0205128 4.03937008 21.3683803 1.78957881 17.7667887 4.03937008 14.1651972 1.78957881 10.5128205 4.03937008 10.5636056 2.24979127 14.1651972 0 17.7667887 2.24979127 21.3683803 0"></polygon>
                        <polygon id="Shape" points="10.7230769 22.3228346 11.8873015 25.0866142 12.2921857 25.0866142 13.4564103 22.3228346 13.0512825 22.3228346 12.0897436 24.7145228 11.1279611 22.3228346"></polygon>
                        <polygon id="Shape" points="14.0871795 22.3228346 14.0871795 25.0866142 14.5049359 25.0866142 14.5049359 22.3228346"></polygon>
                        <polygon id="Shape" points="16.7897822 24.8740157 17.0383323 24.8740157 17.2868824 24.8226937 17.4856746 24.7205407 17.6844668 24.5670656 17.8337404 24.4130993 17.9330169 24.2087933 18.0322934 24.0039961 18.0820513 23.799199 17.6844668 23.799199 17.6844668 23.9526741 17.5851903 24.1061491 17.5354325 24.2087933 17.3863981 24.3109463 17.2868824 24.4130993 17.137848 24.4644214 16.9390558 24.5157435 16.7897822 24.5157435 16.5414713 24.5157435 16.3424399 24.4644214 16.1438869 24.3622684 15.9946133 24.2596242 15.8953368 24.1061491 15.7960603 23.9526741 15.7463024 23.7478769 15.7463024 23.4922488 15.7463024 23.2363751 15.7960603 23.0315779 15.8953368 22.8781028 15.9946133 22.7246277 16.1438869 22.6219836 16.3424399 22.5198306 16.5414713 22.4685085 16.7897822 22.4685085 16.9390558 22.4685085 17.0880901 22.5198306 17.2371245 22.5711526 17.3863981 22.6219836 17.4856746 22.7246277 17.5354325 22.8267807 17.6349482 22.9802558 17.6844668 23.1337309 18.0322934 23.1337309 17.9827748 22.9294249 17.9330169 22.7246277 17.7839825 22.5198306 17.6349482 22.3663555 17.4856746 22.2637113 17.2371245 22.1615583 17.0383323 22.1102362 16.7897822 22.1102362 16.4419556 22.1615583 16.1934055 22.2128804 15.9450946 22.3150334 15.7463024 22.4685085 15.5475102 22.6733057 15.4479945 22.9294249 15.3984758 23.185053 15.3487179 23.4922488 15.3984758 23.799199 15.4479945 24.0548271 15.5475102 24.3109463 15.7463024 24.5157435 15.9450946 24.6692186 16.1934055 24.7713716 16.4419556 24.8740157"></polygon>
                        <polygon id="Shape" points="19.8310444 25.0866142 19.8310444 22.694926 20.8153846 22.694926 20.8153846 22.3228346 18.5025641 22.3228346 18.5025641 22.694926 19.4866675 22.694926 19.4866675 25.0866142"></polygon>
                        <polygon id="Shape" points="28.3846154 22.3228346 28.3846154 25.0866142 28.8023718 25.0866142 28.8023718 22.3228346"></polygon>
                        <polygon id="Shape" points="17.4512821 11.314926 17.4512821 20.4094488 19.1026422 20.4094488 19.1026422 15.9398555 19.1026422 15.6281858 19.1543093 15.2644049 19.2059764 14.9527351 19.3093106 14.6410654 19.4640635 14.3810082 19.5671493 14.0693384 19.7735693 13.8613924 19.9799894 13.6013352 20.1864094 13.3933891 20.3928294 13.2375543 20.5992494 13.0817194 20.8573365 12.9777464 21.1154237 12.8740227 21.3735108 12.8219115 21.6830166 12.7698003 21.9411037 12.7179385 22.0958566 12.7179385 22.1991909 12.7698003 22.3539438 12.7698003 22.5086967 12.7698003 22.663698 12.8219115 22.8184509 12.8219115 22.9734522 12.8740227 23.1282051 12.9258845 23.1282051 11.1590911 23.0248709 11.1590911 22.9734522 11.10698 22.870118 11.10698 22.7670322 11.0551181 22.7153651 11.0551181 22.6120309 11.0551181 22.1475237 11.0551181 21.8894366 11.0551181 21.6830166 11.10698 21.4765966 11.1590911 21.2185095 11.210953 21.0123379 11.314926 20.7542507 11.3667878 20.5475823 11.522872 20.3411623 11.6265957 20.1347423 11.7305688 19.9799894 11.8864036 19.7735693 12.0943497 19.5671493 12.2501845 19.4123964 12.4581306 19.2576435 12.6658273 19.1026422 12.8740227 19.1026422 11.314926"></polygon>
                        <polygon id="Shape" points="23.7589744 11.0551181 23.7589744 20.4094488 25.3934545 20.4094488 25.3934545 17.1354206 27.0281805 15.7840206 30.7571457 20.4094488 32.8 20.4094488 28.2540406 14.7969003 32.4936579 11.314926 30.0930767 11.314926 25.3934545 15.316516 25.3934545 11.0551181"></polygon>
                        <polygon id="Shape" points="33.9456444 17.3476519 32.1692308 17.3476519 32.219797 17.757074 32.321418 18.1151957 32.423039 18.4733173 32.5752263 18.7801385 32.7274136 19.0869596 32.9304113 19.3942717 33.1334091 19.5989828 33.4377836 19.8032029 33.6918362 20.007914 33.9964549 20.1618155 34.35164 20.3152261 34.706825 20.4173362 35.163631 20.5199372 35.5696266 20.5707467 36.0769988 20.6220472 36.5338049 20.6220472 37.0922319 20.6220472 37.5998485 20.5707467 38.0564103 20.5199372 38.4624058 20.4173362 38.8684013 20.3152261 39.2238306 20.1618155 39.5790156 20.007914 39.8833901 19.8545034 40.1371984 19.6497924 40.3910067 19.4455722 40.5940045 19.1895606 40.7461917 18.9335491 40.8478127 18.6780284 40.9491895 18.3707163 41 18.0130856 41 17.7057735 41 17.3989524 40.9491895 17.1429408 40.898379 16.8874201 40.8478127 16.682709 40.7461917 16.477998 40.6445707 16.2732869 40.4923834 16.1198763 40.3401962 15.9664657 40.1371984 15.8130552 39.9342007 15.7104542 39.6803924 15.6083441 39.4268284 15.5057431 39.1730201 15.403633 38.8175908 15.3015229 38.5132163 15.2502224 38.1580313 15.1989219 36.2294304 14.8408003 35.7726243 14.7894998 35.3666288 14.6873897 35.0111995 14.5852796 34.706825 14.4826786 34.5038272 14.329268 34.35164 14.124557 34.2502632 13.9198459 34.1994527 13.6130247 34.2502632 13.3570132 34.35164 13.1014925 34.5546377 12.8967814 34.808446 12.7431254 35.1128205 12.5897148 35.518816 12.4873593 35.9756221 12.4363042 36.5338049 12.3850037 36.8381794 12.3850037 37.0922319 12.4363042 37.3457959 12.4363042 37.5998485 12.4873593 37.8028463 12.5897148 38.005844 12.6407698 38.2088418 12.6920703 38.361029 12.7944259 38.5132163 12.8967814 38.6654036 12.999137 38.7670246 13.1525475 38.8684013 13.3059581 38.9700223 13.4596142 39.0208329 13.6130247 39.0713991 13.8177358 39.1222096 14.0224469 40.6445707 14.0224469 40.6445707 13.9711464 40.6445707 13.6130247 40.5940045 13.3059581 40.543194 12.999137 40.3910067 12.7431254 40.2385752 12.4363042 40.0863879 12.2315932 39.8833901 11.975827 39.6295819 11.7713614 39.3760179 11.6177054 39.0713991 11.4642948 38.7162141 11.3108842 38.361029 11.2085287 37.9550335 11.1574736 37.549038 11.1061732 37.0922319 11.0551181 36.5846154 11.0551181 36.1278093 11.0551181 35.6710033 11.1061732 35.2650078 11.1574736 34.8590122 11.2085287 34.5038272 11.3108842 34.1994527 11.4642948 33.8948339 11.6177054 33.6410256 11.7713614 33.3872174 11.975827 33.1842196 12.1805381 32.9812218 12.4363042 32.8287903 12.6920703 32.7274136 12.9478365 32.676603 13.2549031 32.6260368 13.5617242 32.5752263 13.9198459 32.6260368 14.1758575 32.6260368 14.4313781 32.7274136 14.6873897 32.7782241 14.9434013 32.9304113 15.0968118 33.0317881 15.3015229 33.1842196 15.4549335 33.3872174 15.6083441 33.5902151 15.7104542 33.8440234 15.8130552 34.0978317 15.9664657 34.35164 16.0177662 34.6560145 16.1198763 35.0111995 16.2219864 35.3666288 16.2732869 35.7218138 16.3245874 37.7520357 16.682709 38.1072208 16.7848191 38.4624058 16.8361196 38.7162141 16.9387206 38.9192118 17.0921312 39.1222096 17.1942413 39.2238306 17.3476519 39.3252074 17.5523629 39.3252074 17.8083745 39.3252074 17.9617851 39.2743969 18.1151957 39.2238306 18.2173057 39.1730201 18.3707163 39.0713991 18.4733173 38.9192118 18.5754274 38.7670246 18.7293289 38.6148373 18.7801385 38.4624058 18.8827395 38.2088418 18.9335491 38.005844 19.03615 37.7520357 19.0869596 37.4982275 19.1382601 37.1936087 19.1382601 36.8889899 19.1895606 36.2799966 19.1895606 36.0261883 19.1382601 35.7726243 19.0869596 35.518816 19.03615 35.2650078 18.9848496 35.0622543 18.8827395 34.9098227 18.7801385 34.706825 18.6780284 34.5546377 18.5754274 34.4024505 18.4220168 34.3008294 18.3199067 34.1994527 18.1151957 34.0978317 17.9617851 34.0470212 17.757074 33.9964549 17.5523629"></polygon>
                        <path d="M22.9436781,22.1102362 L22.5822239,22.1615537 L22.3239357,22.2128712 L22.0656476,22.3150152 L21.8590668,22.4684767 L21.7041934,22.6732556 L21.5493199,22.9293521 L21.4976126,23.1849575 L21.4461538,23.4923715 L21.4976126,23.7992944 L21.5493199,24.0548999 L21.7041934,24.3109963 L21.8590668,24.5157753 L22.0656476,24.6692368 L22.3239357,24.7713807 L22.5822239,24.8740157 L22.9436781,24.8740157 L23.253425,24.8740157 L23.5117131,24.7713807 L23.7700012,24.6692368 L23.976582,24.5157753 L24.1831628,24.3109963 L24.2865775,24.0548999 L24.3380362,23.7992944 L24.3897436,23.4923715 L24.3380362,23.1849575 L24.2865775,22.9293521 L24.1831628,22.6732556 L23.976582,22.4684767 L23.7700012,22.3150152 L23.5117131,22.2128712 L23.253425,22.1615537 L22.9436781,22.1102362 L22.9436781,22.1102362 L22.9436781,22.1102362 Z M22.9436781,24.5155298 L22.68539,24.5155298 L22.4788092,24.4642123 L22.272477,24.3620683 L22.117355,24.2594333 L22.0141889,24.1059718 L21.9107742,23.9525104 L21.8590668,23.7477314 L21.8590668,23.492126 L21.8590668,23.2360295 L21.9107742,23.0312505 L22.0141889,22.8777891 L22.117355,22.7243276 L22.272477,22.6216926 L22.4788092,22.5195486 L22.68539,22.4682311 L22.9436781,22.4682311 L23.1502589,22.4682311 L23.408547,22.5195486 L23.5634204,22.6216926 L23.7182939,22.7243276 L23.8217086,22.8777891 L23.9248747,23.0312505 L23.976582,23.2360295 L23.976582,23.492126 L23.976582,23.7477314 L23.9248747,23.9525104 L23.8217086,24.1059718 L23.7182939,24.2594333 L23.5634204,24.3620683 L23.408547,24.4642123 L23.1502589,24.5155298 L22.9436781,24.5155298 L22.9436781,24.5155298 L22.9436781,24.5155298 Z" id="Shape"></path>
                        <path d="M10.2117379,12.6587854 L10.263028,12.6587854 C10.8427538,12.5466043 11.3206391,12.4738716 11.8106072,12.4802819 C12.9259197,12.495075 13.9021571,12.6987267 13.900431,13.8405077 C13.8991981,14.5897783 13.3216916,14.9196644 12.4660352,14.9196644 C11.8133197,15.0505834 11.1253423,15.0631575 10.4585714,15.1420541 C9.35879393,15.2714937 8.1192017,15.3723334 7.33998717,16.2091298 C6.88429462,16.6987815 6.72820513,17.2493314 6.72820513,17.9002279 C6.72820513,18.8141951 6.99353261,19.3011347 7.58287524,19.8282622 C8.3014294,20.4702828 9.33561476,20.6039138 10.2810288,20.621419 C11.6064333,20.6445949 13.1697941,20.025257 13.9517211,18.9793847 C14.2140895,19.9009949 14.5183777,20.3667311 15.5397406,20.3667311 C15.9734869,20.3667311 16.3931778,20.3152018 16.8205128,20.3152018 L16.8205128,18.9793847 C16.5021692,19.0385571 16.2822137,19.0565554 16.1024518,18.9838226 C15.5846194,18.7747468 15.5397406,18.0957434 15.5397406,17.6946038 L15.5397406,14.0974145 C15.5397406,13.3957284 15.4563942,12.7694871 15.0273331,12.1960078 C14.4032217,11.4134527 13.4299433,11.2154717 12.4657886,11.1168511 C11.7667148,11.0453511 11.0656683,11.0243942 10.365115,11.1168511 C10.3653616,11.631651 10.4459955,12.1888578 10.2117379,12.6587854 L10.2117379,12.6587854 L10.2117379,12.6587854 Z M11.6976705,16.3072574 C12.1659389,16.3072574 13.5677853,16.0757453 13.9006776,15.7424075 L13.9006776,17.1297539 C13.9006776,17.9892331 13.171027,18.523264 12.4662818,18.8768192 C11.841184,19.1278088 11.1398909,19.2365381 10.4681883,19.2365381 C9.42611215,19.1204123 8.47009483,19.0410226 8.47009483,17.8491917 C8.47009483,17.1176728 8.94625408,16.7357642 9.80215713,16.5644108 C10.3776909,16.486747 11.1300275,16.4209177 11.6976705,16.3072574 L11.6976705,16.3072574 L11.6976705,16.3072574 Z" id="Shape"></path>
                        <path d="M7.10542736e-15,7.65354331 L7.10542736e-15,20.6220472 L1.92421996,20.6220472 L1.92421996,14.7782031 L4.98103651,14.7782031 C7.44121083,14.7782031 9.67179487,14.1488622 9.67179487,11.2416961 C9.67179487,8.28903246 7.47898842,7.65354331 4.96202585,7.65354331 L7.10542736e-15,7.65354331 L7.10542736e-15,7.65354331 L7.10542736e-15,7.65354331 Z M4.37001442,13.3431879 L1.92421996,13.3431879 L1.92421996,9.13995835 L4.86624137,9.13995835 C6.43583941,9.13995835 7.94986783,9.42597765 7.94986783,11.29285 C7.95011156,13.3926203 5.95911057,13.3431879 4.37001442,13.3431879 L4.37001442,13.3431879 L4.37001442,13.3431879 Z" id="Shape"></path>
                        <path d="M25.0205128,22.3228346 L25.0205128,25.0866142 L25.3649251,25.0866142 L25.3649251,23.9171463 L26.4969375,23.9171463 L26.5952394,23.9171463 L26.6445089,23.970443 L26.7428108,24.0237397 L26.7920803,24.0770365 L26.7920803,24.1831199 L26.8413497,24.2364166 L26.8413497,24.3957968 L26.8903823,24.8211506 L26.8903823,24.8739373 L26.8903823,24.9805307 L26.8903823,25.0333174 L26.9396517,25.0866142 L27.3333333,25.0866142 L27.2840639,24.9805307 L27.2840639,24.927234 L27.2840639,24.8211506 L27.2347945,24.7145571 L27.2347945,24.2892033 L27.1857619,24.1831199 L27.1857619,24.0770365 L27.1364925,23.970443 L27.1364925,23.9171463 L27.0872231,23.8643596 L26.9889211,23.8110629 L26.9396517,23.7577661 L26.8413497,23.7577661 L26.9396517,23.7049794 L27.0381905,23.6516827 L27.0872231,23.598386 L27.1364925,23.4923025 L27.1857619,23.4390058 L27.2347945,23.3324123 L27.2840639,23.2263289 L27.2840639,23.0669487 L27.2347945,22.9075686 L27.1857619,22.7481884 L27.1364925,22.641595 L27.0381905,22.5355115 L26.8903823,22.4289181 L26.7428108,22.3761314 L26.5952394,22.3228346 L26.3491292,22.3228346 L25.0205128,22.3228346 L25.0205128,22.3228346 L25.0205128,22.3228346 Z M25.3649251,22.641595 L26.3491292,22.641595 L26.4969375,22.6948917 L26.6445089,22.6948917 L26.7428108,22.7481884 L26.8413497,22.8009751 L26.8903823,22.9075686 L26.8903823,22.9608653 L26.8903823,23.1202455 L26.8903823,23.2263289 L26.8903823,23.3324123 L26.8413497,23.4390058 L26.7428108,23.4390058 L26.6445089,23.4923025 L26.54597,23.5450892 L26.3983986,23.5450892 L25.3649251,23.5450892 L25.3649251,22.641595 L25.3649251,22.641595 L25.3649251,22.641595 Z" id="Shape"></path>
                        <path d="M30.6286508,22.3228346 L29.4358974,25.0866142 L29.7839633,25.0866142 L30.1317898,24.2892033 L31.4735776,24.2892033 L31.7718855,25.0866142 L32.1692308,25.0866142 L31.0262353,22.3228346 L30.6286508,22.3228346 L30.6286508,22.3228346 L30.6286508,22.3228346 Z M31.324304,23.9171463 L30.2808242,23.9171463 L30.827443,22.7481884 L31.324304,23.9171463 L31.324304,23.9171463 L31.324304,23.9171463 Z" id="Shape"></path>
                    </g>
                </g>
            </g>
        </g>
    </g>
</svg>