<?xml version="1.0" encoding="UTF-8" standalone="no"?>
<svg width="52px" height="78px" viewBox="0 0 52 78" version="1.1" xmlns="http://www.w3.org/2000/svg" xmlns:xlink="http://www.w3.org/1999/xlink">
    <!-- Generator: Sketch 3.7.2 (28276) - http://www.bohemiancoding.com/sketch -->
    <title>Red Arrow</title>
    <desc>Created with Sketch.</desc>
    <defs></defs>
    <g id="Page-1" stroke="none" stroke-width="1" fill="none" fill-rule="evenodd">
        <g id="Red-Arrow" fill="#DB3833">
            <polyline id="Fill-2" points="18.0631574 49.1775371 25.4769133 77.6973646 25.7926927 77.6973646 33.2064486 49.1821832 18.0631574 49.1775371"></polyline>
            <path d="M51.2318764,26.7844778 C51.2318764,12.0514275 39.7716868,0.108410966 25.6351745,0.108410966 C11.4979192,0.108410966 0.0377296031,12.0514275 0.0377296031,26.7844778 C0.0377296031,41.5183023 11.4979192,53.4613189 25.6351745,53.4613189 C39.7716868,53.4613189 51.2318764,41.5183023 51.2318764,26.7844778 M20.6302577,19.6154155 C20.6302577,23.4183173 17.673077,26.5010605 14.0248969,26.5010605 C10.3759737,26.5010605 7.41879307,23.4183173 7.41879307,19.6154155 C7.41879307,15.813288 10.3759737,12.7313192 14.0248969,12.7313192 C17.673077,12.7313192 20.6302577,15.813288 20.6302577,19.6154155" id="Fill-4"></path>
        </g>
    </g>
</svg>