<?xml version="1.0" encoding="UTF-8" standalone="no"?>
<svg width="440px" height="63px" viewBox="0 0 440 63" version="1.1" xmlns="http://www.w3.org/2000/svg" xmlns:xlink="http://www.w3.org/1999/xlink">
    <!-- Generator: Sketch 3.8.3 (29802) - http://www.bohemiancoding.com/sketch -->
    <title>Rectangle 1</title>
    <desc>Created with Sketch.</desc>
    <defs>
        <radialGradient cx="0%" cy="0%" fx="0%" fy="0%" r="111.370742%" id="radialGradient-1">
            <stop stop-color="#284EF6" offset="0%"></stop>
            <stop stop-color="#FF0000" offset="100%"></stop>
        </radialGradient>
        <radialGradient cx="0.25781251%" cy="49.7500002%" fx="0.25781251%" fy="49.7500002%" r="101%" id="radialGradient-2">
            <stop stop-color="#3023AE" offset="0%"></stop>
            <stop stop-color="#53A0FE" offset="47.5247532%"></stop>
            <stop stop-color="#B4ED50" offset="100%"></stop>
        </radialGradient>
        <linearGradient x1="50%" y1="0%" x2="50%" y2="100%" id="linearGradient-3">
            <stop stop-color="#FBDA61" offset="0%"></stop>
            <stop stop-color="#F76B1C" offset="100%"></stop>
        </linearGradient>
    </defs>
    <g id="Page-1" stroke="none" stroke-width="1" fill="none" fill-rule="evenodd">
        <path d="M21.844,17.512 L38.296,17.512 L38.296,21.616 L26.38,21.616 L26.38,28.312 L37.612,28.312 L37.612,32.416 L26.38,32.416 L26.38,43 L21.844,43 L21.844,17.512 Z M42.184,25.72 L46.504,25.72 L46.504,43 L42.184,43 L42.184,25.72 Z M41.572,19.852 C41.572,19.1559965 41.8299974,18.5500026 42.346,18.034 C42.8620026,17.5179974 43.515996,17.26 44.308,17.26 C45.100004,17.26 45.7659973,17.5059975 46.306,17.998 C46.8460027,18.4900025 47.116,19.1079963 47.116,19.852 C47.116,20.5960037 46.8460027,21.2139975 46.306,21.706 C45.7659973,22.1980025 45.100004,22.444 44.308,22.444 C43.515996,22.444 42.8620026,22.1860026 42.346,21.67 C41.8299974,21.1539974 41.572,20.5480035 41.572,19.852 L41.572,19.852 Z M51.472,25.72 L55.576,25.72 L55.576,28.492 L55.648,28.492 C56.056002,27.6279957 56.6799958,26.8780032 57.52,26.242 C58.3600042,25.6059968 59.4999928,25.288 60.94,25.288 C62.0920058,25.288 63.069996,25.4799981 63.874,25.864 C64.678004,26.2480019 65.3319975,26.7519969 65.836,27.376 C66.3400025,28.0000031 66.6999989,28.7199959 66.916,29.536 C67.1320011,30.3520041 67.24,31.2039956 67.24,32.092 L67.24,43 L62.92,43 L62.92,34.252 C62.92,33.7719976 62.8960002,33.2380029 62.848,32.65 C62.7999998,32.0619971 62.674001,31.5100026 62.47,30.994 C62.265999,30.4779974 61.9480022,30.0460017 61.516,29.698 C61.0839978,29.3499983 60.4960037,29.176 59.752,29.176 C59.0319964,29.176 58.4260025,29.2959988 57.934,29.536 C57.4419975,29.7760012 57.0340016,30.099998 56.71,30.508 C56.3859984,30.916002 56.1520007,31.3839974 56.008,31.912 C55.8639993,32.4400026 55.792,32.9919971 55.792,33.568 L55.792,43 L51.472,43 L51.472,25.72 Z M72.136,25.72 L76.24,25.72 L76.24,28.492 L76.312,28.492 C76.720002,27.6279957 77.3439958,26.8780032 78.184,26.242 C79.0240042,25.6059968 80.1639928,25.288 81.604,25.288 C82.7560058,25.288 83.733996,25.4799981 84.538,25.864 C85.342004,26.2480019 85.9959975,26.7519969 86.5,27.376 C87.0040025,28.0000031 87.3639989,28.7199959 87.58,29.536 C87.7960011,30.3520041 87.904,31.2039956 87.904,32.092 L87.904,43 L83.584,43 L83.584,34.252 C83.584,33.7719976 83.5600002,33.2380029 83.512,32.65 C83.4639998,32.0619971 83.338001,31.5100026 83.134,30.994 C82.929999,30.4779974 82.6120022,30.0460017 82.18,29.698 C81.7479978,29.3499983 81.1600037,29.176 80.416,29.176 C79.6959964,29.176 79.0900025,29.2959988 78.598,29.536 C78.1059975,29.7760012 77.6980016,30.099998 77.374,30.508 C77.0499984,30.916002 76.8160007,31.3839974 76.672,31.912 C76.5279993,32.4400026 76.456,32.9919971 76.456,33.568 L76.456,43 L72.136,43 L72.136,25.72 Z M105.688,22.984 C105.207998,22.2879965 104.566004,21.7780016 103.762,21.454 C102.957996,21.1299984 102.112004,20.968 101.224,20.968 C100.695997,20.968 100.186002,21.0279994 99.694,21.148 C99.2019975,21.2680006 98.758002,21.4599987 98.362,21.724 C97.965998,21.9880013 97.6480012,22.3299979 97.408,22.75 C97.1679988,23.1700021 97.048,23.6679971 97.048,24.244 C97.048,25.1080043 97.347997,25.7679977 97.948,26.224 C98.548003,26.6800023 99.2919956,27.0759983 100.18,27.412 C101.068004,27.7480017 102.039995,28.0719984 103.096,28.384 C104.152005,28.6960016 105.123996,29.1279972 106.012,29.68 C106.900004,30.2320028 107.643997,30.9639954 108.244,31.876 C108.844003,32.7880046 109.144,33.9999924 109.144,35.512 C109.144,36.8800068 108.892003,38.0739949 108.388,39.094 C107.883997,40.1140051 107.206004,40.9599966 106.354,41.632 C105.501996,42.3040034 104.512006,42.8079983 103.384,43.144 C102.255994,43.4800017 101.068006,43.648 99.82,43.648 C98.2359921,43.648 96.7120073,43.3840026 95.248,42.856 C93.7839927,42.3279974 92.5240053,41.4400062 91.468,40.192 L94.888,36.88 C95.4400028,37.7200042 96.1659955,38.3739977 97.066,38.842 C97.9660045,39.3100023 98.919995,39.544 99.928,39.544 C100.456003,39.544 100.983997,39.4720007 101.512,39.328 C102.040003,39.1839993 102.519998,38.9680014 102.952,38.68 C103.384002,38.3919986 103.731999,38.0260022 103.996,37.582 C104.260001,37.1379978 104.392,36.6280029 104.392,36.052 C104.392,35.1159953 104.092003,34.3960025 103.492,33.892 C102.891997,33.3879975 102.148004,32.9620017 101.26,32.614 C100.371996,32.2659983 99.4000053,31.9360016 98.344,31.624 C97.2879947,31.3119984 96.3160044,30.8860027 95.428,30.346 C94.5399956,29.8059973 93.796003,29.0860045 93.196,28.186 C92.595997,27.2859955 92.296,26.0800076 92.296,24.568 C92.296,23.2479934 92.5659973,22.1080048 93.106,21.148 C93.6460027,20.1879952 94.3539956,19.3900032 95.23,18.754 C96.1060044,18.1179968 97.1079944,17.6440016 98.236,17.332 C99.3640056,17.0199984 100.515994,16.864 101.692,16.864 C103.036007,16.864 104.337994,17.067998 105.598,17.476 C106.858006,17.884002 107.991995,18.5559953 109,19.492 L105.688,22.984 Z M113.464,25.72 L117.568,25.72 L117.568,28.312 L117.64,28.312 C118.264003,27.2559947 119.103995,26.4880024 120.16,26.008 C121.216005,25.5279976 122.355994,25.288 123.58,25.288 C124.900007,25.288 126.087995,25.5219977 127.144,25.99 C128.200005,26.4580023 129.099996,27.0999959 129.844,27.916 C130.588004,28.7320041 131.151998,29.6919945 131.536,30.796 C131.920002,31.9000055 132.112,33.0879936 132.112,34.36 C132.112,35.6320064 131.908002,36.8199945 131.5,37.924 C131.091998,39.0280055 130.522004,39.9879959 129.79,40.804 C129.057996,41.6200041 128.176005,42.2619977 127.144,42.73 C126.111995,43.1980023 124.984006,43.432 123.76,43.432 C122.943996,43.432 122.224003,43.3480008 121.6,43.18 C120.975997,43.0119992 120.424002,42.7960013 119.944,42.532 C119.463998,42.2679987 119.056002,41.9860015 118.72,41.686 C118.383998,41.3859985 118.108001,41.0920014 117.892,40.804 L117.784,40.804 L117.784,51.208 L113.464,51.208 L113.464,25.72 Z M127.792,34.36 C127.792,33.6879966 127.678001,33.0400031 127.45,32.416 C127.221999,31.7919969 126.886002,31.2400024 126.442,30.76 C125.997998,30.2799976 125.464003,29.8960014 124.84,29.608 C124.215997,29.3199986 123.508004,29.176 122.716,29.176 C121.923996,29.176 121.216003,29.3199986 120.592,29.608 C119.967997,29.8960014 119.434002,30.2799976 118.99,30.76 C118.545998,31.2400024 118.210001,31.7919969 117.982,32.416 C117.753999,33.0400031 117.64,33.6879966 117.64,34.36 C117.64,35.0320034 117.753999,35.6799969 117.982,36.304 C118.210001,36.9280031 118.545998,37.4799976 118.99,37.96 C119.434002,38.4400024 119.967997,38.8239986 120.592,39.112 C121.216003,39.4000014 121.923996,39.544 122.716,39.544 C123.508004,39.544 124.215997,39.4000014 124.84,39.112 C125.464003,38.8239986 125.997998,38.4400024 126.442,37.96 C126.886002,37.4799976 127.221999,36.9280031 127.45,36.304 C127.678001,35.6799969 127.792,35.0320034 127.792,34.36 L127.792,34.36 Z M135.28,34.36 C135.28,32.9919932 135.525998,31.7500056 136.018,30.634 C136.510002,29.5179944 137.175996,28.564004 138.016,27.772 C138.856004,26.979996 139.851994,26.3680022 141.004,25.936 C142.156006,25.5039978 143.379994,25.288 144.676,25.288 C145.972006,25.288 147.195994,25.5039978 148.348,25.936 C149.500006,26.3680022 150.495996,26.979996 151.336,27.772 C152.176004,28.564004 152.841998,29.5179944 153.334,30.634 C153.826002,31.7500056 154.072,32.9919932 154.072,34.36 C154.072,35.7280068 153.826002,36.9699944 153.334,38.086 C152.841998,39.2020056 152.176004,40.155996 151.336,40.948 C150.495996,41.740004 149.500006,42.3519978 148.348,42.784 C147.195994,43.2160022 145.972006,43.432 144.676,43.432 C143.379994,43.432 142.156006,43.2160022 141.004,42.784 C139.851994,42.3519978 138.856004,41.740004 138.016,40.948 C137.175996,40.155996 136.510002,39.2020056 136.018,38.086 C135.525998,36.9699944 135.28,35.7280068 135.28,34.36 L135.28,34.36 Z M139.6,34.36 C139.6,35.0320034 139.713999,35.6799969 139.942,36.304 C140.170001,36.9280031 140.505998,37.4799976 140.95,37.96 C141.394002,38.4400024 141.927997,38.8239986 142.552,39.112 C143.176003,39.4000014 143.883996,39.544 144.676,39.544 C145.468004,39.544 146.175997,39.4000014 146.8,39.112 C147.424003,38.8239986 147.957998,38.4400024 148.402,37.96 C148.846002,37.4799976 149.181999,36.9280031 149.41,36.304 C149.638001,35.6799969 149.752,35.0320034 149.752,34.36 C149.752,33.6879966 149.638001,33.0400031 149.41,32.416 C149.181999,31.7919969 148.846002,31.2400024 148.402,30.76 C147.957998,30.2799976 147.424003,29.8960014 146.8,29.608 C146.175997,29.3199986 145.468004,29.176 144.676,29.176 C143.883996,29.176 143.176003,29.3199986 142.552,29.608 C141.927997,29.8960014 141.394002,30.2799976 140.95,30.76 C140.505998,31.2400024 140.170001,31.7919969 139.942,32.416 C139.713999,33.0400031 139.6,33.6879966 139.6,34.36 L139.6,34.36 Z M156.088,29.392 L156.088,25.72 L159.652,25.72 L159.652,20.716 L163.972,20.716 L163.972,25.72 L168.724,25.72 L168.724,29.392 L163.972,29.392 L163.972,36.952 C163.972,37.8160043 164.133998,38.4999975 164.458,39.004 C164.782002,39.5080025 165.423995,39.76 166.384,39.76 C166.768002,39.76 167.187998,39.7180004 167.644,39.634 C168.100002,39.5499996 168.459999,39.412001 168.724,39.22 L168.724,42.856 C168.267998,43.0720011 167.710003,43.2219996 167.05,43.306 C166.389997,43.3900004 165.808003,43.432 165.304,43.432 C164.151994,43.432 163.210004,43.3060013 162.478,43.054 C161.745996,42.8019987 161.170002,42.4180026 160.75,41.902 C160.329998,41.3859974 160.042001,40.7440038 159.886,39.976 C159.729999,39.2079962 159.652,38.320005 159.652,37.312 L159.652,29.392 L156.088,29.392 Z M177.148,35.008 L172.828,35.008 L172.828,17.512 L177.148,17.512 L177.148,35.008 Z M172.108,40.48 C172.108,39.7119962 172.389997,39.0520028 172.954,38.5 C173.518003,37.9479972 174.195996,37.672 174.988,37.672 C175.756004,37.672 176.427997,37.9359974 177.004,38.464 C177.580003,38.9920026 177.868,39.6399962 177.868,40.408 C177.868,41.1760038 177.586003,41.8359972 177.022,42.388 C176.457997,42.9400028 175.780004,43.216 174.988,43.216 C174.603998,43.216 174.238002,43.1440007 173.89,43 C173.541998,42.8559993 173.236001,42.6640012 172.972,42.424 C172.707999,42.1839988 172.498001,41.8960017 172.342,41.56 C172.185999,41.2239983 172.108,40.8640019 172.108,40.48 L172.108,40.48 Z M187.804,35.008 L183.484,35.008 L183.484,17.512 L187.804,17.512 L187.804,35.008 Z M182.764,40.48 C182.764,39.7119962 183.045997,39.0520028 183.61,38.5 C184.174003,37.9479972 184.851996,37.672 185.644,37.672 C186.412004,37.672 187.083997,37.9359974 187.66,38.464 C188.236003,38.9920026 188.524,39.6399962 188.524,40.408 C188.524,41.1760038 188.242003,41.8359972 187.678,42.388 C187.113997,42.9400028 186.436004,43.216 185.644,43.216 C185.259998,43.216 184.894002,43.1440007 184.546,43 C184.197998,42.8559993 183.892001,42.6640012 183.628,42.424 C183.363999,42.1839988 183.154001,41.8960017 182.998,41.56 C182.841999,41.2239983 182.764,40.8640019 182.764,40.48 L182.764,40.48 Z" id="FinnSpot!!" fill="url(#radialGradient-1)"></path>
        <g id="Group" transform="translate(220.000000, 7.000000)">
            <circle id="Oval-1" fill="url(#radialGradient-2)" cx="45.5" cy="31.5" r="18.5"></circle>
            <circle id="Oval-2" fill="url(#radialGradient-1)" cx="13.5" cy="13.5" r="13.5"></circle>
            <circle id="Oval-3" fill="url(#linearGradient-3)" cx="5.5" cy="37.5" r="5.5"></circle>
        </g>
    </g>
</svg>